%TF.GenerationSoftware,KiCad,Pcbnew,8.0.4-8.0.4-0~ubuntu24.04.1*%
%TF.CreationDate,2024-08-17T17:28:08+02:00*%
%TF.ProjectId,KSS-220A_Focus_Tracking_Flex,4b53532d-3232-4304-915f-466f6375735f,0.1*%
%TF.SameCoordinates,Original*%
%TF.FileFunction,Other,User*%
%FSLAX46Y46*%
G04 Gerber Fmt 4.6, Leading zero omitted, Abs format (unit mm)*
G04 Created by KiCad (PCBNEW 8.0.4-8.0.4-0~ubuntu24.04.1) date 2024-08-17 17:28:08*
%MOMM*%
%LPD*%
G01*
G04 APERTURE LIST*
%ADD10C,0.150000*%
G04 APERTURE END LIST*
D10*
X82986779Y-118769819D02*
X82986779Y-117769819D01*
X82986779Y-117769819D02*
X83367731Y-117769819D01*
X83367731Y-117769819D02*
X83462969Y-117817438D01*
X83462969Y-117817438D02*
X83510588Y-117865057D01*
X83510588Y-117865057D02*
X83558207Y-117960295D01*
X83558207Y-117960295D02*
X83558207Y-118103152D01*
X83558207Y-118103152D02*
X83510588Y-118198390D01*
X83510588Y-118198390D02*
X83462969Y-118246009D01*
X83462969Y-118246009D02*
X83367731Y-118293628D01*
X83367731Y-118293628D02*
X82986779Y-118293628D01*
X84129636Y-118769819D02*
X84034398Y-118722200D01*
X84034398Y-118722200D02*
X83986779Y-118626961D01*
X83986779Y-118626961D02*
X83986779Y-117769819D01*
X84939160Y-118769819D02*
X84939160Y-118246009D01*
X84939160Y-118246009D02*
X84891541Y-118150771D01*
X84891541Y-118150771D02*
X84796303Y-118103152D01*
X84796303Y-118103152D02*
X84605827Y-118103152D01*
X84605827Y-118103152D02*
X84510589Y-118150771D01*
X84939160Y-118722200D02*
X84843922Y-118769819D01*
X84843922Y-118769819D02*
X84605827Y-118769819D01*
X84605827Y-118769819D02*
X84510589Y-118722200D01*
X84510589Y-118722200D02*
X84462970Y-118626961D01*
X84462970Y-118626961D02*
X84462970Y-118531723D01*
X84462970Y-118531723D02*
X84510589Y-118436485D01*
X84510589Y-118436485D02*
X84605827Y-118388866D01*
X84605827Y-118388866D02*
X84843922Y-118388866D01*
X84843922Y-118388866D02*
X84939160Y-118341247D01*
X85843922Y-118722200D02*
X85748684Y-118769819D01*
X85748684Y-118769819D02*
X85558208Y-118769819D01*
X85558208Y-118769819D02*
X85462970Y-118722200D01*
X85462970Y-118722200D02*
X85415351Y-118674580D01*
X85415351Y-118674580D02*
X85367732Y-118579342D01*
X85367732Y-118579342D02*
X85367732Y-118293628D01*
X85367732Y-118293628D02*
X85415351Y-118198390D01*
X85415351Y-118198390D02*
X85462970Y-118150771D01*
X85462970Y-118150771D02*
X85558208Y-118103152D01*
X85558208Y-118103152D02*
X85748684Y-118103152D01*
X85748684Y-118103152D02*
X85843922Y-118150771D01*
X86653446Y-118722200D02*
X86558208Y-118769819D01*
X86558208Y-118769819D02*
X86367732Y-118769819D01*
X86367732Y-118769819D02*
X86272494Y-118722200D01*
X86272494Y-118722200D02*
X86224875Y-118626961D01*
X86224875Y-118626961D02*
X86224875Y-118246009D01*
X86224875Y-118246009D02*
X86272494Y-118150771D01*
X86272494Y-118150771D02*
X86367732Y-118103152D01*
X86367732Y-118103152D02*
X86558208Y-118103152D01*
X86558208Y-118103152D02*
X86653446Y-118150771D01*
X86653446Y-118150771D02*
X86701065Y-118246009D01*
X86701065Y-118246009D02*
X86701065Y-118341247D01*
X86701065Y-118341247D02*
X86224875Y-118436485D01*
X88082018Y-117769819D02*
X88177256Y-117769819D01*
X88177256Y-117769819D02*
X88272494Y-117817438D01*
X88272494Y-117817438D02*
X88320113Y-117865057D01*
X88320113Y-117865057D02*
X88367732Y-117960295D01*
X88367732Y-117960295D02*
X88415351Y-118150771D01*
X88415351Y-118150771D02*
X88415351Y-118388866D01*
X88415351Y-118388866D02*
X88367732Y-118579342D01*
X88367732Y-118579342D02*
X88320113Y-118674580D01*
X88320113Y-118674580D02*
X88272494Y-118722200D01*
X88272494Y-118722200D02*
X88177256Y-118769819D01*
X88177256Y-118769819D02*
X88082018Y-118769819D01*
X88082018Y-118769819D02*
X87986780Y-118722200D01*
X87986780Y-118722200D02*
X87939161Y-118674580D01*
X87939161Y-118674580D02*
X87891542Y-118579342D01*
X87891542Y-118579342D02*
X87843923Y-118388866D01*
X87843923Y-118388866D02*
X87843923Y-118150771D01*
X87843923Y-118150771D02*
X87891542Y-117960295D01*
X87891542Y-117960295D02*
X87939161Y-117865057D01*
X87939161Y-117865057D02*
X87986780Y-117817438D01*
X87986780Y-117817438D02*
X88082018Y-117769819D01*
X88843923Y-118674580D02*
X88891542Y-118722200D01*
X88891542Y-118722200D02*
X88843923Y-118769819D01*
X88843923Y-118769819D02*
X88796304Y-118722200D01*
X88796304Y-118722200D02*
X88843923Y-118674580D01*
X88843923Y-118674580D02*
X88843923Y-118769819D01*
X89272494Y-117865057D02*
X89320113Y-117817438D01*
X89320113Y-117817438D02*
X89415351Y-117769819D01*
X89415351Y-117769819D02*
X89653446Y-117769819D01*
X89653446Y-117769819D02*
X89748684Y-117817438D01*
X89748684Y-117817438D02*
X89796303Y-117865057D01*
X89796303Y-117865057D02*
X89843922Y-117960295D01*
X89843922Y-117960295D02*
X89843922Y-118055533D01*
X89843922Y-118055533D02*
X89796303Y-118198390D01*
X89796303Y-118198390D02*
X89224875Y-118769819D01*
X89224875Y-118769819D02*
X89843922Y-118769819D01*
X90272494Y-118769819D02*
X90272494Y-118103152D01*
X90272494Y-118198390D02*
X90320113Y-118150771D01*
X90320113Y-118150771D02*
X90415351Y-118103152D01*
X90415351Y-118103152D02*
X90558208Y-118103152D01*
X90558208Y-118103152D02*
X90653446Y-118150771D01*
X90653446Y-118150771D02*
X90701065Y-118246009D01*
X90701065Y-118246009D02*
X90701065Y-118769819D01*
X90701065Y-118246009D02*
X90748684Y-118150771D01*
X90748684Y-118150771D02*
X90843922Y-118103152D01*
X90843922Y-118103152D02*
X90986779Y-118103152D01*
X90986779Y-118103152D02*
X91082018Y-118150771D01*
X91082018Y-118150771D02*
X91129637Y-118246009D01*
X91129637Y-118246009D02*
X91129637Y-118769819D01*
X91605827Y-118769819D02*
X91605827Y-118103152D01*
X91605827Y-118198390D02*
X91653446Y-118150771D01*
X91653446Y-118150771D02*
X91748684Y-118103152D01*
X91748684Y-118103152D02*
X91891541Y-118103152D01*
X91891541Y-118103152D02*
X91986779Y-118150771D01*
X91986779Y-118150771D02*
X92034398Y-118246009D01*
X92034398Y-118246009D02*
X92034398Y-118769819D01*
X92034398Y-118246009D02*
X92082017Y-118150771D01*
X92082017Y-118150771D02*
X92177255Y-118103152D01*
X92177255Y-118103152D02*
X92320112Y-118103152D01*
X92320112Y-118103152D02*
X92415351Y-118150771D01*
X92415351Y-118150771D02*
X92462970Y-118246009D01*
X92462970Y-118246009D02*
X92462970Y-118769819D01*
X93653446Y-118722200D02*
X93748684Y-118769819D01*
X93748684Y-118769819D02*
X93939160Y-118769819D01*
X93939160Y-118769819D02*
X94034398Y-118722200D01*
X94034398Y-118722200D02*
X94082017Y-118626961D01*
X94082017Y-118626961D02*
X94082017Y-118579342D01*
X94082017Y-118579342D02*
X94034398Y-118484104D01*
X94034398Y-118484104D02*
X93939160Y-118436485D01*
X93939160Y-118436485D02*
X93796303Y-118436485D01*
X93796303Y-118436485D02*
X93701065Y-118388866D01*
X93701065Y-118388866D02*
X93653446Y-118293628D01*
X93653446Y-118293628D02*
X93653446Y-118246009D01*
X93653446Y-118246009D02*
X93701065Y-118150771D01*
X93701065Y-118150771D02*
X93796303Y-118103152D01*
X93796303Y-118103152D02*
X93939160Y-118103152D01*
X93939160Y-118103152D02*
X94034398Y-118150771D01*
X94367732Y-118103152D02*
X94748684Y-118103152D01*
X94510589Y-117769819D02*
X94510589Y-118626961D01*
X94510589Y-118626961D02*
X94558208Y-118722200D01*
X94558208Y-118722200D02*
X94653446Y-118769819D01*
X94653446Y-118769819D02*
X94748684Y-118769819D01*
X95082018Y-118769819D02*
X95082018Y-118103152D01*
X95082018Y-117769819D02*
X95034399Y-117817438D01*
X95034399Y-117817438D02*
X95082018Y-117865057D01*
X95082018Y-117865057D02*
X95129637Y-117817438D01*
X95129637Y-117817438D02*
X95082018Y-117769819D01*
X95082018Y-117769819D02*
X95082018Y-117865057D01*
X95415351Y-118103152D02*
X95796303Y-118103152D01*
X95558208Y-118769819D02*
X95558208Y-117912676D01*
X95558208Y-117912676D02*
X95605827Y-117817438D01*
X95605827Y-117817438D02*
X95701065Y-117769819D01*
X95701065Y-117769819D02*
X95796303Y-117769819D01*
X95986780Y-118103152D02*
X96367732Y-118103152D01*
X96129637Y-118769819D02*
X96129637Y-117912676D01*
X96129637Y-117912676D02*
X96177256Y-117817438D01*
X96177256Y-117817438D02*
X96272494Y-117769819D01*
X96272494Y-117769819D02*
X96367732Y-117769819D01*
X97082018Y-118722200D02*
X96986780Y-118769819D01*
X96986780Y-118769819D02*
X96796304Y-118769819D01*
X96796304Y-118769819D02*
X96701066Y-118722200D01*
X96701066Y-118722200D02*
X96653447Y-118626961D01*
X96653447Y-118626961D02*
X96653447Y-118246009D01*
X96653447Y-118246009D02*
X96701066Y-118150771D01*
X96701066Y-118150771D02*
X96796304Y-118103152D01*
X96796304Y-118103152D02*
X96986780Y-118103152D01*
X96986780Y-118103152D02*
X97082018Y-118150771D01*
X97082018Y-118150771D02*
X97129637Y-118246009D01*
X97129637Y-118246009D02*
X97129637Y-118341247D01*
X97129637Y-118341247D02*
X96653447Y-118436485D01*
X97558209Y-118103152D02*
X97558209Y-118769819D01*
X97558209Y-118198390D02*
X97605828Y-118150771D01*
X97605828Y-118150771D02*
X97701066Y-118103152D01*
X97701066Y-118103152D02*
X97843923Y-118103152D01*
X97843923Y-118103152D02*
X97939161Y-118150771D01*
X97939161Y-118150771D02*
X97986780Y-118246009D01*
X97986780Y-118246009D02*
X97986780Y-118769819D01*
X98843923Y-118722200D02*
X98748685Y-118769819D01*
X98748685Y-118769819D02*
X98558209Y-118769819D01*
X98558209Y-118769819D02*
X98462971Y-118722200D01*
X98462971Y-118722200D02*
X98415352Y-118626961D01*
X98415352Y-118626961D02*
X98415352Y-118246009D01*
X98415352Y-118246009D02*
X98462971Y-118150771D01*
X98462971Y-118150771D02*
X98558209Y-118103152D01*
X98558209Y-118103152D02*
X98748685Y-118103152D01*
X98748685Y-118103152D02*
X98843923Y-118150771D01*
X98843923Y-118150771D02*
X98891542Y-118246009D01*
X98891542Y-118246009D02*
X98891542Y-118341247D01*
X98891542Y-118341247D02*
X98415352Y-118436485D01*
X99320114Y-118769819D02*
X99320114Y-118103152D01*
X99320114Y-118293628D02*
X99367733Y-118198390D01*
X99367733Y-118198390D02*
X99415352Y-118150771D01*
X99415352Y-118150771D02*
X99510590Y-118103152D01*
X99510590Y-118103152D02*
X99605828Y-118103152D01*
X100843924Y-118769819D02*
X100748686Y-118722200D01*
X100748686Y-118722200D02*
X100701067Y-118674580D01*
X100701067Y-118674580D02*
X100653448Y-118579342D01*
X100653448Y-118579342D02*
X100653448Y-118293628D01*
X100653448Y-118293628D02*
X100701067Y-118198390D01*
X100701067Y-118198390D02*
X100748686Y-118150771D01*
X100748686Y-118150771D02*
X100843924Y-118103152D01*
X100843924Y-118103152D02*
X100986781Y-118103152D01*
X100986781Y-118103152D02*
X101082019Y-118150771D01*
X101082019Y-118150771D02*
X101129638Y-118198390D01*
X101129638Y-118198390D02*
X101177257Y-118293628D01*
X101177257Y-118293628D02*
X101177257Y-118579342D01*
X101177257Y-118579342D02*
X101129638Y-118674580D01*
X101129638Y-118674580D02*
X101082019Y-118722200D01*
X101082019Y-118722200D02*
X100986781Y-118769819D01*
X100986781Y-118769819D02*
X100843924Y-118769819D01*
X101605829Y-118103152D02*
X101605829Y-118769819D01*
X101605829Y-118198390D02*
X101653448Y-118150771D01*
X101653448Y-118150771D02*
X101748686Y-118103152D01*
X101748686Y-118103152D02*
X101891543Y-118103152D01*
X101891543Y-118103152D02*
X101986781Y-118150771D01*
X101986781Y-118150771D02*
X102034400Y-118246009D01*
X102034400Y-118246009D02*
X102034400Y-118769819D01*
X103129639Y-118103152D02*
X103510591Y-118103152D01*
X103272496Y-117769819D02*
X103272496Y-118626961D01*
X103272496Y-118626961D02*
X103320115Y-118722200D01*
X103320115Y-118722200D02*
X103415353Y-118769819D01*
X103415353Y-118769819D02*
X103510591Y-118769819D01*
X103843925Y-118769819D02*
X103843925Y-117769819D01*
X104272496Y-118769819D02*
X104272496Y-118246009D01*
X104272496Y-118246009D02*
X104224877Y-118150771D01*
X104224877Y-118150771D02*
X104129639Y-118103152D01*
X104129639Y-118103152D02*
X103986782Y-118103152D01*
X103986782Y-118103152D02*
X103891544Y-118150771D01*
X103891544Y-118150771D02*
X103843925Y-118198390D01*
X105129639Y-118722200D02*
X105034401Y-118769819D01*
X105034401Y-118769819D02*
X104843925Y-118769819D01*
X104843925Y-118769819D02*
X104748687Y-118722200D01*
X104748687Y-118722200D02*
X104701068Y-118626961D01*
X104701068Y-118626961D02*
X104701068Y-118246009D01*
X104701068Y-118246009D02*
X104748687Y-118150771D01*
X104748687Y-118150771D02*
X104843925Y-118103152D01*
X104843925Y-118103152D02*
X105034401Y-118103152D01*
X105034401Y-118103152D02*
X105129639Y-118150771D01*
X105129639Y-118150771D02*
X105177258Y-118246009D01*
X105177258Y-118246009D02*
X105177258Y-118341247D01*
X105177258Y-118341247D02*
X104701068Y-118436485D01*
X106367735Y-118769819D02*
X106367735Y-117769819D01*
X106367735Y-118150771D02*
X106462973Y-118103152D01*
X106462973Y-118103152D02*
X106653449Y-118103152D01*
X106653449Y-118103152D02*
X106748687Y-118150771D01*
X106748687Y-118150771D02*
X106796306Y-118198390D01*
X106796306Y-118198390D02*
X106843925Y-118293628D01*
X106843925Y-118293628D02*
X106843925Y-118579342D01*
X106843925Y-118579342D02*
X106796306Y-118674580D01*
X106796306Y-118674580D02*
X106748687Y-118722200D01*
X106748687Y-118722200D02*
X106653449Y-118769819D01*
X106653449Y-118769819D02*
X106462973Y-118769819D01*
X106462973Y-118769819D02*
X106367735Y-118722200D01*
X107415354Y-118769819D02*
X107320116Y-118722200D01*
X107320116Y-118722200D02*
X107272497Y-118674580D01*
X107272497Y-118674580D02*
X107224878Y-118579342D01*
X107224878Y-118579342D02*
X107224878Y-118293628D01*
X107224878Y-118293628D02*
X107272497Y-118198390D01*
X107272497Y-118198390D02*
X107320116Y-118150771D01*
X107320116Y-118150771D02*
X107415354Y-118103152D01*
X107415354Y-118103152D02*
X107558211Y-118103152D01*
X107558211Y-118103152D02*
X107653449Y-118150771D01*
X107653449Y-118150771D02*
X107701068Y-118198390D01*
X107701068Y-118198390D02*
X107748687Y-118293628D01*
X107748687Y-118293628D02*
X107748687Y-118579342D01*
X107748687Y-118579342D02*
X107701068Y-118674580D01*
X107701068Y-118674580D02*
X107653449Y-118722200D01*
X107653449Y-118722200D02*
X107558211Y-118769819D01*
X107558211Y-118769819D02*
X107415354Y-118769819D01*
X108034402Y-118103152D02*
X108415354Y-118103152D01*
X108177259Y-117769819D02*
X108177259Y-118626961D01*
X108177259Y-118626961D02*
X108224878Y-118722200D01*
X108224878Y-118722200D02*
X108320116Y-118769819D01*
X108320116Y-118769819D02*
X108415354Y-118769819D01*
X108605831Y-118103152D02*
X108986783Y-118103152D01*
X108748688Y-117769819D02*
X108748688Y-118626961D01*
X108748688Y-118626961D02*
X108796307Y-118722200D01*
X108796307Y-118722200D02*
X108891545Y-118769819D01*
X108891545Y-118769819D02*
X108986783Y-118769819D01*
X109462974Y-118769819D02*
X109367736Y-118722200D01*
X109367736Y-118722200D02*
X109320117Y-118674580D01*
X109320117Y-118674580D02*
X109272498Y-118579342D01*
X109272498Y-118579342D02*
X109272498Y-118293628D01*
X109272498Y-118293628D02*
X109320117Y-118198390D01*
X109320117Y-118198390D02*
X109367736Y-118150771D01*
X109367736Y-118150771D02*
X109462974Y-118103152D01*
X109462974Y-118103152D02*
X109605831Y-118103152D01*
X109605831Y-118103152D02*
X109701069Y-118150771D01*
X109701069Y-118150771D02*
X109748688Y-118198390D01*
X109748688Y-118198390D02*
X109796307Y-118293628D01*
X109796307Y-118293628D02*
X109796307Y-118579342D01*
X109796307Y-118579342D02*
X109748688Y-118674580D01*
X109748688Y-118674580D02*
X109701069Y-118722200D01*
X109701069Y-118722200D02*
X109605831Y-118769819D01*
X109605831Y-118769819D02*
X109462974Y-118769819D01*
X110224879Y-118769819D02*
X110224879Y-118103152D01*
X110224879Y-118198390D02*
X110272498Y-118150771D01*
X110272498Y-118150771D02*
X110367736Y-118103152D01*
X110367736Y-118103152D02*
X110510593Y-118103152D01*
X110510593Y-118103152D02*
X110605831Y-118150771D01*
X110605831Y-118150771D02*
X110653450Y-118246009D01*
X110653450Y-118246009D02*
X110653450Y-118769819D01*
X110653450Y-118246009D02*
X110701069Y-118150771D01*
X110701069Y-118150771D02*
X110796307Y-118103152D01*
X110796307Y-118103152D02*
X110939164Y-118103152D01*
X110939164Y-118103152D02*
X111034403Y-118150771D01*
X111034403Y-118150771D02*
X111082022Y-118246009D01*
X111082022Y-118246009D02*
X111082022Y-118769819D01*
G36*
X81458059Y-111601061D02*
G01*
X81563223Y-111614906D01*
X81594491Y-111623284D01*
X81684918Y-111660740D01*
X81712951Y-111676925D01*
X81790601Y-111736508D01*
X81813491Y-111759398D01*
X81873074Y-111837048D01*
X81889259Y-111865081D01*
X81926715Y-111955508D01*
X81935093Y-111986775D01*
X81948939Y-112091939D01*
X81950000Y-112108125D01*
X81950000Y-114875999D01*
X81930315Y-114943038D01*
X81877511Y-114988793D01*
X81826000Y-114999999D01*
X81808169Y-114999999D01*
X81799984Y-115000065D01*
X81791871Y-115000263D01*
X81767216Y-115001069D01*
X81734726Y-115003998D01*
X81734716Y-115003999D01*
X81702818Y-115010616D01*
X81702762Y-115010629D01*
X81671152Y-115019100D01*
X81609473Y-115040036D01*
X81609467Y-115040039D01*
X81560186Y-115064342D01*
X81554341Y-115066651D01*
X81496928Y-115105012D01*
X81496920Y-115105019D01*
X81447958Y-115147958D01*
X81405019Y-115196920D01*
X81405012Y-115196928D01*
X81366651Y-115254341D01*
X81364342Y-115260186D01*
X81340039Y-115309467D01*
X81340036Y-115309473D01*
X81319100Y-115371152D01*
X81310629Y-115402762D01*
X81310616Y-115402818D01*
X81304001Y-115434710D01*
X81303997Y-115434734D01*
X81301069Y-115467214D01*
X81299999Y-115499999D01*
X81299999Y-115524661D01*
X81300000Y-115524666D01*
X81300000Y-119539638D01*
X81299994Y-119540846D01*
X81299917Y-119548749D01*
X81299869Y-119551184D01*
X81299632Y-119559247D01*
X81299591Y-119560448D01*
X81298782Y-119581143D01*
X81298156Y-119589647D01*
X81295745Y-119611914D01*
X81292750Y-119628694D01*
X81287309Y-119650417D01*
X81284957Y-119658603D01*
X81276849Y-119683560D01*
X81273478Y-119692700D01*
X81252220Y-119744020D01*
X81243386Y-119761357D01*
X81216911Y-119804559D01*
X81205474Y-119820299D01*
X81172574Y-119858820D01*
X81158815Y-119872580D01*
X81120297Y-119905477D01*
X81104555Y-119916914D01*
X81061354Y-119943387D01*
X81044020Y-119952219D01*
X80992701Y-119973477D01*
X80983560Y-119976849D01*
X80958603Y-119984957D01*
X80950417Y-119987309D01*
X80928694Y-119992750D01*
X80911914Y-119995745D01*
X80889647Y-119998156D01*
X80881143Y-119998782D01*
X80860448Y-119999591D01*
X80859247Y-119999632D01*
X80851184Y-119999869D01*
X80848749Y-119999917D01*
X80840846Y-119999994D01*
X80839638Y-120000000D01*
X75460362Y-120000000D01*
X75459154Y-119999994D01*
X75451250Y-119999917D01*
X75448815Y-119999869D01*
X75440752Y-119999632D01*
X75439551Y-119999591D01*
X75418856Y-119998782D01*
X75410352Y-119998156D01*
X75388085Y-119995745D01*
X75371305Y-119992750D01*
X75349582Y-119987309D01*
X75341396Y-119984957D01*
X75316439Y-119976849D01*
X75307299Y-119973478D01*
X75255979Y-119952220D01*
X75238642Y-119943386D01*
X75195440Y-119916911D01*
X75179700Y-119905474D01*
X75141179Y-119872574D01*
X75127419Y-119858814D01*
X75094524Y-119820298D01*
X75083088Y-119804559D01*
X75056613Y-119761357D01*
X75047779Y-119744020D01*
X75026521Y-119692700D01*
X75023150Y-119683560D01*
X75015042Y-119658603D01*
X75012690Y-119650417D01*
X75007249Y-119628694D01*
X75004254Y-119611914D01*
X75001843Y-119589647D01*
X75001217Y-119581143D01*
X75000408Y-119560448D01*
X75000367Y-119559247D01*
X75000130Y-119551184D01*
X75000082Y-119548733D01*
X75000006Y-119540830D01*
X75000000Y-119539638D01*
X75000000Y-112108125D01*
X75001061Y-112091940D01*
X75014906Y-111986776D01*
X75023284Y-111955508D01*
X75060740Y-111865081D01*
X75076925Y-111837048D01*
X75136508Y-111759398D01*
X75159398Y-111736508D01*
X75237048Y-111676925D01*
X75265081Y-111660740D01*
X75355508Y-111623284D01*
X75386776Y-111614906D01*
X75491941Y-111601061D01*
X75508126Y-111600000D01*
X81441874Y-111600000D01*
X81458059Y-111601061D01*
G37*
M02*
