%TF.GenerationSoftware,KiCad,Pcbnew,8.0.4-8.0.4-0~ubuntu24.04.1*%
%TF.CreationDate,2024-08-17T18:05:15+02:00*%
%TF.ProjectId,KSS-220A_Lens_Flex,4b53532d-3232-4304-915f-4c656e735f46,0.1*%
%TF.SameCoordinates,Original*%
%TF.FileFunction,Legend,Top*%
%TF.FilePolarity,Positive*%
%FSLAX46Y46*%
G04 Gerber Fmt 4.6, Leading zero omitted, Abs format (unit mm)*
G04 Created by KiCad (PCBNEW 8.0.4-8.0.4-0~ubuntu24.04.1) date 2024-08-17 18:05:15*
%MOMM*%
%LPD*%
G01*
G04 APERTURE LIST*
%ADD10C,0.150000*%
%ADD11C,0.120000*%
G04 APERTURE END LIST*
D10*
X93154819Y-50095238D02*
X92678628Y-50428571D01*
X93154819Y-50666666D02*
X92154819Y-50666666D01*
X92154819Y-50666666D02*
X92154819Y-50285714D01*
X92154819Y-50285714D02*
X92202438Y-50190476D01*
X92202438Y-50190476D02*
X92250057Y-50142857D01*
X92250057Y-50142857D02*
X92345295Y-50095238D01*
X92345295Y-50095238D02*
X92488152Y-50095238D01*
X92488152Y-50095238D02*
X92583390Y-50142857D01*
X92583390Y-50142857D02*
X92631009Y-50190476D01*
X92631009Y-50190476D02*
X92678628Y-50285714D01*
X92678628Y-50285714D02*
X92678628Y-50666666D01*
X92154819Y-49809523D02*
X93154819Y-49476190D01*
X93154819Y-49476190D02*
X92154819Y-49142857D01*
X93154819Y-48285714D02*
X93154819Y-48857142D01*
X93154819Y-48571428D02*
X92154819Y-48571428D01*
X92154819Y-48571428D02*
X92297676Y-48666666D01*
X92297676Y-48666666D02*
X92392914Y-48761904D01*
X92392914Y-48761904D02*
X92440533Y-48857142D01*
X95854819Y-46838094D02*
X94854819Y-46838094D01*
X94854819Y-46838094D02*
X94854819Y-46599999D01*
X94854819Y-46599999D02*
X94902438Y-46457142D01*
X94902438Y-46457142D02*
X94997676Y-46361904D01*
X94997676Y-46361904D02*
X95092914Y-46314285D01*
X95092914Y-46314285D02*
X95283390Y-46266666D01*
X95283390Y-46266666D02*
X95426247Y-46266666D01*
X95426247Y-46266666D02*
X95616723Y-46314285D01*
X95616723Y-46314285D02*
X95711961Y-46361904D01*
X95711961Y-46361904D02*
X95807200Y-46457142D01*
X95807200Y-46457142D02*
X95854819Y-46599999D01*
X95854819Y-46599999D02*
X95854819Y-46838094D01*
X95854819Y-45314285D02*
X95854819Y-45885713D01*
X95854819Y-45599999D02*
X94854819Y-45599999D01*
X94854819Y-45599999D02*
X94997676Y-45695237D01*
X94997676Y-45695237D02*
X95092914Y-45790475D01*
X95092914Y-45790475D02*
X95140533Y-45885713D01*
X93704819Y-47511904D02*
X92704819Y-47511904D01*
X93181009Y-47511904D02*
X93181009Y-46940476D01*
X93704819Y-46940476D02*
X92704819Y-46940476D01*
X93704819Y-45940476D02*
X93704819Y-46511904D01*
X93704819Y-46226190D02*
X92704819Y-46226190D01*
X92704819Y-46226190D02*
X92847676Y-46321428D01*
X92847676Y-46321428D02*
X92942914Y-46416666D01*
X92942914Y-46416666D02*
X92990533Y-46511904D01*
X95309580Y-58740476D02*
X95357200Y-58788095D01*
X95357200Y-58788095D02*
X95404819Y-58930952D01*
X95404819Y-58930952D02*
X95404819Y-59026190D01*
X95404819Y-59026190D02*
X95357200Y-59169047D01*
X95357200Y-59169047D02*
X95261961Y-59264285D01*
X95261961Y-59264285D02*
X95166723Y-59311904D01*
X95166723Y-59311904D02*
X94976247Y-59359523D01*
X94976247Y-59359523D02*
X94833390Y-59359523D01*
X94833390Y-59359523D02*
X94642914Y-59311904D01*
X94642914Y-59311904D02*
X94547676Y-59264285D01*
X94547676Y-59264285D02*
X94452438Y-59169047D01*
X94452438Y-59169047D02*
X94404819Y-59026190D01*
X94404819Y-59026190D02*
X94404819Y-58930952D01*
X94404819Y-58930952D02*
X94452438Y-58788095D01*
X94452438Y-58788095D02*
X94500057Y-58740476D01*
X95404819Y-58311904D02*
X94404819Y-58311904D01*
X94404819Y-58311904D02*
X95404819Y-57740476D01*
X95404819Y-57740476D02*
X94404819Y-57740476D01*
X94404819Y-56788095D02*
X94404819Y-57264285D01*
X94404819Y-57264285D02*
X94881009Y-57311904D01*
X94881009Y-57311904D02*
X94833390Y-57264285D01*
X94833390Y-57264285D02*
X94785771Y-57169047D01*
X94785771Y-57169047D02*
X94785771Y-56930952D01*
X94785771Y-56930952D02*
X94833390Y-56835714D01*
X94833390Y-56835714D02*
X94881009Y-56788095D01*
X94881009Y-56788095D02*
X94976247Y-56740476D01*
X94976247Y-56740476D02*
X95214342Y-56740476D01*
X95214342Y-56740476D02*
X95309580Y-56788095D01*
X95309580Y-56788095D02*
X95357200Y-56835714D01*
X95357200Y-56835714D02*
X95404819Y-56930952D01*
X95404819Y-56930952D02*
X95404819Y-57169047D01*
X95404819Y-57169047D02*
X95357200Y-57264285D01*
X95357200Y-57264285D02*
X95309580Y-57311904D01*
X53209523Y-105809580D02*
X53161904Y-105857200D01*
X53161904Y-105857200D02*
X53019047Y-105904819D01*
X53019047Y-105904819D02*
X52923809Y-105904819D01*
X52923809Y-105904819D02*
X52780952Y-105857200D01*
X52780952Y-105857200D02*
X52685714Y-105761961D01*
X52685714Y-105761961D02*
X52638095Y-105666723D01*
X52638095Y-105666723D02*
X52590476Y-105476247D01*
X52590476Y-105476247D02*
X52590476Y-105333390D01*
X52590476Y-105333390D02*
X52638095Y-105142914D01*
X52638095Y-105142914D02*
X52685714Y-105047676D01*
X52685714Y-105047676D02*
X52780952Y-104952438D01*
X52780952Y-104952438D02*
X52923809Y-104904819D01*
X52923809Y-104904819D02*
X53019047Y-104904819D01*
X53019047Y-104904819D02*
X53161904Y-104952438D01*
X53161904Y-104952438D02*
X53209523Y-105000057D01*
X53638095Y-105904819D02*
X53638095Y-104904819D01*
X53638095Y-104904819D02*
X54209523Y-105904819D01*
X54209523Y-105904819D02*
X54209523Y-104904819D01*
X55114285Y-105238152D02*
X55114285Y-105904819D01*
X54876190Y-104857200D02*
X54638095Y-105571485D01*
X54638095Y-105571485D02*
X55257142Y-105571485D01*
X96066021Y-34892502D02*
X96066021Y-34959846D01*
X96066021Y-34959846D02*
X95998678Y-35094533D01*
X95998678Y-35094533D02*
X95931334Y-35161876D01*
X95931334Y-35161876D02*
X95796647Y-35229220D01*
X95796647Y-35229220D02*
X95661960Y-35229220D01*
X95661960Y-35229220D02*
X95560945Y-35195548D01*
X95560945Y-35195548D02*
X95392586Y-35094533D01*
X95392586Y-35094533D02*
X95291571Y-34993517D01*
X95291571Y-34993517D02*
X95190556Y-34825159D01*
X95190556Y-34825159D02*
X95156884Y-34724143D01*
X95156884Y-34724143D02*
X95156884Y-34589456D01*
X95156884Y-34589456D02*
X95224227Y-34454769D01*
X95224227Y-34454769D02*
X95291571Y-34387426D01*
X95291571Y-34387426D02*
X95426258Y-34320082D01*
X95426258Y-34320082D02*
X95493601Y-34320082D01*
X96436410Y-34656800D02*
X95729304Y-33949693D01*
X95729304Y-33949693D02*
X96840472Y-34252739D01*
X96840472Y-34252739D02*
X96133365Y-33545632D01*
X96402739Y-33276258D02*
X96840471Y-32838525D01*
X96840471Y-32838525D02*
X96874143Y-33343601D01*
X96874143Y-33343601D02*
X96975158Y-33242586D01*
X96975158Y-33242586D02*
X97076174Y-33208914D01*
X97076174Y-33208914D02*
X97143517Y-33208914D01*
X97143517Y-33208914D02*
X97244533Y-33242586D01*
X97244533Y-33242586D02*
X97412891Y-33410945D01*
X97412891Y-33410945D02*
X97446563Y-33511960D01*
X97446563Y-33511960D02*
X97446563Y-33579304D01*
X97446563Y-33579304D02*
X97412891Y-33680319D01*
X97412891Y-33680319D02*
X97210861Y-33882350D01*
X97210861Y-33882350D02*
X97109845Y-33916021D01*
X97109845Y-33916021D02*
X97042502Y-33916021D01*
D11*
%TO.C,D1*%
X96200000Y-50950000D02*
X98100000Y-50950000D01*
X96200000Y-50950000D02*
X96200000Y-48250000D01*
X98100000Y-50950000D02*
X98100000Y-48200000D01*
%TO.C,CN5*%
X93724962Y-62262040D02*
X93394962Y-62502040D01*
X93394962Y-62022040D01*
X93724962Y-62262040D01*
G36*
X93724962Y-62262040D02*
G01*
X93394962Y-62502040D01*
X93394962Y-62022040D01*
X93724962Y-62262040D01*
G37*
%TO.C,CN3*%
X98524050Y-36778356D02*
X98184639Y-36438944D01*
X98587689Y-36375305D01*
X98524050Y-36778356D01*
G36*
X98524050Y-36778356D02*
G01*
X98184639Y-36438944D01*
X98587689Y-36375305D01*
X98524050Y-36778356D01*
G37*
%TD*%
M02*
