%TF.GenerationSoftware,KiCad,Pcbnew,8.0.4-8.0.4-0~ubuntu24.04.1*%
%TF.CreationDate,2024-08-17T18:05:16+02:00*%
%TF.ProjectId,KSS-220A_Lens_Flex,4b53532d-3232-4304-915f-4c656e735f46,0.1*%
%TF.SameCoordinates,Original*%
%TF.FileFunction,Other,User*%
%FSLAX46Y46*%
G04 Gerber Fmt 4.6, Leading zero omitted, Abs format (unit mm)*
G04 Created by KiCad (PCBNEW 8.0.4-8.0.4-0~ubuntu24.04.1) date 2024-08-17 18:05:16*
%MOMM*%
%LPD*%
G01*
G04 APERTURE LIST*
%ADD10C,0.150000*%
G04 APERTURE END LIST*
D10*
X63586779Y-109869819D02*
X63586779Y-108869819D01*
X63586779Y-108869819D02*
X63967731Y-108869819D01*
X63967731Y-108869819D02*
X64062969Y-108917438D01*
X64062969Y-108917438D02*
X64110588Y-108965057D01*
X64110588Y-108965057D02*
X64158207Y-109060295D01*
X64158207Y-109060295D02*
X64158207Y-109203152D01*
X64158207Y-109203152D02*
X64110588Y-109298390D01*
X64110588Y-109298390D02*
X64062969Y-109346009D01*
X64062969Y-109346009D02*
X63967731Y-109393628D01*
X63967731Y-109393628D02*
X63586779Y-109393628D01*
X64729636Y-109869819D02*
X64634398Y-109822200D01*
X64634398Y-109822200D02*
X64586779Y-109726961D01*
X64586779Y-109726961D02*
X64586779Y-108869819D01*
X65539160Y-109869819D02*
X65539160Y-109346009D01*
X65539160Y-109346009D02*
X65491541Y-109250771D01*
X65491541Y-109250771D02*
X65396303Y-109203152D01*
X65396303Y-109203152D02*
X65205827Y-109203152D01*
X65205827Y-109203152D02*
X65110589Y-109250771D01*
X65539160Y-109822200D02*
X65443922Y-109869819D01*
X65443922Y-109869819D02*
X65205827Y-109869819D01*
X65205827Y-109869819D02*
X65110589Y-109822200D01*
X65110589Y-109822200D02*
X65062970Y-109726961D01*
X65062970Y-109726961D02*
X65062970Y-109631723D01*
X65062970Y-109631723D02*
X65110589Y-109536485D01*
X65110589Y-109536485D02*
X65205827Y-109488866D01*
X65205827Y-109488866D02*
X65443922Y-109488866D01*
X65443922Y-109488866D02*
X65539160Y-109441247D01*
X66443922Y-109822200D02*
X66348684Y-109869819D01*
X66348684Y-109869819D02*
X66158208Y-109869819D01*
X66158208Y-109869819D02*
X66062970Y-109822200D01*
X66062970Y-109822200D02*
X66015351Y-109774580D01*
X66015351Y-109774580D02*
X65967732Y-109679342D01*
X65967732Y-109679342D02*
X65967732Y-109393628D01*
X65967732Y-109393628D02*
X66015351Y-109298390D01*
X66015351Y-109298390D02*
X66062970Y-109250771D01*
X66062970Y-109250771D02*
X66158208Y-109203152D01*
X66158208Y-109203152D02*
X66348684Y-109203152D01*
X66348684Y-109203152D02*
X66443922Y-109250771D01*
X67253446Y-109822200D02*
X67158208Y-109869819D01*
X67158208Y-109869819D02*
X66967732Y-109869819D01*
X66967732Y-109869819D02*
X66872494Y-109822200D01*
X66872494Y-109822200D02*
X66824875Y-109726961D01*
X66824875Y-109726961D02*
X66824875Y-109346009D01*
X66824875Y-109346009D02*
X66872494Y-109250771D01*
X66872494Y-109250771D02*
X66967732Y-109203152D01*
X66967732Y-109203152D02*
X67158208Y-109203152D01*
X67158208Y-109203152D02*
X67253446Y-109250771D01*
X67253446Y-109250771D02*
X67301065Y-109346009D01*
X67301065Y-109346009D02*
X67301065Y-109441247D01*
X67301065Y-109441247D02*
X66824875Y-109536485D01*
X68682018Y-108869819D02*
X68777256Y-108869819D01*
X68777256Y-108869819D02*
X68872494Y-108917438D01*
X68872494Y-108917438D02*
X68920113Y-108965057D01*
X68920113Y-108965057D02*
X68967732Y-109060295D01*
X68967732Y-109060295D02*
X69015351Y-109250771D01*
X69015351Y-109250771D02*
X69015351Y-109488866D01*
X69015351Y-109488866D02*
X68967732Y-109679342D01*
X68967732Y-109679342D02*
X68920113Y-109774580D01*
X68920113Y-109774580D02*
X68872494Y-109822200D01*
X68872494Y-109822200D02*
X68777256Y-109869819D01*
X68777256Y-109869819D02*
X68682018Y-109869819D01*
X68682018Y-109869819D02*
X68586780Y-109822200D01*
X68586780Y-109822200D02*
X68539161Y-109774580D01*
X68539161Y-109774580D02*
X68491542Y-109679342D01*
X68491542Y-109679342D02*
X68443923Y-109488866D01*
X68443923Y-109488866D02*
X68443923Y-109250771D01*
X68443923Y-109250771D02*
X68491542Y-109060295D01*
X68491542Y-109060295D02*
X68539161Y-108965057D01*
X68539161Y-108965057D02*
X68586780Y-108917438D01*
X68586780Y-108917438D02*
X68682018Y-108869819D01*
X69443923Y-109774580D02*
X69491542Y-109822200D01*
X69491542Y-109822200D02*
X69443923Y-109869819D01*
X69443923Y-109869819D02*
X69396304Y-109822200D01*
X69396304Y-109822200D02*
X69443923Y-109774580D01*
X69443923Y-109774580D02*
X69443923Y-109869819D01*
X69872494Y-108965057D02*
X69920113Y-108917438D01*
X69920113Y-108917438D02*
X70015351Y-108869819D01*
X70015351Y-108869819D02*
X70253446Y-108869819D01*
X70253446Y-108869819D02*
X70348684Y-108917438D01*
X70348684Y-108917438D02*
X70396303Y-108965057D01*
X70396303Y-108965057D02*
X70443922Y-109060295D01*
X70443922Y-109060295D02*
X70443922Y-109155533D01*
X70443922Y-109155533D02*
X70396303Y-109298390D01*
X70396303Y-109298390D02*
X69824875Y-109869819D01*
X69824875Y-109869819D02*
X70443922Y-109869819D01*
X70872494Y-109869819D02*
X70872494Y-109203152D01*
X70872494Y-109298390D02*
X70920113Y-109250771D01*
X70920113Y-109250771D02*
X71015351Y-109203152D01*
X71015351Y-109203152D02*
X71158208Y-109203152D01*
X71158208Y-109203152D02*
X71253446Y-109250771D01*
X71253446Y-109250771D02*
X71301065Y-109346009D01*
X71301065Y-109346009D02*
X71301065Y-109869819D01*
X71301065Y-109346009D02*
X71348684Y-109250771D01*
X71348684Y-109250771D02*
X71443922Y-109203152D01*
X71443922Y-109203152D02*
X71586779Y-109203152D01*
X71586779Y-109203152D02*
X71682018Y-109250771D01*
X71682018Y-109250771D02*
X71729637Y-109346009D01*
X71729637Y-109346009D02*
X71729637Y-109869819D01*
X72205827Y-109869819D02*
X72205827Y-109203152D01*
X72205827Y-109298390D02*
X72253446Y-109250771D01*
X72253446Y-109250771D02*
X72348684Y-109203152D01*
X72348684Y-109203152D02*
X72491541Y-109203152D01*
X72491541Y-109203152D02*
X72586779Y-109250771D01*
X72586779Y-109250771D02*
X72634398Y-109346009D01*
X72634398Y-109346009D02*
X72634398Y-109869819D01*
X72634398Y-109346009D02*
X72682017Y-109250771D01*
X72682017Y-109250771D02*
X72777255Y-109203152D01*
X72777255Y-109203152D02*
X72920112Y-109203152D01*
X72920112Y-109203152D02*
X73015351Y-109250771D01*
X73015351Y-109250771D02*
X73062970Y-109346009D01*
X73062970Y-109346009D02*
X73062970Y-109869819D01*
X74253446Y-109822200D02*
X74348684Y-109869819D01*
X74348684Y-109869819D02*
X74539160Y-109869819D01*
X74539160Y-109869819D02*
X74634398Y-109822200D01*
X74634398Y-109822200D02*
X74682017Y-109726961D01*
X74682017Y-109726961D02*
X74682017Y-109679342D01*
X74682017Y-109679342D02*
X74634398Y-109584104D01*
X74634398Y-109584104D02*
X74539160Y-109536485D01*
X74539160Y-109536485D02*
X74396303Y-109536485D01*
X74396303Y-109536485D02*
X74301065Y-109488866D01*
X74301065Y-109488866D02*
X74253446Y-109393628D01*
X74253446Y-109393628D02*
X74253446Y-109346009D01*
X74253446Y-109346009D02*
X74301065Y-109250771D01*
X74301065Y-109250771D02*
X74396303Y-109203152D01*
X74396303Y-109203152D02*
X74539160Y-109203152D01*
X74539160Y-109203152D02*
X74634398Y-109250771D01*
X74967732Y-109203152D02*
X75348684Y-109203152D01*
X75110589Y-108869819D02*
X75110589Y-109726961D01*
X75110589Y-109726961D02*
X75158208Y-109822200D01*
X75158208Y-109822200D02*
X75253446Y-109869819D01*
X75253446Y-109869819D02*
X75348684Y-109869819D01*
X75682018Y-109869819D02*
X75682018Y-109203152D01*
X75682018Y-108869819D02*
X75634399Y-108917438D01*
X75634399Y-108917438D02*
X75682018Y-108965057D01*
X75682018Y-108965057D02*
X75729637Y-108917438D01*
X75729637Y-108917438D02*
X75682018Y-108869819D01*
X75682018Y-108869819D02*
X75682018Y-108965057D01*
X76015351Y-109203152D02*
X76396303Y-109203152D01*
X76158208Y-109869819D02*
X76158208Y-109012676D01*
X76158208Y-109012676D02*
X76205827Y-108917438D01*
X76205827Y-108917438D02*
X76301065Y-108869819D01*
X76301065Y-108869819D02*
X76396303Y-108869819D01*
X76586780Y-109203152D02*
X76967732Y-109203152D01*
X76729637Y-109869819D02*
X76729637Y-109012676D01*
X76729637Y-109012676D02*
X76777256Y-108917438D01*
X76777256Y-108917438D02*
X76872494Y-108869819D01*
X76872494Y-108869819D02*
X76967732Y-108869819D01*
X77682018Y-109822200D02*
X77586780Y-109869819D01*
X77586780Y-109869819D02*
X77396304Y-109869819D01*
X77396304Y-109869819D02*
X77301066Y-109822200D01*
X77301066Y-109822200D02*
X77253447Y-109726961D01*
X77253447Y-109726961D02*
X77253447Y-109346009D01*
X77253447Y-109346009D02*
X77301066Y-109250771D01*
X77301066Y-109250771D02*
X77396304Y-109203152D01*
X77396304Y-109203152D02*
X77586780Y-109203152D01*
X77586780Y-109203152D02*
X77682018Y-109250771D01*
X77682018Y-109250771D02*
X77729637Y-109346009D01*
X77729637Y-109346009D02*
X77729637Y-109441247D01*
X77729637Y-109441247D02*
X77253447Y-109536485D01*
X78158209Y-109203152D02*
X78158209Y-109869819D01*
X78158209Y-109298390D02*
X78205828Y-109250771D01*
X78205828Y-109250771D02*
X78301066Y-109203152D01*
X78301066Y-109203152D02*
X78443923Y-109203152D01*
X78443923Y-109203152D02*
X78539161Y-109250771D01*
X78539161Y-109250771D02*
X78586780Y-109346009D01*
X78586780Y-109346009D02*
X78586780Y-109869819D01*
X79443923Y-109822200D02*
X79348685Y-109869819D01*
X79348685Y-109869819D02*
X79158209Y-109869819D01*
X79158209Y-109869819D02*
X79062971Y-109822200D01*
X79062971Y-109822200D02*
X79015352Y-109726961D01*
X79015352Y-109726961D02*
X79015352Y-109346009D01*
X79015352Y-109346009D02*
X79062971Y-109250771D01*
X79062971Y-109250771D02*
X79158209Y-109203152D01*
X79158209Y-109203152D02*
X79348685Y-109203152D01*
X79348685Y-109203152D02*
X79443923Y-109250771D01*
X79443923Y-109250771D02*
X79491542Y-109346009D01*
X79491542Y-109346009D02*
X79491542Y-109441247D01*
X79491542Y-109441247D02*
X79015352Y-109536485D01*
X79920114Y-109869819D02*
X79920114Y-109203152D01*
X79920114Y-109393628D02*
X79967733Y-109298390D01*
X79967733Y-109298390D02*
X80015352Y-109250771D01*
X80015352Y-109250771D02*
X80110590Y-109203152D01*
X80110590Y-109203152D02*
X80205828Y-109203152D01*
X81443924Y-109869819D02*
X81348686Y-109822200D01*
X81348686Y-109822200D02*
X81301067Y-109774580D01*
X81301067Y-109774580D02*
X81253448Y-109679342D01*
X81253448Y-109679342D02*
X81253448Y-109393628D01*
X81253448Y-109393628D02*
X81301067Y-109298390D01*
X81301067Y-109298390D02*
X81348686Y-109250771D01*
X81348686Y-109250771D02*
X81443924Y-109203152D01*
X81443924Y-109203152D02*
X81586781Y-109203152D01*
X81586781Y-109203152D02*
X81682019Y-109250771D01*
X81682019Y-109250771D02*
X81729638Y-109298390D01*
X81729638Y-109298390D02*
X81777257Y-109393628D01*
X81777257Y-109393628D02*
X81777257Y-109679342D01*
X81777257Y-109679342D02*
X81729638Y-109774580D01*
X81729638Y-109774580D02*
X81682019Y-109822200D01*
X81682019Y-109822200D02*
X81586781Y-109869819D01*
X81586781Y-109869819D02*
X81443924Y-109869819D01*
X82205829Y-109203152D02*
X82205829Y-109869819D01*
X82205829Y-109298390D02*
X82253448Y-109250771D01*
X82253448Y-109250771D02*
X82348686Y-109203152D01*
X82348686Y-109203152D02*
X82491543Y-109203152D01*
X82491543Y-109203152D02*
X82586781Y-109250771D01*
X82586781Y-109250771D02*
X82634400Y-109346009D01*
X82634400Y-109346009D02*
X82634400Y-109869819D01*
X83729639Y-109203152D02*
X84110591Y-109203152D01*
X83872496Y-108869819D02*
X83872496Y-109726961D01*
X83872496Y-109726961D02*
X83920115Y-109822200D01*
X83920115Y-109822200D02*
X84015353Y-109869819D01*
X84015353Y-109869819D02*
X84110591Y-109869819D01*
X84443925Y-109869819D02*
X84443925Y-108869819D01*
X84872496Y-109869819D02*
X84872496Y-109346009D01*
X84872496Y-109346009D02*
X84824877Y-109250771D01*
X84824877Y-109250771D02*
X84729639Y-109203152D01*
X84729639Y-109203152D02*
X84586782Y-109203152D01*
X84586782Y-109203152D02*
X84491544Y-109250771D01*
X84491544Y-109250771D02*
X84443925Y-109298390D01*
X85729639Y-109822200D02*
X85634401Y-109869819D01*
X85634401Y-109869819D02*
X85443925Y-109869819D01*
X85443925Y-109869819D02*
X85348687Y-109822200D01*
X85348687Y-109822200D02*
X85301068Y-109726961D01*
X85301068Y-109726961D02*
X85301068Y-109346009D01*
X85301068Y-109346009D02*
X85348687Y-109250771D01*
X85348687Y-109250771D02*
X85443925Y-109203152D01*
X85443925Y-109203152D02*
X85634401Y-109203152D01*
X85634401Y-109203152D02*
X85729639Y-109250771D01*
X85729639Y-109250771D02*
X85777258Y-109346009D01*
X85777258Y-109346009D02*
X85777258Y-109441247D01*
X85777258Y-109441247D02*
X85301068Y-109536485D01*
X86967735Y-109869819D02*
X86967735Y-108869819D01*
X86967735Y-109250771D02*
X87062973Y-109203152D01*
X87062973Y-109203152D02*
X87253449Y-109203152D01*
X87253449Y-109203152D02*
X87348687Y-109250771D01*
X87348687Y-109250771D02*
X87396306Y-109298390D01*
X87396306Y-109298390D02*
X87443925Y-109393628D01*
X87443925Y-109393628D02*
X87443925Y-109679342D01*
X87443925Y-109679342D02*
X87396306Y-109774580D01*
X87396306Y-109774580D02*
X87348687Y-109822200D01*
X87348687Y-109822200D02*
X87253449Y-109869819D01*
X87253449Y-109869819D02*
X87062973Y-109869819D01*
X87062973Y-109869819D02*
X86967735Y-109822200D01*
X88015354Y-109869819D02*
X87920116Y-109822200D01*
X87920116Y-109822200D02*
X87872497Y-109774580D01*
X87872497Y-109774580D02*
X87824878Y-109679342D01*
X87824878Y-109679342D02*
X87824878Y-109393628D01*
X87824878Y-109393628D02*
X87872497Y-109298390D01*
X87872497Y-109298390D02*
X87920116Y-109250771D01*
X87920116Y-109250771D02*
X88015354Y-109203152D01*
X88015354Y-109203152D02*
X88158211Y-109203152D01*
X88158211Y-109203152D02*
X88253449Y-109250771D01*
X88253449Y-109250771D02*
X88301068Y-109298390D01*
X88301068Y-109298390D02*
X88348687Y-109393628D01*
X88348687Y-109393628D02*
X88348687Y-109679342D01*
X88348687Y-109679342D02*
X88301068Y-109774580D01*
X88301068Y-109774580D02*
X88253449Y-109822200D01*
X88253449Y-109822200D02*
X88158211Y-109869819D01*
X88158211Y-109869819D02*
X88015354Y-109869819D01*
X88634402Y-109203152D02*
X89015354Y-109203152D01*
X88777259Y-108869819D02*
X88777259Y-109726961D01*
X88777259Y-109726961D02*
X88824878Y-109822200D01*
X88824878Y-109822200D02*
X88920116Y-109869819D01*
X88920116Y-109869819D02*
X89015354Y-109869819D01*
X89205831Y-109203152D02*
X89586783Y-109203152D01*
X89348688Y-108869819D02*
X89348688Y-109726961D01*
X89348688Y-109726961D02*
X89396307Y-109822200D01*
X89396307Y-109822200D02*
X89491545Y-109869819D01*
X89491545Y-109869819D02*
X89586783Y-109869819D01*
X90062974Y-109869819D02*
X89967736Y-109822200D01*
X89967736Y-109822200D02*
X89920117Y-109774580D01*
X89920117Y-109774580D02*
X89872498Y-109679342D01*
X89872498Y-109679342D02*
X89872498Y-109393628D01*
X89872498Y-109393628D02*
X89920117Y-109298390D01*
X89920117Y-109298390D02*
X89967736Y-109250771D01*
X89967736Y-109250771D02*
X90062974Y-109203152D01*
X90062974Y-109203152D02*
X90205831Y-109203152D01*
X90205831Y-109203152D02*
X90301069Y-109250771D01*
X90301069Y-109250771D02*
X90348688Y-109298390D01*
X90348688Y-109298390D02*
X90396307Y-109393628D01*
X90396307Y-109393628D02*
X90396307Y-109679342D01*
X90396307Y-109679342D02*
X90348688Y-109774580D01*
X90348688Y-109774580D02*
X90301069Y-109822200D01*
X90301069Y-109822200D02*
X90205831Y-109869819D01*
X90205831Y-109869819D02*
X90062974Y-109869819D01*
X90824879Y-109869819D02*
X90824879Y-109203152D01*
X90824879Y-109298390D02*
X90872498Y-109250771D01*
X90872498Y-109250771D02*
X90967736Y-109203152D01*
X90967736Y-109203152D02*
X91110593Y-109203152D01*
X91110593Y-109203152D02*
X91205831Y-109250771D01*
X91205831Y-109250771D02*
X91253450Y-109346009D01*
X91253450Y-109346009D02*
X91253450Y-109869819D01*
X91253450Y-109346009D02*
X91301069Y-109250771D01*
X91301069Y-109250771D02*
X91396307Y-109203152D01*
X91396307Y-109203152D02*
X91539164Y-109203152D01*
X91539164Y-109203152D02*
X91634403Y-109250771D01*
X91634403Y-109250771D02*
X91682022Y-109346009D01*
X91682022Y-109346009D02*
X91682022Y-109869819D01*
G36*
X61608059Y-106501061D02*
G01*
X61713223Y-106514906D01*
X61744491Y-106523284D01*
X61834918Y-106560740D01*
X61862951Y-106576925D01*
X61940601Y-106636508D01*
X61963491Y-106659398D01*
X62023074Y-106737048D01*
X62039259Y-106765081D01*
X62076715Y-106855508D01*
X62085093Y-106886775D01*
X62098939Y-106991939D01*
X62100000Y-107008125D01*
X62100000Y-111441874D01*
X62098939Y-111458060D01*
X62085093Y-111563224D01*
X62076715Y-111594491D01*
X62039259Y-111684918D01*
X62023074Y-111712951D01*
X61963491Y-111790601D01*
X61940601Y-111813491D01*
X61862951Y-111873074D01*
X61834918Y-111889259D01*
X61744491Y-111926715D01*
X61713224Y-111935093D01*
X61608060Y-111948939D01*
X61591874Y-111950000D01*
X46208126Y-111950000D01*
X46191940Y-111948939D01*
X46086775Y-111935093D01*
X46055508Y-111926715D01*
X45965081Y-111889259D01*
X45937048Y-111873074D01*
X45859398Y-111813491D01*
X45836508Y-111790601D01*
X45776925Y-111712951D01*
X45760740Y-111684918D01*
X45723284Y-111594491D01*
X45714906Y-111563223D01*
X45701061Y-111458059D01*
X45700000Y-111441874D01*
X45700000Y-107008125D01*
X45701061Y-106991940D01*
X45714906Y-106886776D01*
X45723284Y-106855508D01*
X45760740Y-106765081D01*
X45776925Y-106737048D01*
X45836508Y-106659398D01*
X45859398Y-106636508D01*
X45937048Y-106576925D01*
X45965081Y-106560740D01*
X46055508Y-106523284D01*
X46086776Y-106514906D01*
X46191941Y-106501061D01*
X46208126Y-106500000D01*
X61591874Y-106500000D01*
X61608059Y-106501061D01*
G37*
M02*
