M48
; DRILL file {KiCad 8.0.4-8.0.4-0~ubuntu24.04.1} date 2024-08-17T18:05:20+0200
; FORMAT={-:-/ absolute / metric / decimal}
; #@! TF.CreationDate,2024-08-17T18:05:20+02:00
; #@! TF.GenerationSoftware,Kicad,Pcbnew,8.0.4-8.0.4-0~ubuntu24.04.1
; #@! TF.FileFunction,Plated,1,2,PTH
FMAT,2
METRIC
; #@! TA.AperFunction,Plated,PTH,ComponentDrill
T1C0.400
; #@! TA.AperFunction,Plated,PTH,ComponentDrill
T2C0.500
; #@! TA.AperFunction,Plated,PTH,ComponentDrill
T3C1.600
%
G90
G05
T2
X94.7Y-60.25
X94.7Y-62.25
X95.7Y-61.25
T3
X94.85Y-48.3
T1
G00X99.15Y-35.665
M15
G01X99.291Y-35.806
M16
G05
G00X100.002Y-36.517
M15
G01X100.143Y-36.658
M16
G05
G00X100.946Y-37.461
M15
G01X101.087Y-37.602
M16
G05
G00X101.84Y-38.355
M15
G01X101.982Y-38.497
M16
G05
G00X102.756Y-32.341
M15
G01X102.615Y-32.2
M16
G05
G00X103.608Y-33.193
M15
G01X103.467Y-33.052
M16
G05
G00X104.549Y-34.134
M15
G01X104.407Y-33.992
M16
G05
G00X105.447Y-35.032
M15
G01X105.305Y-34.89
M16
G05
M30
