%TF.GenerationSoftware,KiCad,Pcbnew,8.0.4-8.0.4-0~ubuntu24.04.1*%
%TF.CreationDate,2024-08-17T18:05:15+02:00*%
%TF.ProjectId,KSS-220A_Lens_Flex,4b53532d-3232-4304-915f-4c656e735f46,0.1*%
%TF.SameCoordinates,Original*%
%TF.FileFunction,Copper,L1,Top*%
%TF.FilePolarity,Positive*%
%FSLAX46Y46*%
G04 Gerber Fmt 4.6, Leading zero omitted, Abs format (unit mm)*
G04 Created by KiCad (PCBNEW 8.0.4-8.0.4-0~ubuntu24.04.1) date 2024-08-17 18:05:15*
%MOMM*%
%LPD*%
G01*
G04 APERTURE LIST*
G04 Aperture macros list*
%AMRoundRect*
0 Rectangle with rounded corners*
0 $1 Rounding radius*
0 $2 $3 $4 $5 $6 $7 $8 $9 X,Y pos of 4 corners*
0 Add a 4 corners polygon primitive as box body*
4,1,4,$2,$3,$4,$5,$6,$7,$8,$9,$2,$3,0*
0 Add four circle primitives for the rounded corners*
1,1,$1+$1,$2,$3*
1,1,$1+$1,$4,$5*
1,1,$1+$1,$6,$7*
1,1,$1+$1,$8,$9*
0 Add four rect primitives between the rounded corners*
20,1,$1+$1,$2,$3,$4,$5,0*
20,1,$1+$1,$4,$5,$6,$7,0*
20,1,$1+$1,$6,$7,$8,$9,0*
20,1,$1+$1,$8,$9,$2,$3,0*%
%AMOutline4P*
0 Free polygon, 4 corners , with rotation*
0 The origin of the aperture is its center*
0 number of corners: always 4*
0 $1 to $8 corner X, Y*
0 $9 Rotation angle, in degrees counterclockwise*
0 create outline with 4 corners*
4,1,4,$1,$2,$3,$4,$5,$6,$7,$8,$1,$2,$9*%
%AMOutline5P*
0 Free polygon, 5 corners , with rotation*
0 The origin of the aperture is its center*
0 number of corners: always 5*
0 $1 to $10 corner X, Y*
0 $11 Rotation angle, in degrees counterclockwise*
0 create outline with 5 corners*
4,1,5,$1,$2,$3,$4,$5,$6,$7,$8,$9,$10,$1,$2,$11*%
%AMOutline6P*
0 Free polygon, 6 corners , with rotation*
0 The origin of the aperture is its center*
0 number of corners: always 6*
0 $1 to $12 corner X, Y*
0 $13 Rotation angle, in degrees counterclockwise*
0 create outline with 6 corners*
4,1,6,$1,$2,$3,$4,$5,$6,$7,$8,$9,$10,$11,$12,$1,$2,$13*%
%AMOutline7P*
0 Free polygon, 7 corners , with rotation*
0 The origin of the aperture is its center*
0 number of corners: always 7*
0 $1 to $14 corner X, Y*
0 $15 Rotation angle, in degrees counterclockwise*
0 create outline with 7 corners*
4,1,7,$1,$2,$3,$4,$5,$6,$7,$8,$9,$10,$11,$12,$13,$14,$1,$2,$15*%
%AMOutline8P*
0 Free polygon, 8 corners , with rotation*
0 The origin of the aperture is its center*
0 number of corners: always 8*
0 $1 to $16 corner X, Y*
0 $17 Rotation angle, in degrees counterclockwise*
0 create outline with 8 corners*
4,1,8,$1,$2,$3,$4,$5,$6,$7,$8,$9,$10,$11,$12,$13,$14,$15,$16,$1,$2,$17*%
G04 Aperture macros list end*
%TA.AperFunction,SMDPad,CuDef*%
%ADD10R,1.600000X1.200000*%
%TD*%
%TA.AperFunction,SMDPad,CuDef*%
%ADD11R,2.000000X1.200000*%
%TD*%
%TA.AperFunction,SMDPad,CuDef*%
%ADD12RoundRect,0.178571X-0.671429X0.321429X-0.671429X-0.321429X0.671429X-0.321429X0.671429X0.321429X0*%
%TD*%
%TA.AperFunction,SMDPad,CuDef*%
%ADD13RoundRect,0.178571X0.671429X-0.321429X0.671429X0.321429X-0.671429X0.321429X-0.671429X-0.321429X0*%
%TD*%
%TA.AperFunction,ComponentPad*%
%ADD14C,2.300000*%
%TD*%
%TA.AperFunction,ComponentPad*%
%ADD15Outline6P,-0.800000X0.000000X-0.200000X0.600000X0.200000X0.600000X0.800000X0.000000X0.800000X-0.600000X-0.800000X-0.600000X0.000000*%
%TD*%
%TA.AperFunction,ComponentPad*%
%ADD16Outline6P,-0.800000X0.000000X-0.200000X0.600000X0.200000X0.600000X0.800000X0.000000X0.800000X-0.600000X-0.800000X-0.600000X90.000000*%
%TD*%
%TA.AperFunction,ComponentPad*%
%ADD17Outline6P,-0.800000X0.000000X-0.200000X0.600000X0.200000X0.600000X0.800000X0.000000X0.800000X-0.600000X-0.800000X-0.600000X180.000000*%
%TD*%
%TA.AperFunction,ConnectorPad*%
%ADD18R,1.200000X0.500000*%
%TD*%
%TA.AperFunction,ConnectorPad*%
%ADD19R,0.750000X4.000000*%
%TD*%
%TA.AperFunction,SMDPad,CuDef*%
%ADD20Outline4P,-0.400000X-0.900000X0.400000X-0.700000X0.400000X0.700000X-0.400000X0.900000X0.000000*%
%TD*%
%TA.AperFunction,SMDPad,CuDef*%
%ADD21Outline4P,-0.400000X-0.900000X0.400000X-0.700000X0.400000X0.700000X-0.400000X0.900000X180.000000*%
%TD*%
%TA.AperFunction,ConnectorPad*%
%ADD22R,1.200000X0.800000*%
%TD*%
%TA.AperFunction,ComponentPad*%
%ADD23RoundRect,0.250000X-0.424264X-0.777817X0.777817X0.424264X0.424264X0.777817X-0.777817X-0.424264X0*%
%TD*%
%TA.AperFunction,ComponentPad*%
%ADD24RoundRect,0.250000X0.424264X0.777817X-0.777817X-0.424264X-0.424264X-0.777817X0.777817X0.424264X0*%
%TD*%
%TA.AperFunction,Conductor*%
%ADD25C,0.750000*%
%TD*%
%TA.AperFunction,Conductor*%
%ADD26C,0.200000*%
%TD*%
%TA.AperFunction,Conductor*%
%ADD27C,0.300000*%
%TD*%
%TA.AperFunction,Conductor*%
%ADD28C,0.500000*%
%TD*%
%TA.AperFunction,Conductor*%
%ADD29C,1.100000*%
%TD*%
%TA.AperFunction,Conductor*%
%ADD30C,0.250000*%
%TD*%
%TA.AperFunction,Conductor*%
%ADD31C,0.400000*%
%TD*%
G04 APERTURE END LIST*
D10*
%TO.P,RV1,1,1*%
%TO.N,/GND3*%
X92900000Y-51550000D03*
%TO.P,RV1,2,2*%
%TO.N,/PD*%
X92700000Y-54050000D03*
D11*
%TO.P,RV1,3,3*%
X97300000Y-52850000D03*
%TD*%
D12*
%TO.P,D1,1,K*%
%TO.N,/LD*%
X97150000Y-50350000D03*
D13*
%TO.P,D1,2,A*%
%TO.N,/GND2*%
X97150000Y-46150000D03*
%TD*%
D14*
%TO.P,H1,MP,MP*%
%TO.N,/GND2*%
X94850000Y-48300000D03*
%TD*%
D15*
%TO.P,CN5,1,PD*%
%TO.N,/PD*%
X94700000Y-62250000D03*
D16*
%TO.P,CN5,2,GND*%
%TO.N,/GND2*%
X95700000Y-61250000D03*
D17*
%TO.P,CN5,3,LD*%
%TO.N,/LD*%
X94700000Y-60250000D03*
%TD*%
D18*
%TO.P,CN4,1,Pin_1*%
%TO.N,/GND3*%
X61000000Y-108100000D03*
D19*
X60775000Y-109850000D03*
%TO.P,CN4,2,Pin_2*%
%TO.N,/PD*%
X59525000Y-109850000D03*
%TO.P,CN4,3,Pin_3*%
%TO.N,/LD*%
X58275000Y-109850000D03*
D20*
X56750000Y-103700000D03*
D19*
%TO.P,CN4,4,Pin_4*%
%TO.N,/GND2*%
X57025000Y-109850000D03*
D21*
X55650000Y-103700000D03*
D19*
%TO.P,CN4,5,Pin_5*%
%TO.N,/F*%
X55775000Y-109850000D03*
%TO.P,CN4,6,Pin_6*%
%TO.N,/E*%
X54525000Y-109850000D03*
%TO.P,CN4,7,Pin_7*%
%TO.N,/K*%
X53275000Y-109850000D03*
%TO.P,CN4,8,Pin_8*%
%TO.N,/GND1*%
X52025000Y-109850000D03*
%TO.P,CN4,9,Pin_9*%
%TO.N,/D*%
X50775000Y-109850000D03*
%TO.P,CN4,10,Pin_10*%
%TO.N,/C*%
X49525000Y-109850000D03*
%TO.P,CN4,11,Pin_11*%
%TO.N,/A*%
X48275000Y-109850000D03*
%TO.P,CN4,12,Pin_12*%
%TO.N,/B*%
X47025000Y-109850000D03*
D22*
X46800000Y-108250000D03*
%TD*%
D23*
%TO.P,CN3,1,D*%
%TO.N,/D*%
X99538748Y-35417175D03*
D24*
%TO.P,CN3,2,F*%
%TO.N,/F*%
X102402530Y-32553393D03*
D23*
%TO.P,CN3,3,C*%
%TO.N,/C*%
X100390812Y-36269239D03*
%TO.P,CN3,5,K*%
%TO.N,/K*%
X101334799Y-37213226D03*
D24*
%TO.P,CN3,6,A*%
%TO.N,/A*%
X104195046Y-34345909D03*
D23*
%TO.P,CN3,7,E*%
%TO.N,/E*%
X102229289Y-38107716D03*
D24*
%TO.P,CN3,8,B*%
%TO.N,/B*%
X105093071Y-35243934D03*
%TD*%
D25*
%TO.N,/B*%
X47600000Y-105750000D02*
X47025000Y-106325000D01*
D26*
X88350000Y-36000000D02*
X92200000Y-36000000D01*
D27*
X47600000Y-105750000D02*
X49650000Y-105750000D01*
D26*
X106137005Y-34200000D02*
X105375914Y-34961091D01*
D28*
X50350000Y-42845518D02*
X50350000Y-54200000D01*
D27*
X49400000Y-59400000D02*
X49400000Y-55950000D01*
D26*
X88042420Y-36307580D02*
X88350000Y-36000000D01*
D28*
X56846016Y-36307580D02*
X56636191Y-36315565D01*
D26*
X106150000Y-34200000D02*
X106137005Y-34200000D01*
X106150000Y-33500000D02*
X106150000Y-34200000D01*
D27*
X50350000Y-55000000D02*
X50350000Y-54200000D01*
D25*
X47025000Y-106325000D02*
X47025000Y-109850000D01*
D26*
X102950000Y-30300000D02*
X106150000Y-33500000D01*
D28*
X88042420Y-36307580D02*
X56846016Y-36307580D01*
D27*
X50400000Y-105000000D02*
X50400000Y-60400000D01*
X50400000Y-60400000D02*
X49400000Y-59400000D01*
D26*
X97900000Y-30300000D02*
X102950000Y-30300000D01*
D27*
X49650000Y-105750000D02*
X50400000Y-105000000D01*
X49400000Y-55950000D02*
X50350000Y-55000000D01*
D26*
X92200000Y-36000000D02*
X97900000Y-30300000D01*
D28*
X56636191Y-36315565D02*
G75*
G03*
X50350038Y-42845518I248509J-6529935D01*
G01*
D26*
%TO.N,/E*%
X96513604Y-35200000D02*
X100663604Y-39350000D01*
D27*
X86750000Y-39500000D02*
X87100000Y-39500000D01*
D26*
X93798829Y-37401171D02*
X96000000Y-35200000D01*
D27*
X55900000Y-56757106D02*
X54100000Y-54957106D01*
D26*
X87100000Y-39500000D02*
X88300000Y-39500000D01*
X89700000Y-38100000D02*
X92111706Y-38100000D01*
D27*
X57499535Y-39500000D02*
X86750000Y-39500000D01*
X54525000Y-107300000D02*
X54525000Y-106675000D01*
D26*
X100663604Y-39350000D02*
X100987005Y-39350000D01*
D25*
X54525000Y-109850000D02*
X54525000Y-107300000D01*
D26*
X88300000Y-39500000D02*
X89700000Y-38100000D01*
X96000000Y-35200000D02*
X96513604Y-35200000D01*
D27*
X54525000Y-106675000D02*
X54000000Y-106150000D01*
D26*
X100987005Y-39350000D02*
X101911091Y-38425914D01*
D27*
X54000000Y-60800000D02*
X55900000Y-58900000D01*
X55900000Y-58900000D02*
X55900000Y-56757106D01*
X54000000Y-106150000D02*
X54000000Y-60800000D01*
X54100000Y-54957106D02*
X54100000Y-42899535D01*
X54100000Y-42899535D02*
G75*
G02*
X57499535Y-39500000I3399540J-5D01*
G01*
D26*
X92111706Y-38100000D02*
G75*
G03*
X93798836Y-37401178I-6J2386000D01*
G01*
%TO.N,/K*%
X88200000Y-39000000D02*
X89500000Y-37700000D01*
D25*
X53275000Y-109850000D02*
X53275000Y-107350000D01*
D27*
X53400000Y-106500000D02*
X53275000Y-106625000D01*
X87100000Y-39000000D02*
X57332548Y-39000000D01*
X55300000Y-57150000D02*
X55300000Y-58650000D01*
D26*
X100398025Y-38150000D02*
X101016601Y-37531424D01*
X96000000Y-34600000D02*
X96550000Y-34600000D01*
D27*
X53600000Y-55450000D02*
X55300000Y-57150000D01*
D26*
X100100000Y-38150000D02*
X100398025Y-38150000D01*
D27*
X53400000Y-60550000D02*
X53400000Y-106500000D01*
D26*
X93488246Y-37111754D02*
X96000000Y-34600000D01*
X87100000Y-39000000D02*
X88200000Y-39000000D01*
D27*
X53600000Y-42732548D02*
X53600000Y-55450000D01*
D26*
X89500000Y-37700000D02*
X92068095Y-37700000D01*
D27*
X53275000Y-106625000D02*
X53275000Y-107350000D01*
D26*
X96550000Y-34600000D02*
X100100000Y-38150000D01*
D27*
X55300000Y-58650000D02*
X53400000Y-60550000D01*
D26*
X92068095Y-37700000D02*
G75*
G03*
X93488249Y-37111757I5J2008400D01*
G01*
D27*
X57332548Y-39000000D02*
G75*
G03*
X53600000Y-42732548I-48J-3732500D01*
G01*
%TO.N,/LD*%
X55800000Y-99350000D02*
X55800000Y-61500000D01*
X55650000Y-54100000D02*
X55650000Y-43228989D01*
X56950000Y-100500000D02*
X55800000Y-99350000D01*
D26*
X93750000Y-41300000D02*
X94134141Y-41300000D01*
X102100000Y-54300000D02*
X102400000Y-54300000D01*
X94700000Y-60250000D02*
X95150000Y-56800000D01*
D27*
X57750000Y-56200000D02*
X55650000Y-54100000D01*
D26*
X88350000Y-41300000D02*
X93750000Y-41300000D01*
X87150000Y-41050000D02*
X87200000Y-41000000D01*
X88050000Y-41000000D02*
X88350000Y-41300000D01*
D25*
X56950000Y-104900000D02*
X56950000Y-104800000D01*
D26*
X95600000Y-53900000D02*
X96100000Y-53900000D01*
X96350000Y-43515859D02*
X96350000Y-45150000D01*
D27*
X57750000Y-59550000D02*
X57750000Y-56200000D01*
D25*
X58275000Y-106225000D02*
X56950000Y-104900000D01*
D26*
X95300000Y-51150000D02*
X96800000Y-51150000D01*
D25*
X58275000Y-109850000D02*
X58275000Y-106225000D01*
D26*
X93350000Y-46976056D02*
X93350000Y-49200000D01*
D27*
X55800000Y-61500000D02*
X57750000Y-59550000D01*
D26*
X95200000Y-46300000D02*
X94026056Y-46300000D01*
D29*
X56950000Y-104800000D02*
X56950000Y-100600000D01*
D26*
X93350000Y-49200000D02*
X95300000Y-51150000D01*
D27*
X56950000Y-100600000D02*
X56950000Y-100500000D01*
D26*
X95150000Y-56800000D02*
X95150000Y-54350000D01*
X96350000Y-45150000D02*
X95200000Y-46300000D01*
X96100000Y-53900000D02*
X102100000Y-54300000D01*
X95150000Y-54350000D02*
X95600000Y-53900000D01*
X102400000Y-54300000D02*
X102750000Y-53950000D01*
X96800000Y-51150000D02*
X96800000Y-50400000D01*
D27*
X57828989Y-41050000D02*
X86550000Y-41050000D01*
D26*
X102750000Y-53950000D02*
X102750000Y-53850000D01*
X87200000Y-41000000D02*
X88050000Y-41000000D01*
X86550000Y-41050000D02*
X87150000Y-41050000D01*
X94026056Y-46300000D02*
G75*
G03*
X93350000Y-46976056I44J-676100D01*
G01*
D27*
X55650000Y-43228989D02*
G75*
G02*
X57828989Y-41050000I2179000J-11D01*
G01*
D26*
X94134141Y-41300000D02*
G75*
G02*
X96350000Y-43515859I-41J-2215900D01*
G01*
%TO.N,/C*%
X101250000Y-35410051D02*
X100072614Y-36587437D01*
D27*
X50600000Y-106900000D02*
X51550000Y-105950000D01*
D26*
X99800000Y-33050000D02*
X101250000Y-34500000D01*
D27*
X50600000Y-58907106D02*
X50600000Y-56550000D01*
X51550000Y-105950000D02*
X51550000Y-59857106D01*
D28*
X57126060Y-37850000D02*
X87600000Y-37850000D01*
D26*
X87600000Y-37850000D02*
X88125000Y-37850000D01*
D27*
X49525000Y-109850000D02*
X49525000Y-107525000D01*
X50150000Y-106900000D02*
X50600000Y-106900000D01*
D30*
X101250000Y-35810051D02*
X100095837Y-36964214D01*
D26*
X89075000Y-36900000D02*
X91855642Y-36900000D01*
D27*
X51900000Y-55250000D02*
X51900000Y-53850000D01*
D26*
X92955630Y-36444370D02*
X96350000Y-33050000D01*
X96350000Y-33050000D02*
X99800000Y-33050000D01*
X88125000Y-37850000D02*
X89075000Y-36900000D01*
D27*
X50600000Y-56550000D02*
X51900000Y-55250000D01*
D26*
X101250000Y-34500000D02*
X101250000Y-35410051D01*
D27*
X51550000Y-59857106D02*
X50600000Y-58907106D01*
D28*
X51900000Y-53850000D02*
X51900000Y-43076060D01*
D27*
X49525000Y-107525000D02*
X50150000Y-106900000D01*
D26*
X91855642Y-36900000D02*
G75*
G03*
X92955605Y-36444345I-42J1555600D01*
G01*
D28*
X57126060Y-37850000D02*
G75*
G03*
X51900000Y-43076060I0J-5226060D01*
G01*
D27*
%TO.N,/D*%
X50775000Y-109850000D02*
X50775000Y-107525000D01*
D26*
X89300000Y-37300000D02*
X91987985Y-37300000D01*
X87100000Y-38450000D02*
X88150000Y-38450000D01*
D27*
X52250000Y-106050000D02*
X52250000Y-59850000D01*
D26*
X100200000Y-34755923D02*
X99220550Y-35735373D01*
X99500000Y-33500000D02*
X100200000Y-34200000D01*
D27*
X51200000Y-56800000D02*
X52600000Y-55400000D01*
D26*
X93203471Y-36796529D02*
X96500000Y-33500000D01*
D27*
X50775000Y-107525000D02*
X52250000Y-106050000D01*
D26*
X100200000Y-34200000D02*
X100200000Y-34755923D01*
X96500000Y-33500000D02*
X99500000Y-33500000D01*
X99620550Y-35735373D02*
X99220550Y-35735373D01*
D27*
X52600000Y-55400000D02*
X52600000Y-43225009D01*
X57375009Y-38450000D02*
X86550000Y-38450000D01*
X52250000Y-59850000D02*
X51200000Y-58800000D01*
X86550000Y-38450000D02*
X87100000Y-38450000D01*
D26*
X88150000Y-38450000D02*
X89300000Y-37300000D01*
D27*
X51200000Y-58800000D02*
X51200000Y-56800000D01*
D26*
X91987985Y-37300000D02*
G75*
G03*
X93203488Y-36796546I15J1719000D01*
G01*
D27*
X52600000Y-43225009D02*
G75*
G02*
X57375009Y-38450000I4775000J9D01*
G01*
D26*
%TO.N,/PD*%
X93100000Y-61750000D02*
X93100000Y-59450000D01*
D27*
X59900000Y-104800000D02*
X59900000Y-101986577D01*
D26*
X94300000Y-58750000D02*
X94600000Y-56650000D01*
X94700000Y-62250000D02*
X93600000Y-62250000D01*
X94600000Y-52900000D02*
X94800000Y-52700000D01*
D27*
X57991091Y-41550000D02*
X87800000Y-41550000D01*
D26*
X95826890Y-43326829D02*
X95850000Y-43668760D01*
X95850000Y-43668760D02*
X95850000Y-45084314D01*
D27*
X56400000Y-98616546D02*
X56400000Y-61900000D01*
D26*
X94100000Y-58950000D02*
X94300000Y-58750000D01*
X87900000Y-41550000D02*
X88100000Y-41750000D01*
X94550000Y-52450000D02*
X94800000Y-52700000D01*
D27*
X59525000Y-105525000D02*
X59900000Y-104800000D01*
X59525000Y-106350000D02*
X59525000Y-105525000D01*
X59173648Y-100734942D02*
X56863168Y-99414668D01*
D26*
X94600000Y-56650000D02*
X94600000Y-52900000D01*
X95850000Y-45084314D02*
X95034314Y-45900000D01*
D27*
X58350000Y-59950000D02*
X58350000Y-55950000D01*
X58350000Y-55950000D02*
X56150000Y-53750000D01*
D26*
X94550000Y-51050000D02*
X94550000Y-52450000D01*
D27*
X56150000Y-53750000D02*
X56150000Y-43391091D01*
D26*
X88100000Y-41750000D02*
X94139892Y-41750000D01*
X87800000Y-41550000D02*
X87900000Y-41550000D01*
D25*
X59525000Y-109850000D02*
X59525000Y-106350000D01*
D26*
X95034314Y-45900000D02*
X93805849Y-45900000D01*
X92900000Y-49400000D02*
X94550000Y-51050000D01*
X93600000Y-58950000D02*
X94100000Y-58950000D01*
X93600000Y-62250000D02*
X93100000Y-61750000D01*
D27*
X56400000Y-61900000D02*
X58350000Y-59950000D01*
D26*
X92900000Y-46805849D02*
X92900000Y-49400000D01*
X96450000Y-52700000D02*
X94800000Y-52700000D01*
X93100000Y-59450000D02*
X93600000Y-58950000D01*
X92900000Y-46805849D02*
G75*
G02*
X93805849Y-45900000I905800J49D01*
G01*
D27*
X56150000Y-43391091D02*
G75*
G02*
X57991091Y-41550000I1841100J-9D01*
G01*
D26*
X94139892Y-41750000D02*
G75*
G02*
X95826855Y-43326831I8J-1690800D01*
G01*
D27*
X56400000Y-98616546D02*
G75*
G03*
X56863197Y-99414617I919200J46D01*
G01*
X59173648Y-100734942D02*
G75*
G02*
X59900006Y-101986577I-715248J-1251658D01*
G01*
D25*
%TO.N,/A*%
X48275000Y-109850000D02*
X48275000Y-106975000D01*
D27*
X51000000Y-60150000D02*
X49950000Y-59100000D01*
X51100000Y-55100000D02*
X51100000Y-54100000D01*
D26*
X105050000Y-33490955D02*
X104477889Y-34063066D01*
D27*
X48625000Y-106625000D02*
X48950000Y-106300000D01*
X50200000Y-106300000D02*
X51000000Y-105500000D01*
X49950000Y-56250000D02*
X51100000Y-55100000D01*
D26*
X92579448Y-36220552D02*
X98050000Y-30750000D01*
D25*
X48275000Y-106975000D02*
X48625000Y-106625000D01*
D27*
X51000000Y-105500000D02*
X51000000Y-60150000D01*
D26*
X98050000Y-30750000D02*
X102700000Y-30750000D01*
X88250000Y-37100000D02*
X88899999Y-36450001D01*
D27*
X49950000Y-59100000D02*
X49950000Y-56250000D01*
D26*
X88899999Y-36450001D02*
X92025509Y-36450001D01*
X87700000Y-37100000D02*
X88250000Y-37100000D01*
X102700000Y-30750000D02*
X105050000Y-33100000D01*
X105050000Y-33100000D02*
X105050000Y-33490955D01*
D28*
X51100000Y-54100000D02*
X51100000Y-43003664D01*
X57003664Y-37100000D02*
X87700000Y-37100000D01*
D27*
X48950000Y-106300000D02*
X50200000Y-106300000D01*
D28*
X57003664Y-37100000D02*
G75*
G03*
X51100000Y-43003664I-4J-5903660D01*
G01*
D26*
X92025509Y-36450001D02*
G75*
G03*
X92579446Y-36220550I-9J783401D01*
G01*
D27*
%TO.N,/F*%
X55775000Y-106975000D02*
X54650000Y-105850000D01*
D26*
X96350000Y-35700000D02*
X100800000Y-40150000D01*
D27*
X56500000Y-56650000D02*
X54600000Y-54750000D01*
X54600000Y-54750000D02*
X54600000Y-42968043D01*
D26*
X102300000Y-34700000D02*
X101800000Y-34200000D01*
X101500000Y-40150000D02*
X103850000Y-37800000D01*
X103850000Y-37100000D02*
X102300000Y-35550000D01*
X102300000Y-35550000D02*
X102300000Y-34700000D01*
X88400000Y-40000000D02*
X89900000Y-38500000D01*
D27*
X56500000Y-59100000D02*
X56500000Y-56650000D01*
X57568043Y-40000000D02*
X87100000Y-40000000D01*
D26*
X96100000Y-35700000D02*
X96350000Y-35700000D01*
X87100000Y-40000000D02*
X88400000Y-40000000D01*
X100800000Y-40150000D02*
X101500000Y-40150000D01*
D27*
X55775000Y-109850000D02*
X55775000Y-106975000D01*
D26*
X89900000Y-38500000D02*
X92162913Y-38500000D01*
X101800000Y-34200000D02*
X101800000Y-33155923D01*
D27*
X54650000Y-60950000D02*
X56500000Y-59100000D01*
X54650000Y-105850000D02*
X54650000Y-60950000D01*
D26*
X94104042Y-37695958D02*
X96100000Y-35700000D01*
X103850000Y-37800000D02*
X103850000Y-37100000D01*
X101800000Y-33155923D02*
X102685373Y-32270550D01*
X92162913Y-38500000D02*
G75*
G03*
X94104042Y-37695958I-13J2745200D01*
G01*
D27*
X54600000Y-42968043D02*
G75*
G02*
X57568043Y-40000000I2968040J3D01*
G01*
%TO.N,/GND1*%
X52025000Y-107075000D02*
X52800000Y-106300000D01*
X53100000Y-55850000D02*
X53100000Y-43950000D01*
X52800000Y-106300000D02*
X52800000Y-59550000D01*
X52025000Y-109850000D02*
X52025000Y-107075000D01*
X51800000Y-57150000D02*
X53100000Y-55850000D01*
X52800000Y-59550000D02*
X51800000Y-58550000D01*
X51800000Y-58550000D02*
X51800000Y-57150000D01*
D26*
%TO.N,/GND3*%
X87250000Y-42200000D02*
X94142783Y-42200000D01*
D27*
X58950000Y-55650000D02*
X58950000Y-60200000D01*
X60850000Y-105850000D02*
X60775000Y-105925000D01*
D26*
X92500000Y-46772066D02*
X92500000Y-51000000D01*
X93200000Y-51700000D02*
X93450000Y-51450000D01*
X95323036Y-44926964D02*
X94750000Y-45500000D01*
D31*
X56750000Y-43408569D02*
X56750000Y-53450000D01*
D25*
X60775000Y-109850000D02*
X60775000Y-105925000D01*
D28*
X87250000Y-42200000D02*
X57958569Y-42200000D01*
D26*
X94750000Y-45500000D02*
X93772066Y-45500000D01*
X95323036Y-43380253D02*
X95323036Y-44926964D01*
X92500000Y-51000000D02*
X93200000Y-51700000D01*
D27*
X56750000Y-53450000D02*
X58950000Y-55650000D01*
X58950000Y-60200000D02*
X56950000Y-62200000D01*
X56950000Y-62200000D02*
X56950000Y-98125202D01*
X60850000Y-102060921D02*
X60850000Y-105850000D01*
X57534501Y-99137212D02*
X59974355Y-100544820D01*
X57534501Y-99137212D02*
G75*
G02*
X56950022Y-98125202I583899J1012012D01*
G01*
X59974355Y-100544820D02*
G75*
G02*
X60849991Y-102060921I-874655J-1516080D01*
G01*
D31*
X57958569Y-42200000D02*
G75*
G03*
X56750000Y-43408569I31J-1208600D01*
G01*
D26*
X94142783Y-42200000D02*
G75*
G02*
X95323100Y-43380253I17J-1180300D01*
G01*
X93772066Y-45500000D02*
G75*
G03*
X92500000Y-46772066I34J-1272100D01*
G01*
D25*
%TO.N,/GND2*%
X57025000Y-106875000D02*
X55650000Y-105500000D01*
D27*
X55100000Y-54450000D02*
X55100000Y-43102086D01*
D26*
X96150000Y-59200000D02*
X96300000Y-59350000D01*
X96400000Y-54550000D02*
X102850000Y-55000000D01*
X96400000Y-54550000D02*
X96150000Y-54550000D01*
D25*
X55650000Y-105500000D02*
X55650000Y-103700000D01*
D26*
X87300000Y-40450000D02*
X88100000Y-40450000D01*
D27*
X57100000Y-56450000D02*
X55100000Y-54450000D01*
X55200000Y-99950000D02*
X55200000Y-61250000D01*
D26*
X88100000Y-40450000D02*
X88500000Y-40850000D01*
D27*
X55650000Y-100400000D02*
X55200000Y-99950000D01*
D26*
X95700000Y-55000000D02*
X95700000Y-56950000D01*
X88500000Y-40850000D02*
X94162768Y-40850000D01*
X96300000Y-59350000D02*
X96300000Y-60750000D01*
X95800000Y-61250000D02*
X95700000Y-61250000D01*
X96800000Y-43487232D02*
X96800000Y-46500000D01*
X95700000Y-56950000D02*
X95400000Y-59000000D01*
D25*
X55650000Y-103700000D02*
X55650000Y-100400000D01*
D26*
X96300000Y-60750000D02*
X95800000Y-61250000D01*
D25*
X57025000Y-109850000D02*
X57025000Y-106875000D01*
D26*
X95600000Y-59200000D02*
X96150000Y-59200000D01*
D27*
X57100000Y-59350000D02*
X57100000Y-56450000D01*
D26*
X95400000Y-59000000D02*
X95600000Y-59200000D01*
X87200000Y-40550000D02*
X87300000Y-40450000D01*
D27*
X55200000Y-61250000D02*
X57100000Y-59350000D01*
D26*
X87100000Y-40550000D02*
X87200000Y-40550000D01*
X96150000Y-54550000D02*
X95700000Y-55000000D01*
D27*
X57652086Y-40550000D02*
X87100000Y-40550000D01*
D26*
X94162768Y-40850000D02*
G75*
G02*
X96800000Y-43487232I32J-2637200D01*
G01*
D27*
X55100000Y-43102086D02*
G75*
G02*
X57652086Y-40550000I2552100J-14D01*
G01*
%TD*%
%TA.AperFunction,NonConductor*%
G36*
X58496825Y-102207018D02*
G01*
X58509431Y-102201262D01*
X58527078Y-102200000D01*
X59176000Y-102200000D01*
X59243039Y-102219685D01*
X59288794Y-102272489D01*
X59300000Y-102324000D01*
X59300000Y-104976000D01*
X59280315Y-105043039D01*
X59227511Y-105088794D01*
X59176000Y-105100000D01*
X58015242Y-105100000D01*
X57948203Y-105080315D01*
X57927561Y-105063681D01*
X57836319Y-104972439D01*
X57802834Y-104911116D01*
X57800000Y-104884758D01*
X57800000Y-102792417D01*
X58099500Y-102792417D01*
X58099500Y-102830009D01*
X58099500Y-104323071D01*
X58099500Y-104350000D01*
X58099500Y-104407583D01*
X58131947Y-104518084D01*
X58194210Y-104614968D01*
X58281247Y-104690386D01*
X58386006Y-104738228D01*
X58500000Y-104754618D01*
X58613994Y-104738228D01*
X58718753Y-104690386D01*
X58805790Y-104614968D01*
X58868053Y-104518084D01*
X58900500Y-104407583D01*
X58900500Y-104350000D01*
X58900500Y-104323071D01*
X58900500Y-102830009D01*
X58900500Y-102792417D01*
X58868053Y-102681916D01*
X58805790Y-102585032D01*
X58718753Y-102509614D01*
X58613994Y-102461772D01*
X58613989Y-102461771D01*
X58509431Y-102446738D01*
X58503344Y-102443958D01*
X58490569Y-102446738D01*
X58386010Y-102461771D01*
X58386008Y-102461771D01*
X58386006Y-102461772D01*
X58318524Y-102492589D01*
X58281246Y-102509614D01*
X58194209Y-102585033D01*
X58142377Y-102665686D01*
X58131947Y-102681916D01*
X58099500Y-102792417D01*
X57800000Y-102792417D01*
X57800000Y-102324000D01*
X57819685Y-102256961D01*
X57872489Y-102211206D01*
X57924000Y-102200000D01*
X58472922Y-102200000D01*
X58496825Y-102207018D01*
G37*
%TD.AperFunction*%
%TA.AperFunction,NonConductor*%
G36*
X48996825Y-102207018D02*
G01*
X49009431Y-102201262D01*
X49027078Y-102200000D01*
X49587789Y-102200000D01*
X49611971Y-102202381D01*
X49652346Y-102210412D01*
X49697043Y-102228927D01*
X49720913Y-102244877D01*
X49755122Y-102279086D01*
X49771072Y-102302956D01*
X49789588Y-102347655D01*
X49797617Y-102388020D01*
X49800000Y-102412210D01*
X49800000Y-104887789D01*
X49797617Y-104911982D01*
X49789588Y-104952344D01*
X49771072Y-104997043D01*
X49755122Y-105020913D01*
X49720913Y-105055122D01*
X49697043Y-105071072D01*
X49652344Y-105089588D01*
X49635841Y-105092870D01*
X49611978Y-105097617D01*
X49587789Y-105100000D01*
X48512211Y-105100000D01*
X48488020Y-105097617D01*
X48472744Y-105094578D01*
X48447656Y-105089588D01*
X48402956Y-105071072D01*
X48379086Y-105055122D01*
X48344877Y-105020913D01*
X48328927Y-104997043D01*
X48310412Y-104952346D01*
X48302381Y-104911971D01*
X48300000Y-104887789D01*
X48300000Y-102792417D01*
X48599500Y-102792417D01*
X48599500Y-102830009D01*
X48599500Y-104323071D01*
X48599500Y-104350000D01*
X48599500Y-104407583D01*
X48631947Y-104518084D01*
X48694210Y-104614968D01*
X48781247Y-104690386D01*
X48886006Y-104738228D01*
X49000000Y-104754618D01*
X49113994Y-104738228D01*
X49218753Y-104690386D01*
X49305790Y-104614968D01*
X49368053Y-104518084D01*
X49400500Y-104407583D01*
X49400500Y-104350000D01*
X49400500Y-104323071D01*
X49400500Y-102830009D01*
X49400500Y-102792417D01*
X49368053Y-102681916D01*
X49305790Y-102585032D01*
X49218753Y-102509614D01*
X49113994Y-102461772D01*
X49113989Y-102461771D01*
X49009431Y-102446738D01*
X49003344Y-102443958D01*
X48990569Y-102446738D01*
X48886010Y-102461771D01*
X48886008Y-102461771D01*
X48886006Y-102461772D01*
X48818524Y-102492589D01*
X48781246Y-102509614D01*
X48694209Y-102585033D01*
X48642377Y-102665686D01*
X48631947Y-102681916D01*
X48599500Y-102792417D01*
X48300000Y-102792417D01*
X48300000Y-102412210D01*
X48302381Y-102388029D01*
X48310412Y-102347651D01*
X48328927Y-102302956D01*
X48344877Y-102279086D01*
X48379086Y-102244877D01*
X48402956Y-102228927D01*
X48447653Y-102210412D01*
X48488027Y-102202381D01*
X48512211Y-102200000D01*
X48972922Y-102200000D01*
X48996825Y-102207018D01*
G37*
%TD.AperFunction*%
%TA.AperFunction,Conductor*%
%TO.N,/LD*%
G36*
X97959528Y-50469685D02*
G01*
X97987147Y-50493901D01*
X98500000Y-51100000D01*
X102773367Y-51443834D01*
X102838612Y-51468832D01*
X102878553Y-51521383D01*
X103040574Y-51926437D01*
X103049409Y-51975372D01*
X103002258Y-54002904D01*
X102981021Y-54069468D01*
X102927167Y-54113982D01*
X102905191Y-54121068D01*
X102700899Y-54166466D01*
X102631186Y-54161793D01*
X102575066Y-54120172D01*
X102550357Y-54054818D01*
X102550000Y-54045419D01*
X102550000Y-51900000D01*
X102549999Y-51899999D01*
X98349975Y-51599998D01*
X96119822Y-51550440D01*
X96081307Y-51543402D01*
X95301281Y-51268099D01*
X95244615Y-51227224D01*
X95228577Y-51200014D01*
X95185714Y-51100000D01*
X95151832Y-51020943D01*
X95143518Y-50951572D01*
X95174029Y-50888716D01*
X95223803Y-50855430D01*
X96329639Y-50457330D01*
X96371640Y-50450000D01*
X97892489Y-50450000D01*
X97959528Y-50469685D01*
G37*
%TD.AperFunction*%
%TD*%
%TA.AperFunction,Conductor*%
%TO.N,/GND2*%
G36*
X98600822Y-45269685D02*
G01*
X98632161Y-45298516D01*
X98642738Y-45312301D01*
X98658920Y-45340330D01*
X98681342Y-45394459D01*
X98689721Y-45425728D01*
X98698438Y-45491939D01*
X98699499Y-45508125D01*
X98699499Y-45551591D01*
X98699500Y-45551596D01*
X98699501Y-48048637D01*
X98699501Y-48162027D01*
X98727107Y-48282973D01*
X98780929Y-48394737D01*
X98824602Y-48449500D01*
X98858276Y-48491725D01*
X98955264Y-48569070D01*
X98955265Y-48569070D01*
X98955266Y-48569071D01*
X99067031Y-48622895D01*
X99187968Y-48650498D01*
X99187973Y-48650498D01*
X99187975Y-48650499D01*
X99230010Y-48650499D01*
X101898404Y-48650499D01*
X101898408Y-48650500D01*
X101923071Y-48650500D01*
X101943039Y-48650500D01*
X101956922Y-48651279D01*
X102069518Y-48663966D01*
X102096583Y-48670143D01*
X102196927Y-48705255D01*
X102221941Y-48717301D01*
X102311955Y-48773860D01*
X102333662Y-48791172D01*
X102408827Y-48866337D01*
X102426140Y-48888046D01*
X102482697Y-48978056D01*
X102494745Y-49003074D01*
X102529855Y-49103414D01*
X102536033Y-49130484D01*
X102548720Y-49243077D01*
X102549500Y-49256961D01*
X102549500Y-49523297D01*
X102582120Y-49666209D01*
X102645720Y-49798276D01*
X102645722Y-49798279D01*
X102678418Y-49839278D01*
X102737117Y-49912883D01*
X102819420Y-49978518D01*
X102846670Y-50000250D01*
X102851723Y-50004279D01*
X102983794Y-50067881D01*
X103126706Y-50100500D01*
X103180009Y-50100500D01*
X105423071Y-50100500D01*
X105441874Y-50100500D01*
X105458059Y-50101561D01*
X105550152Y-50113685D01*
X105581421Y-50122063D01*
X105659668Y-50154474D01*
X105687699Y-50170659D01*
X105754892Y-50222219D01*
X105777780Y-50245107D01*
X105829340Y-50312300D01*
X105845526Y-50340334D01*
X105877936Y-50418579D01*
X105886314Y-50449846D01*
X105898439Y-50541939D01*
X105899500Y-50558125D01*
X105899500Y-55030706D01*
X105896820Y-55056345D01*
X105878783Y-55141695D01*
X105867987Y-55172273D01*
X105829330Y-55248274D01*
X105810974Y-55275009D01*
X105753923Y-55338399D01*
X105729264Y-55359459D01*
X105657739Y-55405882D01*
X105628459Y-55419830D01*
X105551242Y-55444855D01*
X105518399Y-55450778D01*
X104408316Y-55499042D01*
X104394318Y-55498860D01*
X101565388Y-55301909D01*
X101499877Y-55277616D01*
X101457900Y-55221761D01*
X101450000Y-55178208D01*
X101450000Y-54974000D01*
X101469685Y-54906961D01*
X101522489Y-54861206D01*
X101574000Y-54850000D01*
X103000000Y-54850000D01*
X103400000Y-54450000D01*
X103400000Y-53299996D01*
X103794435Y-53299996D01*
X103794435Y-53300003D01*
X103814630Y-53479249D01*
X103814631Y-53479254D01*
X103874211Y-53649523D01*
X103935506Y-53747072D01*
X103970184Y-53802262D01*
X104097738Y-53929816D01*
X104250478Y-54025789D01*
X104363583Y-54065366D01*
X104420745Y-54085368D01*
X104420750Y-54085369D01*
X104599996Y-54105565D01*
X104600000Y-54105565D01*
X104600004Y-54105565D01*
X104779249Y-54085369D01*
X104779252Y-54085368D01*
X104779255Y-54085368D01*
X104949522Y-54025789D01*
X105102262Y-53929816D01*
X105229816Y-53802262D01*
X105325789Y-53649522D01*
X105385368Y-53479255D01*
X105388083Y-53455162D01*
X105405565Y-53300003D01*
X105405565Y-53299996D01*
X105385369Y-53120750D01*
X105385368Y-53120745D01*
X105325789Y-52950478D01*
X105229816Y-52797738D01*
X105102262Y-52670184D01*
X104949523Y-52574211D01*
X104779254Y-52514631D01*
X104779249Y-52514630D01*
X104600004Y-52494435D01*
X104599996Y-52494435D01*
X104420750Y-52514630D01*
X104420745Y-52514631D01*
X104250476Y-52574211D01*
X104097737Y-52670184D01*
X103970184Y-52797737D01*
X103874211Y-52950476D01*
X103814631Y-53120745D01*
X103814630Y-53120750D01*
X103794435Y-53299996D01*
X103400000Y-53299996D01*
X103400000Y-51650000D01*
X103200000Y-51150000D01*
X103199999Y-51149999D01*
X100515165Y-50958226D01*
X100449699Y-50933815D01*
X100407822Y-50877885D01*
X100400000Y-50834541D01*
X100400000Y-49499999D01*
X98220888Y-49354725D01*
X98155306Y-49330625D01*
X98118227Y-49286454D01*
X98063591Y-49177182D01*
X98050500Y-49121728D01*
X98050500Y-46730010D01*
X98050499Y-46730007D01*
X98035200Y-46693071D01*
X98006928Y-46664799D01*
X97969992Y-46649500D01*
X97969991Y-46649500D01*
X96419991Y-46649500D01*
X96380009Y-46649500D01*
X96380007Y-46649500D01*
X96343071Y-46664799D01*
X96314799Y-46693071D01*
X96299500Y-46730007D01*
X96299500Y-48647437D01*
X96279815Y-48714476D01*
X96264668Y-48727733D01*
X96267636Y-48730404D01*
X95386943Y-49708952D01*
X95327465Y-49745613D01*
X95294775Y-49750000D01*
X94601362Y-49750000D01*
X94534323Y-49730315D01*
X94513681Y-49713681D01*
X93736319Y-48936319D01*
X93702834Y-48874996D01*
X93700000Y-48848638D01*
X93700000Y-46951362D01*
X93719685Y-46884323D01*
X93736319Y-46863681D01*
X93913681Y-46686319D01*
X93975004Y-46652834D01*
X94001362Y-46650000D01*
X95400000Y-46650000D01*
X96763681Y-45286319D01*
X96825004Y-45252834D01*
X96851362Y-45250000D01*
X98533783Y-45250000D01*
X98600822Y-45269685D01*
G37*
%TD.AperFunction*%
%TD*%
%TA.AperFunction,Conductor*%
%TO.N,/PD*%
G36*
X94755203Y-51255649D02*
G01*
X94761681Y-51261681D01*
X95550000Y-52050000D01*
X95700000Y-52050000D01*
X96676000Y-52050000D01*
X96743039Y-52069685D01*
X96788794Y-52122489D01*
X96800000Y-52174000D01*
X96800000Y-53126000D01*
X96780315Y-53193039D01*
X96727511Y-53238794D01*
X96676000Y-53250000D01*
X95449999Y-53250000D01*
X94700000Y-53999999D01*
X94700000Y-54326000D01*
X94680315Y-54393039D01*
X94627511Y-54438794D01*
X94576000Y-54450000D01*
X92024000Y-54450000D01*
X91956961Y-54430315D01*
X91911206Y-54377511D01*
X91900000Y-54326000D01*
X91900000Y-53374000D01*
X91919685Y-53306961D01*
X91972489Y-53261206D01*
X92024000Y-53250000D01*
X93199987Y-53250000D01*
X93200000Y-53250000D01*
X94150000Y-53200000D01*
X94150000Y-52701362D01*
X94169685Y-52634323D01*
X94186319Y-52613681D01*
X94550000Y-52250000D01*
X94550000Y-52050000D01*
X94550000Y-51349362D01*
X94569685Y-51282323D01*
X94622489Y-51236568D01*
X94691647Y-51226624D01*
X94755203Y-51255649D01*
G37*
%TD.AperFunction*%
%TD*%
%TA.AperFunction,Conductor*%
%TO.N,/B*%
G36*
X47343039Y-106569685D02*
G01*
X47388794Y-106622489D01*
X47400000Y-106674000D01*
X47400000Y-108076000D01*
X47380315Y-108143039D01*
X47327511Y-108188794D01*
X47276000Y-108200000D01*
X46324000Y-108200000D01*
X46256961Y-108180315D01*
X46211206Y-108127511D01*
X46200000Y-108076000D01*
X46200000Y-107224000D01*
X46219685Y-107156961D01*
X46272489Y-107111206D01*
X46324000Y-107100000D01*
X46650000Y-107100000D01*
X46650000Y-106674000D01*
X46669685Y-106606961D01*
X46722489Y-106561206D01*
X46774000Y-106550000D01*
X47276000Y-106550000D01*
X47343039Y-106569685D01*
G37*
%TD.AperFunction*%
%TD*%
%TA.AperFunction,Conductor*%
%TO.N,/GND3*%
G36*
X61093039Y-106519685D02*
G01*
X61138794Y-106572489D01*
X61150000Y-106624000D01*
X61150000Y-107050000D01*
X61476000Y-107050000D01*
X61543039Y-107069685D01*
X61588794Y-107122489D01*
X61600000Y-107174000D01*
X61600000Y-108026000D01*
X61580315Y-108093039D01*
X61527511Y-108138794D01*
X61476000Y-108150000D01*
X60524000Y-108150000D01*
X60456961Y-108130315D01*
X60411206Y-108077511D01*
X60400000Y-108026000D01*
X60400000Y-106624000D01*
X60419685Y-106556961D01*
X60472489Y-106511206D01*
X60524000Y-106500000D01*
X61026000Y-106500000D01*
X61093039Y-106519685D01*
G37*
%TD.AperFunction*%
%TD*%
M02*
