999
FreeCAD v0.21 33771 (Git)
  0
SECTION
  2
HEADER
  9
$ACADVER
  1
AC1014
  9
$ACADMAINTVER
 70
     9
  9
$DWGCODEPAGE
  3
ANSI_1252
  9
$TEXTSTYLE
  7
STANDARD
  9
$DIMSTYLE
  2
STANDARD
  9
$DIMTXSTY
  7
STANDARD
  9
$CMLSTYLE
  2
STANDARD
  9
$LUNITS
 70
2
  9
$INSUNITS
 70
4
  9
$PEXTMAX
 10
50
 20
50
 30
50
  9
$PEXTMIN
 10
0
 20
0
 30
0
  9
$HANDSEED
  5
FFFF
  0
ENDSEC
  0
SECTION
  2
CLASSES
  0
CLASS
  1
ACDBDICTIONARYWDFLT
  2
AcDbDictionaryWithDefault
  3
ObjectDBX Classes
 90
        0
280
     0
281
     0
  0
CLASS
  1
XRECORD
  2
AcDbXrecord
  3
ObjectDBX Classes
 90
        0
280
     0
281
     0
  0
CLASS
  1
LWPOLYLINE
  2
AcDbPolyline
  3
ObjectDBX Classes
 90
        0
280
     0
281
     1
  0
ENDSEC
  0
SECTION
  2
TABLES
  0
TABLE
  2
VPORT
  5
20
330
0
100
AcDbSymbolTable
 70
     1
  0
VPORT
  5
21
330
20
100
AcDbSymbolTableRecord
100
AcDbViewportTableRecord
  2
*ACTIVE
 70
     0
  0
ENDTAB
  0
TABLE
  2
LTYPE
  5
22
330
0
100
AcDbSymbolTable
 70
     1
  0
LTYPE
  5
23
330
21
100
AcDbSymbolTableRecord
100
AcDbLinetypeTableRecord
  2
BYBLOCK
 70
     0
  3

 72
    65
 73
     0
 40
0.0
  0
LTYPE
  5
24
330
21
100
AcDbSymbolTableRecord
100
AcDbLinetypeTableRecord
  2
BYLAYER
 70
     0
  3

 72
    65
 73
     0
 40
0.0
  0
LTYPE
  5
25
330
21
100
AcDbSymbolTableRecord
100
AcDbLinetypeTableRecord
  2
CONTINUOUS
 70
     0
  3
Solid line
 72
    65
 73
     0
 40
0.0
  0
ENDTAB
  0
TABLE
  2
LAYER
  5
AA6
330
0
100
AcDbSymbolTable
 70
160
  0
LAYER
  5
AA7
330
AA6
100
AcDbSymbolTableRecord
100
AcDbLayerTableRecord
  2
0
 70
   0
 62
   7
  6
CONTINUOUS
  0
LAYER
  5
AA8
330
AA6
100
AcDbSymbolTableRecord
100
AcDbLayerTableRecord
  2
none
 70
    0
 62
    7
  6
CONTINUOUS
  0
LAYER
  5
AA9
330
AA6
100
AcDbSymbolTableRecord
100
AcDbLayerTableRecord
  2
Shape
 70
    0
 62
    7
  6
CONTINUOUS
  0
LAYER
  5
AAA
330
AA6
100
AcDbSymbolTableRecord
100
AcDbLayerTableRecord
  2
Shape001
 70
    0
 62
    7
  6
CONTINUOUS
  0
LAYER
  5
AAB
330
AA6
100
AcDbSymbolTableRecord
100
AcDbLayerTableRecord
  2
Shape002
 70
    0
 62
    7
  6
CONTINUOUS
  0
LAYER
  5
AAC
330
AA6
100
AcDbSymbolTableRecord
100
AcDbLayerTableRecord
  2
Shape003
 70
    0
 62
    7
  6
CONTINUOUS
  0
LAYER
  5
AAD
330
AA6
100
AcDbSymbolTableRecord
100
AcDbLayerTableRecord
  2
Shape004
 70
    0
 62
    7
  6
CONTINUOUS
  0
LAYER
  5
AAE
330
AA6
100
AcDbSymbolTableRecord
100
AcDbLayerTableRecord
  2
Shape005
 70
    0
 62
    7
  6
CONTINUOUS
  0
LAYER
  5
AAF
330
AA6
100
AcDbSymbolTableRecord
100
AcDbLayerTableRecord
  2
Shape006
 70
    0
 62
    7
  6
CONTINUOUS
  0
LAYER
  5
AB0
330
AA6
100
AcDbSymbolTableRecord
100
AcDbLayerTableRecord
  2
Shape007
 70
    0
 62
    7
  6
CONTINUOUS
  0
LAYER
  5
AB1
330
AA6
100
AcDbSymbolTableRecord
100
AcDbLayerTableRecord
  2
Shape008
 70
    0
 62
    7
  6
CONTINUOUS
  0
LAYER
  5
AB2
330
AA6
100
AcDbSymbolTableRecord
100
AcDbLayerTableRecord
  2
Shape009
 70
    0
 62
    7
  6
CONTINUOUS
  0
LAYER
  5
AB3
330
AA6
100
AcDbSymbolTableRecord
100
AcDbLayerTableRecord
  2
Shape010
 70
    0
 62
    7
  6
CONTINUOUS
  0
LAYER
  5
AB4
330
AA6
100
AcDbSymbolTableRecord
100
AcDbLayerTableRecord
  2
Shape011
 70
    0
 62
    7
  6
CONTINUOUS
  0
LAYER
  5
AB5
330
AA6
100
AcDbSymbolTableRecord
100
AcDbLayerTableRecord
  2
Shape012
 70
    0
 62
    7
  6
CONTINUOUS
  0
LAYER
  5
AB6
330
AA6
100
AcDbSymbolTableRecord
100
AcDbLayerTableRecord
  2
Shape013
 70
    0
 62
    7
  6
CONTINUOUS
  0
LAYER
  5
AB7
330
AA6
100
AcDbSymbolTableRecord
100
AcDbLayerTableRecord
  2
Shape014
 70
    0
 62
    7
  6
CONTINUOUS
  0
LAYER
  5
AB8
330
AA6
100
AcDbSymbolTableRecord
100
AcDbLayerTableRecord
  2
Shape015
 70
    0
 62
    7
  6
CONTINUOUS
  0
LAYER
  5
AB9
330
AA6
100
AcDbSymbolTableRecord
100
AcDbLayerTableRecord
  2
Shape016
 70
    0
 62
    7
  6
CONTINUOUS
  0
LAYER
  5
ABA
330
AA6
100
AcDbSymbolTableRecord
100
AcDbLayerTableRecord
  2
Shape017
 70
    0
 62
    7
  6
CONTINUOUS
  0
LAYER
  5
ABB
330
AA6
100
AcDbSymbolTableRecord
100
AcDbLayerTableRecord
  2
Shape018
 70
    0
 62
    7
  6
CONTINUOUS
  0
LAYER
  5
ABC
330
AA6
100
AcDbSymbolTableRecord
100
AcDbLayerTableRecord
  2
Shape019
 70
    0
 62
    7
  6
CONTINUOUS
  0
LAYER
  5
ABD
330
AA6
100
AcDbSymbolTableRecord
100
AcDbLayerTableRecord
  2
Shape020
 70
    0
 62
    7
  6
CONTINUOUS
  0
LAYER
  5
ABE
330
AA6
100
AcDbSymbolTableRecord
100
AcDbLayerTableRecord
  2
Shape021
 70
    0
 62
    7
  6
CONTINUOUS
  0
LAYER
  5
ABF
330
AA6
100
AcDbSymbolTableRecord
100
AcDbLayerTableRecord
  2
Shape022
 70
    0
 62
    7
  6
CONTINUOUS
  0
LAYER
  5
AC0
330
AA6
100
AcDbSymbolTableRecord
100
AcDbLayerTableRecord
  2
Shape023
 70
    0
 62
    7
  6
CONTINUOUS
  0
LAYER
  5
AC1
330
AA6
100
AcDbSymbolTableRecord
100
AcDbLayerTableRecord
  2
Shape024
 70
    0
 62
    7
  6
CONTINUOUS
  0
LAYER
  5
AC2
330
AA6
100
AcDbSymbolTableRecord
100
AcDbLayerTableRecord
  2
Shape025
 70
    0
 62
    7
  6
CONTINUOUS
  0
LAYER
  5
AC3
330
AA6
100
AcDbSymbolTableRecord
100
AcDbLayerTableRecord
  2
Shape026
 70
    0
 62
    7
  6
CONTINUOUS
  0
LAYER
  5
AC4
330
AA6
100
AcDbSymbolTableRecord
100
AcDbLayerTableRecord
  2
Shape027
 70
    0
 62
    7
  6
CONTINUOUS
  0
LAYER
  5
AC5
330
AA6
100
AcDbSymbolTableRecord
100
AcDbLayerTableRecord
  2
Shape028
 70
    0
 62
    7
  6
CONTINUOUS
  0
LAYER
  5
AC6
330
AA6
100
AcDbSymbolTableRecord
100
AcDbLayerTableRecord
  2
Shape029
 70
    0
 62
    7
  6
CONTINUOUS
  0
LAYER
  5
AC7
330
AA6
100
AcDbSymbolTableRecord
100
AcDbLayerTableRecord
  2
Shape030
 70
    0
 62
    7
  6
CONTINUOUS
  0
LAYER
  5
AC8
330
AA6
100
AcDbSymbolTableRecord
100
AcDbLayerTableRecord
  2
Shape031
 70
    0
 62
    7
  6
CONTINUOUS
  0
LAYER
  5
AC9
330
AA6
100
AcDbSymbolTableRecord
100
AcDbLayerTableRecord
  2
Shape032
 70
    0
 62
    7
  6
CONTINUOUS
  0
LAYER
  5
ACA
330
AA6
100
AcDbSymbolTableRecord
100
AcDbLayerTableRecord
  2
Shape033
 70
    0
 62
    7
  6
CONTINUOUS
  0
LAYER
  5
ACB
330
AA6
100
AcDbSymbolTableRecord
100
AcDbLayerTableRecord
  2
Shape034
 70
    0
 62
    7
  6
CONTINUOUS
  0
LAYER
  5
ACC
330
AA6
100
AcDbSymbolTableRecord
100
AcDbLayerTableRecord
  2
Shape035
 70
    0
 62
    7
  6
CONTINUOUS
  0
LAYER
  5
ACD
330
AA6
100
AcDbSymbolTableRecord
100
AcDbLayerTableRecord
  2
Shape036
 70
    0
 62
    7
  6
CONTINUOUS
  0
LAYER
  5
ACE
330
AA6
100
AcDbSymbolTableRecord
100
AcDbLayerTableRecord
  2
Shape037
 70
    0
 62
    7
  6
CONTINUOUS
  0
LAYER
  5
ACF
330
AA6
100
AcDbSymbolTableRecord
100
AcDbLayerTableRecord
  2
Shape038
 70
    0
 62
    7
  6
CONTINUOUS
  0
LAYER
  5
AD0
330
AA6
100
AcDbSymbolTableRecord
100
AcDbLayerTableRecord
  2
Shape039
 70
    0
 62
    7
  6
CONTINUOUS
  0
LAYER
  5
AD1
330
AA6
100
AcDbSymbolTableRecord
100
AcDbLayerTableRecord
  2
Shape040
 70
    0
 62
    7
  6
CONTINUOUS
  0
LAYER
  5
AD2
330
AA6
100
AcDbSymbolTableRecord
100
AcDbLayerTableRecord
  2
Shape041
 70
    0
 62
    7
  6
CONTINUOUS
  0
LAYER
  5
AD3
330
AA6
100
AcDbSymbolTableRecord
100
AcDbLayerTableRecord
  2
Shape042
 70
    0
 62
    7
  6
CONTINUOUS
  0
LAYER
  5
AD4
330
AA6
100
AcDbSymbolTableRecord
100
AcDbLayerTableRecord
  2
Shape043
 70
    0
 62
    7
  6
CONTINUOUS
  0
LAYER
  5
AD5
330
AA6
100
AcDbSymbolTableRecord
100
AcDbLayerTableRecord
  2
Shape044
 70
    0
 62
    7
  6
CONTINUOUS
  0
LAYER
  5
AD6
330
AA6
100
AcDbSymbolTableRecord
100
AcDbLayerTableRecord
  2
Shape045
 70
    0
 62
    7
  6
CONTINUOUS
  0
LAYER
  5
AD7
330
AA6
100
AcDbSymbolTableRecord
100
AcDbLayerTableRecord
  2
Shape046
 70
    0
 62
    7
  6
CONTINUOUS
  0
LAYER
  5
AD8
330
AA6
100
AcDbSymbolTableRecord
100
AcDbLayerTableRecord
  2
Shape047
 70
    0
 62
    7
  6
CONTINUOUS
  0
LAYER
  5
AD9
330
AA6
100
AcDbSymbolTableRecord
100
AcDbLayerTableRecord
  2
Shape048
 70
    0
 62
    7
  6
CONTINUOUS
  0
LAYER
  5
ADA
330
AA6
100
AcDbSymbolTableRecord
100
AcDbLayerTableRecord
  2
Shape049
 70
    0
 62
    7
  6
CONTINUOUS
  0
LAYER
  5
ADB
330
AA6
100
AcDbSymbolTableRecord
100
AcDbLayerTableRecord
  2
Shape050
 70
    0
 62
    7
  6
CONTINUOUS
  0
LAYER
  5
ADC
330
AA6
100
AcDbSymbolTableRecord
100
AcDbLayerTableRecord
  2
Shape051
 70
    0
 62
    7
  6
CONTINUOUS
  0
LAYER
  5
ADD
330
AA6
100
AcDbSymbolTableRecord
100
AcDbLayerTableRecord
  2
Shape052
 70
    0
 62
    7
  6
CONTINUOUS
  0
LAYER
  5
ADE
330
AA6
100
AcDbSymbolTableRecord
100
AcDbLayerTableRecord
  2
Shape053
 70
    0
 62
    7
  6
CONTINUOUS
  0
LAYER
  5
ADF
330
AA6
100
AcDbSymbolTableRecord
100
AcDbLayerTableRecord
  2
Shape054
 70
    0
 62
    7
  6
CONTINUOUS
  0
LAYER
  5
AE0
330
AA6
100
AcDbSymbolTableRecord
100
AcDbLayerTableRecord
  2
Shape055
 70
    0
 62
    7
  6
CONTINUOUS
  0
LAYER
  5
AE1
330
AA6
100
AcDbSymbolTableRecord
100
AcDbLayerTableRecord
  2
Shape056
 70
    0
 62
    7
  6
CONTINUOUS
  0
LAYER
  5
AE2
330
AA6
100
AcDbSymbolTableRecord
100
AcDbLayerTableRecord
  2
Shape057
 70
    0
 62
    7
  6
CONTINUOUS
  0
LAYER
  5
AE3
330
AA6
100
AcDbSymbolTableRecord
100
AcDbLayerTableRecord
  2
Shape058
 70
    0
 62
    7
  6
CONTINUOUS
  0
LAYER
  5
AE4
330
AA6
100
AcDbSymbolTableRecord
100
AcDbLayerTableRecord
  2
Shape059
 70
    0
 62
    7
  6
CONTINUOUS
  0
LAYER
  5
AE5
330
AA6
100
AcDbSymbolTableRecord
100
AcDbLayerTableRecord
  2
Shape060
 70
    0
 62
    7
  6
CONTINUOUS
  0
LAYER
  5
AE6
330
AA6
100
AcDbSymbolTableRecord
100
AcDbLayerTableRecord
  2
Shape061
 70
    0
 62
    7
  6
CONTINUOUS
  0
LAYER
  5
AE7
330
AA6
100
AcDbSymbolTableRecord
100
AcDbLayerTableRecord
  2
Shape062
 70
    0
 62
    7
  6
CONTINUOUS
  0
LAYER
  5
AE8
330
AA6
100
AcDbSymbolTableRecord
100
AcDbLayerTableRecord
  2
Shape063
 70
    0
 62
    7
  6
CONTINUOUS
  0
LAYER
  5
AE9
330
AA6
100
AcDbSymbolTableRecord
100
AcDbLayerTableRecord
  2
Shape064
 70
    0
 62
    7
  6
CONTINUOUS
  0
LAYER
  5
AEA
330
AA6
100
AcDbSymbolTableRecord
100
AcDbLayerTableRecord
  2
Shape065
 70
    0
 62
    7
  6
CONTINUOUS
  0
LAYER
  5
AEB
330
AA6
100
AcDbSymbolTableRecord
100
AcDbLayerTableRecord
  2
Shape066
 70
    0
 62
    7
  6
CONTINUOUS
  0
LAYER
  5
AEC
330
AA6
100
AcDbSymbolTableRecord
100
AcDbLayerTableRecord
  2
Shape067
 70
    0
 62
    7
  6
CONTINUOUS
  0
LAYER
  5
AED
330
AA6
100
AcDbSymbolTableRecord
100
AcDbLayerTableRecord
  2
Shape068
 70
    0
 62
    7
  6
CONTINUOUS
  0
LAYER
  5
AEE
330
AA6
100
AcDbSymbolTableRecord
100
AcDbLayerTableRecord
  2
Shape069
 70
    0
 62
    7
  6
CONTINUOUS
  0
LAYER
  5
AEF
330
AA6
100
AcDbSymbolTableRecord
100
AcDbLayerTableRecord
  2
Shape070
 70
    0
 62
    7
  6
CONTINUOUS
  0
LAYER
  5
AF0
330
AA6
100
AcDbSymbolTableRecord
100
AcDbLayerTableRecord
  2
Shape071
 70
    0
 62
    7
  6
CONTINUOUS
  0
LAYER
  5
AF1
330
AA6
100
AcDbSymbolTableRecord
100
AcDbLayerTableRecord
  2
Shape072
 70
    0
 62
    7
  6
CONTINUOUS
  0
LAYER
  5
AF2
330
AA6
100
AcDbSymbolTableRecord
100
AcDbLayerTableRecord
  2
Shape073
 70
    0
 62
    7
  6
CONTINUOUS
  0
LAYER
  5
AF3
330
AA6
100
AcDbSymbolTableRecord
100
AcDbLayerTableRecord
  2
Shape074
 70
    0
 62
    7
  6
CONTINUOUS
  0
LAYER
  5
AF4
330
AA6
100
AcDbSymbolTableRecord
100
AcDbLayerTableRecord
  2
Shape075
 70
    0
 62
    7
  6
CONTINUOUS
  0
LAYER
  5
AF5
330
AA6
100
AcDbSymbolTableRecord
100
AcDbLayerTableRecord
  2
Shape076
 70
    0
 62
    7
  6
CONTINUOUS
  0
LAYER
  5
AF6
330
AA6
100
AcDbSymbolTableRecord
100
AcDbLayerTableRecord
  2
Shape077
 70
    0
 62
    7
  6
CONTINUOUS
  0
LAYER
  5
AF7
330
AA6
100
AcDbSymbolTableRecord
100
AcDbLayerTableRecord
  2
Shape078
 70
    0
 62
    7
  6
CONTINUOUS
  0
LAYER
  5
AF8
330
AA6
100
AcDbSymbolTableRecord
100
AcDbLayerTableRecord
  2
Shape079
 70
    0
 62
    7
  6
CONTINUOUS
  0
LAYER
  5
AF9
330
AA6
100
AcDbSymbolTableRecord
100
AcDbLayerTableRecord
  2
Shape080
 70
    0
 62
    7
  6
CONTINUOUS
  0
LAYER
  5
AFA
330
AA6
100
AcDbSymbolTableRecord
100
AcDbLayerTableRecord
  2
Shape081
 70
    0
 62
    7
  6
CONTINUOUS
  0
LAYER
  5
AFB
330
AA6
100
AcDbSymbolTableRecord
100
AcDbLayerTableRecord
  2
Shape082
 70
    0
 62
    7
  6
CONTINUOUS
  0
LAYER
  5
AFC
330
AA6
100
AcDbSymbolTableRecord
100
AcDbLayerTableRecord
  2
Shape083
 70
    0
 62
    7
  6
CONTINUOUS
  0
LAYER
  5
AFD
330
AA6
100
AcDbSymbolTableRecord
100
AcDbLayerTableRecord
  2
Shape084
 70
    0
 62
    7
  6
CONTINUOUS
  0
LAYER
  5
AFE
330
AA6
100
AcDbSymbolTableRecord
100
AcDbLayerTableRecord
  2
Shape085
 70
    0
 62
    7
  6
CONTINUOUS
  0
LAYER
  5
AFF
330
AA6
100
AcDbSymbolTableRecord
100
AcDbLayerTableRecord
  2
Shape086
 70
    0
 62
    7
  6
CONTINUOUS
  0
LAYER
  5
B00
330
AA6
100
AcDbSymbolTableRecord
100
AcDbLayerTableRecord
  2
Shape087
 70
    0
 62
    7
  6
CONTINUOUS
  0
LAYER
  5
B01
330
AA6
100
AcDbSymbolTableRecord
100
AcDbLayerTableRecord
  2
Shape088
 70
    0
 62
    7
  6
CONTINUOUS
  0
LAYER
  5
B02
330
AA6
100
AcDbSymbolTableRecord
100
AcDbLayerTableRecord
  2
Shape089
 70
    0
 62
    7
  6
CONTINUOUS
  0
LAYER
  5
B03
330
AA6
100
AcDbSymbolTableRecord
100
AcDbLayerTableRecord
  2
Shape090
 70
    0
 62
    7
  6
CONTINUOUS
  0
LAYER
  5
B04
330
AA6
100
AcDbSymbolTableRecord
100
AcDbLayerTableRecord
  2
Shape091
 70
    0
 62
    7
  6
CONTINUOUS
  0
LAYER
  5
B05
330
AA6
100
AcDbSymbolTableRecord
100
AcDbLayerTableRecord
  2
Shape092
 70
    0
 62
    7
  6
CONTINUOUS
  0
LAYER
  5
B06
330
AA6
100
AcDbSymbolTableRecord
100
AcDbLayerTableRecord
  2
Shape093
 70
    0
 62
    7
  6
CONTINUOUS
  0
LAYER
  5
B07
330
AA6
100
AcDbSymbolTableRecord
100
AcDbLayerTableRecord
  2
Shape094
 70
    0
 62
    7
  6
CONTINUOUS
  0
LAYER
  5
B08
330
AA6
100
AcDbSymbolTableRecord
100
AcDbLayerTableRecord
  2
Shape095
 70
    0
 62
    7
  6
CONTINUOUS
  0
LAYER
  5
B09
330
AA6
100
AcDbSymbolTableRecord
100
AcDbLayerTableRecord
  2
Shape096
 70
    0
 62
    7
  6
CONTINUOUS
  0
LAYER
  5
B0A
330
AA6
100
AcDbSymbolTableRecord
100
AcDbLayerTableRecord
  2
Shape097
 70
    0
 62
    7
  6
CONTINUOUS
  0
LAYER
  5
B0B
330
AA6
100
AcDbSymbolTableRecord
100
AcDbLayerTableRecord
  2
Shape098
 70
    0
 62
    7
  6
CONTINUOUS
  0
LAYER
  5
B0C
330
AA6
100
AcDbSymbolTableRecord
100
AcDbLayerTableRecord
  2
Shape099
 70
    0
 62
    7
  6
CONTINUOUS
  0
LAYER
  5
B0D
330
AA6
100
AcDbSymbolTableRecord
100
AcDbLayerTableRecord
  2
Shape100
 70
    0
 62
    7
  6
CONTINUOUS
  0
LAYER
  5
B0E
330
AA6
100
AcDbSymbolTableRecord
100
AcDbLayerTableRecord
  2
Shape101
 70
    0
 62
    7
  6
CONTINUOUS
  0
LAYER
  5
B0F
330
AA6
100
AcDbSymbolTableRecord
100
AcDbLayerTableRecord
  2
Shape102
 70
    0
 62
    7
  6
CONTINUOUS
  0
LAYER
  5
B10
330
AA6
100
AcDbSymbolTableRecord
100
AcDbLayerTableRecord
  2
Shape103
 70
    0
 62
    7
  6
CONTINUOUS
  0
LAYER
  5
B11
330
AA6
100
AcDbSymbolTableRecord
100
AcDbLayerTableRecord
  2
Shape104
 70
    0
 62
    7
  6
CONTINUOUS
  0
LAYER
  5
B12
330
AA6
100
AcDbSymbolTableRecord
100
AcDbLayerTableRecord
  2
Shape105
 70
    0
 62
    7
  6
CONTINUOUS
  0
LAYER
  5
B13
330
AA6
100
AcDbSymbolTableRecord
100
AcDbLayerTableRecord
  2
Shape106
 70
    0
 62
    7
  6
CONTINUOUS
  0
LAYER
  5
B14
330
AA6
100
AcDbSymbolTableRecord
100
AcDbLayerTableRecord
  2
Shape107
 70
    0
 62
    7
  6
CONTINUOUS
  0
LAYER
  5
B15
330
AA6
100
AcDbSymbolTableRecord
100
AcDbLayerTableRecord
  2
Shape108
 70
    0
 62
    7
  6
CONTINUOUS
  0
LAYER
  5
B16
330
AA6
100
AcDbSymbolTableRecord
100
AcDbLayerTableRecord
  2
Shape109
 70
    0
 62
    7
  6
CONTINUOUS
  0
LAYER
  5
B17
330
AA6
100
AcDbSymbolTableRecord
100
AcDbLayerTableRecord
  2
Shape110
 70
    0
 62
    7
  6
CONTINUOUS
  0
LAYER
  5
B18
330
AA6
100
AcDbSymbolTableRecord
100
AcDbLayerTableRecord
  2
Shape111
 70
    0
 62
    7
  6
CONTINUOUS
  0
LAYER
  5
B19
330
AA6
100
AcDbSymbolTableRecord
100
AcDbLayerTableRecord
  2
Shape112
 70
    0
 62
    7
  6
CONTINUOUS
  0
LAYER
  5
B1A
330
AA6
100
AcDbSymbolTableRecord
100
AcDbLayerTableRecord
  2
Shape113
 70
    0
 62
    7
  6
CONTINUOUS
  0
LAYER
  5
B1B
330
AA6
100
AcDbSymbolTableRecord
100
AcDbLayerTableRecord
  2
Shape114
 70
    0
 62
    7
  6
CONTINUOUS
  0
LAYER
  5
B1C
330
AA6
100
AcDbSymbolTableRecord
100
AcDbLayerTableRecord
  2
Shape115
 70
    0
 62
    7
  6
CONTINUOUS
  0
LAYER
  5
B1D
330
AA6
100
AcDbSymbolTableRecord
100
AcDbLayerTableRecord
  2
Shape116
 70
    0
 62
    7
  6
CONTINUOUS
  0
LAYER
  5
B1E
330
AA6
100
AcDbSymbolTableRecord
100
AcDbLayerTableRecord
  2
Shape117
 70
    0
 62
    7
  6
CONTINUOUS
  0
LAYER
  5
B1F
330
AA6
100
AcDbSymbolTableRecord
100
AcDbLayerTableRecord
  2
Shape118
 70
    0
 62
    7
  6
CONTINUOUS
  0
LAYER
  5
B20
330
AA6
100
AcDbSymbolTableRecord
100
AcDbLayerTableRecord
  2
Shape119
 70
    0
 62
    7
  6
CONTINUOUS
  0
LAYER
  5
B21
330
AA6
100
AcDbSymbolTableRecord
100
AcDbLayerTableRecord
  2
Shape120
 70
    0
 62
    7
  6
CONTINUOUS
  0
LAYER
  5
B22
330
AA6
100
AcDbSymbolTableRecord
100
AcDbLayerTableRecord
  2
Shape121
 70
    0
 62
    7
  6
CONTINUOUS
  0
LAYER
  5
B23
330
AA6
100
AcDbSymbolTableRecord
100
AcDbLayerTableRecord
  2
Shape122
 70
    0
 62
    7
  6
CONTINUOUS
  0
LAYER
  5
B24
330
AA6
100
AcDbSymbolTableRecord
100
AcDbLayerTableRecord
  2
Shape123
 70
    0
 62
    7
  6
CONTINUOUS
  0
LAYER
  5
B25
330
AA6
100
AcDbSymbolTableRecord
100
AcDbLayerTableRecord
  2
Shape124
 70
    0
 62
    7
  6
CONTINUOUS
  0
LAYER
  5
B26
330
AA6
100
AcDbSymbolTableRecord
100
AcDbLayerTableRecord
  2
Shape125
 70
    0
 62
    7
  6
CONTINUOUS
  0
LAYER
  5
B27
330
AA6
100
AcDbSymbolTableRecord
100
AcDbLayerTableRecord
  2
Shape126
 70
    0
 62
    7
  6
CONTINUOUS
  0
LAYER
  5
B28
330
AA6
100
AcDbSymbolTableRecord
100
AcDbLayerTableRecord
  2
Shape127
 70
    0
 62
    7
  6
CONTINUOUS
  0
LAYER
  5
B29
330
AA6
100
AcDbSymbolTableRecord
100
AcDbLayerTableRecord
  2
Shape128
 70
    0
 62
    7
  6
CONTINUOUS
  0
LAYER
  5
B2A
330
AA6
100
AcDbSymbolTableRecord
100
AcDbLayerTableRecord
  2
Shape129
 70
    0
 62
    7
  6
CONTINUOUS
  0
LAYER
  5
B2B
330
AA6
100
AcDbSymbolTableRecord
100
AcDbLayerTableRecord
  2
Shape130
 70
    0
 62
    7
  6
CONTINUOUS
  0
LAYER
  5
B2C
330
AA6
100
AcDbSymbolTableRecord
100
AcDbLayerTableRecord
  2
Shape131
 70
    0
 62
    7
  6
CONTINUOUS
  0
LAYER
  5
B2D
330
AA6
100
AcDbSymbolTableRecord
100
AcDbLayerTableRecord
  2
Shape132
 70
    0
 62
    7
  6
CONTINUOUS
  0
LAYER
  5
B2E
330
AA6
100
AcDbSymbolTableRecord
100
AcDbLayerTableRecord
  2
Shape133
 70
    0
 62
    7
  6
CONTINUOUS
  0
LAYER
  5
B2F
330
AA6
100
AcDbSymbolTableRecord
100
AcDbLayerTableRecord
  2
Shape134
 70
    0
 62
    7
  6
CONTINUOUS
  0
LAYER
  5
B30
330
AA6
100
AcDbSymbolTableRecord
100
AcDbLayerTableRecord
  2
Shape135
 70
    0
 62
    7
  6
CONTINUOUS
  0
LAYER
  5
B31
330
AA6
100
AcDbSymbolTableRecord
100
AcDbLayerTableRecord
  2
Shape136
 70
    0
 62
    7
  6
CONTINUOUS
  0
LAYER
  5
B32
330
AA6
100
AcDbSymbolTableRecord
100
AcDbLayerTableRecord
  2
Shape137
 70
    0
 62
    7
  6
CONTINUOUS
  0
LAYER
  5
B33
330
AA6
100
AcDbSymbolTableRecord
100
AcDbLayerTableRecord
  2
Shape138
 70
    0
 62
    7
  6
CONTINUOUS
  0
LAYER
  5
B34
330
AA6
100
AcDbSymbolTableRecord
100
AcDbLayerTableRecord
  2
Shape139
 70
    0
 62
    7
  6
CONTINUOUS
  0
LAYER
  5
B35
330
AA6
100
AcDbSymbolTableRecord
100
AcDbLayerTableRecord
  2
Shape140
 70
    0
 62
    7
  6
CONTINUOUS
  0
LAYER
  5
B36
330
AA6
100
AcDbSymbolTableRecord
100
AcDbLayerTableRecord
  2
Shape141
 70
    0
 62
    7
  6
CONTINUOUS
  0
LAYER
  5
B37
330
AA6
100
AcDbSymbolTableRecord
100
AcDbLayerTableRecord
  2
Shape142
 70
    0
 62
    7
  6
CONTINUOUS
  0
LAYER
  5
B38
330
AA6
100
AcDbSymbolTableRecord
100
AcDbLayerTableRecord
  2
Shape143
 70
    0
 62
    7
  6
CONTINUOUS
  0
LAYER
  5
B39
330
AA6
100
AcDbSymbolTableRecord
100
AcDbLayerTableRecord
  2
Shape144
 70
    0
 62
    7
  6
CONTINUOUS
  0
LAYER
  5
B3A
330
AA6
100
AcDbSymbolTableRecord
100
AcDbLayerTableRecord
  2
Shape145
 70
    0
 62
    7
  6
CONTINUOUS
  0
LAYER
  5
B3B
330
AA6
100
AcDbSymbolTableRecord
100
AcDbLayerTableRecord
  2
Shape146
 70
    0
 62
    7
  6
CONTINUOUS
  0
LAYER
  5
B3C
330
AA6
100
AcDbSymbolTableRecord
100
AcDbLayerTableRecord
  2
Shape147
 70
    0
 62
    7
  6
CONTINUOUS
  0
LAYER
  5
B3D
330
AA6
100
AcDbSymbolTableRecord
100
AcDbLayerTableRecord
  2
Shape148
 70
    0
 62
    7
  6
CONTINUOUS
  0
LAYER
  5
B3E
330
AA6
100
AcDbSymbolTableRecord
100
AcDbLayerTableRecord
  2
Shape149
 70
    0
 62
    7
  6
CONTINUOUS
  0
LAYER
  5
B3F
330
AA6
100
AcDbSymbolTableRecord
100
AcDbLayerTableRecord
  2
Shape150
 70
    0
 62
    7
  6
CONTINUOUS
  0
LAYER
  5
B40
330
AA6
100
AcDbSymbolTableRecord
100
AcDbLayerTableRecord
  2
Shape151
 70
    0
 62
    7
  6
CONTINUOUS
  0
LAYER
  5
B41
330
AA6
100
AcDbSymbolTableRecord
100
AcDbLayerTableRecord
  2
Shape152
 70
    0
 62
    7
  6
CONTINUOUS
  0
LAYER
  5
B42
330
AA6
100
AcDbSymbolTableRecord
100
AcDbLayerTableRecord
  2
Shape153
 70
    0
 62
    7
  6
CONTINUOUS
  0
LAYER
  5
B43
330
AA6
100
AcDbSymbolTableRecord
100
AcDbLayerTableRecord
  2
Shape154
 70
    0
 62
    7
  6
CONTINUOUS
  0
LAYER
  5
B44
330
AA6
100
AcDbSymbolTableRecord
100
AcDbLayerTableRecord
  2
Shape155
 70
    0
 62
    7
  6
CONTINUOUS
  0
LAYER
  5
B45
330
AA6
100
AcDbSymbolTableRecord
100
AcDbLayerTableRecord
  2
Shape156
 70
    0
 62
    7
  6
CONTINUOUS
  0
LAYER
  5
B46
330
AA6
100
AcDbSymbolTableRecord
100
AcDbLayerTableRecord
  2
Shape157
 70
    0
 62
    7
  6
CONTINUOUS
  0
ENDTAB
  0
TABLE
  2
STYLE
  5
70
330
0
100
AcDbSymbolTable
 70
     2
  0
STYLE
  5
71
330
70
100
AcDbSymbolTableRecord
100
AcDbTextStyleTableRecord
  2
STANDARD
 70
     0
 40
0.0
 41
1.0
 50
0.0
 71
     0
 42
2.5
  3
arial.ttf
  4

  0
STYLE
  5
72
330
70
100
AcDbSymbolTableRecord
100
AcDbTextStyleTableRecord
  2
ANNOTATIVE
 70
     0
 40
0.0
 41
1.0
 50
0.0
 71
     0
 42
2.5
  3
arial.ttf
  4

  0
ENDTAB
  0
TABLE
  2
VIEW
  5
73
330
0
100
AcDbSymbolTable
 70
     0
  0
ENDTAB
  0
TABLE
  2
UCS
  5
74
330
0
100
AcDbSymbolTable
 70
     0
  0
ENDTAB
  0
TABLE
  2
APPID
  5
75
330
0
100
AcDbSymbolTable
 70
     2
  0
APPID
  5
76
330
75
100
AcDbSymbolTableRecord
100
AcDbRegAppTableRecord
  2
ACAD
 70
     0
  0
APPID
  5
77
330
75
100
AcDbSymbolTableRecord
100
AcDbRegAppTableRecord
  2
ACADANNOTATIVE
 70
     0
  0
ENDTAB
  0
TABLE
  2
DIMSTYLE
  5
78
330
0
100
AcDbSymbolTable
 70
     2
  0
DIMSTYLE
105
79
330
78
100
AcDbSymbolTableRecord
100
AcDbDimStyleTableRecord
  2
STANDARD
 70
     0
  3

  4

  5

  6

  7

 40
0.0
 41
2.5
 42
0.625
 43
3.75
 44
1.25
 45
0.0
 46
0.0
 47
0.0
 48
0.0
140
2.5
141
2.5
142
0.0
143
0.03937007874016
144
1.0
145
0.0
146
1.0
147
0.625
 71
     0
 72
     0
 73
     0
 74
     0
 75
     0
 76
     0
 77
     1
 78
     8
170
     0
171
     3
172
     1
173
     0
174
     0
175
     0
176
     0
177
     0
178
     0
270
     2
271
     2
272
     2
273
     2
274
     3
340
71
275
     0
280
     0
281
     0
282
     0
283
     0
284
     8
285
     0
286
     0
287
     3
288
     0
  0
ENDTAB
  0
TABLE
  2
BLOCK_RECORD
  5
A01
330
0
100
AcDbSymbolTable
  70
5
  0
BLOCK_RECORD
  5
A02
330
A01
100
AcDbSymbolTableRecord
100
AcDbBlockTableRecord
  2
*MODEL_SPACE
  0
BLOCK_RECORD
  5
A03
330
A01
100
AcDbSymbolTableRecord
100
AcDbBlockTableRecord
  2
*PAPER_SPACE
  0
ENDTAB
  0
ENDSEC
  0
SECTION
  2
BLOCKS
  0
BLOCK
  5
A04
330
A02
100
AcDbEntity
  8
0
100
AcDbBlockBegin
  2
*MODEL_SPACE
 70
   0
 10
0
 20
0
 30
0
  3
*MODEL_SPACE
  1
 
  0
ENDBLK
  5
A05
330
A02
100
AcDbEntity
  8
0
100
AcDbBlockEnd
  0
BLOCK
  5
A06
330
A03
100
AcDbEntity
 67
1
  8
0
100
AcDbBlockBegin
  2
*PAPER_SPACE
 70
   0
 10
0
 20
0
 30
0
  3
*PAPER_SPACE
  1
 
  0
ENDBLK
  5
A07
330
A03
100
AcDbEntity
 67
    1
  8
0
100
AcDbBlockEnd
  0
ENDSEC
  0
SECTION
  2
ENTITIES
  0
SPLINE
  5
A08
330
A02
100
AcDbEntity
  8
Shape
100
AcDbSpline
210
0
220
0
230
1
 70
8
 71
1
 72
4
 73
2
 74
0
 40
2.84202e-14
 40
2.84202e-14
 40
22.1995
 40
22.1995
 10
78.1371
 20
-26.4264
 30
0
 10
78.253
 20
-18.5958
 30
0
  0
SPLINE
  5
A09
330
A02
100
AcDbEntity
  8
Shape001
100
AcDbSpline
210
0
220
0
230
1
 70
8
 71
1
 72
4
 73
2
 74
0
 40
0
 40
0
 40
17.9573
 40
17.9573
 10
78.253
 20
-18.5958
 30
0
 10
84.5878
 20
-18.6323
 30
0
  0
SPLINE
  5
A0A
330
A02
100
AcDbEntity
  8
Shape002
100
AcDbSpline
210
0
220
0
230
1
 70
8
 71
3
 72
8
 73
4
 74
0
 40
0
 40
0
 40
0
 40
0
 40
1
 40
1
 40
1
 40
1
 10
84.5878
 20
-18.6323
 30
0
 10
84.8458
 20
-18.6495
 30
0
 10
85.0912
 20
-18.913
 30
0
 10
85.0969
 20
-19.2074
 30
0
  0
SPLINE
  5
A0B
330
A02
100
AcDbEntity
  8
Shape003
100
AcDbSpline
210
0
220
0
230
1
 70
8
 71
1
 72
4
 73
2
 74
0
 40
0
 40
0
 40
7.57061
 40
7.57061
 10
85.0969
 20
-19.2074
 30
0
 10
85.1706
 20
-21.8771
 30
0
  0
SPLINE
  5
A0C
330
A02
100
AcDbEntity
  8
Shape004
100
AcDbSpline
210
0
220
0
230
1
 70
8
 71
3
 72
8
 73
4
 74
0
 40
0
 40
0
 40
0
 40
0
 40
1
 40
1
 40
1
 40
1
 10
85.1706
 20
-21.8771
 30
0
 10
84.9605
 20
-21.8714
 30
0
 10
84.6852
 20
-22.1369
 30
0
 10
84.6757
 20
-22.365
 30
0
  0
SPLINE
  5
A0D
330
A02
100
AcDbEntity
  8
Shape005
100
AcDbSpline
210
0
220
0
230
1
 70
8
 71
1
 72
4
 73
2
 74
0
 40
0
 40
0
 40
11.8013
 40
11.8013
 10
84.6757
 20
-22.365
 30
0
 10
84.6549
 20
-26.5282
 30
0
  0
SPLINE
  5
A0E
330
A02
100
AcDbEntity
  8
Shape006
100
AcDbSpline
210
0
220
0
230
1
 70
8
 71
3
 72
8
 73
4
 74
0
 40
0
 40
0
 40
0
 40
0
 40
1
 40
1
 40
1
 40
1
 10
84.6549
 20
-26.5282
 30
0
 10
84.6533
 20
-26.7187
 30
0
 10
84.4681
 20
-26.936
 30
0
 10
84.2789
 20
-26.9434
 30
0
  0
SPLINE
  5
A0F
330
A02
100
AcDbEntity
  8
Shape007
100
AcDbSpline
210
0
220
0
230
1
 70
8
 71
1
 72
4
 73
2
 74
0
 40
0
 40
0
 40
16.3031
 40
16.3031
 10
84.2789
 20
-26.9434
 30
0
 10
78.5277
 20
-26.9129
 30
0
  0
SPLINE
  5
A10
330
A02
100
AcDbEntity
  8
Shape008
100
AcDbSpline
210
0
220
0
230
1
 70
8
 71
3
 72
8
 73
4
 74
0
 40
0
 40
0
 40
0
 40
0
 40
1
 40
1
 40
1
 40
1
 10
78.5277
 20
-26.9129
 30
0
 10
78.3731
 20
-26.9023
 30
0
 10
78.128
 20
-26.7294
 30
0
 10
78.1371
 20
-26.4264
 30
0
  0
SPLINE
  5
A11
330
A02
100
AcDbEntity
  8
Shape009
100
AcDbSpline
210
0
220
0
230
1
 70
8
 71
3
 72
8
 73
4
 74
0
 40
0
 40
0
 40
0
 40
0
 40
1
 40
1
 40
1
 40
1
 10
78.5639
 20
-26.9161
 30
0
 10
78.3389
 20
-26.9178
 30
0
 10
78.1319
 20
-26.6785
 30
0
 10
78.1363
 20
-26.4601
 30
0
  0
SPLINE
  5
A12
330
A02
100
AcDbEntity
  8
Shape010
100
AcDbSpline
210
0
220
0
230
1
 70
8
 71
1
 72
4
 73
2
 74
0
 40
0
 40
0
 40
31.5177
 40
31.5177
 10
78.1363
 20
-26.4601
 30
0
 10
78.2923
 20
-15.3424
 30
0
  0
SPLINE
  5
A13
330
A02
100
AcDbEntity
  8
Shape011
100
AcDbSpline
210
0
220
0
230
1
 70
8
 71
3
 72
8
 73
4
 74
0
 40
0
 40
0
 40
0
 40
0
 40
1
 40
1
 40
1
 40
1
 10
78.2923
 20
-15.3424
 30
0
 10
78.2953
 20
-14.9294
 30
0
 10
78.7233
 20
-14.5191
 30
0
 10
79.1403
 20
-14.5143
 30
0
  0
SPLINE
  5
A14
330
A02
100
AcDbEntity
  8
Shape012
100
AcDbSpline
210
0
220
0
230
1
 70
8
 71
1
 72
4
 73
2
 74
0
 40
0
 40
0
 40
20.6026
 40
20.6026
 10
79.1403
 20
-14.5143
 30
0
 10
86.4085
 20
-14.508
 30
0
  0
SPLINE
  5
A15
330
A02
100
AcDbEntity
  8
Shape013
100
AcDbSpline
210
0
220
0
230
1
 70
8
 71
3
 72
8
 73
4
 74
0
 40
0
 40
0
 40
0
 40
0
 40
1
 40
1
 40
1
 40
1
 10
86.4085
 20
-14.508
 30
0
 10
86.8679
 20
-14.494
 30
0
 10
87.3299
 20
-14.9548
 30
0
 10
87.3299
 20
-15.3541
 30
0
  0
SPLINE
  5
A16
330
A02
100
AcDbEntity
  8
Shape014
100
AcDbSpline
210
0
220
0
230
1
 70
8
 71
1
 72
4
 73
2
 74
0
 40
0
 40
0
 40
4.89907
 40
4.89907
 10
87.3299
 20
-15.3541
 30
0
 10
87.3328
 20
-17.0823
 30
0
  0
SPLINE
  5
A17
330
A02
100
AcDbEntity
  8
Shape015
100
AcDbSpline
210
0
220
0
230
1
 70
8
 71
3
 72
8
 73
4
 74
0
 40
0
 40
0
 40
0
 40
0
 40
1
 40
1
 40
1
 40
1
 10
87.3328
 20
-17.0823
 30
0
 10
87.3369
 20
-17.4084
 30
0
 10
87.7053
 20
-17.8203
 30
0
 10
88.0173
 20
-17.8228
 30
0
  0
SPLINE
  5
A18
330
A02
100
AcDbEntity
  8
Shape016
100
AcDbSpline
210
0
220
0
230
1
 70
8
 71
1
 72
4
 73
2
 74
0
 40
0
 40
0
 40
218.211
 40
218.211
 10
88.0173
 20
-17.8228
 30
0
 10
164.997
 20
-17.8994
 30
0
  0
SPLINE
  5
A19
330
A02
100
AcDbEntity
  8
Shape017
100
AcDbSpline
210
0
220
0
230
1
 70
8
 71
1
 72
4
 73
2
 74
0
 40
0
 40
0
 40
6.36809
 40
6.36809
 10
164.997
 20
-17.8994
 30
0
 10
166.641
 20
-16.3686
 30
0
  0
SPLINE
  5
A1A
330
A02
100
AcDbEntity
  8
Shape018
100
AcDbSpline
210
0
220
0
230
1
 70
8
 71
1
 72
4
 73
2
 74
0
 40
0
 40
0
 40
7.89195
 40
7.89195
 10
166.641
 20
-16.3686
 30
0
 10
169.426
 20
-16.3693
 30
0
  0
SPLINE
  5
A1B
330
A02
100
AcDbEntity
  8
Shape019
100
AcDbSpline
210
0
220
0
230
1
 70
8
 71
3
 72
8
 73
4
 74
0
 40
0
 40
0
 40
0
 40
0
 40
1
 40
1
 40
1
 40
1
 10
169.426
 20
-16.3693
 30
0
 10
169.682
 20
-16.3671
 30
0
 10
169.792
 20
-16.5359
 30
0
 10
169.794
 20
-16.705
 30
0
  0
SPLINE
  5
A1C
330
A02
100
AcDbEntity
  8
Shape020
100
AcDbSpline
210
0
220
0
230
1
 70
8
 71
1
 72
4
 73
2
 74
0
 40
0
 40
0
 40
5.52758
 40
5.52758
 10
169.794
 20
-16.705
 30
0
 10
169.809
 20
-18.655
 30
0
  0
SPLINE
  5
A1D
330
A02
100
AcDbEntity
  8
Shape021
100
AcDbSpline
210
0
220
0
230
1
 70
8
 71
1
 72
4
 73
2
 74
0
 40
0
 40
0
 40
4.37027
 40
4.37027
 10
169.809
 20
-18.655
 30
0
 10
171.351
 20
-18.645
 30
0
  0
SPLINE
  5
A1E
330
A02
100
AcDbEntity
  8
Shape022
100
AcDbSpline
210
0
220
0
230
1
 70
8
 71
1
 72
4
 73
2
 74
0
 40
0
 40
0
 40
6.50473
 40
6.50473
 10
171.351
 20
-18.645
 30
0
 10
171.399
 20
-16.3508
 30
0
  0
SPLINE
  5
A1F
330
A02
100
AcDbEntity
  8
Shape023
100
AcDbSpline
210
0
220
0
230
1
 70
8
 71
1
 72
4
 73
2
 74
0
 40
0
 40
0
 40
8.27764
 40
8.27764
 10
171.399
 20
-16.3508
 30
0
 10
174.319
 20
-16.3608
 30
0
  0
SPLINE
  5
A20
330
A02
100
AcDbEntity
  8
Shape024
100
AcDbSpline
210
0
220
0
230
1
 70
8
 71
1
 72
4
 73
2
 74
0
 40
0
 40
0
 40
9.63586
 40
9.63586
 10
174.319
 20
-16.3608
 30
0
 10
176.725
 20
-18.7621
 30
0
  0
SPLINE
  5
A21
330
A02
100
AcDbEntity
  8
Shape025
100
AcDbSpline
210
0
220
0
230
1
 70
8
 71
1
 72
4
 73
2
 74
0
 40
0
 40
0
 40
112.158
 40
112.158
 10
176.725
 20
-18.7621
 30
0
 10
216.292
 20
-18.7501
 30
0
  0
SPLINE
  5
A22
330
A02
100
AcDbEntity
  8
Shape026
100
AcDbSpline
210
0
220
0
230
1
 70
8
 71
3
 72
8
 73
4
 74
0
 40
0
 40
0
 40
0
 40
0
 40
1
 40
1
 40
1
 40
1
 10
216.292
 20
-18.7501
 30
0
 10
216.872
 20
-18.7672
 30
0
 10
217.271
 20
-18.3393
 30
0
 10
217.286
 20
-17.7895
 30
0
  0
SPLINE
  5
A23
330
A02
100
AcDbEntity
  8
Shape027
100
AcDbSpline
210
0
220
0
230
1
 70
8
 71
1
 72
4
 73
2
 74
0
 40
0
 40
0
 40
12.7213
 40
12.7213
 10
217.286
 20
-17.7895
 30
0
 10
217.286
 20
-13.3018
 30
0
  0
SPLINE
  5
A24
330
A02
100
AcDbEntity
  8
Shape028
100
AcDbSpline
210
0
220
0
230
1
 70
8
 71
3
 72
8
 73
4
 74
0
 40
0
 40
0
 40
0
 40
0
 40
1
 40
1
 40
1
 40
1
 10
217.286
 20
-13.3018
 30
0
 10
217.288
 20
-13.1494
 30
0
 10
217.452
 20
-12.946
 30
0
 10
217.6
 20
-12.9442
 30
0
  0
SPLINE
  5
A25
330
A02
100
AcDbEntity
  8
Shape029
100
AcDbSpline
210
0
220
0
230
1
 70
8
 71
1
 72
4
 73
2
 74
0
 40
0
 40
0
 40
12.3908
 40
12.3908
 10
217.6
 20
-12.9442
 30
0
 10
221.971
 20
-12.8982
 30
0
  0
SPLINE
  5
A26
330
A02
100
AcDbEntity
  8
Shape030
100
AcDbSpline
210
0
220
0
230
1
 70
8
 71
3
 72
8
 73
4
 74
0
 40
0
 40
0
 40
0
 40
0
 40
1
 40
1
 40
1
 40
1
 10
221.971
 20
-12.8982
 30
0
 10
222.228
 20
-12.8842
 30
0
 10
222.452
 20
-13.0847
 30
0
 10
222.456
 20
-13.3456
 30
0
  0
SPLINE
  5
A27
330
A02
100
AcDbEntity
  8
Shape031
100
AcDbSpline
210
0
220
0
230
1
 70
8
 71
1
 72
4
 73
2
 74
0
 40
0
 40
0
 40
21.5655
 40
21.5655
 10
222.456
 20
-13.3456
 30
0
 10
222.455
 20
-20.9534
 30
0
  0
SPLINE
  5
A28
330
A02
100
AcDbEntity
  8
Shape032
100
AcDbSpline
210
0
220
0
230
1
 70
8
 71
3
 72
8
 73
4
 74
0
 40
0
 40
0
 40
0
 40
0
 40
1
 40
1
 40
1
 40
1
 10
222.455
 20
-20.9534
 30
0
 10
222.452
 20
-21.4419
 30
0
 10
221.943
 20
-21.9186
 30
0
 10
221.553
 20
-21.9089
 30
0
  0
SPLINE
  5
A29
330
A02
100
AcDbEntity
  8
Shape033
100
AcDbSpline
210
0
220
0
230
1
 70
8
 71
1
 72
4
 73
2
 74
0
 40
0
 40
0
 40
386.712
 40
386.712
 10
221.553
 20
-21.9089
 30
0
 10
85.1298
 20
-21.882
 30
0
  0
SPLINE
  5
A2A
330
A02
100
AcDbEntity
  8
Shape034
100
AcDbSpline
210
0
220
0
230
1
 70
8
 71
3
 72
8
 73
4
 74
0
 40
0
 40
0
 40
0
 40
0
 40
1
 40
1
 40
1
 40
1
 10
85.1298
 20
-21.882
 30
0
 10
84.9313
 20
-21.8896
 30
0
 10
84.6691
 20
-22.1697
 30
0
 10
84.6718
 20
-22.393
 30
0
  0
SPLINE
  5
A2B
330
A02
100
AcDbEntity
  8
Shape035
100
AcDbSpline
210
0
220
0
230
1
 70
8
 71
1
 72
4
 73
2
 74
0
 40
0
 40
0
 40
11.7098
 40
11.7098
 10
84.6718
 20
-22.393
 30
0
 10
84.6533
 20
-26.5239
 30
0
  0
SPLINE
  5
A2C
330
A02
100
AcDbEntity
  8
Shape036
100
AcDbSpline
210
0
220
0
230
1
 70
8
 71
3
 72
8
 73
4
 74
0
 40
0
 40
0
 40
0
 40
0
 40
1
 40
1
 40
1
 40
1
 10
84.6533
 20
-26.5239
 30
0
 10
84.6532
 20
-26.7327
 30
0
 10
84.4605
 20
-26.9355
 30
0
 10
84.2698
 20
-26.9397
 30
0
  0
SPLINE
  5
A2D
330
A02
100
AcDbEntity
  8
Shape037
100
AcDbSpline
210
0
220
0
230
1
 70
8
 71
1
 72
4
 73
2
 74
0
 40
0
 40
0
 40
16.1744
 40
16.1744
 10
84.2698
 20
-26.9397
 30
0
 10
78.5639
 20
-26.9161
 30
0
  0
SPLINE
  5
A2E
330
A02
100
AcDbEntity
  8
Shape038
100
AcDbSpline
210
0
220
0
230
1
 70
8
 71
1
 72
4
 73
2
 74
0
 40
0
 40
0
 40
4.45197
 40
4.45197
 10
85.8203
 20
-17.6582
 30
0
 10
85.8613
 20
-16.0883
 30
0
  0
SPLINE
  5
A2F
330
A02
100
AcDbEntity
  8
Shape039
100
AcDbSpline
210
0
220
0
230
1
 70
8
 71
3
 72
8
 73
4
 74
0
 40
0
 40
0
 40
0
 40
0
 40
1
 40
1
 40
1
 40
1
 10
85.8613
 20
-16.0883
 30
0
 10
85.8785
 20
-15.6936
 30
0
 10
85.2694
 20
-15.6528
 30
0
 10
85.2682
 20
-16.0735
 30
0
  0
SPLINE
  5
A30
330
A02
100
AcDbEntity
  8
Shape040
100
AcDbSpline
210
0
220
0
230
1
 70
8
 71
1
 72
4
 73
2
 74
0
 40
0
 40
0
 40
4.4976
 40
4.4976
 10
85.2682
 20
-16.0735
 30
0
 10
85.235
 20
-17.6598
 30
0
  0
SPLINE
  5
A31
330
A02
100
AcDbEntity
  8
Shape041
100
AcDbSpline
210
0
220
0
230
1
 70
8
 71
3
 72
8
 73
4
 74
0
 40
0
 40
0
 40
0
 40
0
 40
1
 40
1
 40
1
 40
1
 10
85.235
 20
-17.6598
 30
0
 10
85.2199
 20
-18.0473
 30
0
 10
85.8068
 20
-18.0589
 30
0
 10
85.8204
 20
-17.6582
 30
0
  0
SPLINE
  5
A32
330
A02
100
AcDbEntity
  8
Shape042
100
AcDbSpline
210
0
220
0
230
1
 70
8
 71
1
 72
4
 73
2
 74
0
 40
0
 40
0
 40
0.000201246
 40
0.000201246
 10
85.8204
 20
-17.6582
 30
0
 10
85.8203
 20
-17.6582
 30
0
  0
SPLINE
  5
A33
330
A02
100
AcDbEntity
  8
Shape043
100
AcDbSpline
210
0
220
0
230
1
 70
8
 71
1
 72
4
 73
2
 74
0
 40
0
 40
0
 40
4.45197
 40
4.45197
 10
80.2994
 20
-17.6508
 30
0
 10
80.3404
 20
-16.0808
 30
0
  0
SPLINE
  5
A34
330
A02
100
AcDbEntity
  8
Shape044
100
AcDbSpline
210
0
220
0
230
1
 70
8
 71
3
 72
8
 73
4
 74
0
 40
0
 40
0
 40
0
 40
0
 40
1
 40
1
 40
1
 40
1
 10
80.3404
 20
-16.0808
 30
0
 10
80.3575
 20
-15.6861
 30
0
 10
79.7485
 20
-15.6454
 30
0
 10
79.7473
 20
-16.0661
 30
0
  0
SPLINE
  5
A35
330
A02
100
AcDbEntity
  8
Shape045
100
AcDbSpline
210
0
220
0
230
1
 70
8
 71
1
 72
4
 73
2
 74
0
 40
0
 40
0
 40
4.4976
 40
4.4976
 10
79.7473
 20
-16.0661
 30
0
 10
79.7141
 20
-17.6524
 30
0
  0
SPLINE
  5
A36
330
A02
100
AcDbEntity
  8
Shape046
100
AcDbSpline
210
0
220
0
230
1
 70
8
 71
3
 72
8
 73
4
 74
0
 40
0
 40
0
 40
0
 40
0
 40
1
 40
1
 40
1
 40
1
 10
79.7141
 20
-17.6524
 30
0
 10
79.6989
 20
-18.0399
 30
0
 10
80.2859
 20
-18.0514
 30
0
 10
80.2995
 20
-17.6508
 30
0
  0
SPLINE
  5
A37
330
A02
100
AcDbEntity
  8
Shape047
100
AcDbSpline
210
0
220
0
230
1
 70
8
 71
1
 72
4
 73
2
 74
0
 40
0
 40
0
 40
0.000201246
 40
0.000201246
 10
80.2995
 20
-17.6508
 30
0
 10
80.2994
 20
-17.6508
 30
0
  0
SPLINE
  5
A38
330
A02
100
AcDbEntity
  8
Shape048
100
AcDbSpline
210
0
220
0
230
1
 70
8
 71
1
 72
4
 73
2
 74
0
 40
0
 40
0
 40
11.3007
 40
11.3007
 10
79.2136
 20
-26.9032
 30
0
 10
79.2754
 20
-22.9171
 30
0
  0
SPLINE
  5
A39
330
A02
100
AcDbEntity
  8
Shape049
100
AcDbSpline
210
0
220
0
230
1
 70
8
 71
1
 72
4
 73
2
 74
0
 40
0
 40
0
 40
2.03144
 40
2.03144
 10
79.2754
 20
-22.9171
 30
0
 10
79.9919
 20
-22.9301
 30
0
  0
SPLINE
  5
A3A
330
A02
100
AcDbEntity
  8
Shape050
100
AcDbSpline
210
0
220
0
230
1
 70
8
 71
1
 72
4
 73
2
 74
0
 40
0
 40
0
 40
11.3007
 40
11.3007
 10
79.9919
 20
-22.9301
 30
0
 10
79.9302
 20
-26.9163
 30
0
  0
SPLINE
  5
A3B
330
A02
100
AcDbEntity
  8
Shape051
100
AcDbSpline
210
0
220
0
230
1
 70
8
 71
1
 72
4
 73
2
 74
0
 40
0
 40
0
 40
2.03144
 40
2.03144
 10
79.9302
 20
-26.9163
 30
0
 10
79.2136
 20
-26.9032
 30
0
  0
SPLINE
  5
A3C
330
A02
100
AcDbEntity
  8
Shape052
100
AcDbSpline
210
0
220
0
230
1
 70
8
 71
1
 72
4
 73
2
 74
0
 40
0
 40
0
 40
11.1018
 40
11.1018
 10
80.5216
 20
-26.8741
 30
0
 10
80.5442
 20
-22.9577
 30
0
  0
SPLINE
  5
A3D
330
A02
100
AcDbEntity
  8
Shape053
100
AcDbSpline
210
0
220
0
230
1
 70
8
 71
1
 72
4
 73
2
 74
0
 40
0
 40
0
 40
2.03202
 40
2.03202
 10
80.5442
 20
-22.9577
 30
0
 10
81.261
 20
-22.9644
 30
0
  0
SPLINE
  5
A3E
330
A02
100
AcDbEntity
  8
Shape054
100
AcDbSpline
210
0
220
0
230
1
 70
8
 71
1
 72
4
 73
2
 74
0
 40
0
 40
0
 40
11.1018
 40
11.1018
 10
81.261
 20
-22.9644
 30
0
 10
81.2384
 20
-26.8807
 30
0
  0
SPLINE
  5
A3F
330
A02
100
AcDbEntity
  8
Shape055
100
AcDbSpline
210
0
220
0
230
1
 70
8
 71
1
 72
4
 73
2
 74
0
 40
0
 40
0
 40
2.03202
 40
2.03202
 10
81.2384
 20
-26.8807
 30
0
 10
80.5216
 20
-26.8741
 30
0
  0
SPLINE
  5
A40
330
A02
100
AcDbEntity
  8
Shape056
100
AcDbSpline
210
0
220
0
230
1
 70
8
 71
1
 72
4
 73
2
 74
0
 40
0
 40
0
 40
11.1986
 40
11.1986
 10
81.7915
 20
-26.9007
 30
0
 10
81.7914
 20
-22.9501
 30
0
  0
SPLINE
  5
A41
330
A02
100
AcDbEntity
  8
Shape057
100
AcDbSpline
210
0
220
0
230
1
 70
8
 71
1
 72
4
 73
2
 74
0
 40
0
 40
0
 40
2.09511
 40
2.09511
 10
81.7914
 20
-22.9501
 30
0
 10
82.5306
 20
-22.9534
 30
0
  0
SPLINE
  5
A42
330
A02
100
AcDbEntity
  8
Shape058
100
AcDbSpline
210
0
220
0
230
1
 70
8
 71
1
 72
4
 73
2
 74
0
 40
0
 40
0
 40
11.1986
 40
11.1986
 10
82.5306
 20
-22.9534
 30
0
 10
82.5307
 20
-26.904
 30
0
  0
SPLINE
  5
A43
330
A02
100
AcDbEntity
  8
Shape059
100
AcDbSpline
210
0
220
0
230
1
 70
8
 71
1
 72
4
 73
2
 74
0
 40
0
 40
0
 40
2.09511
 40
2.09511
 10
82.5307
 20
-26.904
 30
0
 10
81.7915
 20
-26.9007
 30
0
  0
SPLINE
  5
A44
330
A02
100
AcDbEntity
  8
Shape060
100
AcDbSpline
210
0
220
0
230
1
 70
8
 71
1
 72
4
 73
2
 74
0
 40
0
 40
0
 40
11.3495
 40
11.3495
 10
83.0697
 20
-26.904
 30
0
 10
83.078
 20
-22.9002
 30
0
  0
SPLINE
  5
A45
330
A02
100
AcDbEntity
  8
Shape061
100
AcDbSpline
210
0
220
0
230
1
 70
8
 71
1
 72
4
 73
2
 74
0
 40
0
 40
0
 40
2.03128
 40
2.03128
 10
83.078
 20
-22.9002
 30
0
 10
83.7947
 20
-22.9036
 30
0
  0
SPLINE
  5
A46
330
A02
100
AcDbEntity
  8
Shape062
100
AcDbSpline
210
0
220
0
230
1
 70
8
 71
1
 72
4
 73
2
 74
0
 40
0
 40
0
 40
11.3495
 40
11.3495
 10
83.7947
 20
-22.9036
 30
0
 10
83.7862
 20
-26.9075
 30
0
  0
SPLINE
  5
A47
330
A02
100
AcDbEntity
  8
Shape063
100
AcDbSpline
210
0
220
0
230
1
 70
8
 71
1
 72
4
 73
2
 74
0
 40
0
 40
0
 40
2.03128
 40
2.03128
 10
83.7862
 20
-26.9075
 30
0
 10
83.0697
 20
-26.904
 30
0
  0
SPLINE
  5
A48
330
A02
100
AcDbEntity
  8
Shape064
100
AcDbSpline
210
0
220
0
230
1
 70
8
 71
1
 72
4
 73
2
 74
0
 40
0
 40
0
 40
2.38392
 40
2.38392
 10
78.8504
 20
-23.756
 30
0
 10
78.8592
 20
-22.9151
 30
0
  0
SPLINE
  5
A49
330
A02
100
AcDbEntity
  8
Shape065
100
AcDbSpline
210
0
220
0
230
1
 70
8
 71
1
 72
4
 73
2
 74
0
 40
0
 40
0
 40
1.53895
 40
1.53895
 10
78.8592
 20
-22.9151
 30
0
 10
79.402
 20
-22.9208
 30
0
  0
SPLINE
  5
A4A
330
A02
100
AcDbEntity
  8
Shape066
100
AcDbSpline
210
0
220
0
230
1
 70
8
 71
1
 72
4
 73
2
 74
0
 40
0
 40
0
 40
2.38392
 40
2.38392
 10
79.402
 20
-22.9208
 30
0
 10
79.3932
 20
-23.7617
 30
0
  0
SPLINE
  5
A4B
330
A02
100
AcDbEntity
  8
Shape067
100
AcDbSpline
210
0
220
0
230
1
 70
8
 71
1
 72
4
 73
2
 74
0
 40
0
 40
0
 40
1.53895
 40
1.53895
 10
79.3932
 20
-23.7617
 30
0
 10
78.8504
 20
-23.756
 30
0
  0
SPLINE
  5
A4C
330
A02
100
AcDbEntity
  8
Shape068
100
AcDbSpline
210
0
220
0
230
1
 70
8
 71
1
 72
4
 73
2
 74
0
 40
0
 40
0
 40
1.83858
 40
1.83858
 10
83.6289
 20
-23.5515
 30
0
 10
83.6335
 20
-22.9029
 30
0
  0
SPLINE
  5
A4D
330
A02
100
AcDbEntity
  8
Shape069
100
AcDbSpline
210
0
220
0
230
1
 70
8
 71
1
 72
4
 73
2
 74
0
 40
0
 40
0
 40
1.61601
 40
1.61601
 10
83.6335
 20
-22.9029
 30
0
 10
84.2036
 20
-22.9086
 30
0
  0
SPLINE
  5
A4E
330
A02
100
AcDbEntity
  8
Shape070
100
AcDbSpline
210
0
220
0
230
1
 70
8
 71
1
 72
4
 73
2
 74
0
 40
0
 40
0
 40
1.83858
 40
1.83858
 10
84.2036
 20
-22.9086
 30
0
 10
84.1989
 20
-23.5572
 30
0
  0
SPLINE
  5
A4F
330
A02
100
AcDbEntity
  8
Shape071
100
AcDbSpline
210
0
220
0
230
1
 70
8
 71
1
 72
4
 73
2
 74
0
 40
0
 40
0
 40
1.61601
 40
1.61601
 10
84.1989
 20
-23.5572
 30
0
 10
83.6289
 20
-23.5515
 30
0
  0
SPLINE
  5
A50
330
A02
100
AcDbEntity
  8
Shape072
100
AcDbSpline
210
0
220
0
230
1
 70
8
 71
1
 72
4
 73
2
 74
0
 40
0
 40
0
 40
2.9294
 40
2.9294
 10
217.434
 20
-16.0874
 30
0
 10
217.431
 20
-15.054
 30
0
  0
SPLINE
  5
A51
330
A02
100
AcDbEntity
  8
Shape073
100
AcDbSpline
210
0
220
0
230
1
 70
8
 71
1
 72
4
 73
2
 74
0
 40
0
 40
0
 40
4.29165
 40
4.29165
 10
217.431
 20
-15.054
 30
0
 10
218.945
 20
-15.0492
 30
0
  0
SPLINE
  5
A52
330
A02
100
AcDbEntity
  8
Shape074
100
AcDbSpline
210
0
220
0
230
1
 70
8
 71
1
 72
4
 73
2
 74
0
 40
0
 40
0
 40
2.9294
 40
2.9294
 10
218.945
 20
-15.0492
 30
0
 10
218.949
 20
-16.0826
 30
0
  0
SPLINE
  5
A53
330
A02
100
AcDbEntity
  8
Shape075
100
AcDbSpline
210
0
220
0
230
1
 70
8
 71
1
 72
4
 73
2
 74
0
 40
0
 40
0
 40
4.29165
 40
4.29165
 10
218.949
 20
-16.0826
 30
0
 10
217.434
 20
-16.0874
 30
0
  0
SPLINE
  5
A54
330
A02
100
AcDbEntity
  8
Shape076
100
AcDbSpline
210
0
220
0
230
1
 70
8
 71
1
 72
4
 73
2
 74
0
 40
0
 40
0
 40
2.9294
 40
2.9294
 10
217.434
 20
-14.5503
 30
0
 10
217.431
 20
-13.5168
 30
0
  0
SPLINE
  5
A55
330
A02
100
AcDbEntity
  8
Shape077
100
AcDbSpline
210
0
220
0
230
1
 70
8
 71
1
 72
4
 73
2
 74
0
 40
0
 40
0
 40
4.29165
 40
4.29165
 10
217.431
 20
-13.5168
 30
0
 10
218.945
 20
-13.5121
 30
0
  0
SPLINE
  5
A56
330
A02
100
AcDbEntity
  8
Shape078
100
AcDbSpline
210
0
220
0
230
1
 70
8
 71
1
 72
4
 73
2
 74
0
 40
0
 40
0
 40
2.9294
 40
2.9294
 10
218.945
 20
-13.5121
 30
0
 10
218.948
 20
-14.5455
 30
0
  0
SPLINE
  5
A57
330
A02
100
AcDbEntity
  8
Shape079
100
AcDbSpline
210
0
220
0
230
1
 70
8
 71
1
 72
4
 73
2
 74
0
 40
0
 40
0
 40
4.29165
 40
4.29165
 10
218.948
 20
-14.5455
 30
0
 10
217.434
 20
-14.5503
 30
0
  0
SPLINE
  5
A58
330
A02
100
AcDbEntity
  8
Shape080
100
AcDbSpline
210
0
220
0
230
1
 70
8
 71
1
 72
4
 73
2
 74
0
 40
0
 40
0
 40
2.9294
 40
2.9294
 10
220.869
 20
-16.0366
 30
0
 10
220.865
 20
-15.0032
 30
0
  0
SPLINE
  5
A59
330
A02
100
AcDbEntity
  8
Shape081
100
AcDbSpline
210
0
220
0
230
1
 70
8
 71
1
 72
4
 73
2
 74
0
 40
0
 40
0
 40
4.29165
 40
4.29165
 10
220.865
 20
-15.0032
 30
0
 10
222.379
 20
-14.9985
 30
0
  0
SPLINE
  5
A5A
330
A02
100
AcDbEntity
  8
Shape082
100
AcDbSpline
210
0
220
0
230
1
 70
8
 71
1
 72
4
 73
2
 74
0
 40
0
 40
0
 40
2.9294
 40
2.9294
 10
222.379
 20
-14.9985
 30
0
 10
222.382
 20
-16.0319
 30
0
  0
SPLINE
  5
A5B
330
A02
100
AcDbEntity
  8
Shape083
100
AcDbSpline
210
0
220
0
230
1
 70
8
 71
1
 72
4
 73
2
 74
0
 40
0
 40
0
 40
4.29165
 40
4.29165
 10
222.382
 20
-16.0319
 30
0
 10
220.869
 20
-16.0366
 30
0
  0
SPLINE
  5
A5C
330
A02
100
AcDbEntity
  8
Shape084
100
AcDbSpline
210
0
220
0
230
1
 70
8
 71
1
 72
4
 73
2
 74
0
 40
0
 40
0
 40
2.9294
 40
2.9294
 10
220.856
 20
-14.5095
 30
0
 10
220.852
 20
-13.4761
 30
0
  0
SPLINE
  5
A5D
330
A02
100
AcDbEntity
  8
Shape085
100
AcDbSpline
210
0
220
0
230
1
 70
8
 71
1
 72
4
 73
2
 74
0
 40
0
 40
0
 40
4.29165
 40
4.29165
 10
220.852
 20
-13.4761
 30
0
 10
222.367
 20
-13.4713
 30
0
  0
SPLINE
  5
A5E
330
A02
100
AcDbEntity
  8
Shape086
100
AcDbSpline
210
0
220
0
230
1
 70
8
 71
1
 72
4
 73
2
 74
0
 40
0
 40
0
 40
2.9294
 40
2.9294
 10
222.367
 20
-13.4713
 30
0
 10
222.37
 20
-14.5047
 30
0
  0
SPLINE
  5
A5F
330
A02
100
AcDbEntity
  8
Shape087
100
AcDbSpline
210
0
220
0
230
1
 70
8
 71
1
 72
4
 73
2
 74
0
 40
0
 40
0
 40
4.29165
 40
4.29165
 10
222.37
 20
-14.5047
 30
0
 10
220.856
 20
-14.5095
 30
0
  0
SPLINE
  5
A60
330
A02
100
AcDbEntity
  8
Shape088
100
AcDbSpline
210
0
220
0
230
1
 70
8
 71
1
 72
4
 73
2
 74
0
 40
0
 40
0
 40
3.20122
 40
3.20122
 10
79.9936
 20
-22.9022
 30
0
 10
78.8644
 20
-22.8848
 30
0
  0
SPLINE
  5
A61
330
A02
100
AcDbEntity
  8
Shape089
100
AcDbSpline
210
0
220
0
230
1
 70
8
 71
1
 72
4
 73
2
 74
0
 40
0
 40
0
 40
2.15706
 40
2.15706
 10
78.8644
 20
-22.8848
 30
0
 10
78.8818
 20
-22.124
 30
0
  0
SPLINE
  5
A62
330
A02
100
AcDbEntity
  8
Shape090
100
AcDbSpline
210
0
220
0
230
1
 70
8
 71
1
 72
4
 73
2
 74
0
 40
0
 40
0
 40
0.958172
 40
0.958172
 10
78.8818
 20
-22.124
 30
0
 10
79.2198
 20
-22.1318
 30
0
  0
SPLINE
  5
A63
330
A02
100
AcDbEntity
  8
Shape091
100
AcDbSpline
210
0
220
0
230
1
 70
8
 71
1
 72
4
 73
2
 74
0
 40
0
 40
0
 40
8.74817
 40
8.74817
 10
79.2198
 20
-22.1318
 30
0
 10
79.2436
 20
-19.0458
 30
0
  0
SPLINE
  5
A64
330
A02
100
AcDbEntity
  8
Shape092
100
AcDbSpline
210
0
220
0
230
1
 70
8
 71
3
 72
8
 73
4
 74
0
 40
0
 40
0
 40
0
 40
0
 40
1
 40
1
 40
1
 40
1
 10
79.2436
 20
-19.0458
 30
0
 10
79.2486
 20
-18.7618
 30
0
 10
79.6988
 20
-18.4504
 30
0
 10
79.9155
 20
-18.4593
 30
0
  0
SPLINE
  5
A65
330
A02
100
AcDbEntity
  8
Shape093
100
AcDbSpline
210
0
220
0
230
1
 70
8
 71
1
 72
4
 73
2
 74
0
 40
0
 40
0
 40
242.903
 40
242.903
 10
79.9155
 20
-18.4593
 30
0
 10
165.606
 20
-18.5337
 30
0
  0
SPLINE
  5
A66
330
A02
100
AcDbEntity
  8
Shape094
100
AcDbSpline
210
0
220
0
230
1
 70
8
 71
1
 72
4
 73
2
 74
0
 40
0
 40
0
 40
11.7821
 40
11.7821
 10
165.606
 20
-18.5337
 30
0
 10
169.696
 20
-19.2762
 30
0
  0
SPLINE
  5
A67
330
A02
100
AcDbEntity
  8
Shape095
100
AcDbSpline
210
0
220
0
230
1
 70
8
 71
1
 72
4
 73
2
 74
0
 40
0
 40
0
 40
138.773
 40
138.773
 10
169.696
 20
-19.2762
 30
0
 10
218.652
 20
-19.3162
 30
0
  0
SPLINE
  5
A68
330
A02
100
AcDbEntity
  8
Shape096
100
AcDbSpline
210
0
220
0
230
1
 70
8
 71
3
 72
8
 73
4
 74
0
 40
0
 40
0
 40
0
 40
0
 40
1
 40
1
 40
1
 40
1
 10
218.652
 20
-19.3162
 30
0
 10
218.8
 20
-19.3209
 30
0
 10
218.904
 20
-19.1682
 30
0
 10
218.911
 20
-19.0136
 30
0
  0
SPLINE
  5
A69
330
A02
100
AcDbEntity
  8
Shape097
100
AcDbSpline
210
0
220
0
230
1
 70
8
 71
1
 72
4
 73
2
 74
0
 40
0
 40
0
 40
10.1362
 40
10.1362
 10
218.911
 20
-19.0136
 30
0
 10
218.975
 20
-15.4383
 30
0
  0
SPLINE
  5
A6A
330
A02
100
AcDbEntity
  8
Shape098
100
AcDbSpline
210
0
220
0
230
1
 70
8
 71
1
 72
4
 73
2
 74
0
 40
0
 40
0
 40
0.878175
 40
0.878175
 10
218.975
 20
-15.4383
 30
0
 10
219.186
 20
-15.6656
 30
0
  0
SPLINE
  5
A6B
330
A02
100
AcDbEntity
  8
Shape099
100
AcDbSpline
210
0
220
0
230
1
 70
8
 71
1
 72
4
 73
2
 74
0
 40
0
 40
0
 40
9.87205
 40
9.87205
 10
219.186
 20
-15.6656
 30
0
 10
219.149
 20
-19.148
 30
0
  0
SPLINE
  5
A6C
330
A02
100
AcDbEntity
  8
Shape100
100
AcDbSpline
210
0
220
0
230
1
 70
8
 71
3
 72
8
 73
4
 74
0
 40
0
 40
0
 40
0
 40
0
 40
1
 40
1
 40
1
 40
1
 10
219.149
 20
-19.148
 30
0
 10
219.112
 20
-19.3729
 30
0
 10
218.974
 20
-19.5947
 30
0
 10
218.725
 20
-19.6482
 30
0
  0
SPLINE
  5
A6D
330
A02
100
AcDbEntity
  8
Shape101
100
AcDbSpline
210
0
220
0
230
1
 70
8
 71
1
 72
4
 73
2
 74
0
 40
0
 40
0
 40
58.5362
 40
58.5362
 10
218.725
 20
-19.6482
 30
0
 10
198.075
 20
-19.6729
 30
0
  0
SPLINE
  5
A6E
330
A02
100
AcDbEntity
  8
Shape102
100
AcDbSpline
210
0
220
0
230
1
 70
8
 71
1
 72
4
 73
2
 74
0
 40
0
 40
0
 40
47.9299
 40
47.9299
 10
198.075
 20
-19.6729
 30
0
 10
181.166
 20
-19.6848
 30
0
  0
SPLINE
  5
A6F
330
A02
100
AcDbEntity
  8
Shape103
100
AcDbSpline
210
0
220
0
230
1
 70
8
 71
1
 72
4
 73
2
 74
0
 40
0
 40
0
 40
33.089
 40
33.089
 10
181.166
 20
-19.6848
 30
0
 10
169.494
 20
-19.628
 30
0
  0
SPLINE
  5
A70
330
A02
100
AcDbEntity
  8
Shape104
100
AcDbSpline
210
0
220
0
230
1
 70
8
 71
1
 72
4
 73
2
 74
0
 40
0
 40
0
 40
11.0849
 40
11.0849
 10
169.494
 20
-19.628
 30
0
 10
165.647
 20
-18.9196
 30
0
  0
SPLINE
  5
A71
330
A02
100
AcDbEntity
  8
Shape105
100
AcDbSpline
210
0
220
0
230
1
 70
8
 71
1
 72
4
 73
2
 74
0
 40
0
 40
0
 40
242.721
 40
242.721
 10
165.647
 20
-18.9196
 30
0
 10
80.021
 20
-18.8668
 30
0
  0
SPLINE
  5
A72
330
A02
100
AcDbEntity
  8
Shape106
100
AcDbSpline
210
0
220
0
230
1
 70
8
 71
1
 72
4
 73
2
 74
0
 40
0
 40
0
 40
11.4393
 40
11.4393
 10
80.021
 20
-18.8668
 30
0
 10
79.9936
 20
-22.9022
 30
0
  0
SPLINE
  5
A73
330
A02
100
AcDbEntity
  8
Shape107
100
AcDbSpline
210
0
220
0
230
1
 70
8
 71
1
 72
4
 73
2
 74
0
 40
0
 40
0
 40
2.14434
 40
2.14434
 10
81.2571
 20
-22.9337
 30
0
 10
80.5009
 20
-22.91
 30
0
  0
SPLINE
  5
A74
330
A02
100
AcDbEntity
  8
Shape108
100
AcDbSpline
210
0
220
0
230
1
 70
8
 71
1
 72
4
 73
2
 74
0
 40
0
 40
0
 40
9.33975
 40
9.33975
 10
80.5009
 20
-22.91
 30
0
 10
80.4957
 20
-19.6151
 30
0
  0
SPLINE
  5
A75
330
A02
100
AcDbEntity
  8
Shape109
100
AcDbSpline
210
0
220
0
230
1
 70
8
 71
3
 72
8
 73
4
 74
0
 40
0
 40
0
 40
0
 40
0
 40
1
 40
1
 40
1
 40
1
 10
80.4957
 20
-19.6151
 30
0
 10
80.4985
 20
-19.5333
 30
0
 10
80.8097
 20
-19.2444
 30
0
 10
81.2254
 20
-19.2512
 30
0
  0
SPLINE
  5
A76
330
A02
100
AcDbEntity
  8
Shape110
100
AcDbSpline
210
0
220
0
230
1
 70
8
 71
1
 72
4
 73
2
 74
0
 40
0
 40
0
 40
239.928
 40
239.928
 10
81.2254
 20
-19.2512
 30
0
 10
165.866
 20
-19.3243
 30
0
  0
SPLINE
  5
A77
330
A02
100
AcDbEntity
  8
Shape111
100
AcDbSpline
210
0
220
0
230
1
 70
8
 71
1
 72
4
 73
2
 74
0
 40
0
 40
0
 40
10.108
 40
10.108
 10
165.866
 20
-19.3243
 30
0
 10
169.389
 20
-19.8796
 30
0
  0
SPLINE
  5
A78
330
A02
100
AcDbEntity
  8
Shape112
100
AcDbSpline
210
0
220
0
230
1
 70
8
 71
1
 72
4
 73
2
 74
0
 40
0
 40
0
 40
140.855
 40
140.855
 10
169.389
 20
-19.8796
 30
0
 10
219.079
 20
-19.8794
 30
0
  0
SPLINE
  5
A79
330
A02
100
AcDbEntity
  8
Shape113
100
AcDbSpline
210
0
220
0
230
1
 70
8
 71
3
 72
8
 73
4
 74
0
 40
0
 40
0
 40
0
 40
0
 40
1
 40
1
 40
1
 40
1
 10
219.079
 20
-19.8794
 30
0
 10
219.228
 20
-19.8842
 30
0
 10
219.336
 20
-19.7682
 30
0
 10
219.343
 20
-19.6136
 30
0
  0
SPLINE
  5
A7A
330
A02
100
AcDbEntity
  8
Shape114
100
AcDbSpline
210
0
220
0
230
1
 70
8
 71
1
 72
4
 73
2
 74
0
 40
0
 40
0
 40
14.4023
 40
14.4023
 10
219.343
 20
-19.6136
 30
0
 10
219.493
 20
-14.5349
 30
0
  0
SPLINE
  5
A7B
330
A02
100
AcDbEntity
  8
Shape115
100
AcDbSpline
210
0
220
0
230
1
 70
8
 71
3
 72
8
 73
4
 74
0
 40
0
 40
0
 40
0
 40
0
 40
1
 40
1
 40
1
 40
1
 10
219.493
 20
-14.5349
 30
0
 10
219.448
 20
-14.1878
 30
0
 10
219.226
 20
-14.1981
 30
0
 10
218.973
 20
-14.2034
 30
0
  0
SPLINE
  5
A7C
330
A02
100
AcDbEntity
  8
Shape116
100
AcDbSpline
210
0
220
0
230
1
 70
8
 71
1
 72
4
 73
2
 74
0
 40
0
 40
0
 40
0.823222
 40
0.823222
 10
218.973
 20
-14.2034
 30
0
 10
218.975
 20
-13.913
 30
0
  0
SPLINE
  5
A7D
330
A02
100
AcDbEntity
  8
Shape117
100
AcDbSpline
210
0
220
0
230
1
 70
8
 71
3
 72
8
 73
4
 74
0
 40
0
 40
0
 40
0
 40
0
 40
1
 40
1
 40
1
 40
1
 10
218.975
 20
-13.913
 30
0
 10
219.479
 20
-13.892
 30
0
 10
219.724
 20
-14.1033
 30
0
 10
219.713
 20
-14.6808
 30
0
  0
SPLINE
  5
A7E
330
A02
100
AcDbEntity
  8
Shape118
100
AcDbSpline
210
0
220
0
230
1
 70
8
 71
1
 72
4
 73
2
 74
0
 40
0
 40
0
 40
14.265
 40
14.265
 10
219.713
 20
-14.6808
 30
0
 10
219.577
 20
-19.7113
 30
0
  0
SPLINE
  5
A7F
330
A02
100
AcDbEntity
  8
Shape119
100
AcDbSpline
210
0
220
0
230
1
 70
8
 71
3
 72
8
 73
4
 74
0
 40
0
 40
0
 40
0
 40
0
 40
1
 40
1
 40
1
 40
1
 10
219.577
 20
-19.7113
 30
0
 10
219.539
 20
-19.9361
 30
0
 10
219.401
 20
-20.1579
 30
0
 10
219.153
 20
-20.2115
 30
0
  0
SPLINE
  5
A80
330
A02
100
AcDbEntity
  8
Shape120
100
AcDbSpline
210
0
220
0
230
1
 70
8
 71
1
 72
4
 73
2
 74
0
 40
0
 40
0
 40
141.69
 40
141.69
 10
219.153
 20
-20.2115
 30
0
 10
169.168
 20
-20.2123
 30
0
  0
SPLINE
  5
A81
330
A02
100
AcDbEntity
  8
Shape121
100
AcDbSpline
210
0
220
0
230
1
 70
8
 71
1
 72
4
 73
2
 74
0
 40
0
 40
0
 40
8.75833
 40
8.75833
 10
169.168
 20
-20.2123
 30
0
 10
166.108
 20
-19.7812
 30
0
  0
SPLINE
  5
A82
330
A02
100
AcDbEntity
  8
Shape122
100
AcDbSpline
210
0
220
0
230
1
 70
8
 71
1
 72
4
 73
2
 74
0
 40
0
 40
0
 40
240.445
 40
240.445
 10
166.108
 20
-19.7812
 30
0
 10
81.2846
 20
-19.6341
 30
0
  0
SPLINE
  5
A83
330
A02
100
AcDbEntity
  8
Shape123
100
AcDbSpline
210
0
220
0
230
1
 70
8
 71
1
 72
4
 73
2
 74
0
 40
0
 40
0
 40
9.35338
 40
9.35338
 10
81.2846
 20
-19.6341
 30
0
 10
81.2571
 20
-22.9337
 30
0
  0
SPLINE
  5
A84
330
A02
100
AcDbEntity
  8
Shape124
100
AcDbSpline
210
0
220
0
230
1
 70
8
 71
1
 72
4
 73
2
 74
0
 40
0
 40
0
 40
2.10184
 40
2.10184
 10
82.5303
 20
-22.9194
 30
0
 10
81.7888
 20
-22.9188
 30
0
  0
SPLINE
  5
A85
330
A02
100
AcDbEntity
  8
Shape125
100
AcDbSpline
210
0
220
0
230
1
 70
8
 71
1
 72
4
 73
2
 74
0
 40
0
 40
0
 40
6.76443
 40
6.76443
 10
81.7888
 20
-22.9188
 30
0
 10
81.7894
 20
-20.5324
 30
0
  0
SPLINE
  5
A86
330
A02
100
AcDbEntity
  8
Shape126
100
AcDbSpline
210
0
220
0
230
1
 70
8
 71
3
 72
8
 73
4
 74
0
 40
0
 40
0
 40
0
 40
0
 40
1
 40
1
 40
1
 40
1
 10
81.7894
 20
-20.5324
 30
0
 10
81.7922
 20
-20.4506
 30
0
 10
82.1158
 20
-20.0554
 30
0
 10
82.5316
 20
-20.0622
 30
0
  0
SPLINE
  5
A87
330
A02
100
AcDbEntity
  8
Shape127
100
AcDbSpline
210
0
220
0
230
1
 70
8
 71
1
 72
4
 73
2
 74
0
 40
0
 40
0
 40
239.026
 40
239.026
 10
82.5316
 20
-20.0622
 30
0
 10
166.855
 20
-20.1822
 30
0
  0
SPLINE
  5
A88
330
A02
100
AcDbEntity
  8
Shape128
100
AcDbSpline
210
0
220
0
230
1
 70
8
 71
1
 72
4
 73
2
 74
0
 40
0
 40
0
 40
6.16742
 40
6.16742
 10
166.855
 20
-20.1822
 30
0
 10
169.013
 20
-20.4587
 30
0
  0
SPLINE
  5
A89
330
A02
100
AcDbEntity
  8
Shape129
100
AcDbSpline
210
0
220
0
230
1
 70
8
 71
1
 72
4
 73
2
 74
0
 40
0
 40
0
 40
143.654
 40
143.654
 10
169.013
 20
-20.4587
 30
0
 10
219.691
 20
-20.4431
 30
0
  0
SPLINE
  5
A8A
330
A02
100
AcDbEntity
  8
Shape130
100
AcDbSpline
210
0
220
0
230
1
 70
8
 71
3
 72
8
 73
4
 74
0
 40
0
 40
0
 40
0
 40
0
 40
1
 40
1
 40
1
 40
1
 10
219.691
 20
-20.4431
 30
0
 10
219.839
 20
-20.448
 30
0
 10
219.989
 20
-20.3035
 30
0
 10
219.995
 20
-20.1488
 30
0
  0
SPLINE
  5
A8B
330
A02
100
AcDbEntity
  8
Shape131
100
AcDbSpline
210
0
220
0
230
1
 70
8
 71
1
 72
4
 73
2
 74
0
 40
0
 40
0
 40
16.2744
 40
16.2744
 10
219.995
 20
-20.1488
 30
0
 10
220.037
 20
-14.4077
 30
0
  0
SPLINE
  5
A8C
330
A02
100
AcDbEntity
  8
Shape132
100
AcDbSpline
210
0
220
0
230
1
 70
8
 71
3
 72
8
 73
4
 74
0
 40
0
 40
0
 40
0
 40
0
 40
1
 40
1
 40
1
 40
1
 10
220.037
 20
-14.4077
 30
0
 10
220.044
 20
-13.9987
 30
0
 10
220.612
 20
-13.8668
 30
0
 10
220.83
 20
-13.8696
 30
0
  0
SPLINE
  5
A8D
330
A02
100
AcDbEntity
  8
Shape133
100
AcDbSpline
210
0
220
0
230
1
 70
8
 71
1
 72
4
 73
2
 74
0
 40
0
 40
0
 40
1.01794
 40
1.01794
 10
220.83
 20
-13.8696
 30
0
 10
220.821
 20
-14.2285
 30
0
  0
SPLINE
  5
A8E
330
A02
100
AcDbEntity
  8
Shape134
100
AcDbSpline
210
0
220
0
230
1
 70
8
 71
3
 72
8
 73
4
 74
0
 40
0
 40
0
 40
0
 40
0
 40
1
 40
1
 40
1
 40
1
 10
220.821
 20
-14.2285
 30
0
 10
220.559
 20
-14.2315
 30
0
 10
220.321
 20
-14.2979
 30
0
 10
220.299
 20
-14.6253
 30
0
  0
SPLINE
  5
A8F
330
A02
100
AcDbEntity
  8
Shape135
100
AcDbSpline
210
0
220
0
230
1
 70
8
 71
1
 72
4
 73
2
 74
0
 40
0
 40
0
 40
15.769
 40
15.769
 10
220.299
 20
-14.6253
 30
0
 10
220.297
 20
-20.1882
 30
0
  0
SPLINE
  5
A90
330
A02
100
AcDbEntity
  8
Shape136
100
AcDbSpline
210
0
220
0
230
1
 70
8
 71
3
 72
8
 73
4
 74
0
 40
0
 40
0
 40
0
 40
0
 40
1
 40
1
 40
1
 40
1
 10
220.297
 20
-20.1882
 30
0
 10
220.246
 20
-20.4673
 30
0
 10
220.127
 20
-20.6944
 30
0
 10
219.878
 20
-20.7479
 30
0
  0
SPLINE
  5
A91
330
A02
100
AcDbEntity
  8
Shape137
100
AcDbSpline
210
0
220
0
230
1
 70
8
 71
1
 72
4
 73
2
 74
0
 40
0
 40
0
 40
145.464
 40
145.464
 10
219.878
 20
-20.7479
 30
0
 10
168.561
 20
-20.7762
 30
0
  0
SPLINE
  5
A92
330
A02
100
AcDbEntity
  8
Shape138
100
AcDbSpline
210
0
220
0
230
1
 70
8
 71
1
 72
4
 73
2
 74
0
 40
0
 40
0
 40
4.9781
 40
4.9781
 10
168.561
 20
-20.7762
 30
0
 10
166.817
 20
-20.5721
 30
0
  0
SPLINE
  5
A93
330
A02
100
AcDbEntity
  8
Shape139
100
AcDbSpline
210
0
220
0
230
1
 70
8
 71
1
 72
4
 73
2
 74
0
 40
0
 40
0
 40
238.887
 40
238.887
 10
166.817
 20
-20.5721
 30
0
 10
82.5435
 20
-20.4551
 30
0
  0
SPLINE
  5
A94
330
A02
100
AcDbEntity
  8
Shape140
100
AcDbSpline
210
0
220
0
230
1
 70
8
 71
1
 72
4
 73
2
 74
0
 40
0
 40
0
 40
6.9855
 40
6.9855
 10
82.5435
 20
-20.4551
 30
0
 10
82.5303
 20
-22.9194
 30
0
  0
SPLINE
  5
A95
330
A02
100
AcDbEntity
  8
Shape141
100
AcDbSpline
210
0
220
0
230
1
 70
8
 71
1
 72
4
 73
2
 74
0
 40
0
 40
0
 40
3.19957
 40
3.19957
 10
84.1935
 20
-22.8707
 30
0
 10
83.0648
 20
-22.866
 30
0
  0
SPLINE
  5
A96
330
A02
100
AcDbEntity
  8
Shape142
100
AcDbSpline
210
0
220
0
230
1
 70
8
 71
1
 72
4
 73
2
 74
0
 40
0
 40
0
 40
4.31599
 40
4.31599
 10
83.0648
 20
-22.866
 30
0
 10
83.0485
 20
-21.3435
 30
0
  0
SPLINE
  5
A97
330
A02
100
AcDbEntity
  8
Shape143
100
AcDbSpline
210
0
220
0
230
1
 70
8
 71
3
 72
8
 73
4
 74
0
 40
0
 40
0
 40
0
 40
0
 40
1
 40
1
 40
1
 40
1
 10
83.0485
 20
-21.3435
 30
0
 10
83.0513
 20
-21.2617
 30
0
 10
83.4307
 20
-20.8419
 30
0
 10
83.8465
 20
-20.8487
 30
0
  0
SPLINE
  5
A98
330
A02
100
AcDbEntity
  8
Shape144
100
AcDbSpline
210
0
220
0
230
1
 70
8
 71
1
 72
4
 73
2
 74
0
 40
0
 40
0
 40
236.233
 40
236.233
 10
83.8465
 20
-20.8487
 30
0
 10
167.184
 20
-20.9391
 30
0
  0
SPLINE
  5
A99
330
A02
100
AcDbEntity
  8
Shape145
100
AcDbSpline
210
0
220
0
230
1
 70
8
 71
1
 72
4
 73
2
 74
0
 40
0
 40
0
 40
4.93008
 40
4.93008
 10
167.184
 20
-20.9391
 30
0
 10
168.921
 20
-21.0303
 30
0
  0
SPLINE
  5
A9A
330
A02
100
AcDbEntity
  8
Shape146
100
AcDbSpline
210
0
220
0
230
1
 70
8
 71
1
 72
4
 73
2
 74
0
 40
0
 40
0
 40
145.45
 40
145.45
 10
168.921
 20
-21.0303
 30
0
 10
220.233
 20
-20.9857
 30
0
  0
SPLINE
  5
A9B
330
A02
100
AcDbEntity
  8
Shape147
100
AcDbSpline
210
0
220
0
230
1
 70
8
 71
3
 72
8
 73
4
 74
0
 40
0
 40
0
 40
0
 40
0
 40
1
 40
1
 40
1
 40
1
 10
220.233
 20
-20.9857
 30
0
 10
220.382
 20
-20.9906
 30
0
 10
220.53
 20
-20.8461
 30
0
 10
220.537
 20
-20.6914
 30
0
  0
SPLINE
  5
A9C
330
A02
100
AcDbEntity
  8
Shape148
100
AcDbSpline
210
0
220
0
230
1
 70
8
 71
1
 72
4
 73
2
 74
0
 40
0
 40
0
 40
14.0381
 40
14.0381
 10
220.537
 20
-20.6914
 30
0
 10
220.596
 20
-15.7394
 30
0
  0
SPLINE
  5
A9D
330
A02
100
AcDbEntity
  8
Shape149
100
AcDbSpline
210
0
220
0
230
1
 70
8
 71
3
 72
8
 73
4
 74
0
 40
0
 40
0
 40
0
 40
0
 40
1
 40
1
 40
1
 40
1
 10
220.596
 20
-15.7394
 30
0
 10
220.597
 20
-15.5221
 30
0
 10
220.788
 20
-15.4009
 30
0
 10
220.843
 20
-15.3943
 30
0
  0
SPLINE
  5
A9E
330
A02
100
AcDbEntity
  8
Shape150
100
AcDbSpline
210
0
220
0
230
1
 70
8
 71
1
 72
4
 73
2
 74
0
 40
0
 40
0
 40
15.1275
 40
15.1275
 10
220.843
 20
-15.3943
 30
0
 10
220.838
 20
-20.7308
 30
0
  0
SPLINE
  5
A9F
330
A02
100
AcDbEntity
  8
Shape151
100
AcDbSpline
210
0
220
0
230
1
 70
8
 71
3
 72
8
 73
4
 74
0
 40
0
 40
0
 40
0
 40
0
 40
1
 40
1
 40
1
 40
1
 10
220.838
 20
-20.7308
 30
0
 10
220.787
 20
-21.0099
 30
0
 10
220.668
 20
-21.237
 30
0
 10
220.42
 20
-21.2906
 30
0
  0
SPLINE
  5
AA0
330
A02
100
AcDbEntity
  8
Shape152
100
AcDbSpline
210
0
220
0
230
1
 70
8
 71
1
 72
4
 73
2
 74
0
 40
0
 40
0
 40
145.802
 40
145.802
 10
220.42
 20
-21.2906
 30
0
 10
168.984
 20
-21.394
 30
0
  0
SPLINE
  5
AA1
330
A02
100
AcDbEntity
  8
Shape153
100
AcDbSpline
210
0
220
0
230
1
 70
8
 71
1
 72
4
 73
2
 74
0
 40
0
 40
0
 40
3.05824
 40
3.05824
 10
168.984
 20
-21.394
 30
0
 10
167.907
 20
-21.3275
 30
0
  0
SPLINE
  5
AA2
330
A02
100
AcDbEntity
  8
Shape154
100
AcDbSpline
210
0
220
0
230
1
 70
8
 71
1
 72
4
 73
2
 74
0
 40
0
 40
0
 40
238.36
 40
238.36
 10
167.907
 20
-21.3275
 30
0
 10
83.8192
 20
-21.2519
 30
0
  0
SPLINE
  5
AA3
330
A02
100
AcDbEntity
  8
Shape155
100
AcDbSpline
210
0
220
0
230
1
 70
8
 71
1
 72
4
 73
2
 74
0
 40
0
 40
0
 40
2.64319
 40
2.64319
 10
83.8192
 20
-21.2519
 30
0
 10
83.8158
 20
-22.1844
 30
0
  0
SPLINE
  5
AA4
330
A02
100
AcDbEntity
  8
Shape156
100
AcDbSpline
210
0
220
0
230
1
 70
8
 71
1
 72
4
 73
2
 74
0
 40
0
 40
0
 40
1.09767
 40
1.09767
 10
83.8158
 20
-22.1844
 30
0
 10
84.2028
 20
-22.1956
 30
0
  0
SPLINE
  5
AA5
330
A02
100
AcDbEntity
  8
Shape157
100
AcDbSpline
210
0
220
0
230
1
 70
8
 71
1
 72
4
 73
2
 74
0
 40
0
 40
0
 40
1.91386
 40
1.91386
 10
84.2028
 20
-22.1956
 30
0
 10
84.1935
 20
-22.8707
 30
0
  0
ENDSEC
  0
SECTION
  2
OBJECTS
  0
DICTIONARY
  5
F000
330
0
100
AcDbDictionary
  3
ACAD_GROUP
350
F001
  0
DICTIONARY
  5
F001
330
F000
100
AcDbDictionary
  0
ENDSEC
  0
EOF