<?xml version="1.0" encoding="UTF-8" standalone="no"?>
<!-- Created with Inkscape (http://www.inkscape.org/) -->

<svg
   version="1.1"
   id="svg2"
   width="559.35999"
   height="793.76001"
   viewBox="0 0 559.35999 793.76001"
   sodipodi:docname="Scanned_Focus_Tacking_Flex.svg"
   inkscape:version="1.2.2 (b0a8486541, 2022-12-01)"
   xml:space="preserve"
   xmlns:inkscape="http://www.inkscape.org/namespaces/inkscape"
   xmlns:sodipodi="http://sodipodi.sourceforge.net/DTD/sodipodi-0.dtd"
   xmlns:xlink="http://www.w3.org/1999/xlink"
   xmlns="http://www.w3.org/2000/svg"
   xmlns:svg="http://www.w3.org/2000/svg"><defs
     id="defs6" /><sodipodi:namedview
     id="namedview4"
     pagecolor="#ffffff"
     bordercolor="#666666"
     borderopacity="1.0"
     inkscape:showpageshadow="2"
     inkscape:pageopacity="0.0"
     inkscape:pagecheckerboard="0"
     inkscape:deskcolor="#d1d1d1"
     showgrid="false"
     inkscape:zoom="16"
     inkscape:cx="297.15625"
     inkscape:cy="117.3125"
     inkscape:window-width="2560"
     inkscape:window-height="1403"
     inkscape:window-x="2560"
     inkscape:window-y="0"
     inkscape:window-maximized="1"
     inkscape:current-layer="g10"><inkscape:page
       x="0"
       y="0"
       id="page8"
       width="559.35999"
       height="793.76001" /></sodipodi:namedview><g
     id="g10"
     inkscape:groupmode="layer"
     inkscape:label="Outline"
     transform="matrix(1.3333333,0,0,-1.3333333,0,793.76)"><image
       width="80.520004"
       height="432.96002"
       preserveAspectRatio="none"
       xlink:href="Scanned_Focus_Tacking_Flex.png"
       id="image268"
       x="204.54303"
       y="-531.26959"
       transform="scale(1,-1)"
       style="display:inline"
       sodipodi:insensitive="true" /><g
       inkscape:groupmode="layer"
       id="layer2"
       inkscape:label="Stiffener"><path
         style="opacity:0.4;fill:#00ff00;stroke:#00ff00;stroke-width:0.075;stroke-linecap:butt;stroke-linejoin:miter;stroke-dasharray:none;stroke-opacity:1"
         d="m 222.78349,519.09388 22.19833,0.23135 0.34929,-17.9539 c -0.0301,-0.73231 -0.75967,-1.44648 -1.59318,-1.48363 l -7.56006,-0.39961 c 0.001,0.59557 -0.77094,1.35688 -1.41786,1.36745 l -11.79886,-0.23878 c -0.53999,-0.009 -1.16908,0.50023 -1.20362,1.03569 l -0.32461,16.29984 c 0.0191,0.43898 0.49147,1.1458 1.35057,1.14159 z"
         id="path1652"
         sodipodi:nodetypes="cccccccccc" /></g><path
       style="display:inline;fill:none;stroke:#000000;stroke-width:0.075;stroke-linecap:butt;stroke-linejoin:miter;stroke-dasharray:none;stroke-opacity:1"
       d="m 221.42627,517.84947 c -0.0208,0.6376 0.6426,1.24138 1.26184,1.2443 l 31.51571,0.35251 c 1.17066,0.0213 2.36385,-1.16272 2.40731,-2.34392 l 0.53744,-20.59559 c 0.0722,-1.30073 -1.20038,-2.64302 -2.33171,-2.67165 l -4.8973,-0.1317 c -0.92368,-0.0349 -2.06454,-1.10805 -2.04946,-1.99245 l 5.28462,-218.14707 4.45567,-4.54968 0.19696,-7.88949 c 0.0245,-0.72626 -0.44578,-1.04873 -0.92492,-1.0699 l -5.52465,-0.17986 0.13813,-4.36809 6.50467,0.027 0.18048,-8.27567 -6.63272,-6.98976 2.86186,-112.12156 c -0.007,-1.6466 1.234,-2.74698 2.79299,-2.7491 l 12.71729,0.32013 c 0.43187,0.007 1.02016,-0.44332 1.03557,-0.86309 l 0.44288,-12.38291 c 0.058,-0.72749 -0.49403,-1.37833 -1.23313,-1.40575 l -21.55868,-0.54186 c -1.38455,-0.0254 -2.77172,1.38496 -2.77213,2.48785 l -9.67393,386.591 c -0.0357,0.56207 -0.84842,1.28496 -1.48085,1.26141 l -11.70724,-0.2429 c -0.59155,-0.0144 -1.17999,0.51706 -1.20556,1.05703 z"
       id="path861"
       sodipodi:nodetypes="cccccccccccccccccccccccccccccc"
       inkscape:label="outer_edgecut" /><g
       id="g1142"
       inkscape:label="inner_edgecuts"><path
         d="m 248.1794,497.9482 4.45197,-0.004 c 1.1197,-0.0204 1.19155,1.70839 -6.2e-4,1.68172 l -4.49756,-0.0191 c -1.09916,0.0151 -1.09,-1.64908 0.0463,-1.6588 z"
         style="display:inline;fill:none;stroke:#000000;stroke-width:0.075;stroke-linecap:butt;stroke-linejoin:miter;stroke-dasharray:none;stroke-opacity:1"
         id="path1093"
         sodipodi:nodetypes="cccccc"
         inkscape:label="inner_edgecut2" /><path
         d="m 247.80585,513.59379 4.45197,-0.004 c 1.1197,-0.0204 1.19155,1.70839 -6.2e-4,1.68172 l -4.49756,-0.0191 c -1.09916,0.0151 -1.09,-1.64908 0.0463,-1.6588 z"
         style="display:inline;fill:none;stroke:#000000;stroke-width:0.075;stroke-linecap:butt;stroke-linejoin:miter;stroke-dasharray:none;stroke-opacity:1"
         id="path1093-3"
         sodipodi:nodetypes="cccccc"
         inkscape:label="inner_edgecut1" /></g><g
       id="g1255"
       inkscape:label="contacts"><g
         id="g1269"
         inkscape:label="end1"><rect
           style="fill:#00ffff;stroke:#00ffff;stroke-width:0.0754768;stroke-dasharray:none"
           id="rect1196"
           width="11.300743"
           height="2.0314434"
           x="225.13892"
           y="-513.83319"
           transform="matrix(0.99995273,0.00972259,0.00704303,-0.9999752,0,0)" /><rect
           style="fill:#00ffff;stroke:#00ffff;stroke-width:0.0748199;stroke-dasharray:none"
           id="rect1196-6"
           width="11.101758"
           height="2.0320208"
           x="229.82434"
           y="-507.90247"
           transform="matrix(0.99981109,0.01943669,0.01593905,-0.99987297,0,0)" /><rect
           style="fill:#00ffff;stroke:#00ffff;stroke-width:0.076303;stroke-dasharray:none"
           id="rect1196-7"
           width="11.19855"
           height="2.0951142"
           x="232.21562"
           y="-502.95322"
           transform="matrix(0.99968161,0.02523267,0.02075922,-0.9997845,0,0)" /><rect
           style="fill:#00ffff;stroke:#00ffff;stroke-width:0.0756364;stroke-dasharray:none"
           id="rect1196-5"
           width="11.349524"
           height="2.0312769"
           x="232.02365"
           y="-499.82321"
           transform="matrix(0.99973286,0.02311274,0.02036499,-0.99979261,0,0)" /><rect
           style="fill:#00ffff;stroke:#00ffff;stroke-width:0.074647;stroke-dasharray:none"
           id="rect1257"
           width="2.3839197"
           height="1.5389502"
           x="238.00392"
           y="-513.81"
           transform="matrix(0.99989125,0.01474557,0.01474557,-0.99989125,0,0)" /><rect
           style="fill:#00ffff;stroke:#00ffff;stroke-width:0.0718386;stroke-dasharray:none"
           id="rect1259"
           width="1.8385788"
           height="1.6160103"
           x="238.88297"
           y="-499.48718"
           transform="matrix(0.99983747,0.01802804,0.01505789,-0.9998866,0,0)" /></g><g
         id="g1330"
         inkscape:label="end2"><rect
           style="fill:#00ffff;stroke:#00ffff;stroke-width:0.075;stroke-dasharray:none"
           id="rect1271"
           width="2.9294043"
           height="4.2916541"
           x="265.48108"
           y="-117.61523"
           transform="matrix(0.99959745,0.02837139,0.02837139,-0.99959745,0,0)" /><rect
           style="fill:#00ffff;stroke:#00ffff;stroke-width:0.075;stroke-dasharray:none"
           id="rect1271-3"
           width="2.9294043"
           height="4.2916541"
           x="269.8382"
           y="-117.60252"
           transform="matrix(0.99959745,0.02837139,0.02837139,-0.99959745,0,0)" /><rect
           style="fill:#00ffff;stroke:#00ffff;stroke-width:0.075;stroke-dasharray:none"
           id="rect1271-5"
           width="2.9294043"
           height="4.2916541"
           x="265.59427"
           y="-107.88136"
           transform="matrix(0.99959745,0.02837139,0.02837139,-0.99959745,0,0)" /><rect
           style="fill:#00ffff;stroke:#00ffff;stroke-width:0.075;stroke-dasharray:none"
           id="rect1271-6"
           width="2.9294043"
           height="4.2916541"
           x="269.92325"
           y="-107.90304"
           transform="matrix(0.99959745,0.02837139,0.02837139,-0.99959745,0,0)" /></g></g><g
       inkscape:groupmode="layer"
       id="layer1"
       inkscape:label="Tracks"><path
         style="fill:#ff0000;stroke:#ff0000;stroke-width:0.075;stroke-linecap:butt;stroke-linejoin:miter;stroke-dasharray:none;stroke-opacity:1"
         d="m 232.90295,514.08506 -0.0314,3.20107 2.15705,0.005 0.002,-0.95817 8.74683,0.15288 c 0.80528,0.006 1.71954,-1.2473 1.70995,-1.86202 l 5.91364,-242.83058 -1.81188,-11.64199 3.38575,-138.73196 c -0.003,-0.42089 0.4373,-0.70474 0.87594,-0.7115 l 10.13594,0.0713 -0.62904,-0.61278 -9.871,-0.14367 c -0.63986,0.0898 -1.27817,0.46412 -1.4477,1.16521 l -1.54571,58.51581 -1.24222,47.91376 -0.67349,33.08219 1.73275,10.94868 -5.97008,242.64746 z"
         id="path1333"
         sodipodi:nodetypes="cccccccccccccccccccc" /><path
         style="fill:#ff0000;stroke:#ff0000;stroke-width:0.075;stroke-linecap:butt;stroke-linejoin:miter;stroke-dasharray:none;stroke-opacity:1"
         d="m 232.90412,510.50241 0.0131,2.1443 9.3364,0.25024 c 0.23229,-0.002 1.07283,-0.86321 1.08352,-2.04184 l 5.84225,-239.85655 -1.32202,-10.02119 3.55203,-140.81009 c -0.003,-0.42089 0.33342,-0.7199 0.77206,-0.72666 l 14.40219,-0.0625 c 0.98063,0.15171 0.93537,0.77982 0.90231,1.49626 l 0.82308,0.0153 c 0.0956,-1.42751 -0.4857,-2.13736 -2.1228,-2.14633 l -14.265,0.0273 c -0.63986,0.0898 -1.27817,0.46412 -1.4477,1.16521 l -3.57467,141.64463 1.00288,8.70072 -5.64558,240.37898 z"
         id="path1333-2"
         sodipodi:nodetypes="cccccccccccccccccc" /><path
         style="display:inline;fill:#ff0000;stroke:#ff0000;stroke-width:0.075;stroke-linecap:butt;stroke-linejoin:miter;stroke-dasharray:none;stroke-opacity:1"
         d="m 233.03567,506.89541 -0.0513,2.10121 6.76232,0.16891 c 0.23229,-0.002 1.37498,-0.89108 1.38567,-2.06971 l 5.68647,-238.95879 -0.62924,-6.13524 3.66596,-143.60768 c -0.003,-0.42089 0.41713,-0.83396 0.85577,-0.84072 l 16.27178,0.2903 c 1.1596,0.0101 1.57396,-1.59015 1.58165,-2.20714 l -1.01794,-0.001 c -0.027,0.74226 -0.23193,1.4131 -1.1615,1.45161 l -15.76418,-0.39131 c -0.79449,0.12463 -1.44647,0.44499 -1.616,1.14608 l -3.74763,145.41596 0.45343,4.95741 -5.69114,238.81874 z"
         id="path1333-2-9"
         sodipodi:nodetypes="cccccccccccccccccc" /><path
         style="display:inline;fill:#ff0000;stroke:#ff0000;stroke-width:0.075;stroke-linecap:butt;stroke-linejoin:miter;stroke-dasharray:none;stroke-opacity:1"
         d="m 233.29244,502.18579 -0.0675,3.19886 4.31321,0.1549 c 0.23229,-0.002 1.44875,-1.04732 1.45944,-2.22595 l 5.69991,-236.16446 -0.13459,-4.92824 3.79369,-145.40078 c -0.003,-0.42089 0.41713,-0.83396 0.85577,-0.84072 l 14.03692,0.18551 c 0.61591,0.0115 0.97301,-0.5188 0.99592,-0.67446 l -15.12303,-0.36859 c -0.79449,0.12463 -1.44647,0.44499 -1.616,1.14608 l -3.96943,145.74832 0.11176,3.0562 -5.79575,238.28966 -2.64258,-0.057 -0.004,-1.09766 z"
         id="path1333-2-9-1"
         sodipodi:nodetypes="cccccccccccccccccc" /></g></g></svg>
