%TF.GenerationSoftware,KiCad,Pcbnew,8.0.9-8.0.9-0~ubuntu24.04.1*%
%TF.CreationDate,2025-02-26T15:16:51+01:00*%
%TF.ProjectId,Main_PCB,4d61696e-5f50-4434-922e-6b696361645f,0.1*%
%TF.SameCoordinates,Original*%
%TF.FileFunction,Copper,L4,Bot*%
%TF.FilePolarity,Positive*%
%FSLAX46Y46*%
G04 Gerber Fmt 4.6, Leading zero omitted, Abs format (unit mm)*
G04 Created by KiCad (PCBNEW 8.0.9-8.0.9-0~ubuntu24.04.1) date 2025-02-26 15:16:51*
%MOMM*%
%LPD*%
G01*
G04 APERTURE LIST*
G04 Aperture macros list*
%AMRoundRect*
0 Rectangle with rounded corners*
0 $1 Rounding radius*
0 $2 $3 $4 $5 $6 $7 $8 $9 X,Y pos of 4 corners*
0 Add a 4 corners polygon primitive as box body*
4,1,4,$2,$3,$4,$5,$6,$7,$8,$9,$2,$3,0*
0 Add four circle primitives for the rounded corners*
1,1,$1+$1,$2,$3*
1,1,$1+$1,$4,$5*
1,1,$1+$1,$6,$7*
1,1,$1+$1,$8,$9*
0 Add four rect primitives between the rounded corners*
20,1,$1+$1,$2,$3,$4,$5,0*
20,1,$1+$1,$4,$5,$6,$7,0*
20,1,$1+$1,$6,$7,$8,$9,0*
20,1,$1+$1,$8,$9,$2,$3,0*%
G04 Aperture macros list end*
%TA.AperFunction,ComponentPad*%
%ADD10R,1.350000X1.350000*%
%TD*%
%TA.AperFunction,ComponentPad*%
%ADD11O,1.350000X1.350000*%
%TD*%
%TA.AperFunction,SMDPad,CuDef*%
%ADD12RoundRect,0.250000X0.550000X-1.250000X0.550000X1.250000X-0.550000X1.250000X-0.550000X-1.250000X0*%
%TD*%
%TA.AperFunction,SMDPad,CuDef*%
%ADD13RoundRect,0.250000X1.250000X0.550000X-1.250000X0.550000X-1.250000X-0.550000X1.250000X-0.550000X0*%
%TD*%
%TA.AperFunction,ComponentPad*%
%ADD14C,1.500000*%
%TD*%
%TA.AperFunction,SMDPad,CuDef*%
%ADD15RoundRect,0.250000X-1.950000X-1.000000X1.950000X-1.000000X1.950000X1.000000X-1.950000X1.000000X0*%
%TD*%
%TA.AperFunction,ComponentPad*%
%ADD16C,2.340000*%
%TD*%
%TA.AperFunction,SMDPad,CuDef*%
%ADD17RoundRect,0.250000X0.550000X-1.500000X0.550000X1.500000X-0.550000X1.500000X-0.550000X-1.500000X0*%
%TD*%
%TA.AperFunction,ComponentPad*%
%ADD18O,2.800000X1.800000*%
%TD*%
%TA.AperFunction,SMDPad,CuDef*%
%ADD19RoundRect,0.250000X0.550000X-1.050000X0.550000X1.050000X-0.550000X1.050000X-0.550000X-1.050000X0*%
%TD*%
%TA.AperFunction,SMDPad,CuDef*%
%ADD20RoundRect,0.250000X-1.500000X-0.550000X1.500000X-0.550000X1.500000X0.550000X-1.500000X0.550000X0*%
%TD*%
%TA.AperFunction,SMDPad,CuDef*%
%ADD21RoundRect,0.250000X-1.250000X-0.550000X1.250000X-0.550000X1.250000X0.550000X-1.250000X0.550000X0*%
%TD*%
%TA.AperFunction,SMDPad,CuDef*%
%ADD22RoundRect,0.250000X1.950000X1.000000X-1.950000X1.000000X-1.950000X-1.000000X1.950000X-1.000000X0*%
%TD*%
%TA.AperFunction,SMDPad,CuDef*%
%ADD23RoundRect,0.250000X-0.250000X-0.475000X0.250000X-0.475000X0.250000X0.475000X-0.250000X0.475000X0*%
%TD*%
%TA.AperFunction,ComponentPad*%
%ADD24RoundRect,0.200000X0.450000X-0.200000X0.450000X0.200000X-0.450000X0.200000X-0.450000X-0.200000X0*%
%TD*%
%TA.AperFunction,ComponentPad*%
%ADD25O,1.300000X0.800000*%
%TD*%
%TA.AperFunction,ComponentPad*%
%ADD26RoundRect,0.250000X0.615000X-0.265000X0.615000X0.265000X-0.615000X0.265000X-0.615000X-0.265000X0*%
%TD*%
%TA.AperFunction,ComponentPad*%
%ADD27O,1.730000X1.030000*%
%TD*%
%TA.AperFunction,ComponentPad*%
%ADD28RoundRect,0.250000X-0.615000X0.265000X-0.615000X-0.265000X0.615000X-0.265000X0.615000X0.265000X0*%
%TD*%
%TA.AperFunction,ComponentPad*%
%ADD29C,1.600000*%
%TD*%
%TA.AperFunction,ComponentPad*%
%ADD30O,1.600000X1.600000*%
%TD*%
%TA.AperFunction,ComponentPad*%
%ADD31C,1.620000*%
%TD*%
%TA.AperFunction,ComponentPad*%
%ADD32R,2.100000X2.100000*%
%TD*%
%TA.AperFunction,ComponentPad*%
%ADD33C,2.100000*%
%TD*%
%TA.AperFunction,ComponentPad*%
%ADD34O,1.800000X2.800000*%
%TD*%
%TA.AperFunction,ComponentPad*%
%ADD35RoundRect,0.200000X-0.450000X0.200000X-0.450000X-0.200000X0.450000X-0.200000X0.450000X0.200000X0*%
%TD*%
%TA.AperFunction,SMDPad,CuDef*%
%ADD36RoundRect,0.200000X0.200000X0.275000X-0.200000X0.275000X-0.200000X-0.275000X0.200000X-0.275000X0*%
%TD*%
%TA.AperFunction,ComponentPad*%
%ADD37R,1.400000X1.400000*%
%TD*%
%TA.AperFunction,ComponentPad*%
%ADD38C,1.400000*%
%TD*%
%TA.AperFunction,ComponentPad*%
%ADD39C,3.000000*%
%TD*%
%TA.AperFunction,ComponentPad*%
%ADD40R,3.000000X1.800000*%
%TD*%
%TA.AperFunction,ComponentPad*%
%ADD41O,1.800000X3.000000*%
%TD*%
%TA.AperFunction,ComponentPad*%
%ADD42R,1.800000X1.800000*%
%TD*%
%TA.AperFunction,ComponentPad*%
%ADD43O,1.800000X1.800000*%
%TD*%
%TA.AperFunction,ComponentPad*%
%ADD44R,2.000000X1.905000*%
%TD*%
%TA.AperFunction,ComponentPad*%
%ADD45O,2.000000X1.905000*%
%TD*%
%TA.AperFunction,SMDPad,CuDef*%
%ADD46RoundRect,0.250000X0.250000X0.475000X-0.250000X0.475000X-0.250000X-0.475000X0.250000X-0.475000X0*%
%TD*%
%TA.AperFunction,SMDPad,CuDef*%
%ADD47RoundRect,0.150000X-0.587500X-0.150000X0.587500X-0.150000X0.587500X0.150000X-0.587500X0.150000X0*%
%TD*%
%TA.AperFunction,ViaPad*%
%ADD48C,0.800000*%
%TD*%
%TA.AperFunction,ViaPad*%
%ADD49C,0.600000*%
%TD*%
%TA.AperFunction,Conductor*%
%ADD50C,0.200000*%
%TD*%
%TA.AperFunction,Conductor*%
%ADD51C,0.500000*%
%TD*%
%TA.AperFunction,Conductor*%
%ADD52C,0.400000*%
%TD*%
%TA.AperFunction,Conductor*%
%ADD53C,1.000000*%
%TD*%
G04 APERTURE END LIST*
D10*
%TO.P,P104,1,Pin_1*%
%TO.N,/Servo and Actuator Drivers/TE*%
X113000000Y-198200000D03*
D11*
%TO.P,P104,2,Pin_2*%
%TO.N,/Servo and Actuator Drivers/FE*%
X115000000Y-198200000D03*
%TO.P,P104,3,Pin_3*%
%TO.N,Net-(P104-Pin_3)*%
X117000000Y-198200000D03*
%TO.P,P104,4,Pin_4*%
%TO.N,Net-(P104-Pin_4)*%
X119000000Y-198200000D03*
%TD*%
D12*
%TO.P,C149,1*%
%TO.N,+5V*%
X116400000Y-127400000D03*
%TO.P,C149,2*%
%TO.N,GND*%
X116400000Y-123000000D03*
%TD*%
D13*
%TO.P,C201,1*%
%TO.N,Net-(IC201-VREFH1)*%
X52300000Y-174800000D03*
%TO.P,C201,2*%
%TO.N,GND*%
X47900000Y-174800000D03*
%TD*%
D14*
%TO.P,CF101,1,1*%
%TO.N,Net-(IC108-X1)*%
X111100000Y-114000000D03*
%TO.P,CF101,2,2*%
%TO.N,Net-(IC108-X2)*%
X116000000Y-114000000D03*
%TD*%
D15*
%TO.P,C301,1*%
%TO.N,+9V*%
X71100000Y-103000000D03*
%TO.P,C301,2*%
%TO.N,GND*%
X78500000Y-103000000D03*
%TD*%
D16*
%TO.P,RV201,1,1*%
%TO.N,Net-(C219-Pad2)*%
X150800000Y-202700000D03*
%TO.P,RV201,2,2*%
%TO.N,GND*%
X150200000Y-197900000D03*
%TO.P,RV201,3,3*%
%TO.N,/AUDIO/AUDIO_L*%
X147000000Y-196500000D03*
%TO.P,RV201,4,4*%
%TO.N,/AUDIO/AUDIO_R*%
X143800000Y-197900000D03*
%TO.P,RV201,5,5*%
%TO.N,Net-(C220-Pad2)*%
X143200000Y-202700000D03*
%TD*%
D17*
%TO.P,C136,1*%
%TO.N,+9V*%
X111100000Y-165100000D03*
%TO.P,C136,2*%
%TO.N,GND*%
X111100000Y-159500000D03*
%TD*%
D18*
%TO.P,JK101,R*%
%TO.N,/AUDIO/LINEOUT_R*%
X102600000Y-81800000D03*
%TO.P,JK101,S*%
%TO.N,GND*%
X102600000Y-79400000D03*
%TO.P,JK101,T*%
%TO.N,/AUDIO/LINEOUT_L*%
X102600000Y-86400000D03*
%TD*%
D19*
%TO.P,C200,1*%
%TO.N,+5VA*%
X63600000Y-175100000D03*
%TO.P,C200,2*%
%TO.N,GND*%
X63600000Y-171500000D03*
%TD*%
D20*
%TO.P,C303,1*%
%TO.N,Net-(Q305-B)*%
X96900000Y-190200000D03*
%TO.P,C303,2*%
%TO.N,GND*%
X102500000Y-190200000D03*
%TD*%
D21*
%TO.P,C226,1*%
%TO.N,Net-(C226-Pad1)*%
X159000000Y-194900000D03*
%TO.P,C226,2*%
%TO.N,Net-(Q208-C)*%
X163400000Y-194900000D03*
%TD*%
D13*
%TO.P,C122,1*%
%TO.N,Net-(IC102-SL+)*%
X145400000Y-173500000D03*
%TO.P,C122,2*%
%TO.N,Net-(C122-Pad2)*%
X141000000Y-173500000D03*
%TD*%
D22*
%TO.P,C300,1*%
%TO.N,+9V*%
X65700000Y-103000000D03*
%TO.P,C300,2*%
%TO.N,GND*%
X58300000Y-103000000D03*
%TD*%
D23*
%TO.P,C216,1*%
%TO.N,Net-(C213-Pad1)*%
X77050000Y-192400000D03*
%TO.P,C216,2*%
%TO.N,Net-(C216-Pad2)*%
X78950000Y-192400000D03*
%TD*%
D24*
%TO.P,CN102,1,Pin_1*%
%TO.N,GND*%
X174500000Y-151000000D03*
D25*
%TO.P,CN102,2,Pin_2*%
%TO.N,Net-(CN102-Pin_2)*%
X172000000Y-149750000D03*
%TO.P,CN102,3,Pin_3*%
%TO.N,Net-(CN102-Pin_3)*%
X174500000Y-148500000D03*
%TO.P,CN102,4,Pin_4*%
%TO.N,GND*%
X172000000Y-147250000D03*
%TO.P,CN102,5,Pin_5*%
%TO.N,Net-(CN102-Pin_5)*%
X174500000Y-146000000D03*
%TO.P,CN102,6,Pin_6*%
%TO.N,Net-(CN102-Pin_6)*%
X172000000Y-144750000D03*
%TO.P,CN102,7,Pin_7*%
%TO.N,Net-(CN102-Pin_7)*%
X174500000Y-143500000D03*
%TO.P,CN102,8,Pin_8*%
%TO.N,GND*%
X172000000Y-142250000D03*
%TO.P,CN102,9,Pin_9*%
%TO.N,/RF AMP/B+D*%
X174500000Y-141000000D03*
%TO.P,CN102,10,Pin_10*%
%TO.N,/RF AMP/A+C*%
X172000000Y-139750000D03*
%TO.P,CN102,11,Pin_11*%
X174500000Y-138500000D03*
%TO.P,CN102,12,Pin_12*%
%TO.N,/RF AMP/B+D*%
X172000000Y-137250000D03*
%TD*%
D10*
%TO.P,P103,1,Pin_1*%
%TO.N,/VC*%
X164700000Y-123300000D03*
D11*
%TO.P,P103,2,Pin_2*%
%TO.N,Net-(P103-Pin_2)*%
X164700000Y-121300000D03*
%TO.P,P103,3,Pin_3*%
%TO.N,Net-(IC101-TE)*%
X164700000Y-119300000D03*
%TO.P,P103,4,Pin_4*%
%TO.N,GND*%
X164700000Y-117300000D03*
%TO.P,P103,5,Pin_5*%
%TO.N,/RF AMP/RFO*%
X164700000Y-115300000D03*
%TO.P,P103,6,Pin_6*%
%TO.N,/DSP/PCLK*%
X164700000Y-113300000D03*
%TD*%
D21*
%TO.P,C113,1*%
%TO.N,+5V*%
X149800000Y-148000000D03*
%TO.P,C113,2*%
%TO.N,/VC*%
X154200000Y-148000000D03*
%TD*%
D23*
%TO.P,C215,1*%
%TO.N,Net-(C214-Pad1)*%
X77050000Y-196900000D03*
%TO.P,C215,2*%
%TO.N,Net-(C215-Pad2)*%
X78950000Y-196900000D03*
%TD*%
D26*
%TO.P,P101,1,Pin_1*%
%TO.N,+5V*%
X96100000Y-158000000D03*
D27*
%TO.P,P101,2,Pin_2*%
%TO.N,GND*%
X96100000Y-156500000D03*
%TO.P,P101,3,Pin_3*%
%TO.N,/PD7*%
X96100000Y-155000000D03*
%TO.P,P101,4,Pin_4*%
%TO.N,/PD6*%
X96100000Y-153500000D03*
%TO.P,P101,5,Pin_5*%
%TO.N,/PD5*%
X96100000Y-152000000D03*
%TO.P,P101,6,Pin_6*%
%TO.N,/PD4*%
X96100000Y-150500000D03*
%TO.P,P101,7,Pin_7*%
%TO.N,/PD3*%
X96100000Y-149000000D03*
%TO.P,P101,8,Pin_8*%
%TO.N,/PD2*%
X96100000Y-147500000D03*
%TO.P,P101,9,Pin_9*%
%TO.N,/PD1*%
X96100000Y-146000000D03*
%TO.P,P101,10,Pin_10*%
%TO.N,/PD0*%
X96100000Y-144500000D03*
%TD*%
D21*
%TO.P,C302,1*%
%TO.N,+5V*%
X77700000Y-122300000D03*
%TO.P,C302,2*%
%TO.N,GND*%
X82100000Y-122300000D03*
%TD*%
D28*
%TO.P,P105,1,Pin_1*%
%TO.N,Net-(P105-Pin_1)*%
X108000000Y-184000000D03*
D27*
%TO.P,P105,2,Pin_2*%
%TO.N,/MCU/PLAY_PAUSE*%
X108000000Y-185500000D03*
%TD*%
D29*
%TO.P,L101,1,1*%
%TO.N,Net-(CN102-Pin_3)*%
X168600000Y-148500000D03*
D30*
%TO.P,L101,2,2*%
%TO.N,Net-(Q101-C)*%
X158600000Y-148500000D03*
%TD*%
D29*
%TO.P,R101,1*%
%TO.N,+5V*%
X158600000Y-152600000D03*
D30*
%TO.P,R101,2*%
%TO.N,Net-(Q101-E)*%
X168760000Y-152600000D03*
%TD*%
D28*
%TO.P,P102,1,Pin_1*%
%TO.N,/SPL_MOTOR_BLACK*%
X95000000Y-163500000D03*
D27*
%TO.P,P102,2,Pin_2*%
%TO.N,/SPL_MOTOR_RED*%
X95000000Y-165000000D03*
%TO.P,P102,3,Pin_3*%
%TO.N,/~{MRST}*%
X95000000Y-166500000D03*
%TO.P,P102,4,Pin_4*%
%TO.N,/MCU/DIGIT1_EN*%
X95000000Y-168000000D03*
%TO.P,P102,5,Pin_5*%
%TO.N,/MCU/DIGIT2_EN*%
X95000000Y-169500000D03*
%TO.P,P102,6,Pin_6*%
%TO.N,/MCU/RS_EN*%
X95000000Y-171000000D03*
%TO.P,P102,7,Pin_7*%
%TO.N,/MCU/DISP_LATCH*%
X95000000Y-172500000D03*
%TO.P,P102,8,Pin_8*%
%TO.N,/MCU/PLAY_PAUSE*%
X95000000Y-174000000D03*
%TO.P,P102,9,Pin_9*%
%TO.N,/MCU/FS_RS*%
X95000000Y-175500000D03*
%TO.P,P102,10,Pin_10*%
%TO.N,Net-(P102-Pin_10)*%
X95000000Y-177000000D03*
%TO.P,P102,11,Pin_11*%
%TO.N,/MCU/STOP*%
X95000000Y-178500000D03*
%TD*%
D31*
%TO.P,VR102,1,1*%
%TO.N,Net-(R105-Pad2)*%
X171000000Y-158000000D03*
%TO.P,VR102,2,2*%
%TO.N,Net-(IC101-FEBIAS)*%
X168500000Y-160500000D03*
%TO.P,VR102,3,3*%
%TO.N,Net-(R106-Pad1)*%
X171000000Y-163000000D03*
%TD*%
D21*
%TO.P,C225,1*%
%TO.N,Net-(C225-Pad1)*%
X159000000Y-188700000D03*
%TO.P,C225,2*%
%TO.N,Net-(Q209-C)*%
X163400000Y-188700000D03*
%TD*%
D19*
%TO.P,C129,1*%
%TO.N,Net-(IC102-3.5V)*%
X163300000Y-168600000D03*
%TO.P,C129,2*%
%TO.N,GND*%
X163300000Y-165000000D03*
%TD*%
D28*
%TO.P,P106,1,Pin_1*%
%TO.N,Net-(P106-Pin_1)*%
X108000000Y-191000000D03*
D27*
%TO.P,P106,2,Pin_2*%
%TO.N,Net-(P106-Pin_2)*%
X108000000Y-192500000D03*
%TD*%
D31*
%TO.P,VR105,1,1*%
%TO.N,Net-(R127-Pad1)*%
X171000000Y-166200000D03*
%TO.P,VR105,2,2*%
%TO.N,Net-(IC102-3.5V)*%
X168500000Y-168700000D03*
%TO.P,VR105,3,3*%
X171000000Y-171200000D03*
%TD*%
D13*
%TO.P,C202,1*%
%TO.N,Net-(IC201-VREFL1)*%
X52300000Y-168500000D03*
%TO.P,C202,2*%
%TO.N,GND*%
X47900000Y-168500000D03*
%TD*%
D21*
%TO.P,C159,1*%
%TO.N,+5V*%
X84900000Y-160500000D03*
%TO.P,C159,2*%
%TO.N,GND*%
X89300000Y-160500000D03*
%TD*%
D31*
%TO.P,VR101,1,1*%
%TO.N,Net-(R104-Pad2)*%
X173500000Y-126800000D03*
%TO.P,VR101,2,2*%
%TO.N,Net-(IC101-E1)*%
X171000000Y-129300000D03*
%TO.P,VR101,3,3*%
%TO.N,Net-(IC101-E0)*%
X173500000Y-131800000D03*
%TD*%
D32*
%TO.P,IC105,1,VCC*%
%TO.N,+9V*%
X126600000Y-166700000D03*
D33*
%TO.P,IC105,2*%
%TO.N,Net-(CN101-Pin_4)*%
X126600000Y-169240000D03*
%TO.P,IC105,3*%
%TO.N,Net-(CN101-Pin_1)*%
X126600000Y-171780000D03*
%TO.P,IC105,4*%
%TO.N,Net-(CN101-Pin_4)*%
X126600000Y-174320000D03*
%TO.P,IC105,5*%
%TO.N,Net-(IC105-Pad5)*%
X126600000Y-176860000D03*
%TO.P,IC105,6*%
%TO.N,/Servo and Actuator Drivers/VSUP{slash}2*%
X126600000Y-179400000D03*
%TO.P,IC105,7,MUTE*%
%TO.N,unconnected-(IC105-MUTE-Pad7)*%
X126600000Y-181940000D03*
%TO.P,IC105,8*%
%TO.N,Net-(IC105-Pad8)*%
X126600000Y-184480000D03*
%TO.P,IC105,9*%
%TO.N,Net-(CN101-Pin_3)*%
X126600000Y-187020000D03*
%TO.P,IC105,10*%
%TO.N,Net-(CN101-Pin_2)*%
X126600000Y-189560000D03*
%TO.P,IC105,11*%
%TO.N,Net-(CN101-Pin_3)*%
X126600000Y-192100000D03*
%TO.P,IC105,12,GND*%
%TO.N,GND*%
X126600000Y-194640000D03*
%TD*%
D34*
%TO.P,JK102,R*%
%TO.N,Net-(Q209-C)*%
X172700000Y-193900000D03*
%TO.P,JK102,S*%
%TO.N,GND*%
X175100000Y-193900000D03*
%TO.P,JK102,T*%
%TO.N,Net-(Q208-C)*%
X168100000Y-193900000D03*
%TD*%
D35*
%TO.P,CN101,1,Pin_1*%
%TO.N,Net-(CN101-Pin_1)*%
X159700000Y-82250000D03*
D25*
%TO.P,CN101,2,Pin_2*%
%TO.N,Net-(CN101-Pin_2)*%
X162200000Y-83500000D03*
%TO.P,CN101,3,Pin_3*%
%TO.N,Net-(CN101-Pin_3)*%
X159700000Y-84750000D03*
%TO.P,CN101,4,Pin_4*%
%TO.N,Net-(CN101-Pin_4)*%
X162200000Y-86000000D03*
%TD*%
D36*
%TO.P,R513,1*%
%TO.N,+5V*%
X110025000Y-127500000D03*
%TO.P,R513,2*%
%TO.N,/~{WR}*%
X108375000Y-127500000D03*
%TD*%
D37*
%TO.P,JK104,A1,SCSI_D7*%
%TO.N,/SCSI/SCSI_D7*%
X54500000Y-89810000D03*
D38*
%TO.P,JK104,A2,~{SCSI_RST}*%
%TO.N,/SCSI/~{SCSI_RST}*%
X55770000Y-87905000D03*
%TO.P,JK104,A3,SCSI_D6*%
%TO.N,/SCSI/SCSI_D6*%
X57040000Y-89810000D03*
%TO.P,JK104,A4,~{SCSI_SEL}*%
%TO.N,Net-(JK104B-~{SCSI_SEL})*%
X58310000Y-87905000D03*
%TO.P,JK104,A5,SCSI_D5*%
%TO.N,/SCSI/SCSI_D5*%
X59580000Y-89810000D03*
%TO.P,JK104,A6,SFSY*%
%TO.N,Net-(JK104B-SFSY)*%
X60850000Y-87905000D03*
%TO.P,JK104,A7,SCSI_D4*%
%TO.N,/SCSI/SCSI_D4*%
X62120000Y-89810000D03*
%TO.P,JK104,A8,I2S_LRCK*%
%TO.N,Net-(JK104B-I2S_LRCK)*%
X63390000Y-87905000D03*
%TO.P,JK104,A9,SCSI_D3*%
%TO.N,/SCSI/SCSI_D3*%
X64660000Y-89810000D03*
%TO.P,JK104,A10,I2S_DAT*%
%TO.N,Net-(JK104B-I2S_DAT)*%
X65930000Y-87905000D03*
%TO.P,JK104,A11,SCSI_D2*%
%TO.N,/SCSI/SCSI_D2*%
X67200000Y-89810000D03*
%TO.P,JK104,A12,PW*%
%TO.N,Net-(JK104B-PW)*%
X68470000Y-87905000D03*
%TO.P,JK104,A13,SCSI_D1*%
%TO.N,/SCSI/SCSI_D1*%
X69740000Y-89810000D03*
%TO.P,JK104,A14,SBCK*%
%TO.N,Net-(JK104B-SBCK)*%
X71010000Y-87905000D03*
%TO.P,JK104,A15,SCSI_D0*%
%TO.N,/SCSI/SCSI_D0*%
X72280000Y-89810000D03*
%TO.P,JK104,B1,~{SCSI_ACK}*%
%TO.N,Net-(JK104C-~{SCSI_ACK})*%
X54500000Y-86000000D03*
%TO.P,JK104,B2,~{SCSI_REQ}*%
%TO.N,Net-(JK104D-~{SCSI_REQ})*%
X55770000Y-84095000D03*
%TO.P,JK104,B3,I2S_SCLK*%
%TO.N,Net-(JK104C-I2S_SCLK)*%
X57040000Y-86000000D03*
%TO.P,JK104,B4,SBSY*%
%TO.N,Net-(JK104D-SBSY)*%
X58310000Y-84095000D03*
%TO.P,JK104,B5,~{SCSI_CD}*%
%TO.N,Net-(JK104C-~{SCSI_CD})*%
X59580000Y-86000000D03*
%TO.P,JK104,B6,~{SCSI_MSG}*%
%TO.N,Net-(JK104D-~{SCSI_MSG})*%
X60850000Y-84095000D03*
%TO.P,JK104,B7,~{SCSI_BSY}*%
%TO.N,Net-(JK104C-~{SCSI_BSY})*%
X62120000Y-86000000D03*
%TO.P,JK104,B8,+9V*%
%TO.N,+9V*%
X63390000Y-84095000D03*
%TO.P,JK104,B9,+9V*%
X64660000Y-86000000D03*
%TO.P,JK104,B10,AUDIO_R*%
%TO.N,/AUDIO/LINEOUT_R*%
X65930000Y-84095000D03*
%TO.P,JK104,B11,GNDA*%
%TO.N,GND*%
X67200000Y-86000000D03*
%TO.P,JK104,B12,AUDIO_L*%
%TO.N,/AUDIO/LINEOUT_L*%
X68470000Y-84095000D03*
%TO.P,JK104,B13,GND*%
%TO.N,GND*%
X69740000Y-86000000D03*
%TO.P,JK104,B14,GND*%
X71010000Y-84095000D03*
%TO.P,JK104,B15,~{SCSI_IO}*%
%TO.N,Net-(JK104C-~{SCSI_IO})*%
X72280000Y-86000000D03*
D39*
%TO.P,JK104,MH,MH*%
%TO.N,GND*%
X49440000Y-84095000D03*
X77340000Y-84095000D03*
%TD*%
D40*
%TO.P,JK103,1*%
%TO.N,GND*%
X86200000Y-88400000D03*
D41*
%TO.P,JK103,2*%
%TO.N,Net-(D301-A)*%
X92000000Y-83400000D03*
%TO.P,JK103,3*%
X95000000Y-85600000D03*
%TD*%
D32*
%TO.P,IC104,1,VCC*%
%TO.N,+9V*%
X118600000Y-166700000D03*
D33*
%TO.P,IC104,2*%
%TO.N,/SPL_MOTOR_RED*%
X118600000Y-169240000D03*
%TO.P,IC104,3*%
%TO.N,/SPL_MOTOR_BLACK*%
X118600000Y-171780000D03*
%TO.P,IC104,4*%
%TO.N,/SPL_MOTOR_RED*%
X118600000Y-174320000D03*
%TO.P,IC104,5*%
%TO.N,Net-(IC104-Pad5)*%
X118600000Y-176860000D03*
%TO.P,IC104,6*%
%TO.N,/Servo and Actuator Drivers/VSUP{slash}2*%
X118600000Y-179400000D03*
%TO.P,IC104,7,MUTE*%
%TO.N,unconnected-(IC104-MUTE-Pad7)*%
X118600000Y-181940000D03*
%TO.P,IC104,8*%
%TO.N,Net-(IC104-Pad8)*%
X118600000Y-184480000D03*
%TO.P,IC104,9*%
%TO.N,Net-(P106-Pin_2)*%
X118600000Y-187020000D03*
%TO.P,IC104,10*%
%TO.N,Net-(P106-Pin_1)*%
X118600000Y-189560000D03*
%TO.P,IC104,11*%
%TO.N,Net-(P106-Pin_2)*%
X118600000Y-192100000D03*
%TO.P,IC104,12,GND*%
%TO.N,GND*%
X118600000Y-194640000D03*
%TD*%
D13*
%TO.P,C114,1*%
%TO.N,/VC*%
X154200000Y-141900000D03*
%TO.P,C114,2*%
%TO.N,GND*%
X149800000Y-141900000D03*
%TD*%
D42*
%TO.P,D301,1,K*%
%TO.N,+9V*%
X98700000Y-91100000D03*
D43*
%TO.P,D301,2,A*%
%TO.N,Net-(D301-A)*%
X98700000Y-80940000D03*
%TD*%
D12*
%TO.P,C304,1*%
%TO.N,Net-(Q307-B)*%
X73800000Y-174900000D03*
%TO.P,C304,2*%
%TO.N,GND*%
X73800000Y-170500000D03*
%TD*%
D44*
%TO.P,IC301,1,IN*%
%TO.N,+9V*%
X76000000Y-112000000D03*
D45*
%TO.P,IC301,2,GND*%
%TO.N,GND*%
X76000000Y-114540000D03*
%TO.P,IC301,3,OUT*%
%TO.N,+5V*%
X76000000Y-117080000D03*
%TD*%
D31*
%TO.P,VR103,1,1*%
%TO.N,/VC*%
X171000000Y-174400000D03*
%TO.P,VR103,2,2*%
%TO.N,/Servo and Actuator Drivers/TE*%
X168500000Y-176900000D03*
%TO.P,VR103,3,3*%
%TO.N,Net-(C112-Pad2)*%
X171000000Y-179400000D03*
%TD*%
D14*
%TO.P,X101,1,1*%
%TO.N,Net-(IC106-XTAI)*%
X166800000Y-107400000D03*
%TO.P,X101,2,2*%
%TO.N,Net-(IC106-XTAO)*%
X166800000Y-102500000D03*
%TD*%
D46*
%TO.P,C117,1*%
%TO.N,+5V*%
X146250000Y-167800000D03*
%TO.P,C117,2*%
%TO.N,Net-(IC102-SRCH)*%
X144350000Y-167800000D03*
%TD*%
D47*
%TO.P,D105,1,A*%
%TO.N,/PF5*%
X108462500Y-131350000D03*
%TO.P,D105,2,A*%
%TO.N,/~{WR}*%
X108462500Y-129450000D03*
%TO.P,D105,3,K*%
%TO.N,/MCU/DISP_LATCH*%
X110337500Y-130400000D03*
%TD*%
D14*
%TO.P,CF102,1,1*%
%TO.N,GND*%
X70900000Y-162900000D03*
%TO.P,CF102,2,2*%
%TO.N,Net-(Q104-B)*%
X75800000Y-162900000D03*
%TD*%
D31*
%TO.P,VR104,1,1*%
%TO.N,/VC*%
X171000000Y-182600000D03*
%TO.P,VR104,2,2*%
%TO.N,/Servo and Actuator Drivers/FE*%
X168500000Y-185100000D03*
%TO.P,VR104,3,3*%
%TO.N,Net-(C111-Pad2)*%
X171000000Y-187600000D03*
%TD*%
D28*
%TO.P,P107,1,Pin_1*%
%TO.N,Net-(P102-Pin_10)*%
X108000000Y-177000000D03*
D27*
%TO.P,P107,2,Pin_2*%
%TO.N,Net-(P107-Pin_2)*%
X108000000Y-178500000D03*
%TD*%
D13*
%TO.P,C101,1*%
%TO.N,+5V*%
X163400000Y-139100000D03*
%TO.P,C101,2*%
%TO.N,Net-(IC101-LD)*%
X159000000Y-139100000D03*
%TD*%
D48*
%TO.N,/VC*%
X152200000Y-167300000D03*
X152900000Y-168100000D03*
X151500000Y-168100000D03*
X154900000Y-149500000D03*
X153500000Y-149500000D03*
X154200000Y-150300000D03*
%TO.N,Net-(CN101-Pin_4)*%
X155000000Y-82100000D03*
%TO.N,GND*%
X66800000Y-182000000D03*
X86200000Y-143600000D03*
X62800000Y-191600000D03*
D49*
X51700000Y-196800000D03*
D48*
X141400000Y-194600000D03*
X110800000Y-155800000D03*
X148500000Y-162200000D03*
D49*
X45800000Y-151300000D03*
X62100000Y-128600000D03*
D48*
X139525000Y-154600000D03*
X88200000Y-151000000D03*
X151900000Y-139200000D03*
X89400000Y-169200000D03*
X139400000Y-187700000D03*
X55600000Y-164800000D03*
X102500000Y-191600000D03*
D49*
X48700000Y-126500000D03*
D48*
X82000000Y-169900000D03*
X84500000Y-150100000D03*
X72500000Y-170500000D03*
X155900000Y-204200000D03*
X139600000Y-100600000D03*
X82100000Y-158500000D03*
X162600000Y-126000000D03*
X112700000Y-120400000D03*
X148300000Y-123600000D03*
D49*
X48700000Y-153200000D03*
X47300000Y-148200000D03*
D48*
X89400000Y-171000000D03*
X171100000Y-102500000D03*
X100500000Y-116300000D03*
X64900000Y-171500000D03*
D49*
X125400000Y-203200000D03*
D48*
X116100000Y-159765000D03*
X153200000Y-121400000D03*
X55600000Y-154200000D03*
X152000000Y-129100000D03*
D49*
X76200000Y-199100000D03*
D48*
X154100000Y-171000000D03*
X148900000Y-116300000D03*
D49*
X47300000Y-180700000D03*
D48*
X167900000Y-203000000D03*
X130700000Y-158400000D03*
D49*
X58500000Y-128625000D03*
D48*
X87800000Y-193600000D03*
X53700000Y-178800000D03*
X50600000Y-141700000D03*
X147800000Y-171600000D03*
X163300000Y-163100000D03*
X158900000Y-101800000D03*
D49*
X99700000Y-201600000D03*
D48*
X158600000Y-196700000D03*
X48900000Y-170000000D03*
X89300000Y-159100000D03*
X60700000Y-178800000D03*
X171400000Y-199400000D03*
X62800000Y-186100000D03*
X117800000Y-123000000D03*
D49*
X48800000Y-185600000D03*
D48*
X69300000Y-128625000D03*
X145700000Y-143100000D03*
X158900000Y-108200000D03*
X87900000Y-188300000D03*
D49*
X147000000Y-205400000D03*
D48*
X168400000Y-156000000D03*
D49*
X60600000Y-203200000D03*
D48*
X68700000Y-186300000D03*
D49*
X80000000Y-196500000D03*
D48*
X89400000Y-173400000D03*
X72800000Y-152300000D03*
D49*
X120600000Y-204900000D03*
D48*
X80000000Y-188400000D03*
X114100000Y-120400000D03*
X115900000Y-154800000D03*
X89400000Y-175200000D03*
X82100000Y-120800000D03*
X167900000Y-201200000D03*
X54095000Y-184305000D03*
X94600000Y-103100000D03*
X167800000Y-109500000D03*
X163600000Y-174000000D03*
X117000000Y-120200000D03*
X148700000Y-139400000D03*
D49*
X47300000Y-121500000D03*
D48*
X149300000Y-172500000D03*
X159100000Y-173100000D03*
X55200000Y-103000000D03*
D49*
X123800000Y-201700000D03*
D48*
X98600000Y-99700000D03*
X136000000Y-95200000D03*
X62800000Y-193400000D03*
X89400000Y-178800000D03*
D49*
X105700000Y-203200000D03*
D48*
X155900000Y-202400000D03*
X167200000Y-170400000D03*
X80500000Y-168000000D03*
X161600000Y-180000000D03*
X88600000Y-157900000D03*
D49*
X103000000Y-204900000D03*
D48*
X175000000Y-204500000D03*
X158900000Y-106600000D03*
X134500000Y-201100000D03*
X92500000Y-129800000D03*
X65400000Y-198800000D03*
X134500000Y-199300000D03*
X116000000Y-109600000D03*
X87300000Y-103100000D03*
X92400000Y-103100000D03*
D49*
X45800000Y-124600000D03*
X45800000Y-101000000D03*
D48*
X159000000Y-123200000D03*
X171300000Y-107400000D03*
D49*
X52100000Y-94300000D03*
D48*
X56300000Y-168700000D03*
X90400000Y-132900000D03*
D49*
X65700000Y-128625000D03*
D48*
X171400000Y-197600000D03*
X69900000Y-133000000D03*
D49*
X47300000Y-99400000D03*
X78000000Y-194700000D03*
D48*
X89400000Y-167400000D03*
D49*
X48400000Y-190900000D03*
D48*
X87800000Y-197450000D03*
X48900000Y-173300000D03*
X80300000Y-131200000D03*
X166600000Y-98800000D03*
X81300000Y-103000000D03*
X69700000Y-201700000D03*
X82100000Y-156700000D03*
X150100000Y-182000000D03*
X79500000Y-149800000D03*
X140500000Y-105800000D03*
D49*
X67500000Y-202800000D03*
X54900000Y-195400000D03*
D48*
X90200000Y-103100000D03*
X71900000Y-151100000D03*
X81400000Y-177000000D03*
D49*
X48700000Y-102800000D03*
D48*
X87700000Y-202700000D03*
X61700000Y-135345000D03*
X148300000Y-129600000D03*
X55800000Y-126100000D03*
X155900000Y-197000000D03*
X56300000Y-166100000D03*
D49*
X56900000Y-205100000D03*
D48*
X164000000Y-201300000D03*
X144100000Y-125662500D03*
X112900000Y-159500000D03*
X58900000Y-169700000D03*
X71100000Y-179200000D03*
X55700000Y-171100000D03*
X134500000Y-193900000D03*
X166462500Y-144600000D03*
X157700000Y-116400000D03*
X102200000Y-99700000D03*
X116100000Y-162305000D03*
D49*
X77400000Y-204000000D03*
D48*
X80000000Y-204600000D03*
D49*
X145700000Y-198800000D03*
D48*
X140500000Y-104200000D03*
X62800000Y-184300000D03*
X55700000Y-172700000D03*
X50962500Y-118500000D03*
X116100000Y-161035000D03*
X111100000Y-109600000D03*
X81400000Y-178800000D03*
%TO.N,Net-(CN102-Pin_6)*%
X164990000Y-132890000D03*
%TO.N,Net-(CN102-Pin_5)*%
X164050000Y-134200000D03*
D49*
%TO.N,/MCU/DIGIT1_EN*%
X116300000Y-132500000D03*
%TO.N,/~{WR}*%
X107000000Y-127500000D03*
%TO.N,/PF5*%
X108500000Y-132200000D03*
D48*
%TO.N,+5VA*%
X62600000Y-163600000D03*
X62800000Y-189800000D03*
X58600000Y-171200000D03*
X64900000Y-175100000D03*
X62800000Y-187900000D03*
X66200000Y-175100000D03*
X55400000Y-167400000D03*
X58600000Y-172700000D03*
D49*
%TO.N,/I2S_WDLK*%
X112300000Y-91600000D03*
X92600000Y-160300000D03*
X62300000Y-167395000D03*
D48*
%TO.N,Net-(IC201-VREFL1)*%
X52000000Y-169935000D03*
%TO.N,Net-(IC201-VREFH1)*%
X57200000Y-174500000D03*
D49*
%TO.N,/~{I2S_SCLK}*%
X78000000Y-148000000D03*
X95200000Y-118800000D03*
%TO.N,/I2S_LRCK*%
X98300000Y-120000000D03*
X79400000Y-148300000D03*
%TO.N,/I2S_DAT*%
X97300000Y-119000000D03*
X78900000Y-146500000D03*
D48*
%TO.N,+5V*%
X118000000Y-111400000D03*
X84900000Y-159100000D03*
X92500000Y-126100000D03*
X86600000Y-149600000D03*
X82600000Y-131200000D03*
X147300000Y-167800000D03*
X120900000Y-112900000D03*
X71200000Y-177700000D03*
X54200000Y-151900000D03*
D49*
X89800000Y-124800000D03*
D48*
X163600000Y-175800000D03*
X148300000Y-182000000D03*
X149600000Y-121400000D03*
X76000000Y-149900000D03*
X115200000Y-146200000D03*
X158900000Y-104200000D03*
X170300000Y-135425000D03*
X80700000Y-154200000D03*
X80500000Y-166200000D03*
X111000000Y-127500000D03*
D49*
X86200000Y-124800000D03*
D48*
X90400000Y-131600000D03*
X166500000Y-163000000D03*
X103000000Y-124500000D03*
X52237500Y-129550000D03*
X147300000Y-116000000D03*
X158200000Y-180000000D03*
X107100000Y-125100000D03*
X114000000Y-144800000D03*
X68400000Y-178300000D03*
X52100000Y-154200000D03*
X151900000Y-182000000D03*
X75500000Y-131300000D03*
X149800000Y-149400000D03*
X96100000Y-125700000D03*
X115300000Y-150000000D03*
X54200000Y-149300000D03*
X77700000Y-120700000D03*
X148900000Y-145600000D03*
X73500000Y-149475000D03*
X77500000Y-160500000D03*
X86500000Y-127400000D03*
X144200000Y-169700000D03*
X162800000Y-140600000D03*
X108500000Y-154900000D03*
X146500000Y-182000000D03*
X151200000Y-96100000D03*
X141025000Y-154600000D03*
X84200000Y-131200000D03*
X153500000Y-157800000D03*
X100500000Y-120000000D03*
X117900000Y-127400000D03*
X85000000Y-157900000D03*
X51100000Y-122450000D03*
X113000000Y-144800000D03*
D49*
X93400000Y-124800000D03*
D48*
X152100000Y-116400000D03*
X69900000Y-131700000D03*
X119500000Y-140500000D03*
X137900000Y-152400000D03*
X86700000Y-153600000D03*
X164400000Y-126000000D03*
X164200000Y-109500000D03*
X81400000Y-175200000D03*
D49*
%TO.N,/AUDIO/LINEOUT_R*%
X51800000Y-93000000D03*
%TO.N,/AUDIO/LINEOUT_L*%
X55400000Y-79900000D03*
%TO.N,/~{MRST}*%
X84050000Y-144050000D03*
X118000000Y-116500000D03*
%TO.N,/MCU/FS_RS*%
X107800000Y-122500000D03*
%TO.N,/MCU/PLAY_PAUSE*%
X106800000Y-123500000D03*
%TO.N,/AUDIO_EN*%
X117000000Y-135400000D03*
X117500000Y-150900000D03*
%TO.N,/MCU/STOP*%
X108000000Y-117000000D03*
%TO.N,Net-(IC102-BW)*%
X160300000Y-170600000D03*
X141500000Y-129400000D03*
%TO.N,Net-(Q103-B)*%
X131900000Y-135900000D03*
X136050000Y-183650000D03*
%TO.N,/MCU/~{INT2}*%
X120800000Y-126500000D03*
X85100000Y-175200000D03*
%TO.N,/MCU/DIGIT2_EN*%
X115500000Y-131500000D03*
%TO.N,Net-(Q203-C)*%
X110700000Y-147200000D03*
X90225000Y-188900000D03*
X90225000Y-203000000D03*
%TO.N,Net-(D203-A)*%
X95000000Y-197600000D03*
X110400000Y-151000000D03*
X163800000Y-204800000D03*
%TO.N,/MUTG*%
X129500000Y-129500000D03*
X121500000Y-129500000D03*
X129500000Y-111400000D03*
X111000000Y-153850000D03*
D48*
%TO.N,+9V*%
X121000000Y-158400000D03*
X96600000Y-185100000D03*
X71100000Y-105500000D03*
X71000000Y-110700000D03*
X65500000Y-105400000D03*
X65500000Y-100800000D03*
X71000000Y-108200000D03*
X65500000Y-109300000D03*
X116200000Y-166400000D03*
X73600000Y-108200000D03*
X99400000Y-184700000D03*
X128900000Y-158300000D03*
X73600000Y-110700000D03*
X71100000Y-100800000D03*
%TO.N,Net-(Q305-B)*%
X96600000Y-188900000D03*
%TO.N,+9VA*%
X101200000Y-188000000D03*
X140525000Y-196300000D03*
X57900000Y-192900000D03*
X142500000Y-190795000D03*
X72500000Y-191000000D03*
X148700000Y-200300000D03*
%TO.N,Net-(Q307-B)*%
X72332500Y-175032500D03*
D49*
%TO.N,/RF AMP/RFO*%
X163000000Y-144425000D03*
D48*
%TO.N,/VC*%
X144700000Y-182000000D03*
X139700000Y-161500000D03*
X146600000Y-162800000D03*
X145700000Y-137600000D03*
X138000000Y-172300000D03*
X158300000Y-135400000D03*
X158300000Y-129080000D03*
D49*
%TO.N,/DSP/ASY*%
X146800000Y-100800000D03*
X160000000Y-119000000D03*
%TO.N,Net-(C111-Pad2)*%
X142600000Y-157600000D03*
%TO.N,Net-(P104-Pin_3)*%
X131900000Y-180600000D03*
%TO.N,Net-(P104-Pin_4)*%
X134000000Y-179900000D03*
%TO.N,Net-(IC102-SL+)*%
X145000000Y-172300000D03*
%TO.N,Net-(C122-Pad2)*%
X140900000Y-175600000D03*
%TO.N,/MLT*%
X152875000Y-179175000D03*
X133500000Y-131400000D03*
X133500000Y-107400000D03*
%TO.N,/XRST*%
X135100000Y-138500000D03*
X135100000Y-109000000D03*
%TO.N,Net-(IC102-XRST)*%
X135100000Y-148000000D03*
X150900000Y-177900000D03*
%TO.N,/PDO*%
X166300000Y-179900000D03*
X137500000Y-105000000D03*
%TO.N,/VCOI*%
X162400000Y-159300000D03*
X145000000Y-103400000D03*
%TO.N,Net-(IC102-FSW)*%
X157500000Y-160800000D03*
X136100000Y-100600000D03*
%TO.N,/MCU/RS_EN*%
X114800000Y-130500000D03*
D48*
%TO.N,/Servo and Actuator Drivers/VSUP{slash}2*%
X129000000Y-153300000D03*
X130600000Y-161900000D03*
X121400000Y-153300000D03*
%TO.N,/MCU/REPEAT*%
X89300000Y-177000000D03*
D49*
X103600000Y-121500000D03*
%TO.N,/~{DEMP}*%
X118100000Y-136500000D03*
X118100000Y-148200000D03*
%TO.N,Net-(IC107-~{WE})*%
X64900000Y-159400000D03*
X86700000Y-137125000D03*
%TO.N,/SCSI/MA9*%
X65900000Y-150800000D03*
X56500000Y-146775000D03*
X79400000Y-135000000D03*
%TO.N,/SCSI/MA10*%
X80200000Y-135800000D03*
X55600000Y-142900000D03*
X64900000Y-153500000D03*
%TO.N,/SCSI/MA11*%
X50500000Y-145505000D03*
X64900000Y-155300000D03*
X81000000Y-136600000D03*
%TO.N,/SCSI/MA12*%
X81800000Y-137400000D03*
X64900000Y-157000000D03*
%TO.N,/SCSI/~{SCSI_IO}*%
X73700000Y-133000000D03*
X83500000Y-127500000D03*
%TO.N,/SCSI/~{SCSI_CD}*%
X90700000Y-122100000D03*
X74800000Y-136700000D03*
%TO.N,/SCSI/~{SCSI_MSG}*%
X88900000Y-122200000D03*
X70300000Y-134500000D03*
%TO.N,/SCSI/~{SCSI_BSY}*%
X73700000Y-134900000D03*
X87100000Y-122200000D03*
%TO.N,/SCSI/SCSI_D7*%
X73000000Y-120600000D03*
X57600000Y-126000000D03*
%TO.N,/SCSI/SCSI_D6*%
X72200000Y-121500000D03*
X59400000Y-126000000D03*
%TO.N,/SCSI/SCSI_D5*%
X61200000Y-126000000D03*
X73000000Y-122400000D03*
%TO.N,/SCSI/SCSI_D4*%
X72200000Y-123300000D03*
X63000000Y-126000000D03*
%TO.N,/SCSI/SCSI_D3*%
X64800000Y-126000000D03*
X73000000Y-124200000D03*
%TO.N,/SCSI/SCSI_D2*%
X66600000Y-126000000D03*
X72200000Y-125100000D03*
%TO.N,/SCSI/SCSI_D1*%
X73000000Y-126000000D03*
X68400000Y-126000000D03*
%TO.N,/SCSI/~{SCSI_ACK}*%
X84300000Y-126000000D03*
X94300000Y-121500000D03*
%TO.N,/SCSI/~{SCSI_REQ}*%
X85400000Y-126500000D03*
X92500000Y-121300000D03*
%TO.N,Net-(IC101-TE)*%
X148300000Y-133200000D03*
%TO.N,Net-(C112-Pad2)*%
X144500000Y-155400000D03*
%TO.N,Net-(IC101-~{LDON})*%
X138500000Y-148500000D03*
X149200000Y-156300000D03*
%TO.N,Net-(IC202B-+)*%
X54100000Y-189300000D03*
X56900000Y-182100000D03*
%TO.N,Net-(C213-Pad1)*%
X77100000Y-183800000D03*
%TO.N,Net-(C214-Pad1)*%
X75800000Y-197000000D03*
%TO.N,Net-(C215-Pad2)*%
X80100000Y-199200000D03*
%TO.N,Net-(C216-Pad2)*%
X80000000Y-193800000D03*
%TO.N,Net-(C226-Pad1)*%
X159000000Y-193400000D03*
%TO.N,Net-(C225-Pad1)*%
X158300000Y-190500000D03*
%TO.N,Net-(JK104C-I2S_SCLK)*%
X90200000Y-96300000D03*
%TO.N,Net-(JK104B-SBCK)*%
X104000000Y-99800000D03*
%TO.N,Net-(JK104B-I2S_DAT)*%
X92400000Y-96300000D03*
%TO.N,Net-(JK104B-I2S_LRCK)*%
X94600000Y-96300000D03*
%TO.N,Net-(JK104B-PW)*%
X100400000Y-99800000D03*
%TO.N,Net-(JK104D-SBSY)*%
X96800000Y-99700000D03*
%TO.N,Net-(JK104B-~{SCSI_SEL})*%
X85500000Y-96300000D03*
%TO.N,Net-(JK104B-SFSY)*%
X87300000Y-96300000D03*
D48*
%TO.N,Net-(IC101-LD)*%
X158600000Y-140510000D03*
D49*
%TO.N,Net-(IC102-SRCH)*%
X143300000Y-167800000D03*
%TO.N,Net-(C220-Pad1)*%
X134500000Y-197500000D03*
X140900000Y-203700000D03*
%TO.N,/FOK*%
X150100000Y-151700000D03*
X142400000Y-120800000D03*
%TO.N,/DSP/EFM*%
X144100000Y-144100000D03*
X145900000Y-99900000D03*
%TO.N,/LOCK*%
X145000000Y-101800000D03*
X159100000Y-158100000D03*
%TO.N,/MDAT*%
X152000000Y-178000000D03*
X134300000Y-108200000D03*
X134300000Y-123500000D03*
%TO.N,/MDP*%
X158700000Y-164600000D03*
X144300000Y-98600000D03*
%TO.N,/MCK*%
X132700000Y-106600000D03*
X132700000Y-125500000D03*
X153100000Y-180400000D03*
%TO.N,/CNIN*%
X135900000Y-109800000D03*
X149850000Y-177150000D03*
%TO.N,/Servo and Actuator Drivers/TE*%
X146900000Y-158200000D03*
%TO.N,/MON*%
X158400000Y-162100000D03*
X141000000Y-97800000D03*
%TO.N,/Servo and Actuator Drivers/FE*%
X144500000Y-158200000D03*
%TO.N,/SENS*%
X148500000Y-176800000D03*
X136700000Y-124500000D03*
X136700000Y-110500000D03*
%TO.N,/MODE_SELECT*%
X128700000Y-137500000D03*
X163100000Y-98800000D03*
%TO.N,/CRCF*%
X131100000Y-112200000D03*
X131100000Y-141500000D03*
%TO.N,/SUBQ*%
X130300000Y-114600000D03*
X130300000Y-128500000D03*
%TO.N,/PA1*%
X108100000Y-135100000D03*
X82925000Y-147900000D03*
%TO.N,/PA0*%
X82000000Y-148900000D03*
X108900000Y-135900000D03*
%TO.N,/PA2*%
X108900000Y-134400000D03*
X83900000Y-147000000D03*
%TO.N,/SCSI/MA8*%
X66600000Y-149400000D03*
X57400000Y-148000000D03*
%TO.N,Net-(P103-Pin_2)*%
X144900000Y-140300000D03*
%TD*%
D50*
%TO.N,Net-(IC107-~{WE})*%
X86700000Y-137125000D02*
X83775000Y-137125000D01*
X66700000Y-159400000D02*
X64900000Y-159400000D01*
X83775000Y-137125000D02*
X70700000Y-150200000D01*
X70700000Y-150200000D02*
X70700000Y-155400000D01*
X70700000Y-155400000D02*
X66700000Y-159400000D01*
%TO.N,/SCSI/MA12*%
X70000000Y-150000000D02*
X70000000Y-154200000D01*
X81800000Y-137400000D02*
X81800000Y-138200000D01*
X81800000Y-138200000D02*
X70000000Y-150000000D01*
X70000000Y-154200000D02*
X67200000Y-157000000D01*
X67200000Y-157000000D02*
X64900000Y-157000000D01*
%TO.N,/SCSI/MA11*%
X81000000Y-136600000D02*
X81000000Y-138100000D01*
X69300000Y-152800000D02*
X66700000Y-155400000D01*
X81000000Y-138100000D02*
X69300000Y-149800000D01*
X65000000Y-155400000D02*
X64900000Y-155300000D01*
X69300000Y-149800000D02*
X69300000Y-152800000D01*
X66700000Y-155400000D02*
X65000000Y-155400000D01*
%TO.N,/SCSI/MA9*%
X79400000Y-135000000D02*
X79400000Y-137900000D01*
X79400000Y-137900000D02*
X67900000Y-149400000D01*
X67900000Y-149400000D02*
X67900000Y-149900000D01*
X67900000Y-149900000D02*
X67000000Y-150800000D01*
X67000000Y-150800000D02*
X65900000Y-150800000D01*
%TO.N,/SCSI/MA10*%
X80200000Y-135800000D02*
X80200000Y-138000000D01*
X80200000Y-138000000D02*
X68600000Y-149600000D01*
X68600000Y-149600000D02*
X68600000Y-151700000D01*
X68600000Y-151700000D02*
X66800000Y-153500000D01*
X66800000Y-153500000D02*
X64900000Y-153500000D01*
%TO.N,/I2S_DAT*%
X78900000Y-146500000D02*
X78900000Y-145500000D01*
X78900000Y-145500000D02*
X84600000Y-139800000D01*
X84600000Y-139800000D02*
X89600000Y-139800000D01*
X89600000Y-139800000D02*
X97300000Y-132100000D01*
X97300000Y-132100000D02*
X97300000Y-119000000D01*
%TO.N,/~{I2S_SCLK}*%
X78000000Y-148000000D02*
X78000000Y-145500000D01*
X78000000Y-145500000D02*
X84400000Y-139100000D01*
X84400000Y-139100000D02*
X89400000Y-139100000D01*
X89400000Y-139100000D02*
X95200000Y-133300000D01*
X95200000Y-133300000D02*
X95200000Y-118800000D01*
%TO.N,/I2S_LRCK*%
X98300000Y-132000000D02*
X98300000Y-120000000D01*
X89800000Y-140500000D02*
X98300000Y-132000000D01*
X79400000Y-148300000D02*
X79700000Y-148000000D01*
X79700000Y-148000000D02*
X79700000Y-145600000D01*
X79700000Y-145600000D02*
X84800000Y-140500000D01*
X84800000Y-140500000D02*
X89800000Y-140500000D01*
%TO.N,/I2S_WDLK*%
X112300000Y-91600000D02*
X108500000Y-95400000D01*
X99200000Y-112200000D02*
X99200000Y-132000000D01*
X108500000Y-95400000D02*
X108500000Y-102900000D01*
X108500000Y-102900000D02*
X99200000Y-112200000D01*
X99200000Y-132000000D02*
X90000000Y-141200000D01*
X90000000Y-141200000D02*
X85000000Y-141200000D01*
X85000000Y-141200000D02*
X80900000Y-145300000D01*
X80900000Y-145300000D02*
X80900000Y-151400000D01*
X85900000Y-156400000D02*
X90300000Y-156400000D01*
X80900000Y-151400000D02*
X85900000Y-156400000D01*
X90300000Y-156400000D02*
X92600000Y-158700000D01*
X92600000Y-158700000D02*
X92600000Y-160300000D01*
%TO.N,/~{MRST}*%
X84050000Y-144050000D02*
X84050000Y-143050000D01*
X84050000Y-143050000D02*
X85200000Y-141900000D01*
X101500000Y-130600000D02*
X101500000Y-121400000D01*
X85200000Y-141900000D02*
X90200000Y-141900000D01*
X90200000Y-141900000D02*
X101500000Y-130600000D01*
X101500000Y-121400000D02*
X107300000Y-115600000D01*
X107300000Y-115600000D02*
X117100000Y-115600000D01*
X117100000Y-115600000D02*
X118000000Y-116500000D01*
%TO.N,/SCSI/~{SCSI_CD}*%
X77700000Y-133900000D02*
X86100000Y-133900000D01*
X86100000Y-133900000D02*
X89000000Y-131000000D01*
X74900000Y-136700000D02*
X77700000Y-133900000D01*
X74800000Y-136700000D02*
X74900000Y-136700000D01*
X89000000Y-131000000D02*
X89000000Y-123800000D01*
X89000000Y-123800000D02*
X90700000Y-122100000D01*
%TO.N,/SCSI/~{SCSI_MSG}*%
X70300000Y-134500000D02*
X71500000Y-135700000D01*
X71500000Y-135700000D02*
X74900000Y-135700000D01*
X74900000Y-135700000D02*
X77400000Y-133200000D01*
X88300000Y-122800000D02*
X88900000Y-122200000D01*
X77400000Y-133200000D02*
X85900000Y-133200000D01*
X85900000Y-133200000D02*
X88300000Y-130800000D01*
X88300000Y-130800000D02*
X88300000Y-122800000D01*
%TO.N,/SCSI/~{SCSI_BSY}*%
X73700000Y-134900000D02*
X74800000Y-134900000D01*
X74800000Y-134900000D02*
X77200000Y-132500000D01*
X77200000Y-132500000D02*
X85700000Y-132500000D01*
X85700000Y-132500000D02*
X87600000Y-130600000D01*
X87600000Y-130600000D02*
X87600000Y-122700000D01*
X87600000Y-122700000D02*
X87100000Y-122200000D01*
%TO.N,/AUDIO/LINEOUT_R*%
X102600000Y-81400000D02*
X102600000Y-82100000D01*
X102600000Y-82100000D02*
X107100000Y-86600000D01*
X80200000Y-97400000D02*
X56800000Y-97400000D01*
X107100000Y-86600000D02*
X107100000Y-98900000D01*
X107100000Y-98900000D02*
X104500000Y-101500000D01*
X56800000Y-97400000D02*
X52400000Y-93000000D01*
X104500000Y-101500000D02*
X84300000Y-101500000D01*
X84300000Y-101500000D02*
X80200000Y-97400000D01*
X52400000Y-93000000D02*
X51800000Y-93000000D01*
%TO.N,/MODE_SELECT*%
X163100000Y-98800000D02*
X163000000Y-98900000D01*
X163000000Y-98900000D02*
X150700000Y-98900000D01*
X150700000Y-98900000D02*
X148100000Y-96300000D01*
X148100000Y-96300000D02*
X138400000Y-96300000D01*
X138400000Y-96300000D02*
X128700000Y-106000000D01*
X128700000Y-106000000D02*
X128700000Y-137500000D01*
%TO.N,/CNIN*%
X138200000Y-177600000D02*
X135900000Y-175300000D01*
X149850000Y-177150000D02*
X149400000Y-177600000D01*
X135900000Y-175300000D02*
X135900000Y-109800000D01*
X149400000Y-177600000D02*
X138200000Y-177600000D01*
%TO.N,Net-(IC102-XRST)*%
X150900000Y-177900000D02*
X150500000Y-178300000D01*
X150500000Y-178300000D02*
X138000000Y-178300000D01*
X138000000Y-178300000D02*
X135100000Y-175400000D01*
X135100000Y-175400000D02*
X135100000Y-148000000D01*
%TO.N,/MDAT*%
X152000000Y-178000000D02*
X151000000Y-179000000D01*
X151000000Y-179000000D02*
X137800000Y-179000000D01*
X137800000Y-179000000D02*
X134300000Y-175500000D01*
X134300000Y-175500000D02*
X134300000Y-108200000D01*
%TO.N,Net-(Q103-B)*%
X136050000Y-183650000D02*
X137100000Y-182600000D01*
X137100000Y-182600000D02*
X137100000Y-181200000D01*
X137100000Y-181200000D02*
X131900000Y-176000000D01*
X131900000Y-176000000D02*
X131900000Y-135900000D01*
%TO.N,Net-(C111-Pad2)*%
X142600000Y-157600000D02*
X142600000Y-159300000D01*
X163600000Y-179000000D02*
X166800000Y-182200000D01*
X142600000Y-159300000D02*
X144400000Y-161100000D01*
X168000000Y-187600000D02*
X171000000Y-187600000D01*
X144400000Y-161100000D02*
X150000000Y-161100000D01*
X150000000Y-161100000D02*
X155000000Y-166100000D01*
X155000000Y-166100000D02*
X155000000Y-173400000D01*
X155000000Y-173400000D02*
X160600000Y-179000000D01*
X166800000Y-186400000D02*
X168000000Y-187600000D01*
X160600000Y-179000000D02*
X163600000Y-179000000D01*
X166800000Y-182200000D02*
X166800000Y-186400000D01*
%TO.N,/PDO*%
X166300000Y-179900000D02*
X164700000Y-178300000D01*
X164700000Y-178300000D02*
X160800000Y-178300000D01*
X144900000Y-160400000D02*
X143500000Y-159000000D01*
X160800000Y-178300000D02*
X155700000Y-173200000D01*
X139500000Y-149800000D02*
X138400000Y-149800000D01*
X155700000Y-173200000D02*
X155700000Y-165900000D01*
X143500000Y-153800000D02*
X139500000Y-149800000D01*
X155700000Y-165900000D02*
X150200000Y-160400000D01*
X150200000Y-160400000D02*
X144900000Y-160400000D01*
X143500000Y-159000000D02*
X143500000Y-153800000D01*
X138400000Y-149800000D02*
X137500000Y-148900000D01*
X137500000Y-148900000D02*
X137500000Y-105000000D01*
%TO.N,/Servo and Actuator Drivers/FE*%
X156400000Y-165700000D02*
X156400000Y-173000000D01*
X156400000Y-173000000D02*
X161000000Y-177600000D01*
X165600000Y-177600000D02*
X168500000Y-180500000D01*
X161000000Y-177600000D02*
X165600000Y-177600000D01*
X168500000Y-180500000D02*
X168500000Y-185100000D01*
%TO.N,/Servo and Actuator Drivers/TE*%
X146900000Y-158200000D02*
X149900000Y-158200000D01*
X149900000Y-158200000D02*
X157100000Y-165400000D01*
X157100000Y-172800000D02*
X161200000Y-176900000D01*
X157100000Y-165400000D02*
X157100000Y-172800000D01*
X161200000Y-176900000D02*
X168500000Y-176900000D01*
%TO.N,Net-(C112-Pad2)*%
X144500000Y-155400000D02*
X145000000Y-155400000D01*
X145000000Y-155400000D02*
X146700000Y-157100000D01*
X157800000Y-165100000D02*
X157800000Y-170100000D01*
X146700000Y-157100000D02*
X149800000Y-157100000D01*
X157800000Y-170100000D02*
X160100000Y-172400000D01*
X171000000Y-176800000D02*
X171000000Y-179400000D01*
X149800000Y-157100000D02*
X157800000Y-165100000D01*
X160100000Y-172400000D02*
X166600000Y-172400000D01*
X166600000Y-172400000D02*
X171000000Y-176800000D01*
%TO.N,Net-(IC101-TE)*%
X148300000Y-133200000D02*
X149800000Y-131700000D01*
X149800000Y-131700000D02*
X149800000Y-127300000D01*
X149800000Y-127300000D02*
X156500000Y-120600000D01*
X156500000Y-120600000D02*
X163200000Y-120600000D01*
X163200000Y-120600000D02*
X164500000Y-119300000D01*
X164500000Y-119300000D02*
X164700000Y-119300000D01*
%TO.N,Net-(P103-Pin_2)*%
X144900000Y-140300000D02*
X144600000Y-140000000D01*
X144600000Y-140000000D02*
X144600000Y-134700000D01*
X144600000Y-134700000D02*
X145100000Y-134200000D01*
X145100000Y-134200000D02*
X148900000Y-134200000D01*
X150500000Y-132600000D02*
X150500000Y-127800000D01*
X148900000Y-134200000D02*
X150500000Y-132600000D01*
X150500000Y-127800000D02*
X157000000Y-121300000D01*
X157000000Y-121300000D02*
X164700000Y-121300000D01*
%TO.N,/FOK*%
X150100000Y-151700000D02*
X147700000Y-151700000D01*
X147700000Y-151700000D02*
X142300000Y-146300000D01*
X142300000Y-146300000D02*
X142300000Y-120900000D01*
X142300000Y-120900000D02*
X142400000Y-120800000D01*
%TO.N,Net-(IC102-BW)*%
X141500000Y-129400000D02*
X141500000Y-146400000D01*
X141500000Y-146400000D02*
X147700000Y-152600000D01*
X147700000Y-152600000D02*
X154800000Y-152600000D01*
X154800000Y-152600000D02*
X160300000Y-158100000D01*
X160300000Y-158100000D02*
X160300000Y-170600000D01*
%TO.N,/VCOI*%
X145000000Y-103400000D02*
X145100000Y-103500000D01*
X145100000Y-103500000D02*
X145100000Y-131700000D01*
X151600000Y-151900000D02*
X155000000Y-151900000D01*
X145100000Y-131700000D02*
X143100000Y-133700000D01*
X150500000Y-150800000D02*
X151600000Y-151900000D01*
X143100000Y-133700000D02*
X143100000Y-146200000D01*
X143100000Y-146200000D02*
X147700000Y-150800000D01*
X147700000Y-150800000D02*
X150500000Y-150800000D01*
X155000000Y-151900000D02*
X162400000Y-159300000D01*
%TO.N,/DSP/EFM*%
X144100000Y-144100000D02*
X143800000Y-143800000D01*
X143800000Y-143800000D02*
X143800000Y-134400000D01*
X143800000Y-134400000D02*
X145900000Y-132300000D01*
X145900000Y-132300000D02*
X145900000Y-99900000D01*
%TO.N,Net-(IC102-SL+)*%
X145000000Y-172300000D02*
X145000000Y-173100000D01*
X145000000Y-173100000D02*
X145400000Y-173500000D01*
%TO.N,Net-(C122-Pad2)*%
X140900000Y-173600000D02*
X141000000Y-173500000D01*
X140900000Y-175600000D02*
X140900000Y-173600000D01*
D51*
%TO.N,/VC*%
X144700000Y-182000000D02*
X144700000Y-182900000D01*
X144700000Y-182900000D02*
X145300000Y-183500000D01*
X173300000Y-188800000D02*
X173300000Y-184900000D01*
X145300000Y-183500000D02*
X164200000Y-183500000D01*
X173300000Y-184900000D02*
X171000000Y-182600000D01*
X164200000Y-183500000D02*
X165800000Y-185100000D01*
X165800000Y-185100000D02*
X165800000Y-187400000D01*
X165800000Y-187400000D02*
X167900000Y-189500000D01*
X167900000Y-189500000D02*
X172600000Y-189500000D01*
X172600000Y-189500000D02*
X173300000Y-188800000D01*
D50*
%TO.N,Net-(P104-Pin_4)*%
X132500000Y-196000000D02*
X130100000Y-198400000D01*
X134000000Y-181600000D02*
X132500000Y-183100000D01*
X134000000Y-179900000D02*
X134000000Y-181600000D01*
X132500000Y-183100000D02*
X132500000Y-196000000D01*
X130100000Y-198400000D02*
X119200000Y-198400000D01*
X119200000Y-198400000D02*
X119000000Y-198200000D01*
%TO.N,/MCK*%
X153100000Y-180400000D02*
X137250000Y-180400000D01*
X137250000Y-180400000D02*
X132700000Y-175850000D01*
X132700000Y-175850000D02*
X132700000Y-125500000D01*
%TO.N,/MLT*%
X152875000Y-179175000D02*
X152350000Y-179700000D01*
X137500000Y-179700000D02*
X133500000Y-175700000D01*
X152350000Y-179700000D02*
X137500000Y-179700000D01*
X133500000Y-175700000D02*
X133500000Y-131400000D01*
D52*
%TO.N,+5V*%
X147300000Y-167800000D02*
X146250000Y-167800000D01*
D50*
%TO.N,Net-(IC102-SRCH)*%
X143300000Y-167800000D02*
X144350000Y-167800000D01*
D52*
%TO.N,+5V*%
X149800000Y-149400000D02*
X149800000Y-148000000D01*
%TO.N,GND*%
X148700000Y-139400000D02*
X148700000Y-140800000D01*
X148700000Y-140800000D02*
X149800000Y-141900000D01*
D50*
%TO.N,/RF AMP/RFO*%
X163000000Y-144425000D02*
X163675000Y-144425000D01*
X163675000Y-144425000D02*
X166800000Y-141300000D01*
X166800000Y-139000000D02*
X162600000Y-134800000D01*
X166800000Y-141300000D02*
X166800000Y-139000000D01*
X162600000Y-134800000D02*
X162600000Y-133000000D01*
X168000000Y-127600000D02*
X168000000Y-118600000D01*
X162600000Y-133000000D02*
X168000000Y-127600000D01*
X168000000Y-118600000D02*
X164700000Y-115300000D01*
D51*
%TO.N,Net-(CN102-Pin_5)*%
X164050000Y-134200000D02*
X168500000Y-138650000D01*
X168500000Y-138650000D02*
X168500000Y-144200000D01*
X168500000Y-144200000D02*
X170300000Y-146000000D01*
X170300000Y-146000000D02*
X174500000Y-146000000D01*
%TO.N,Net-(CN102-Pin_6)*%
X164990000Y-132890000D02*
X169900000Y-137800000D01*
X169900000Y-137800000D02*
X169900000Y-143600000D01*
X171050000Y-144750000D02*
X172000000Y-144750000D01*
X169900000Y-143600000D02*
X171050000Y-144750000D01*
D50*
%TO.N,/DSP/ASY*%
X160000000Y-119000000D02*
X160000000Y-115400000D01*
X160000000Y-115400000D02*
X146800000Y-102200000D01*
X146800000Y-102200000D02*
X146800000Y-100800000D01*
%TO.N,/Servo and Actuator Drivers/TE*%
X168500000Y-176900000D02*
X168500000Y-177000000D01*
%TO.N,/Servo and Actuator Drivers/FE*%
X144500000Y-158200000D02*
X144500000Y-158900000D01*
X144500000Y-158900000D02*
X145300000Y-159700000D01*
X145300000Y-159700000D02*
X150450000Y-159700000D01*
X150450000Y-159700000D02*
X156400000Y-165650000D01*
D51*
%TO.N,+5V*%
X162800000Y-140600000D02*
X162800000Y-139700000D01*
X162800000Y-139700000D02*
X163400000Y-139100000D01*
%TO.N,Net-(IC101-LD)*%
X158600000Y-140510000D02*
X158600000Y-139500000D01*
X158600000Y-139500000D02*
X159000000Y-139100000D01*
D50*
%TO.N,/LOCK*%
X159100000Y-158100000D02*
X154300000Y-153300000D01*
X154300000Y-153300000D02*
X147500000Y-153300000D01*
X143300000Y-101800000D02*
X145000000Y-101800000D01*
X147500000Y-153300000D02*
X140700000Y-146500000D01*
X140700000Y-146500000D02*
X140700000Y-108800000D01*
X140700000Y-108800000D02*
X142600000Y-106900000D01*
X142600000Y-106900000D02*
X142600000Y-102500000D01*
X142600000Y-102500000D02*
X143300000Y-101800000D01*
%TO.N,/MDP*%
X144300000Y-98600000D02*
X143000000Y-98600000D01*
X143000000Y-98600000D02*
X141900000Y-99700000D01*
X141900000Y-106500000D02*
X139900000Y-108500000D01*
X139900000Y-146600000D02*
X147300000Y-154000000D01*
X141900000Y-99700000D02*
X141900000Y-106500000D01*
X153500000Y-154000000D02*
X159400000Y-159900000D01*
X159400000Y-159900000D02*
X159400000Y-163900000D01*
X139900000Y-108500000D02*
X139900000Y-146600000D01*
X147300000Y-154000000D02*
X153500000Y-154000000D01*
X159400000Y-163900000D02*
X158700000Y-164600000D01*
%TO.N,/MON*%
X158400000Y-162100000D02*
X158400000Y-159900000D01*
X139100000Y-146700000D02*
X139100000Y-103300000D01*
X158400000Y-159900000D02*
X153200000Y-154700000D01*
X153200000Y-154700000D02*
X147100000Y-154700000D01*
X139100000Y-103300000D02*
X141000000Y-101400000D01*
X147100000Y-154700000D02*
X139100000Y-146700000D01*
X141000000Y-101400000D02*
X141000000Y-97800000D01*
D51*
%TO.N,Net-(CN101-Pin_4)*%
X124400000Y-163000000D02*
X123600000Y-163800000D01*
X134400000Y-82100000D02*
X124400000Y-92100000D01*
X123600000Y-163800000D02*
X123600000Y-167900000D01*
X124400000Y-92100000D02*
X124400000Y-163000000D01*
X155000000Y-82100000D02*
X134400000Y-82100000D01*
X123600000Y-167900000D02*
X124940000Y-169240000D01*
X124940000Y-169240000D02*
X126600000Y-169240000D01*
%TO.N,Net-(CN101-Pin_1)*%
X133400000Y-80900000D02*
X123300000Y-91000000D01*
X122600000Y-163200000D02*
X122600000Y-169800000D01*
X159700000Y-82250000D02*
X157850000Y-82250000D01*
X156500000Y-80900000D02*
X133400000Y-80900000D01*
X124580000Y-171780000D02*
X126600000Y-171780000D01*
X123300000Y-162500000D02*
X122600000Y-163200000D01*
X122600000Y-169800000D02*
X124580000Y-171780000D01*
X157850000Y-82250000D02*
X156500000Y-80900000D01*
X123300000Y-91000000D02*
X123300000Y-162500000D01*
%TO.N,Net-(CN101-Pin_3)*%
X159700000Y-84750000D02*
X135850000Y-84750000D01*
X130600000Y-190800000D02*
X129300000Y-192100000D01*
X126600000Y-160600000D02*
X130600000Y-164600000D01*
X130600000Y-164600000D02*
X130600000Y-190800000D01*
X135850000Y-84750000D02*
X126600000Y-94000000D01*
X129300000Y-192100000D02*
X126600000Y-192100000D01*
X126600000Y-94000000D02*
X126600000Y-160600000D01*
%TO.N,Net-(CN101-Pin_2)*%
X129600000Y-165100000D02*
X129600000Y-188900000D01*
X125500000Y-93100000D02*
X125500000Y-161000000D01*
X129600000Y-188900000D02*
X128940000Y-189560000D01*
X162200000Y-83500000D02*
X135100000Y-83500000D01*
X135100000Y-83500000D02*
X125500000Y-93100000D01*
X125500000Y-161000000D02*
X129600000Y-165100000D01*
X128940000Y-189560000D02*
X126600000Y-189560000D01*
D52*
%TO.N,GND*%
X48900000Y-169500000D02*
X47900000Y-168500000D01*
D51*
X72500000Y-170500000D02*
X73800000Y-170500000D01*
X102500000Y-191600000D02*
X102500000Y-190200000D01*
D52*
X163300000Y-163100000D02*
X163300000Y-165000000D01*
X48900000Y-173300000D02*
X47900000Y-174300000D01*
D51*
X78500000Y-103000000D02*
X81300000Y-103000000D01*
X58300000Y-103000000D02*
X55200000Y-103000000D01*
D52*
X89300000Y-159100000D02*
X89300000Y-160500000D01*
D51*
X82100000Y-122300000D02*
X82100000Y-120800000D01*
D52*
X48900000Y-170000000D02*
X48900000Y-169500000D01*
X47900000Y-174300000D02*
X47900000Y-174800000D01*
D51*
X116400000Y-123000000D02*
X117800000Y-123000000D01*
D52*
X112900000Y-159500000D02*
X111100000Y-159500000D01*
D51*
X64900000Y-171500000D02*
X63600000Y-171500000D01*
%TO.N,Net-(CN102-Pin_3)*%
X168600000Y-148500000D02*
X174500000Y-148500000D01*
%TO.N,/RF AMP/B+D*%
X174500000Y-141000000D02*
X174500000Y-140300000D01*
X174500000Y-140300000D02*
X172000000Y-137800000D01*
X172000000Y-137800000D02*
X172000000Y-137250000D01*
D50*
%TO.N,/MCU/DIGIT1_EN*%
X103700000Y-151200000D02*
X115400000Y-139500000D01*
X91800000Y-179600000D02*
X93300000Y-181100000D01*
X95000000Y-168000000D02*
X93200000Y-168000000D01*
X115400000Y-133400000D02*
X116300000Y-132500000D01*
X93300000Y-181100000D02*
X97400000Y-181100000D01*
X91800000Y-169400000D02*
X91800000Y-179600000D01*
X97400000Y-181100000D02*
X102200000Y-176300000D01*
X102200000Y-176300000D02*
X103700000Y-174800000D01*
X115400000Y-139500000D02*
X115400000Y-133400000D01*
X93200000Y-168000000D02*
X91800000Y-169400000D01*
X103700000Y-174800000D02*
X103700000Y-151200000D01*
%TO.N,/~{WR}*%
X108462500Y-127587500D02*
X108375000Y-127500000D01*
X107000000Y-127500000D02*
X108375000Y-127500000D01*
X108462500Y-129450000D02*
X108462500Y-127587500D01*
%TO.N,/PF5*%
X108462500Y-132162500D02*
X108462500Y-131350000D01*
X108500000Y-132200000D02*
X108462500Y-132162500D01*
%TO.N,/MCU/DISP_LATCH*%
X96900000Y-172500000D02*
X98000000Y-171400000D01*
X111200000Y-138300000D02*
X111200000Y-131262500D01*
X98000000Y-171400000D02*
X99500000Y-169900000D01*
X95000000Y-172500000D02*
X96900000Y-172500000D01*
X99500000Y-150000000D02*
X111200000Y-138300000D01*
X111200000Y-131262500D02*
X110337500Y-130400000D01*
X99500000Y-169900000D02*
X99500000Y-150000000D01*
D53*
%TO.N,+5VA*%
X61000000Y-175100000D02*
X58600000Y-172700000D01*
X64900000Y-187200000D02*
X64900000Y-175100000D01*
X62600000Y-163600000D02*
X61300000Y-163600000D01*
X55400000Y-167400000D02*
X60300000Y-167400000D01*
X58600000Y-172700000D02*
X58600000Y-171200000D01*
X64200000Y-187900000D02*
X64900000Y-187200000D01*
X64900000Y-175100000D02*
X61000000Y-175100000D01*
X60300000Y-167400000D02*
X60400000Y-167500000D01*
X61300000Y-163600000D02*
X60400000Y-164500000D01*
X60400000Y-167500000D02*
X60400000Y-171200000D01*
D51*
X64900000Y-175100000D02*
X63600000Y-175100000D01*
D53*
X64900000Y-175100000D02*
X66200000Y-175100000D01*
X60400000Y-164500000D02*
X60400000Y-167500000D01*
X60400000Y-171200000D02*
X58600000Y-171200000D01*
X62800000Y-189800000D02*
X62800000Y-187900000D01*
X62800000Y-187900000D02*
X64200000Y-187900000D01*
D50*
%TO.N,/I2S_WDLK*%
X90000000Y-163900000D02*
X78900000Y-163900000D01*
X92600000Y-160300000D02*
X92600000Y-161300000D01*
X92600000Y-161300000D02*
X90000000Y-163900000D01*
X75405000Y-167395000D02*
X62300000Y-167395000D01*
X78900000Y-163900000D02*
X75405000Y-167395000D01*
D52*
%TO.N,Net-(IC201-VREFL1)*%
X52000000Y-168800000D02*
X52300000Y-168500000D01*
X52000000Y-169935000D02*
X52000000Y-168800000D01*
%TO.N,Net-(IC201-VREFH1)*%
X52300000Y-174800000D02*
X55800000Y-174800000D01*
X55800000Y-174800000D02*
X56100000Y-174500000D01*
X56100000Y-174500000D02*
X57200000Y-174500000D01*
D51*
%TO.N,+5V*%
X77700000Y-122300000D02*
X77700000Y-120700000D01*
X116400000Y-127400000D02*
X117900000Y-127400000D01*
X110025000Y-127500000D02*
X111000000Y-127500000D01*
D52*
X84900000Y-159100000D02*
X84900000Y-160500000D01*
D50*
%TO.N,/AUDIO/LINEOUT_R*%
X53300000Y-81000000D02*
X62835000Y-81000000D01*
X51800000Y-93200000D02*
X51800000Y-91900000D01*
X51800000Y-82500000D02*
X53300000Y-81000000D01*
X51800000Y-93000000D02*
X51800000Y-93200000D01*
X65930000Y-84070000D02*
X65930000Y-84095000D01*
X62835000Y-81000000D02*
X65930000Y-84095000D01*
X51800000Y-91900000D02*
X51800000Y-82500000D01*
%TO.N,/AUDIO/LINEOUT_L*%
X68470000Y-84095000D02*
X68470000Y-83830000D01*
X100000000Y-86400000D02*
X102600000Y-86400000D01*
X64275000Y-79900000D02*
X68470000Y-84095000D01*
X70700000Y-81600000D02*
X80600000Y-81600000D01*
X84200000Y-85200000D02*
X87450000Y-85200000D01*
X68470000Y-83830000D02*
X70700000Y-81600000D01*
X97500000Y-88900000D02*
X100000000Y-86400000D01*
X91150000Y-88900000D02*
X97500000Y-88900000D01*
X55400000Y-79900000D02*
X64275000Y-79900000D01*
X87450000Y-85200000D02*
X91150000Y-88900000D01*
X80600000Y-81600000D02*
X84200000Y-85200000D01*
%TO.N,/MCU/FS_RS*%
X108500000Y-122500000D02*
X112600000Y-126600000D01*
X112600000Y-126600000D02*
X112600000Y-138700000D01*
X96900000Y-175500000D02*
X95000000Y-175500000D01*
X99400000Y-173000000D02*
X96900000Y-175500000D01*
X100900000Y-171500000D02*
X99400000Y-173000000D01*
X112600000Y-138700000D02*
X100900000Y-150400000D01*
X100900000Y-150400000D02*
X100900000Y-171500000D01*
X107800000Y-122500000D02*
X108500000Y-122500000D01*
%TO.N,/MCU/PLAY_PAUSE*%
X111900000Y-138500000D02*
X111900000Y-126900000D01*
X98700000Y-172200000D02*
X100200000Y-170700000D01*
X100200000Y-150200000D02*
X111900000Y-138500000D01*
X108500000Y-123500000D02*
X106800000Y-123500000D01*
X96900000Y-174000000D02*
X98700000Y-172200000D01*
X100200000Y-170700000D02*
X100200000Y-150200000D01*
X111900000Y-126900000D02*
X108500000Y-123500000D01*
X95000000Y-174000000D02*
X96900000Y-174000000D01*
%TO.N,/AUDIO_EN*%
X117000000Y-150400000D02*
X117000000Y-135400000D01*
X117500000Y-150900000D02*
X117000000Y-150400000D01*
D51*
%TO.N,/SPL_MOTOR_RED*%
X117660000Y-169240000D02*
X118600000Y-169240000D01*
X116500000Y-170400000D02*
X117660000Y-169240000D01*
X116500000Y-173200000D02*
X116500000Y-170400000D01*
X118600000Y-174320000D02*
X117620000Y-174320000D01*
X117620000Y-174320000D02*
X116500000Y-173200000D01*
D50*
%TO.N,/MCU/STOP*%
X96800000Y-178500000D02*
X95000000Y-178500000D01*
X101600000Y-150600000D02*
X101600000Y-173700000D01*
X113300000Y-138900000D02*
X101600000Y-150600000D01*
X108000000Y-117000000D02*
X108000000Y-121100000D01*
X108000000Y-121100000D02*
X113300000Y-126400000D01*
X113300000Y-126400000D02*
X113300000Y-138900000D01*
X100100000Y-175200000D02*
X96800000Y-178500000D01*
X101600000Y-173700000D02*
X100100000Y-175200000D01*
%TO.N,/MCU/~{INT2}*%
X119600000Y-127700000D02*
X120800000Y-126500000D01*
X116100000Y-139700000D02*
X116100000Y-134700000D01*
X119600000Y-131200000D02*
X119600000Y-127700000D01*
X97700000Y-181800000D02*
X104400000Y-175100000D01*
X104400000Y-175100000D02*
X104400000Y-151400000D01*
X85100000Y-175200000D02*
X85100000Y-176300000D01*
X92400000Y-181800000D02*
X97700000Y-181800000D01*
X90900000Y-180300000D02*
X92400000Y-181800000D01*
X85100000Y-176300000D02*
X89100000Y-180300000D01*
X89100000Y-180300000D02*
X90900000Y-180300000D01*
X104400000Y-151400000D02*
X116100000Y-139700000D01*
X116100000Y-134700000D02*
X119600000Y-131200000D01*
%TO.N,/MCU/DIGIT2_EN*%
X92500000Y-179400000D02*
X93500000Y-180400000D01*
X103000000Y-151000000D02*
X114700000Y-139300000D01*
X92500000Y-170500000D02*
X92500000Y-179400000D01*
X103000000Y-174400000D02*
X103000000Y-151000000D01*
X114700000Y-139300000D02*
X114700000Y-132300000D01*
X93500000Y-169500000D02*
X92500000Y-170500000D01*
X93500000Y-180400000D02*
X97000000Y-180400000D01*
X101500000Y-175900000D02*
X103000000Y-174400000D01*
X97000000Y-180400000D02*
X101500000Y-175900000D01*
X95000000Y-169500000D02*
X93500000Y-169500000D01*
X114700000Y-132300000D02*
X115500000Y-131500000D01*
%TO.N,Net-(Q203-C)*%
X90225000Y-185800000D02*
X93525000Y-182500000D01*
X98000000Y-182500000D02*
X105100000Y-175400000D01*
X105100000Y-175400000D02*
X105100000Y-151600000D01*
X90225000Y-188900000D02*
X90225000Y-185800000D01*
X105100000Y-151600000D02*
X109500000Y-147200000D01*
X90225000Y-203000000D02*
X90225000Y-188900000D01*
X93525000Y-182500000D02*
X98000000Y-182500000D01*
X109500000Y-147200000D02*
X110700000Y-147200000D01*
%TO.N,Net-(D203-A)*%
X163800000Y-204800000D02*
X161100000Y-204800000D01*
X110500000Y-176600000D02*
X109600000Y-175700000D01*
X139800000Y-189100000D02*
X136700000Y-192200000D01*
X105800000Y-152800000D02*
X107600000Y-151000000D01*
X92300000Y-185800000D02*
X94800000Y-183300000D01*
X95000000Y-197600000D02*
X92300000Y-194900000D01*
X105800000Y-175700000D02*
X105800000Y-152800000D01*
X161100000Y-204800000D02*
X145400000Y-189100000D01*
X94800000Y-183300000D02*
X98200000Y-183300000D01*
X98200000Y-183300000D02*
X105800000Y-175700000D01*
X92300000Y-194900000D02*
X92300000Y-185800000D01*
X130500000Y-199800000D02*
X111600000Y-199800000D01*
X111600000Y-199800000D02*
X110500000Y-198700000D01*
X110500000Y-198700000D02*
X110500000Y-176600000D01*
X109600000Y-175700000D02*
X105800000Y-175700000D01*
X145400000Y-189100000D02*
X139800000Y-189100000D01*
X107600000Y-151000000D02*
X110400000Y-151000000D01*
X136700000Y-192200000D02*
X136700000Y-193600000D01*
X136700000Y-193600000D02*
X130500000Y-199800000D01*
%TO.N,/AUDIO/AUDIO_R*%
X143800000Y-198800000D02*
X143800000Y-197900000D01*
%TO.N,/MUTG*%
X129500000Y-129500000D02*
X129500000Y-111400000D01*
X117650000Y-153850000D02*
X118250000Y-153850000D01*
X111000000Y-153850000D02*
X117650000Y-153850000D01*
X121500000Y-150600000D02*
X121500000Y-129500000D01*
X118250000Y-153850000D02*
X121500000Y-150600000D01*
%TO.N,Net-(Q208-C)*%
X168100000Y-193900000D02*
X166500000Y-193900000D01*
X166500000Y-193900000D02*
X165500000Y-194900000D01*
X165500000Y-194900000D02*
X163400000Y-194900000D01*
%TO.N,Net-(Q209-C)*%
X169000000Y-191100000D02*
X171800000Y-193900000D01*
X171800000Y-193900000D02*
X172700000Y-193900000D01*
X163400000Y-188700000D02*
X165100000Y-188700000D01*
X165100000Y-188700000D02*
X167500000Y-191100000D01*
X167500000Y-191100000D02*
X169000000Y-191100000D01*
D52*
%TO.N,+9V*%
X116200000Y-166400000D02*
X114900000Y-165100000D01*
X114900000Y-165100000D02*
X111100000Y-165100000D01*
%TO.N,Net-(Q305-B)*%
X96600000Y-189900000D02*
X96900000Y-190200000D01*
D51*
X96600000Y-188900000D02*
X96600000Y-189900000D01*
D53*
%TO.N,+9VA*%
X74700000Y-201800000D02*
X80800000Y-201800000D01*
X101200000Y-188000000D02*
X101400000Y-187800000D01*
X72500000Y-191000000D02*
X72500000Y-195700000D01*
X140525000Y-196300000D02*
X140525000Y-198225000D01*
X80800000Y-201800000D02*
X83900000Y-204900000D01*
X119600000Y-201300000D02*
X123400000Y-205100000D01*
X72400000Y-195800000D02*
X60800000Y-195800000D01*
X102900000Y-201300000D02*
X105400000Y-201300000D01*
X140525000Y-196300000D02*
X139600000Y-195375000D01*
X139600000Y-192700000D02*
X141505000Y-190795000D01*
X72500000Y-195700000D02*
X72400000Y-195800000D01*
X101400000Y-187800000D02*
X104800000Y-187800000D01*
X142600000Y-200300000D02*
X148700000Y-200300000D01*
X72500000Y-199600000D02*
X72500000Y-195900000D01*
X123400000Y-205100000D02*
X144800000Y-205100000D01*
X104800000Y-187800000D02*
X105400000Y-188400000D01*
X72500000Y-199600000D02*
X74700000Y-201800000D01*
X83900000Y-204900000D02*
X95200000Y-204900000D01*
X144800000Y-205100000D02*
X148700000Y-201200000D01*
X148700000Y-201200000D02*
X148700000Y-200300000D01*
X141505000Y-190795000D02*
X142500000Y-190795000D01*
X60800000Y-195800000D02*
X57900000Y-192900000D01*
X99300000Y-204900000D02*
X102900000Y-201300000D01*
X105400000Y-201300000D02*
X119600000Y-201300000D01*
X140525000Y-198225000D02*
X142600000Y-200300000D01*
X95200000Y-204900000D02*
X99300000Y-204900000D01*
X139600000Y-195375000D02*
X139600000Y-192700000D01*
X101200000Y-188000000D02*
X101200000Y-187800000D01*
X72500000Y-195900000D02*
X72400000Y-195800000D01*
X105400000Y-188400000D02*
X105400000Y-201300000D01*
D51*
%TO.N,Net-(Q307-B)*%
X72332500Y-175032500D02*
X73267500Y-175032500D01*
D52*
%TO.N,/VC*%
X171800000Y-182600000D02*
X172400000Y-182000000D01*
X172400000Y-175800000D02*
X171000000Y-174400000D01*
X172400000Y-182000000D02*
X172400000Y-175800000D01*
X171000000Y-182600000D02*
X171800000Y-182600000D01*
D50*
%TO.N,Net-(P104-Pin_3)*%
X129500000Y-197600000D02*
X121300000Y-197600000D01*
X131900000Y-195200000D02*
X129500000Y-197600000D01*
X120400000Y-196700000D02*
X118500000Y-196700000D01*
X131900000Y-180600000D02*
X131900000Y-195200000D01*
X121300000Y-197600000D02*
X120400000Y-196700000D01*
X118500000Y-196700000D02*
X117000000Y-198200000D01*
%TO.N,/MLT*%
X133500000Y-131400000D02*
X133500000Y-107400000D01*
%TO.N,/XRST*%
X135100000Y-138500000D02*
X135100000Y-109000000D01*
%TO.N,Net-(IC102-3.5V)*%
X168500000Y-168700000D02*
X163400000Y-168700000D01*
X163400000Y-168700000D02*
X163300000Y-168600000D01*
%TO.N,Net-(IC102-FSW)*%
X152900000Y-155400000D02*
X146900000Y-155400000D01*
X146900000Y-155400000D02*
X138300000Y-146800000D01*
X157500000Y-160800000D02*
X157500000Y-160000000D01*
X136500000Y-100600000D02*
X136100000Y-100600000D01*
X138300000Y-146800000D02*
X138300000Y-102400000D01*
X157500000Y-160000000D02*
X152900000Y-155400000D01*
X138300000Y-102400000D02*
X136500000Y-100600000D01*
%TO.N,/MCU/RS_EN*%
X96700000Y-179700000D02*
X100800000Y-175600000D01*
X93200000Y-172000000D02*
X93200000Y-179000000D01*
X94200000Y-171000000D02*
X93200000Y-172000000D01*
X114000000Y-131300000D02*
X114800000Y-130500000D01*
X102300000Y-174100000D02*
X102300000Y-150800000D01*
X114000000Y-139100000D02*
X114000000Y-131300000D01*
X95000000Y-171000000D02*
X94200000Y-171000000D01*
X93900000Y-179700000D02*
X96700000Y-179700000D01*
X100800000Y-175600000D02*
X102300000Y-174100000D01*
X93200000Y-179000000D02*
X93900000Y-179700000D01*
X102300000Y-150800000D02*
X114000000Y-139100000D01*
D51*
%TO.N,/Servo and Actuator Drivers/VSUP{slash}2*%
X122600000Y-179400000D02*
X126600000Y-179400000D01*
X121300000Y-162000000D02*
X119600000Y-160300000D01*
X129000000Y-155500000D02*
X129000000Y-153300000D01*
X119600000Y-155100000D02*
X121400000Y-153300000D01*
X127800000Y-159600000D02*
X127800000Y-156700000D01*
X130100000Y-161900000D02*
X127800000Y-159600000D01*
X121300000Y-179400000D02*
X122600000Y-179400000D01*
X121300000Y-179400000D02*
X121300000Y-162000000D01*
X118600000Y-179400000D02*
X121300000Y-179400000D01*
X130600000Y-161900000D02*
X130100000Y-161900000D01*
X119600000Y-160300000D02*
X119600000Y-155100000D01*
X127800000Y-156700000D02*
X129000000Y-155500000D01*
D50*
%TO.N,/MCU/REPEAT*%
X94000000Y-161300000D02*
X90800000Y-164500000D01*
X104700000Y-121500000D02*
X105700000Y-122500000D01*
X105700000Y-122500000D02*
X105700000Y-132500000D01*
X109500000Y-133300000D02*
X110500000Y-134300000D01*
X90800000Y-176200000D02*
X90000000Y-177000000D01*
X98800000Y-149800000D02*
X98800000Y-159700000D01*
X106500000Y-133300000D02*
X109500000Y-133300000D01*
X110500000Y-138100000D02*
X98800000Y-149800000D01*
X90000000Y-177000000D02*
X89400000Y-177000000D01*
X98800000Y-159700000D02*
X97200000Y-161300000D01*
X97200000Y-161300000D02*
X94000000Y-161300000D01*
X90800000Y-164500000D02*
X90800000Y-176200000D01*
X110500000Y-134300000D02*
X110500000Y-138100000D01*
X105700000Y-132500000D02*
X106500000Y-133300000D01*
X103600000Y-121500000D02*
X104700000Y-121500000D01*
%TO.N,/~{DEMP}*%
X118100000Y-148200000D02*
X118100000Y-136500000D01*
%TO.N,/SCSI/MA9*%
X65900000Y-150800000D02*
X58200000Y-150800000D01*
X58200000Y-150800000D02*
X56500000Y-149100000D01*
X56500000Y-149100000D02*
X56500000Y-146775000D01*
%TO.N,/SCSI/MA10*%
X55600000Y-149600000D02*
X55600000Y-142900000D01*
X64900000Y-153500000D02*
X59500000Y-153500000D01*
X59500000Y-153500000D02*
X55600000Y-149600000D01*
%TO.N,/SCSI/MA11*%
X64800000Y-155400000D02*
X51400000Y-155400000D01*
X51400000Y-155400000D02*
X50500000Y-154500000D01*
X50500000Y-154500000D02*
X50500000Y-145505000D01*
X64900000Y-155300000D02*
X64800000Y-155400000D01*
%TO.N,/SCSI/~{SCSI_IO}*%
X76700000Y-127500000D02*
X73700000Y-130500000D01*
X83500000Y-127500000D02*
X76700000Y-127500000D01*
X73700000Y-130500000D02*
X73700000Y-133000000D01*
%TO.N,/SCSI/SCSI_D7*%
X63000000Y-120600000D02*
X73000000Y-120600000D01*
X57600000Y-126000000D02*
X63000000Y-120600000D01*
%TO.N,/SCSI/SCSI_D6*%
X63900000Y-121500000D02*
X72200000Y-121500000D01*
X59400000Y-126000000D02*
X63900000Y-121500000D01*
%TO.N,/SCSI/SCSI_D5*%
X61200000Y-126000000D02*
X64800000Y-122400000D01*
X64800000Y-122400000D02*
X73000000Y-122400000D01*
%TO.N,/SCSI/SCSI_D4*%
X63000000Y-126000000D02*
X65700000Y-123300000D01*
X65700000Y-123300000D02*
X72200000Y-123300000D01*
%TO.N,/SCSI/SCSI_D3*%
X64800000Y-126000000D02*
X66600000Y-124200000D01*
X66600000Y-124200000D02*
X73000000Y-124200000D01*
%TO.N,/SCSI/SCSI_D2*%
X67500000Y-125100000D02*
X72200000Y-125100000D01*
X66600000Y-126000000D02*
X67500000Y-125100000D01*
%TO.N,/SCSI/SCSI_D1*%
X73000000Y-126000000D02*
X68400000Y-126000000D01*
%TO.N,/SCSI/~{SCSI_ACK}*%
X86100000Y-120500000D02*
X93300000Y-120500000D01*
X93300000Y-120500000D02*
X94300000Y-121500000D01*
X84300000Y-122300000D02*
X86100000Y-120500000D01*
X84300000Y-126000000D02*
X84300000Y-122300000D01*
%TO.N,/SCSI/~{SCSI_REQ}*%
X86500000Y-121300000D02*
X92500000Y-121300000D01*
X85400000Y-126500000D02*
X85400000Y-122400000D01*
X85400000Y-122400000D02*
X86500000Y-121300000D01*
%TO.N,Net-(IC101-~{LDON})*%
X139100000Y-148500000D02*
X138500000Y-148500000D01*
X146900000Y-156300000D02*
X139100000Y-148500000D01*
X149200000Y-156300000D02*
X146900000Y-156300000D01*
%TO.N,Net-(IC202B-+)*%
X54100000Y-189300000D02*
X54100000Y-189000000D01*
X54100000Y-189000000D02*
X56900000Y-186200000D01*
X56900000Y-186200000D02*
X56900000Y-182100000D01*
%TO.N,Net-(C213-Pad1)*%
X77100000Y-192350000D02*
X77050000Y-192400000D01*
X77100000Y-183800000D02*
X77100000Y-192350000D01*
%TO.N,Net-(C214-Pad1)*%
X76950000Y-197000000D02*
X77050000Y-196900000D01*
X75800000Y-197000000D02*
X76950000Y-197000000D01*
%TO.N,Net-(C215-Pad2)*%
X78950000Y-198450000D02*
X78950000Y-196900000D01*
X80100000Y-199200000D02*
X79700000Y-199200000D01*
X79700000Y-199200000D02*
X78950000Y-198450000D01*
%TO.N,Net-(C216-Pad2)*%
X78950000Y-193350000D02*
X78950000Y-192400000D01*
X80000000Y-193800000D02*
X79400000Y-193800000D01*
X79400000Y-193800000D02*
X78950000Y-193350000D01*
%TO.N,Net-(C226-Pad1)*%
X159000000Y-193400000D02*
X159000000Y-194900000D01*
%TO.N,Net-(C225-Pad1)*%
X158300000Y-190500000D02*
X159000000Y-189800000D01*
X159000000Y-189800000D02*
X159000000Y-188700000D01*
%TO.N,Net-(JK104C-I2S_SCLK)*%
X90200000Y-96450000D02*
X89250000Y-97400000D01*
X82200000Y-95400000D02*
X58500000Y-95400000D01*
X55800000Y-89400000D02*
X57040000Y-88160000D01*
X55800000Y-92700000D02*
X55800000Y-89400000D01*
X90200000Y-96300000D02*
X90200000Y-96450000D01*
X57040000Y-88160000D02*
X57040000Y-86000000D01*
X89250000Y-97400000D02*
X84200000Y-97400000D01*
X58500000Y-95400000D02*
X55800000Y-92700000D01*
X84200000Y-97400000D02*
X82200000Y-95400000D01*
%TO.N,Net-(JK104B-SBCK)*%
X96700000Y-95600000D02*
X101600000Y-95600000D01*
X71010000Y-87905000D02*
X71010000Y-90910000D01*
X71010000Y-90910000D02*
X71300000Y-91200000D01*
X101600000Y-95600000D02*
X104000000Y-98000000D01*
X92300000Y-91200000D02*
X96700000Y-95600000D01*
X71300000Y-91200000D02*
X92300000Y-91200000D01*
X104000000Y-98000000D02*
X104000000Y-99800000D01*
%TO.N,Net-(JK104B-I2S_DAT)*%
X67200000Y-92600000D02*
X65930000Y-91330000D01*
X92400000Y-94500000D02*
X90500000Y-92600000D01*
X90500000Y-92600000D02*
X67200000Y-92600000D01*
X92400000Y-96300000D02*
X92400000Y-94500000D01*
X65930000Y-91330000D02*
X65930000Y-87905000D01*
%TO.N,Net-(JK104B-I2S_LRCK)*%
X91300000Y-94600000D02*
X90000000Y-93300000D01*
X91300000Y-96600000D02*
X91300000Y-94600000D01*
X90000000Y-93300000D02*
X64000000Y-93300000D01*
X94600000Y-96300000D02*
X94600000Y-96900000D01*
X94200000Y-97300000D02*
X92000000Y-97300000D01*
X63390000Y-92690000D02*
X63390000Y-87905000D01*
X64000000Y-93300000D02*
X63390000Y-92690000D01*
X92000000Y-97300000D02*
X91300000Y-96600000D01*
X94600000Y-96900000D02*
X94200000Y-97300000D01*
%TO.N,Net-(JK104B-PW)*%
X96500000Y-96300000D02*
X98700000Y-96300000D01*
X68470000Y-87905000D02*
X68470000Y-90970000D01*
X92100000Y-91900000D02*
X96500000Y-96300000D01*
X69400000Y-91900000D02*
X92100000Y-91900000D01*
X100400000Y-98000000D02*
X100400000Y-99800000D01*
X98700000Y-96300000D02*
X100400000Y-98000000D01*
X68470000Y-90970000D02*
X69400000Y-91900000D01*
%TO.N,Net-(JK104D-SBSY)*%
X53000000Y-91800000D02*
X53000000Y-82800000D01*
X58310000Y-82510000D02*
X58310000Y-84095000D01*
X57300000Y-96100000D02*
X53000000Y-91800000D01*
X53000000Y-82800000D02*
X53900000Y-81900000D01*
X84000000Y-98100000D02*
X82000000Y-96100000D01*
X57700000Y-81900000D02*
X58310000Y-82510000D01*
X96800000Y-99700000D02*
X95200000Y-98100000D01*
X82000000Y-96100000D02*
X57300000Y-96100000D01*
X53900000Y-81900000D02*
X57700000Y-81900000D01*
X95200000Y-98100000D02*
X84000000Y-98100000D01*
%TO.N,Net-(JK104B-~{SCSI_SEL})*%
X60900000Y-94700000D02*
X58310000Y-92110000D01*
X82400000Y-94700000D02*
X60900000Y-94700000D01*
X84000000Y-96300000D02*
X82400000Y-94700000D01*
X85500000Y-96300000D02*
X84000000Y-96300000D01*
X58310000Y-92110000D02*
X58310000Y-87905000D01*
%TO.N,Net-(JK104B-SFSY)*%
X87300000Y-96300000D02*
X87300000Y-95400000D01*
X60850000Y-91950000D02*
X60850000Y-87905000D01*
X85900000Y-94000000D02*
X62900000Y-94000000D01*
X87300000Y-95400000D02*
X85900000Y-94000000D01*
X62900000Y-94000000D02*
X60850000Y-91950000D01*
D51*
%TO.N,Net-(P106-Pin_2)*%
X116500000Y-188000000D02*
X116500000Y-191500000D01*
X117100000Y-192100000D02*
X118600000Y-192100000D01*
X117480000Y-187020000D02*
X116500000Y-188000000D01*
X118600000Y-187020000D02*
X117480000Y-187020000D01*
X116500000Y-191500000D02*
X117100000Y-192100000D01*
D50*
%TO.N,Net-(C220-Pad1)*%
X135500000Y-197500000D02*
X134500000Y-197500000D01*
X140100000Y-203700000D02*
X137000000Y-200600000D01*
X137000000Y-199000000D02*
X135500000Y-197500000D01*
X140900000Y-203700000D02*
X140100000Y-203700000D01*
X137000000Y-200600000D02*
X137000000Y-199000000D01*
%TO.N,/MCK*%
X132700000Y-106600000D02*
X132700000Y-125500000D01*
%TO.N,/SENS*%
X148400000Y-176900000D02*
X138600000Y-176900000D01*
X136700000Y-175000000D02*
X136700000Y-124500000D01*
X136700000Y-124500000D02*
X136700000Y-110500000D01*
X138600000Y-176900000D02*
X136700000Y-175000000D01*
X148500000Y-176800000D02*
X148400000Y-176900000D01*
%TO.N,/CRCF*%
X131100000Y-141500000D02*
X131100000Y-112200000D01*
%TO.N,/SUBQ*%
X130300000Y-114600000D02*
X130300000Y-128500000D01*
%TO.N,/PA1*%
X82925000Y-147900000D02*
X86100000Y-147900000D01*
X86100000Y-147900000D02*
X98900000Y-135100000D01*
X98900000Y-135100000D02*
X108100000Y-135100000D01*
%TO.N,/PA0*%
X86000000Y-148900000D02*
X99000000Y-135900000D01*
X99000000Y-135900000D02*
X108900000Y-135900000D01*
X82000000Y-148900000D02*
X86000000Y-148900000D01*
%TO.N,/PA2*%
X86100000Y-147000000D02*
X98700000Y-134400000D01*
X98700000Y-134400000D02*
X108900000Y-134400000D01*
X83900000Y-147000000D02*
X86100000Y-147000000D01*
%TO.N,/SCSI/MA8*%
X66600000Y-149400000D02*
X66300000Y-149700000D01*
X58250000Y-149700000D02*
X57400000Y-148850000D01*
X57400000Y-148850000D02*
X57400000Y-148000000D01*
X66300000Y-149700000D02*
X58250000Y-149700000D01*
%TD*%
%TA.AperFunction,Conductor*%
%TO.N,/VC*%
G36*
X159443039Y-127919685D02*
G01*
X159488794Y-127972489D01*
X159500000Y-128024000D01*
X159500000Y-136116048D01*
X159480315Y-136183087D01*
X159427511Y-136228842D01*
X159422052Y-136231179D01*
X156500000Y-137399999D01*
X156500000Y-150776000D01*
X156480315Y-150843039D01*
X156427511Y-150888794D01*
X156376000Y-150900000D01*
X153024000Y-150900000D01*
X152956961Y-150880315D01*
X152911206Y-150827511D01*
X152900000Y-150776000D01*
X152900000Y-138000000D01*
X147600000Y-138000000D01*
X147599999Y-138000000D01*
X146836319Y-138763681D01*
X146774996Y-138797166D01*
X146748638Y-138800000D01*
X145224000Y-138800000D01*
X145156961Y-138780315D01*
X145111206Y-138727511D01*
X145100000Y-138676000D01*
X145100000Y-136551362D01*
X145119685Y-136484323D01*
X145136319Y-136463681D01*
X145763681Y-135836319D01*
X145825004Y-135802834D01*
X145851362Y-135800000D01*
X148199999Y-135800000D01*
X148200000Y-135800000D01*
X155963588Y-127936879D01*
X156024697Y-127903004D01*
X156051826Y-127900000D01*
X159376000Y-127900000D01*
X159443039Y-127919685D01*
G37*
%TD.AperFunction*%
%TD*%
%TA.AperFunction,Conductor*%
%TO.N,+9V*%
G36*
X73943039Y-99019685D02*
G01*
X73988794Y-99072489D01*
X74000000Y-99124000D01*
X74000000Y-106000000D01*
X78939797Y-108963878D01*
X78987156Y-109015249D01*
X79000000Y-109070207D01*
X79000000Y-113076000D01*
X78980315Y-113143039D01*
X78927511Y-113188794D01*
X78876000Y-113200000D01*
X64948234Y-113200000D01*
X64881195Y-113180315D01*
X64864444Y-113167407D01*
X62540210Y-111036859D01*
X62504093Y-110977048D01*
X62500000Y-110945452D01*
X62500000Y-99124000D01*
X62519685Y-99056961D01*
X62572489Y-99011206D01*
X62624000Y-99000000D01*
X73876000Y-99000000D01*
X73943039Y-99019685D01*
G37*
%TD.AperFunction*%
%TD*%
%TA.AperFunction,Conductor*%
%TO.N,+5V*%
G36*
X77806808Y-116097411D02*
G01*
X77873274Y-116118949D01*
X77917545Y-116173003D01*
X77923396Y-116190244D01*
X79296032Y-121484694D01*
X79300000Y-121515813D01*
X79300000Y-123076000D01*
X79280315Y-123143039D01*
X79227511Y-123188794D01*
X79176000Y-123200000D01*
X76187732Y-123200000D01*
X76120693Y-123180315D01*
X76074938Y-123127511D01*
X76070801Y-123117270D01*
X74307069Y-118120028D01*
X74300000Y-118078758D01*
X74300000Y-116127492D01*
X74319685Y-116060453D01*
X74372489Y-116014698D01*
X74427442Y-116003540D01*
X77806808Y-116097411D01*
G37*
%TD.AperFunction*%
%TD*%
%TA.AperFunction,Conductor*%
%TO.N,/VC*%
G36*
X141824121Y-160010764D02*
G01*
X143465132Y-160743116D01*
X143502277Y-160768670D01*
X144079519Y-161345912D01*
X144079520Y-161345913D01*
X144154087Y-161420480D01*
X144245413Y-161473207D01*
X144347273Y-161500500D01*
X145135818Y-161500500D01*
X145186353Y-161511265D01*
X153578564Y-165256549D01*
X153615710Y-165282103D01*
X153863681Y-165530074D01*
X153897166Y-165591397D01*
X153900000Y-165617755D01*
X153900000Y-169248638D01*
X153880315Y-169315677D01*
X153863681Y-169336319D01*
X153200000Y-169999999D01*
X153200000Y-172900000D01*
X156663681Y-176363681D01*
X156697166Y-176425004D01*
X156700000Y-176451362D01*
X156700000Y-183576000D01*
X156680315Y-183643039D01*
X156627511Y-183688794D01*
X156576000Y-183700000D01*
X154224000Y-183700000D01*
X154156961Y-183680315D01*
X154111206Y-183627511D01*
X154100000Y-183576000D01*
X154100000Y-178400000D01*
X150336319Y-174636319D01*
X150302834Y-174574996D01*
X150300000Y-174548638D01*
X150300000Y-169299999D01*
X148500000Y-166600000D01*
X148500001Y-166600000D01*
X140300000Y-166500000D01*
X139466223Y-172429072D01*
X139437394Y-172492717D01*
X139418358Y-172510606D01*
X139357080Y-172557075D01*
X139357074Y-172557082D01*
X139265638Y-172677658D01*
X139265637Y-172677660D01*
X139208918Y-172821490D01*
X139166013Y-172876634D01*
X139100105Y-172899827D01*
X139093564Y-172900000D01*
X137524000Y-172900000D01*
X137456961Y-172880315D01*
X137411206Y-172827511D01*
X137400000Y-172776000D01*
X137400000Y-160124000D01*
X137419685Y-160056961D01*
X137472489Y-160011206D01*
X137524000Y-160000000D01*
X141773587Y-160000000D01*
X141824121Y-160010764D01*
G37*
%TD.AperFunction*%
%TD*%
M02*
