M48
; DRILL file {KiCad 8.0.9-8.0.9-0~ubuntu24.04.1} date 2025-02-24T19:11:25+0100
; FORMAT={-:-/ absolute / metric / decimal}
; #@! TF.CreationDate,2025-02-24T19:11:25+01:00
; #@! TF.GenerationSoftware,Kicad,Pcbnew,8.0.9-8.0.9-0~ubuntu24.04.1
; #@! TF.FileFunction,Plated,1,4,PTH
FMAT,2
METRIC
; #@! TA.AperFunction,Plated,PTH,ViaDrill
T1C0.300
; #@! TA.AperFunction,Plated,PTH,ViaDrill
T2C0.400
; #@! TA.AperFunction,Plated,PTH,ComponentDrill
T3C0.500
; #@! TA.AperFunction,Plated,PTH,ComponentDrill
T4C0.730
; #@! TA.AperFunction,Plated,PTH,ComponentDrill
T5C0.800
; #@! TA.AperFunction,Plated,PTH,ComponentDrill
T6C0.850
; #@! TA.AperFunction,Plated,PTH,ComponentDrill
T7C0.900
; #@! TA.AperFunction,Plated,PTH,ComponentDrill
T8C1.000
; #@! TA.AperFunction,Plated,PTH,ComponentDrill
T9C1.100
; #@! TA.AperFunction,Plated,PTH,ComponentDrill
T10C1.300
; #@! TA.AperFunction,Plated,PTH,ComponentDrill
T11C2.200
%
G90
G05
T1
X45.8Y-101.0
X45.8Y-124.6
X45.8Y-151.3
X47.3Y-99.4
X47.3Y-121.5
X47.3Y-148.2
X47.3Y-180.7
X48.4Y-190.9
X48.7Y-102.8
X48.7Y-126.5
X48.7Y-153.2
X48.8Y-185.6
X50.5Y-145.505
X51.7Y-196.8
X51.8Y-93.0
X52.1Y-94.3
X54.1Y-189.3
X54.9Y-195.4
X55.4Y-79.9
X55.6Y-142.9
X56.5Y-146.775
X56.9Y-182.1
X56.9Y-205.1
X57.4Y-148.0
X57.6Y-126.0
X58.5Y-128.625
X59.4Y-126.0
X60.6Y-203.2
X61.2Y-126.0
X62.1Y-128.6
X62.3Y-167.395
X63.0Y-126.0
X63.4Y-151.8
X63.4Y-153.6
X63.4Y-155.4
X63.4Y-157.2
X63.5Y-159.4
X63.6Y-150.1
X64.8Y-126.0
X65.7Y-128.625
X66.6Y-126.0
X67.5Y-202.8
X68.4Y-126.0
X68.9Y-136.5
X69.1Y-135.0
X72.2Y-121.5
X72.2Y-123.3
X72.2Y-125.1
X73.0Y-120.6
X73.0Y-122.4
X73.0Y-124.2
X73.0Y-126.0
X73.6Y-136.2
X75.4Y-136.2
X75.8Y-197.0
X76.05Y-156.45
X76.2Y-199.1
X77.1Y-183.8
X77.4Y-204.0
X77.5Y-142.3
X77.6Y-138.3
X77.6Y-140.3
X77.6Y-148.4
X78.0Y-194.7
X78.3Y-139.3
X78.3Y-141.3
X78.7Y-147.7
X80.0Y-193.8
X80.0Y-196.5
X80.1Y-199.2
X81.2Y-149.9
X82.2Y-149.0
X82.5Y-129.4
X83.3Y-148.1
X84.0Y-126.3
X84.4Y-147.3
X85.0Y-127.4
X85.1Y-175.2
X85.5Y-96.3
X86.2Y-124.8
X87.1Y-122.2
X87.3Y-96.3
X88.9Y-122.2
X89.8Y-124.8
X90.2Y-96.3
X90.225Y-188.9
X90.225Y-203.0
X90.7Y-122.1
X92.4Y-96.3
X92.5Y-121.3
X92.6Y-160.3
X93.4Y-124.8
X94.3Y-121.5
X94.6Y-96.3
X95.0Y-197.6
X95.2Y-118.8
X96.8Y-99.7
X97.3Y-119.0
X98.3Y-120.0
X99.7Y-201.6
X100.4Y-99.8
X103.0Y-204.9
X103.6Y-121.5
X104.0Y-99.8
X105.7Y-203.2
X106.8Y-123.5
X107.0Y-127.5
X107.8Y-122.5
X108.0Y-117.0
X108.1Y-135.1
X108.5Y-94.5
X108.5Y-132.2
X108.9Y-134.4
X108.9Y-135.9
X110.4Y-151.0
X110.7Y-147.2
X111.0Y-153.85
X114.8Y-130.5
X115.5Y-131.5
X116.3Y-132.5
X117.0Y-135.4
X117.5Y-150.9
X118.0Y-116.5
X118.1Y-136.5
X118.1Y-148.2
X120.6Y-204.9
X120.8Y-126.5
X121.5Y-129.5
X123.8Y-201.7
X125.4Y-203.2
X128.7Y-137.5
X129.5Y-111.4
X129.5Y-129.5
X130.3Y-114.6
X130.3Y-128.5
X131.1Y-112.2
X131.1Y-141.5
X131.9Y-135.9
X131.9Y-180.6
X132.7Y-106.6
X132.7Y-125.5
X133.5Y-107.4
X133.5Y-131.4
X134.0Y-180.3
X134.3Y-108.2
X134.3Y-123.5
X134.5Y-197.5
X135.1Y-109.0
X135.1Y-138.5
X135.1Y-148.0
X135.9Y-109.8
X136.1Y-100.6
X136.7Y-110.5
X136.7Y-124.5
X137.5Y-105.0
X137.8Y-172.8
X138.5Y-148.5
X138.7Y-183.7
X140.9Y-203.7
X141.0Y-97.8
X141.5Y-126.8
X142.6Y-158.7
X143.2Y-120.8
X143.3Y-167.8
X143.3Y-174.6
X144.3Y-98.6
X144.5Y-155.4
X144.5Y-158.2
X145.0Y-101.8
X145.0Y-103.4
X145.7Y-198.8
X146.0Y-101.2
X146.8Y-100.3
X146.9Y-158.2
X147.0Y-205.4
X147.9Y-144.8
X148.4Y-132.0
X148.48Y-140.88
X148.5Y-176.8
X149.2Y-156.3
X149.6Y-146.3
X150.1Y-151.4
X150.1Y-177.2
X151.7Y-177.7
X152.598Y-87.918
X153.0Y-177.5
X154.5Y-178.9
X156.15Y-161.65
X156.15Y-179.7
X156.176Y-87.918
X157.7Y-161.4
X157.8Y-174.15
X158.3Y-190.5
X158.6Y-158.9
X158.7Y-164.6
X159.0Y-193.4
X160.8Y-143.425
X162.4Y-159.3
X163.1Y-178.3
X163.8Y-204.8
T2
X48.9Y-170.0
X48.9Y-173.3
X50.962Y-118.5
X51.1Y-122.45
X52.0Y-153.7
X52.0Y-169.935
X52.237Y-129.55
X53.7Y-178.8
X53.8Y-141.7
X53.8Y-149.3
X53.8Y-151.9
X54.095Y-184.305
X55.2Y-103.0
X55.4Y-167.4
X55.5Y-153.7
X55.6Y-164.8
X55.7Y-171.1
X55.7Y-172.7
X55.8Y-126.1
X56.3Y-166.1
X56.3Y-168.7
X57.2Y-174.5
X57.9Y-192.9
X58.6Y-171.2
X58.6Y-172.7
X58.9Y-169.7
X59.8Y-135.4
X60.7Y-178.8
X62.6Y-163.6
X62.8Y-184.3
X62.8Y-186.1
X62.8Y-187.9
X62.8Y-189.8
X62.8Y-191.6
X62.8Y-193.4
X64.9Y-171.5
X64.9Y-175.1
X65.4Y-198.8
X65.5Y-100.8
X65.5Y-105.4
X65.5Y-109.3
X66.2Y-175.1
X66.8Y-182.0
X68.4Y-178.3
X68.7Y-186.3
X69.1Y-133.6
X69.3Y-128.625
X69.7Y-201.7
X70.8Y-153.1
X71.0Y-108.2
X71.0Y-110.7
X71.1Y-100.8
X71.1Y-105.5
X71.1Y-179.2
X71.2Y-177.7
X71.9Y-153.6
X72.332Y-175.032
X72.5Y-134.2
X72.5Y-170.5
X72.5Y-191.0
X72.6Y-151.2
X73.6Y-108.2
X73.6Y-110.7
X74.4Y-129.5
X74.8Y-151.6
X76.6Y-121.2
X77.6Y-158.8
X77.6Y-160.6
X78.4Y-162.6
X78.6Y-150.6
X79.2Y-133.0
X79.3Y-151.9
X80.0Y-188.4
X80.0Y-204.6
X80.6Y-168.4
X80.6Y-170.2
X81.0Y-121.3
X81.1Y-133.1
X81.3Y-103.0
X81.4Y-175.2
X81.4Y-177.0
X81.4Y-178.8
X82.0Y-169.9
X82.8Y-133.2
X83.5Y-151.6
X84.3Y-161.2
X84.5Y-157.9
X85.4Y-145.3
X85.5Y-129.8
X85.5Y-155.3
X87.1Y-152.8
X87.3Y-103.1
X87.7Y-202.7
X87.8Y-193.6
X87.8Y-197.45
X87.9Y-188.3
X88.1Y-157.9
X88.7Y-151.6
X88.7Y-161.3
X88.8Y-133.3
X88.8Y-134.6
X89.3Y-177.0
X89.4Y-167.4
X89.4Y-169.2
X89.4Y-171.0
X89.4Y-173.4
X89.4Y-175.2
X89.4Y-178.8
X90.2Y-103.1
X92.4Y-103.1
X92.5Y-126.1
X92.5Y-129.8
X94.6Y-103.1
X96.1Y-125.7
X96.6Y-185.1
X96.6Y-188.9
X98.6Y-99.7
X99.4Y-184.7
X100.5Y-116.3
X100.5Y-120.0
X101.2Y-188.0
X102.2Y-99.7
X102.5Y-191.6
X103.0Y-124.5
X107.1Y-125.1
X108.5Y-154.9
X110.8Y-155.8
X111.0Y-127.5
X111.1Y-109.6
X112.7Y-120.4
X112.9Y-159.5
X113.0Y-144.8
X114.0Y-144.8
X114.1Y-120.4
X115.2Y-146.2
X115.3Y-150.0
X115.9Y-154.8
X116.0Y-109.6
X116.1Y-159.765
X116.1Y-161.035
X116.1Y-162.305
X116.2Y-166.4
X117.0Y-120.2
X117.8Y-123.0
X117.9Y-127.4
X118.0Y-111.4
X119.5Y-140.5
X120.9Y-112.9
X121.0Y-158.4
X121.4Y-153.3
X128.9Y-158.3
X129.0Y-153.3
X130.6Y-161.9
X130.7Y-158.4
X134.5Y-193.9
X134.5Y-199.3
X134.5Y-201.1
X136.0Y-95.2
X137.9Y-152.4
X139.4Y-187.7
X139.5Y-161.5
X139.525Y-154.6
X139.6Y-100.6
X140.5Y-104.2
X140.5Y-105.8
X140.525Y-196.3
X141.025Y-154.6
X141.4Y-194.6
X141.9Y-175.75
X142.0Y-123.6
X142.5Y-190.795
X144.2Y-135.8
X144.3Y-137.6
X144.3Y-139.4
X144.8Y-169.8
X145.5Y-167.7
X146.3Y-181.7
X146.6Y-162.8
X146.9Y-172.4
X147.8Y-126.9
X147.8Y-143.0
X147.9Y-128.7
X148.1Y-181.7
X148.5Y-162.2
X148.7Y-200.3
X148.8Y-114.8
X148.8Y-166.5
X148.9Y-116.3
X149.1Y-148.6
X149.3Y-172.5
X149.9Y-120.9
X149.9Y-181.7
X151.2Y-96.1
X151.4Y-138.3
X151.4Y-144.7
X151.5Y-128.2
X151.7Y-181.7
X152.1Y-116.4
X153.5Y-120.9
X153.5Y-181.7
X153.7Y-158.2
X154.1Y-171.0
X154.654Y-127.154
X154.7Y-135.6
X154.7Y-144.1
X155.0Y-82.1
X155.9Y-197.0
X155.9Y-202.4
X155.9Y-204.2
X156.176Y-91.518
X157.7Y-116.4
X157.8Y-134.5
X158.0Y-128.2
X158.0Y-150.9
X158.2Y-180.0
X158.6Y-196.7
X158.7Y-104.4
X158.9Y-101.8
X158.9Y-106.6
X158.9Y-108.2
X161.0Y-174.8
X161.6Y-180.0
X162.6Y-134.1
X162.8Y-124.9
X162.8Y-171.1
X163.0Y-162.1
X164.0Y-133.2
X164.0Y-201.3
X164.2Y-109.5
X164.6Y-124.9
X165.062Y-148.5
X166.5Y-163.0
X167.2Y-170.4
X167.3Y-143.5
X167.6Y-172.2
X167.8Y-109.5
X167.9Y-201.2
X167.9Y-203.0
X168.2Y-127.7
X168.4Y-156.0
X171.1Y-102.5
X171.3Y-107.4
X171.4Y-197.6
X171.4Y-199.4
X175.0Y-204.5
T3
X159.7Y-82.25
X159.7Y-84.75
X162.2Y-83.5
X162.2Y-86.0
X172.0Y-137.25
X172.0Y-139.75
X172.0Y-142.25
X172.0Y-144.75
X172.0Y-147.25
X172.0Y-149.75
X174.5Y-138.5
X174.5Y-141.0
X174.5Y-143.5
X174.5Y-146.0
X174.5Y-148.5
X174.5Y-151.0
T4
X95.0Y-163.5
X95.0Y-165.0
X95.0Y-166.5
X95.0Y-168.0
X95.0Y-169.5
X95.0Y-171.0
X95.0Y-172.5
X95.0Y-174.0
X95.0Y-175.5
X95.0Y-177.0
X95.0Y-178.5
X96.1Y-144.5
X96.1Y-146.0
X96.1Y-147.5
X96.1Y-149.0
X96.1Y-150.5
X96.1Y-152.0
X96.1Y-153.5
X96.1Y-155.0
X96.1Y-156.5
X96.1Y-158.0
X108.0Y-177.0
X108.0Y-178.5
X108.0Y-184.0
X108.0Y-185.5
X108.0Y-191.0
X108.0Y-192.5
T5
X54.5Y-86.0
X54.5Y-89.81
X55.77Y-84.095
X55.77Y-87.905
X57.04Y-86.0
X57.04Y-89.81
X58.31Y-84.095
X58.31Y-87.905
X59.58Y-86.0
X59.58Y-89.81
X60.85Y-84.095
X60.85Y-87.905
X62.12Y-86.0
X62.12Y-89.81
X63.39Y-84.095
X63.39Y-87.905
X64.66Y-86.0
X64.66Y-89.81
X65.93Y-84.095
X65.93Y-87.905
X67.2Y-86.0
X67.2Y-89.81
X68.47Y-84.095
X68.47Y-87.905
X69.74Y-86.0
X69.74Y-89.81
X71.01Y-84.095
X71.01Y-87.905
X71.1Y-164.5
X72.28Y-86.0
X72.28Y-89.81
X76.0Y-164.5
X111.1Y-114.0
X113.0Y-198.2
X115.0Y-198.2
X116.0Y-114.0
X117.0Y-198.2
X119.0Y-198.2
X159.0Y-152.9
X164.7Y-113.3
X164.7Y-115.3
X164.7Y-117.3
X164.7Y-119.3
X164.7Y-121.3
X164.7Y-123.3
X166.8Y-102.5
X166.8Y-107.4
X169.16Y-152.9
T6
X159.0Y-148.5
X169.0Y-148.5
T7
X98.7Y-80.94
X98.7Y-91.1
X168.5Y-160.5
X168.5Y-168.7
X168.5Y-176.9
X168.5Y-185.1
X171.0Y-129.3
X171.0Y-158.0
X171.0Y-163.0
X171.0Y-166.2
X171.0Y-171.2
X171.0Y-174.4
X171.0Y-179.4
X171.0Y-182.6
X171.0Y-187.6
X173.5Y-126.8
X173.5Y-131.8
T8
X102.6Y-79.4
X102.6Y-81.8
X102.6Y-86.4
X168.1Y-193.9
X172.7Y-193.9
X175.1Y-193.9
T9
X76.0Y-112.0
X76.0Y-114.54
X76.0Y-117.08
X118.6Y-166.7
X118.6Y-169.24
X118.6Y-171.78
X118.6Y-174.32
X118.6Y-176.86
X118.6Y-179.4
X118.6Y-181.94
X118.6Y-184.48
X118.6Y-187.02
X118.6Y-189.56
X118.6Y-192.1
X118.6Y-194.64
X126.6Y-166.7
X126.6Y-169.24
X126.6Y-171.78
X126.6Y-174.32
X126.6Y-176.86
X126.6Y-179.4
X126.6Y-181.94
X126.6Y-184.48
X126.6Y-187.02
X126.6Y-189.56
X126.6Y-192.1
X126.6Y-194.64
T10
X143.2Y-202.7
X143.8Y-197.9
X147.0Y-196.5
X150.2Y-197.9
X150.8Y-202.7
T11
X49.44Y-84.095
X77.34Y-84.095
T5
G00X85.6Y-88.4
M15
G01X86.8Y-88.4
M16
G05
G00X92.0Y-84.0
M15
G01X92.0Y-82.8
M16
G05
G00X95.0Y-86.2
M15
G01X95.0Y-85.0
M16
G05
M30
