%TF.GenerationSoftware,KiCad,Pcbnew,8.0.9-8.0.9-0~ubuntu24.04.1*%
%TF.CreationDate,2025-02-26T15:16:51+01:00*%
%TF.ProjectId,Main_PCB,4d61696e-5f50-4434-922e-6b696361645f,0.1*%
%TF.SameCoordinates,Original*%
%TF.FileFunction,Paste,Top*%
%TF.FilePolarity,Positive*%
%FSLAX46Y46*%
G04 Gerber Fmt 4.6, Leading zero omitted, Abs format (unit mm)*
G04 Created by KiCad (PCBNEW 8.0.9-8.0.9-0~ubuntu24.04.1) date 2025-02-26 15:16:51*
%MOMM*%
%LPD*%
G01*
G04 APERTURE LIST*
G04 Aperture macros list*
%AMRoundRect*
0 Rectangle with rounded corners*
0 $1 Rounding radius*
0 $2 $3 $4 $5 $6 $7 $8 $9 X,Y pos of 4 corners*
0 Add a 4 corners polygon primitive as box body*
4,1,4,$2,$3,$4,$5,$6,$7,$8,$9,$2,$3,0*
0 Add four circle primitives for the rounded corners*
1,1,$1+$1,$2,$3*
1,1,$1+$1,$4,$5*
1,1,$1+$1,$6,$7*
1,1,$1+$1,$8,$9*
0 Add four rect primitives between the rounded corners*
20,1,$1+$1,$2,$3,$4,$5,0*
20,1,$1+$1,$4,$5,$6,$7,0*
20,1,$1+$1,$6,$7,$8,$9,0*
20,1,$1+$1,$8,$9,$2,$3,0*%
%AMFreePoly0*
4,1,9,3.862500,-0.866500,0.737500,-0.866500,0.737500,-0.450000,-0.737500,-0.450000,-0.737500,0.450000,0.737500,0.450000,0.737500,0.866500,3.862500,0.866500,3.862500,-0.866500,3.862500,-0.866500,$1*%
G04 Aperture macros list end*
%ADD10RoundRect,0.225000X-0.250000X0.225000X-0.250000X-0.225000X0.250000X-0.225000X0.250000X0.225000X0*%
%ADD11RoundRect,0.200000X0.275000X-0.200000X0.275000X0.200000X-0.275000X0.200000X-0.275000X-0.200000X0*%
%ADD12RoundRect,0.225000X0.250000X-0.225000X0.250000X0.225000X-0.250000X0.225000X-0.250000X-0.225000X0*%
%ADD13RoundRect,0.200000X-0.200000X-0.275000X0.200000X-0.275000X0.200000X0.275000X-0.200000X0.275000X0*%
%ADD14RoundRect,0.200000X0.200000X0.275000X-0.200000X0.275000X-0.200000X-0.275000X0.200000X-0.275000X0*%
%ADD15RoundRect,0.225000X0.225000X0.250000X-0.225000X0.250000X-0.225000X-0.250000X0.225000X-0.250000X0*%
%ADD16RoundRect,0.150000X0.587500X0.150000X-0.587500X0.150000X-0.587500X-0.150000X0.587500X-0.150000X0*%
%ADD17RoundRect,0.200000X-0.275000X0.200000X-0.275000X-0.200000X0.275000X-0.200000X0.275000X0.200000X0*%
%ADD18RoundRect,0.150000X-0.587500X-0.150000X0.587500X-0.150000X0.587500X0.150000X-0.587500X0.150000X0*%
%ADD19RoundRect,0.150000X-0.825000X-0.150000X0.825000X-0.150000X0.825000X0.150000X-0.825000X0.150000X0*%
%ADD20RoundRect,0.250000X-0.250000X-0.475000X0.250000X-0.475000X0.250000X0.475000X-0.250000X0.475000X0*%
%ADD21RoundRect,0.225000X-0.225000X-0.250000X0.225000X-0.250000X0.225000X0.250000X-0.225000X0.250000X0*%
%ADD22RoundRect,0.137500X0.862500X0.137500X-0.862500X0.137500X-0.862500X-0.137500X0.862500X-0.137500X0*%
%ADD23RoundRect,0.137500X0.137500X0.862500X-0.137500X0.862500X-0.137500X-0.862500X0.137500X-0.862500X0*%
%ADD24RoundRect,0.137500X0.862500X-0.137500X0.862500X0.137500X-0.862500X0.137500X-0.862500X-0.137500X0*%
%ADD25RoundRect,0.250000X0.475000X-0.250000X0.475000X0.250000X-0.475000X0.250000X-0.475000X-0.250000X0*%
%ADD26RoundRect,0.100000X0.775000X0.100000X-0.775000X0.100000X-0.775000X-0.100000X0.775000X-0.100000X0*%
%ADD27RoundRect,0.100000X0.100000X0.775000X-0.100000X0.775000X-0.100000X-0.775000X0.100000X-0.775000X0*%
%ADD28RoundRect,0.150000X-0.150000X0.825000X-0.150000X-0.825000X0.150000X-0.825000X0.150000X0.825000X0*%
%ADD29RoundRect,0.250000X0.325000X0.650000X-0.325000X0.650000X-0.325000X-0.650000X0.325000X-0.650000X0*%
%ADD30RoundRect,0.150000X-0.150000X0.587500X-0.150000X-0.587500X0.150000X-0.587500X0.150000X0.587500X0*%
%ADD31RoundRect,0.150000X0.837500X0.150000X-0.837500X0.150000X-0.837500X-0.150000X0.837500X-0.150000X0*%
%ADD32RoundRect,0.150000X0.987500X0.150000X-0.987500X0.150000X-0.987500X-0.150000X0.987500X-0.150000X0*%
%ADD33RoundRect,0.150000X0.150000X-0.587500X0.150000X0.587500X-0.150000X0.587500X-0.150000X-0.587500X0*%
%ADD34RoundRect,0.150000X0.750000X0.150000X-0.750000X0.150000X-0.750000X-0.150000X0.750000X-0.150000X0*%
%ADD35RoundRect,0.225000X0.225000X-0.425000X0.225000X0.425000X-0.225000X0.425000X-0.225000X-0.425000X0*%
%ADD36FreePoly0,90.000000*%
%ADD37RoundRect,0.137500X-1.112500X-0.137500X1.112500X-0.137500X1.112500X0.137500X-1.112500X0.137500X0*%
%ADD38RoundRect,0.137500X0.137500X-1.112500X0.137500X1.112500X-0.137500X1.112500X-0.137500X-1.112500X0*%
%ADD39R,2.000000X0.500000*%
%ADD40R,0.500000X2.000000*%
%ADD41RoundRect,0.250000X-0.475000X0.250000X-0.475000X-0.250000X0.475000X-0.250000X0.475000X0.250000X0*%
G04 APERTURE END LIST*
D10*
%TO.C,C146*%
X116000000Y-110525000D03*
X116000000Y-112075000D03*
%TD*%
D11*
%TO.C,R146*%
X128900000Y-160925000D03*
X128900000Y-159275000D03*
%TD*%
D12*
%TO.C,C120*%
X135800000Y-171775000D03*
X135800000Y-170225000D03*
%TD*%
D13*
%TO.C,R222*%
X88575000Y-199400000D03*
X90225000Y-199400000D03*
%TD*%
D14*
%TO.C,R236*%
X158225000Y-193400000D03*
X156575000Y-193400000D03*
%TD*%
D15*
%TO.C,C204*%
X59675000Y-178800000D03*
X58125000Y-178800000D03*
%TD*%
D16*
%TO.C,Q206*%
X86537500Y-195550000D03*
X86537500Y-193650000D03*
X84662500Y-194600000D03*
%TD*%
D17*
%TO.C,R151*%
X124400000Y-184875000D03*
X124400000Y-186525000D03*
%TD*%
D12*
%TO.C,C145*%
X111100000Y-112075000D03*
X111100000Y-110525000D03*
%TD*%
D17*
%TO.C,R308*%
X52200000Y-126975000D03*
X52200000Y-128625000D03*
%TD*%
D18*
%TO.C,D203*%
X93062500Y-197550000D03*
X93062500Y-199450000D03*
X94937500Y-198500000D03*
%TD*%
D14*
%TO.C,R127*%
X166225000Y-166800000D03*
X164575000Y-166800000D03*
%TD*%
D13*
%TO.C,R501*%
X90375000Y-177000000D03*
X92025000Y-177000000D03*
%TD*%
D14*
%TO.C,R220*%
X90225000Y-204700000D03*
X88575000Y-204700000D03*
%TD*%
D19*
%TO.C,IC103*%
X117925000Y-158495000D03*
X117925000Y-159765000D03*
X117925000Y-161035000D03*
X117925000Y-162305000D03*
X122875000Y-162305000D03*
X122875000Y-161035000D03*
X122875000Y-159765000D03*
X122875000Y-158495000D03*
%TD*%
D12*
%TO.C,C103*%
X163900000Y-144375000D03*
X163900000Y-142825000D03*
%TD*%
D15*
%TO.C,C108*%
X147275000Y-142100000D03*
X145725000Y-142100000D03*
%TD*%
D13*
%TO.C,R164*%
X115875000Y-153800000D03*
X117525000Y-153800000D03*
%TD*%
D20*
%TO.C,C223*%
X156650000Y-195400000D03*
X158550000Y-195400000D03*
%TD*%
D13*
%TO.C,R130*%
X136975000Y-95200000D03*
X138625000Y-95200000D03*
%TD*%
D11*
%TO.C,R176*%
X92400000Y-102125000D03*
X92400000Y-100475000D03*
%TD*%
D13*
%TO.C,R508*%
X98775000Y-148700000D03*
X100425000Y-148700000D03*
%TD*%
D21*
%TO.C,C139*%
X145725000Y-123600000D03*
X147275000Y-123600000D03*
%TD*%
D11*
%TO.C,R134*%
X128800000Y-186625000D03*
X128800000Y-184975000D03*
%TD*%
D16*
%TO.C,D104*%
X108037500Y-182250000D03*
X108037500Y-180350000D03*
X106162500Y-181300000D03*
%TD*%
D15*
%TO.C,C130*%
X162475000Y-160400000D03*
X160925000Y-160400000D03*
%TD*%
D22*
%TO.C,IC108*%
X123000000Y-139500000D03*
X123037500Y-138500000D03*
X123037500Y-137500000D03*
X123037500Y-136500000D03*
X123037500Y-135500000D03*
X123037500Y-134500000D03*
X123037500Y-133500000D03*
X123037500Y-132500000D03*
X123037500Y-131500000D03*
X123037500Y-130500000D03*
X123000000Y-129500000D03*
X123000000Y-128500000D03*
X123000000Y-127500000D03*
X123000000Y-126500000D03*
X123000000Y-125500000D03*
X123000000Y-124500000D03*
X123000000Y-123500000D03*
X123000000Y-122500000D03*
X123000000Y-121500000D03*
D23*
X120000000Y-118500000D03*
X119000000Y-118500000D03*
X118000000Y-118500000D03*
X117000000Y-118500000D03*
X116000000Y-118500000D03*
X115000000Y-118500000D03*
X114000000Y-118500000D03*
X113000000Y-118500000D03*
X112000000Y-118500000D03*
X111000000Y-118500000D03*
X110000000Y-118500000D03*
X109000000Y-118500000D03*
X108000000Y-118500000D03*
D22*
X105000000Y-121500000D03*
X105000000Y-122500000D03*
X105000000Y-123500000D03*
X105000000Y-124500000D03*
X105000000Y-125500000D03*
X105000000Y-126500000D03*
X105000000Y-127500000D03*
X105000000Y-128500000D03*
X105000000Y-129500000D03*
X105000000Y-130500000D03*
X105000000Y-131500000D03*
X105000000Y-132500000D03*
X105000000Y-133500000D03*
X105000000Y-134500000D03*
X105000000Y-135500000D03*
X105000000Y-136500000D03*
D24*
X105000000Y-137500000D03*
X105000000Y-138500000D03*
X105000000Y-139500000D03*
D23*
X108000000Y-142500000D03*
X109000000Y-142500000D03*
X110000000Y-142500000D03*
X111000000Y-142500000D03*
X112000000Y-142500000D03*
X113000000Y-142500000D03*
X114000000Y-142500000D03*
X115000000Y-142500000D03*
X116000000Y-142500000D03*
X117000000Y-142500000D03*
X118000000Y-142500000D03*
X119000000Y-142500000D03*
X120000000Y-142500000D03*
%TD*%
D17*
%TO.C,R175*%
X120900000Y-110275000D03*
X120900000Y-111925000D03*
%TD*%
D10*
%TO.C,C138*%
X116400000Y-169875000D03*
X116400000Y-171425000D03*
%TD*%
D17*
%TO.C,R519*%
X96800000Y-100675000D03*
X96800000Y-102325000D03*
%TD*%
%TO.C,R521*%
X83700000Y-97175000D03*
X83700000Y-98825000D03*
%TD*%
%TO.C,R140*%
X125300000Y-159275000D03*
X125300000Y-160925000D03*
%TD*%
D13*
%TO.C,R157*%
X90375000Y-167400000D03*
X92025000Y-167400000D03*
%TD*%
D15*
%TO.C,C214*%
X71275000Y-195200000D03*
X69725000Y-195200000D03*
%TD*%
D25*
%TO.C,C219*%
X148100000Y-204350000D03*
X148100000Y-202450000D03*
%TD*%
D13*
%TO.C,R126*%
X164575000Y-168600000D03*
X166225000Y-168600000D03*
%TD*%
D14*
%TO.C,R169*%
X84025000Y-175200000D03*
X82375000Y-175200000D03*
%TD*%
D10*
%TO.C,C124*%
X146500000Y-179225000D03*
X146500000Y-180775000D03*
%TD*%
D11*
%TO.C,R181*%
X90700000Y-124825000D03*
X90700000Y-123175000D03*
%TD*%
D17*
%TO.C,R194*%
X96100000Y-123175000D03*
X96100000Y-124825000D03*
%TD*%
D15*
%TO.C,C217*%
X82575000Y-202800000D03*
X81025000Y-202800000D03*
%TD*%
D10*
%TO.C,C111*%
X171000000Y-184325000D03*
X171000000Y-185875000D03*
%TD*%
D15*
%TO.C,C132*%
X138575000Y-100600000D03*
X137025000Y-100600000D03*
%TD*%
D26*
%TO.C,IC109*%
X88125000Y-150125000D03*
X88125000Y-149475000D03*
X88125000Y-148825000D03*
X88125000Y-148175000D03*
X88125000Y-147525000D03*
X88125000Y-146875000D03*
X88125000Y-146225000D03*
X88125000Y-145575000D03*
X88125000Y-144925000D03*
X88125000Y-144275000D03*
X88125000Y-143625000D03*
X88125000Y-142975000D03*
X88125000Y-142325000D03*
X88125000Y-141675000D03*
X88125000Y-141025000D03*
X88125000Y-140375000D03*
X88125000Y-139725000D03*
X88125000Y-139075000D03*
X88125000Y-138425000D03*
X88125000Y-137775000D03*
X88125000Y-137125000D03*
X88125000Y-136475000D03*
X88125000Y-135825000D03*
X88125000Y-135175000D03*
X88125000Y-134525000D03*
X88125000Y-133875000D03*
X88125000Y-133225000D03*
X88125000Y-132575000D03*
X88125000Y-131925000D03*
X88125000Y-131275000D03*
D27*
X86175000Y-129575000D03*
X85525000Y-129575000D03*
X84875000Y-129575000D03*
X84225000Y-129575000D03*
X83575000Y-129575000D03*
X82925000Y-129575000D03*
X82275000Y-129575000D03*
X81625000Y-129575000D03*
X80975000Y-129575000D03*
X80325000Y-129575000D03*
X79675000Y-129575000D03*
X79025000Y-129575000D03*
X78375000Y-129575000D03*
X77725000Y-129575000D03*
X77075000Y-129575000D03*
X76425000Y-129575000D03*
X75775000Y-129575000D03*
X75125000Y-129575000D03*
X74475000Y-129575000D03*
X73825000Y-129575000D03*
D26*
X71875000Y-131275000D03*
X71875000Y-131925000D03*
X71875000Y-132575000D03*
X71875000Y-133225000D03*
X71875000Y-133875000D03*
X71875000Y-134525000D03*
X71875000Y-135175000D03*
X71875000Y-135825000D03*
X71875000Y-136475000D03*
X71875000Y-137125000D03*
X71875000Y-137775000D03*
X71875000Y-138425000D03*
X71875000Y-139075000D03*
X71875000Y-139725000D03*
X71875000Y-140375000D03*
X71875000Y-141025000D03*
X71875000Y-141675000D03*
X71875000Y-142325000D03*
X71875000Y-142975000D03*
X71875000Y-143625000D03*
X71875000Y-144275000D03*
X71875000Y-144925000D03*
X71875000Y-145575000D03*
X71875000Y-146225000D03*
X71875000Y-146875000D03*
X71875000Y-147525000D03*
X71875000Y-148175000D03*
X71875000Y-148825000D03*
X71875000Y-149475000D03*
X71875000Y-150125000D03*
D27*
X73825000Y-151825000D03*
X74475000Y-151825000D03*
X75125000Y-151825000D03*
X75775000Y-151825000D03*
X76425000Y-151825000D03*
X77075000Y-151825000D03*
X77725000Y-151825000D03*
X78375000Y-151825000D03*
X79025000Y-151825000D03*
X79675000Y-151825000D03*
X80325000Y-151825000D03*
X80975000Y-151825000D03*
X81625000Y-151825000D03*
X82275000Y-151825000D03*
X82925000Y-151825000D03*
X83575000Y-151825000D03*
X84225000Y-151825000D03*
X84875000Y-151825000D03*
X85525000Y-151825000D03*
X86175000Y-151825000D03*
%TD*%
D12*
%TO.C,C115*%
X138500000Y-164375000D03*
X138500000Y-162825000D03*
%TD*%
D11*
%TO.C,R111*%
X130600000Y-176325000D03*
X130600000Y-174675000D03*
%TD*%
D15*
%TO.C,C228*%
X137075000Y-193900000D03*
X135525000Y-193900000D03*
%TD*%
D28*
%TO.C,IC202*%
X57905000Y-185925000D03*
X56635000Y-185925000D03*
X55365000Y-185925000D03*
X54095000Y-185925000D03*
X54095000Y-190875000D03*
X55365000Y-190875000D03*
X56635000Y-190875000D03*
X57905000Y-190875000D03*
%TD*%
D14*
%TO.C,R123*%
X166225000Y-172200000D03*
X164575000Y-172200000D03*
%TD*%
D12*
%TO.C,C121*%
X137600000Y-175075000D03*
X137600000Y-173525000D03*
%TD*%
D21*
%TO.C,C212*%
X63825000Y-186110000D03*
X65375000Y-186110000D03*
%TD*%
D17*
%TO.C,R522*%
X78300000Y-97175000D03*
X78300000Y-98825000D03*
%TD*%
D14*
%TO.C,R219*%
X82625000Y-195600000D03*
X80975000Y-195600000D03*
%TD*%
D16*
%TO.C,Q103*%
X137237500Y-183350000D03*
X137237500Y-181450000D03*
X135362500Y-182400000D03*
%TD*%
D15*
%TO.C,C218*%
X82575000Y-190200000D03*
X81025000Y-190200000D03*
%TD*%
D11*
%TO.C,R115*%
X135800000Y-175125000D03*
X135800000Y-173475000D03*
%TD*%
D29*
%TO.C,C206*%
X62675000Y-196200000D03*
X59725000Y-196200000D03*
%TD*%
D13*
%TO.C,R233*%
X135475000Y-192100000D03*
X137125000Y-192100000D03*
%TD*%
D17*
%TO.C,R515*%
X104000000Y-100675000D03*
X104000000Y-102325000D03*
%TD*%
%TO.C,R149*%
X116300000Y-184975000D03*
X116300000Y-186625000D03*
%TD*%
D21*
%TO.C,C107*%
X145725000Y-138500000D03*
X147275000Y-138500000D03*
%TD*%
D17*
%TO.C,R138*%
X139300000Y-180775000D03*
X139300000Y-182425000D03*
%TD*%
D11*
%TO.C,R103*%
X162100000Y-144425000D03*
X162100000Y-142775000D03*
%TD*%
D17*
%TO.C,R185*%
X59400000Y-126975000D03*
X59400000Y-128625000D03*
%TD*%
D30*
%TO.C,Q307*%
X69350000Y-175062500D03*
X67450000Y-175062500D03*
X68400000Y-176937500D03*
%TD*%
D13*
%TO.C,R231*%
X135475000Y-197500000D03*
X137125000Y-197500000D03*
%TD*%
D21*
%TO.C,C119*%
X139450000Y-155600000D03*
X141000000Y-155600000D03*
%TD*%
D30*
%TO.C,Q105*%
X83950000Y-171262500D03*
X82050000Y-171262500D03*
X83000000Y-173137500D03*
%TD*%
D14*
%TO.C,R137*%
X130100000Y-135900000D03*
X128450000Y-135900000D03*
%TD*%
D11*
%TO.C,R197*%
X98600000Y-102325000D03*
X98600000Y-100675000D03*
%TD*%
D14*
%TO.C,R210*%
X65425000Y-189800000D03*
X63775000Y-189800000D03*
%TD*%
%TO.C,R199*%
X136725000Y-146700000D03*
X135075000Y-146700000D03*
%TD*%
D31*
%TO.C,IC201*%
X60662500Y-175015000D03*
X60662500Y-173745000D03*
X60662500Y-172475000D03*
X60662500Y-171205000D03*
X60662500Y-169935000D03*
X60662500Y-168665000D03*
X60662500Y-167395000D03*
X60662500Y-166125000D03*
X60662500Y-164855000D03*
X60662500Y-163585000D03*
X53737500Y-163585000D03*
X53737500Y-164855000D03*
X53737500Y-166125000D03*
X53737500Y-167395000D03*
X53737500Y-168665000D03*
X53737500Y-169935000D03*
X53737500Y-171205000D03*
X53737500Y-172475000D03*
X53737500Y-173745000D03*
X53737500Y-175015000D03*
%TD*%
D11*
%TO.C,R113*%
X134000000Y-175125000D03*
X134000000Y-173475000D03*
%TD*%
D17*
%TO.C,R142*%
X120800000Y-181575000D03*
X120800000Y-183225000D03*
%TD*%
D10*
%TO.C,C160*%
X171000000Y-176125000D03*
X171000000Y-177675000D03*
%TD*%
D21*
%TO.C,C230*%
X168825000Y-199400000D03*
X170375000Y-199400000D03*
%TD*%
D10*
%TO.C,C123*%
X141100000Y-179225000D03*
X141100000Y-180775000D03*
%TD*%
D11*
%TO.C,R163*%
X166800000Y-105725000D03*
X166800000Y-104075000D03*
%TD*%
%TO.C,R116*%
X142900000Y-180825000D03*
X142900000Y-179175000D03*
%TD*%
D13*
%TO.C,R512*%
X98775000Y-155900000D03*
X100425000Y-155900000D03*
%TD*%
D14*
%TO.C,R204*%
X72725000Y-182000000D03*
X71075000Y-182000000D03*
%TD*%
D21*
%TO.C,C109*%
X160025000Y-123200000D03*
X161575000Y-123200000D03*
%TD*%
D15*
%TO.C,C133*%
X160675000Y-180000000D03*
X159125000Y-180000000D03*
%TD*%
D11*
%TO.C,R143*%
X120800000Y-179725000D03*
X120800000Y-178075000D03*
%TD*%
D32*
%TO.C,IC107*%
X63562500Y-151855000D03*
X63562500Y-150585000D03*
X63562500Y-149315000D03*
X63562500Y-148045000D03*
X63562500Y-146775000D03*
X63562500Y-145505000D03*
X63562500Y-144235000D03*
X63562500Y-142965000D03*
X63562500Y-141695000D03*
X63562500Y-140425000D03*
X63562500Y-139155000D03*
X63562500Y-137885000D03*
X63562500Y-136615000D03*
X63562500Y-135345000D03*
X52437500Y-135345000D03*
X52437500Y-136615000D03*
X52437500Y-137885000D03*
X52437500Y-139155000D03*
X52437500Y-140425000D03*
X52437500Y-141695000D03*
X52437500Y-142965000D03*
X52437500Y-144235000D03*
X52437500Y-145505000D03*
X52437500Y-146775000D03*
X52437500Y-148045000D03*
X52437500Y-149315000D03*
X52437500Y-150585000D03*
X52437500Y-151855000D03*
%TD*%
D13*
%TO.C,R201*%
X58075000Y-177000000D03*
X59725000Y-177000000D03*
%TD*%
D14*
%TO.C,R227*%
X154925000Y-202400000D03*
X153275000Y-202400000D03*
%TD*%
D33*
%TO.C,Q104*%
X77550000Y-162337500D03*
X79450000Y-162337500D03*
X78500000Y-160462500D03*
%TD*%
D21*
%TO.C,C203*%
X54725000Y-178800000D03*
X56275000Y-178800000D03*
%TD*%
D12*
%TO.C,C155*%
X55800000Y-128575000D03*
X55800000Y-127025000D03*
%TD*%
D13*
%TO.C,R226*%
X149675000Y-200300000D03*
X151325000Y-200300000D03*
%TD*%
D17*
%TO.C,R112*%
X134000000Y-170175000D03*
X134000000Y-171825000D03*
%TD*%
D34*
%TO.C,IC101*%
X160000000Y-145590000D03*
X160000000Y-144320000D03*
X160000000Y-143050000D03*
X160000000Y-141780000D03*
X160000000Y-140510000D03*
X160000000Y-139240000D03*
X160000000Y-137970000D03*
X160000000Y-136700000D03*
X160000000Y-135430000D03*
X160000000Y-134160000D03*
X160000000Y-132890000D03*
X160000000Y-131620000D03*
X160000000Y-130350000D03*
X160000000Y-129080000D03*
X160000000Y-127810000D03*
X150400000Y-127810000D03*
X150400000Y-129080000D03*
X150400000Y-130350000D03*
X150400000Y-131620000D03*
X150400000Y-132890000D03*
X150400000Y-134160000D03*
X150400000Y-135430000D03*
X150400000Y-136700000D03*
X150400000Y-137970000D03*
X150400000Y-139240000D03*
X150400000Y-140510000D03*
X150400000Y-141780000D03*
X150400000Y-143050000D03*
X150400000Y-144320000D03*
X150400000Y-145590000D03*
%TD*%
D13*
%TO.C,R158*%
X90375000Y-169200000D03*
X92025000Y-169200000D03*
%TD*%
D21*
%TO.C,C210*%
X69725000Y-200600000D03*
X71275000Y-200600000D03*
%TD*%
D12*
%TO.C,C116*%
X136700000Y-164375000D03*
X136700000Y-162825000D03*
%TD*%
D33*
%TO.C,Q209*%
X172250000Y-204537500D03*
X174150000Y-204537500D03*
X173200000Y-202662500D03*
%TD*%
D35*
%TO.C,Q101*%
X162400000Y-151550000D03*
D36*
X163900000Y-151462500D03*
D35*
X165400000Y-151550000D03*
%TD*%
D14*
%TO.C,R200*%
X56325000Y-177000000D03*
X54675000Y-177000000D03*
%TD*%
%TO.C,R168*%
X117525000Y-152000000D03*
X115875000Y-152000000D03*
%TD*%
%TO.C,R218*%
X82625000Y-197400000D03*
X80975000Y-197400000D03*
%TD*%
D19*
%TO.C,IC204*%
X139625000Y-190795000D03*
X139625000Y-192065000D03*
X139625000Y-193335000D03*
X139625000Y-194605000D03*
X144575000Y-194605000D03*
X144575000Y-193335000D03*
X144575000Y-192065000D03*
X144575000Y-190795000D03*
%TD*%
D16*
%TO.C,Q204*%
X113937500Y-151950000D03*
X113937500Y-150050000D03*
X112062500Y-151000000D03*
%TD*%
D11*
%TO.C,R192*%
X94300000Y-124825000D03*
X94300000Y-123175000D03*
%TD*%
D13*
%TO.C,R242*%
X153275000Y-198800000D03*
X154925000Y-198800000D03*
%TD*%
D14*
%TO.C,R125*%
X166225000Y-175800000D03*
X164575000Y-175800000D03*
%TD*%
%TO.C,R213*%
X82625000Y-193800000D03*
X80975000Y-193800000D03*
%TD*%
D21*
%TO.C,C141*%
X168625000Y-107400000D03*
X170175000Y-107400000D03*
%TD*%
D13*
%TO.C,R172*%
X65875000Y-153500000D03*
X67525000Y-153500000D03*
%TD*%
D14*
%TO.C,R129*%
X138625000Y-98800000D03*
X136975000Y-98800000D03*
%TD*%
D15*
%TO.C,C118*%
X139075000Y-168200000D03*
X137525000Y-168200000D03*
%TD*%
D14*
%TO.C,R221*%
X90225000Y-190300000D03*
X88575000Y-190300000D03*
%TD*%
D13*
%TO.C,R505*%
X98775000Y-143300000D03*
X100425000Y-143300000D03*
%TD*%
D17*
%TO.C,R193*%
X92500000Y-123175000D03*
X92500000Y-124825000D03*
%TD*%
D13*
%TO.C,R506*%
X98775000Y-145100000D03*
X100425000Y-145100000D03*
%TD*%
D14*
%TO.C,R128*%
X138625000Y-102400000D03*
X136975000Y-102400000D03*
%TD*%
D15*
%TO.C,C131*%
X138575000Y-97000000D03*
X137025000Y-97000000D03*
%TD*%
D11*
%TO.C,R190*%
X68400000Y-128625000D03*
X68400000Y-126975000D03*
%TD*%
D18*
%TO.C,Q207*%
X112062500Y-153850000D03*
X112062500Y-155750000D03*
X113937500Y-154800000D03*
%TD*%
D21*
%TO.C,C208*%
X66425000Y-198800000D03*
X67975000Y-198800000D03*
%TD*%
D14*
%TO.C,R230*%
X154925000Y-200600000D03*
X153275000Y-200600000D03*
%TD*%
%TO.C,R202*%
X69425000Y-180200000D03*
X67775000Y-180200000D03*
%TD*%
D12*
%TO.C,C105*%
X162600000Y-128775000D03*
X162600000Y-127225000D03*
%TD*%
D15*
%TO.C,C151*%
X79475000Y-164400000D03*
X77925000Y-164400000D03*
%TD*%
D17*
%TO.C,R191*%
X70200000Y-126975000D03*
X70200000Y-128625000D03*
%TD*%
D10*
%TO.C,C148*%
X92500000Y-127225000D03*
X92500000Y-128775000D03*
%TD*%
D14*
%TO.C,R232*%
X154925000Y-195200000D03*
X153275000Y-195200000D03*
%TD*%
%TO.C,R211*%
X65425000Y-187910000D03*
X63775000Y-187910000D03*
%TD*%
D13*
%TO.C,R159*%
X90375000Y-171000000D03*
X92025000Y-171000000D03*
%TD*%
D14*
%TO.C,R234*%
X154925000Y-193400000D03*
X153275000Y-193400000D03*
%TD*%
D16*
%TO.C,Q202*%
X86537500Y-190250000D03*
X86537500Y-188350000D03*
X84662500Y-189300000D03*
%TD*%
D17*
%TO.C,R189*%
X66600000Y-126975000D03*
X66600000Y-128625000D03*
%TD*%
D14*
%TO.C,R245*%
X170425000Y-204800000D03*
X168775000Y-204800000D03*
%TD*%
D25*
%TO.C,C220*%
X145800000Y-204350000D03*
X145800000Y-202450000D03*
%TD*%
D13*
%TO.C,R173*%
X65875000Y-155300000D03*
X67525000Y-155300000D03*
%TD*%
%TO.C,R209*%
X69675000Y-197000000D03*
X71325000Y-197000000D03*
%TD*%
D33*
%TO.C,Q208*%
X161150000Y-201337500D03*
X163050000Y-201337500D03*
X162100000Y-199462500D03*
%TD*%
D15*
%TO.C,C112*%
X146075000Y-156300000D03*
X144525000Y-156300000D03*
%TD*%
D14*
%TO.C,R206*%
X76125000Y-183800000D03*
X74475000Y-183800000D03*
%TD*%
D13*
%TO.C,R166*%
X77875000Y-168000000D03*
X79525000Y-168000000D03*
%TD*%
%TO.C,R528*%
X136975000Y-93400000D03*
X138625000Y-93400000D03*
%TD*%
%TO.C,R170*%
X65875000Y-159400000D03*
X67525000Y-159400000D03*
%TD*%
D11*
%TO.C,R150*%
X124400000Y-176425000D03*
X124400000Y-174775000D03*
%TD*%
D17*
%TO.C,R305*%
X71200000Y-175032500D03*
X71200000Y-176682500D03*
%TD*%
D14*
%TO.C,R207*%
X74725000Y-197000000D03*
X73075000Y-197000000D03*
%TD*%
%TO.C,R152*%
X145675000Y-121800000D03*
X147325000Y-121800000D03*
%TD*%
D10*
%TO.C,C144*%
X100500000Y-117325000D03*
X100500000Y-118875000D03*
%TD*%
D28*
%TO.C,IC203*%
X72505000Y-187925000D03*
X71235000Y-187925000D03*
X69965000Y-187925000D03*
X68695000Y-187925000D03*
X68695000Y-192875000D03*
X69965000Y-192875000D03*
X71235000Y-192875000D03*
X72505000Y-192875000D03*
%TD*%
D12*
%TO.C,C125*%
X150100000Y-180775000D03*
X150100000Y-179225000D03*
%TD*%
D15*
%TO.C,C229*%
X170375000Y-201200000D03*
X168825000Y-201200000D03*
%TD*%
D14*
%TO.C,R198*%
X147325000Y-133200000D03*
X145675000Y-133200000D03*
%TD*%
%TO.C,R108*%
X161625000Y-121400000D03*
X159975000Y-121400000D03*
%TD*%
D11*
%TO.C,R145*%
X124400000Y-179725000D03*
X124400000Y-178075000D03*
%TD*%
D14*
%TO.C,R243*%
X137125000Y-195700000D03*
X135475000Y-195700000D03*
%TD*%
D16*
%TO.C,Q203*%
X113937500Y-148150000D03*
X113937500Y-146250000D03*
X112062500Y-147200000D03*
%TD*%
D12*
%TO.C,C137*%
X115700000Y-191575000D03*
X115700000Y-190025000D03*
%TD*%
D11*
%TO.C,R302*%
X96600000Y-187925000D03*
X96600000Y-186275000D03*
%TD*%
D13*
%TO.C,R532*%
X136975000Y-84400000D03*
X138625000Y-84400000D03*
%TD*%
D21*
%TO.C,C143*%
X165225000Y-109500000D03*
X166775000Y-109500000D03*
%TD*%
D13*
%TO.C,R229*%
X135475000Y-199300000D03*
X137125000Y-199300000D03*
%TD*%
D17*
%TO.C,R527*%
X87300000Y-97175000D03*
X87300000Y-98825000D03*
%TD*%
D29*
%TO.C,C205*%
X62175000Y-181900000D03*
X59225000Y-181900000D03*
%TD*%
D15*
%TO.C,C140*%
X170175000Y-102500000D03*
X168625000Y-102500000D03*
%TD*%
D10*
%TO.C,C154*%
X130600000Y-166625000D03*
X130600000Y-168175000D03*
%TD*%
D37*
%TO.C,IC102*%
X141650000Y-163000000D03*
X141650000Y-163800000D03*
X141650000Y-164600000D03*
X141650000Y-165400000D03*
X141650000Y-166200000D03*
X141650000Y-167000000D03*
X141650000Y-167800000D03*
X141650000Y-168600000D03*
X141650000Y-169400000D03*
X141650000Y-170200000D03*
X141650000Y-171000000D03*
X141650000Y-171800000D03*
D38*
X144500000Y-174650000D03*
X145300000Y-174650000D03*
X146100000Y-174650000D03*
X146900000Y-174650000D03*
X147700000Y-174650000D03*
X148500000Y-174650000D03*
X149300000Y-174650000D03*
X150100000Y-174650000D03*
X150900000Y-174650000D03*
X151700000Y-174650000D03*
X152500000Y-174650000D03*
X153300000Y-174650000D03*
D37*
X156150000Y-171800000D03*
X156150000Y-171000000D03*
X156150000Y-170200000D03*
X156150000Y-169400000D03*
X156150000Y-168600000D03*
X156150000Y-167800000D03*
X156150000Y-167000000D03*
X156150000Y-166200000D03*
X156150000Y-165400000D03*
X156150000Y-164600000D03*
X156150000Y-163800000D03*
X156150000Y-163000000D03*
D38*
X153300000Y-160150000D03*
X152500000Y-160150000D03*
X151700000Y-160150000D03*
X150900000Y-160150000D03*
X150100000Y-160150000D03*
X149300000Y-160150000D03*
X148500000Y-160150000D03*
X147700000Y-160150000D03*
X146900000Y-160150000D03*
X146100000Y-160150000D03*
X145300000Y-160150000D03*
X144500000Y-160150000D03*
%TD*%
D17*
%TO.C,R133*%
X128800000Y-174675000D03*
X128800000Y-176325000D03*
%TD*%
%TO.C,R525*%
X80100000Y-97175000D03*
X80100000Y-98825000D03*
%TD*%
D13*
%TO.C,R507*%
X98775000Y-146900000D03*
X100425000Y-146900000D03*
%TD*%
D17*
%TO.C,R517*%
X94600000Y-97175000D03*
X94600000Y-98825000D03*
%TD*%
D11*
%TO.C,R184*%
X57600000Y-128625000D03*
X57600000Y-126975000D03*
%TD*%
D13*
%TO.C,R531*%
X136975000Y-88000000D03*
X138625000Y-88000000D03*
%TD*%
D11*
%TO.C,R136*%
X120800000Y-186625000D03*
X120800000Y-184975000D03*
%TD*%
D17*
%TO.C,R132*%
X120800000Y-174775000D03*
X120800000Y-176425000D03*
%TD*%
D35*
%TO.C,IC302*%
X51100000Y-121150000D03*
D36*
X52600000Y-121062500D03*
D35*
X54100000Y-121150000D03*
%TD*%
D17*
%TO.C,R520*%
X81900000Y-97175000D03*
X81900000Y-98825000D03*
%TD*%
D13*
%TO.C,R174*%
X65875000Y-157000000D03*
X67525000Y-157000000D03*
%TD*%
%TO.C,R153*%
X90375000Y-178800000D03*
X92025000Y-178800000D03*
%TD*%
%TO.C,R244*%
X161175000Y-204800000D03*
X162825000Y-204800000D03*
%TD*%
D14*
%TO.C,R228*%
X140425000Y-197500000D03*
X138775000Y-197500000D03*
%TD*%
%TO.C,R503*%
X138625000Y-89800000D03*
X136975000Y-89800000D03*
%TD*%
D16*
%TO.C,Q201*%
X86537500Y-204650000D03*
X86537500Y-202750000D03*
X84662500Y-203700000D03*
%TD*%
D21*
%TO.C,C209*%
X71125000Y-180200000D03*
X72675000Y-180200000D03*
%TD*%
D17*
%TO.C,R179*%
X102200000Y-100675000D03*
X102200000Y-102325000D03*
%TD*%
D13*
%TO.C,R124*%
X164575000Y-174000000D03*
X166225000Y-174000000D03*
%TD*%
D14*
%TO.C,R205*%
X71325000Y-198800000D03*
X69675000Y-198800000D03*
%TD*%
D11*
%TO.C,R180*%
X85300000Y-124825000D03*
X85300000Y-123175000D03*
%TD*%
D20*
%TO.C,C224*%
X136550000Y-187700000D03*
X138450000Y-187700000D03*
%TD*%
D14*
%TO.C,R121*%
X136725000Y-150700000D03*
X135075000Y-150700000D03*
%TD*%
D12*
%TO.C,C110*%
X164400000Y-128775000D03*
X164400000Y-127225000D03*
%TD*%
D13*
%TO.C,R214*%
X80975000Y-201000000D03*
X82625000Y-201000000D03*
%TD*%
D14*
%TO.C,R212*%
X82625000Y-199200000D03*
X80975000Y-199200000D03*
%TD*%
D11*
%TO.C,R162*%
X118000000Y-114025000D03*
X118000000Y-112375000D03*
%TD*%
D13*
%TO.C,R171*%
X65875000Y-151700000D03*
X67525000Y-151700000D03*
%TD*%
D11*
%TO.C,R160*%
X54000000Y-128625000D03*
X54000000Y-126975000D03*
%TD*%
D15*
%TO.C,C128*%
X166175000Y-170400000D03*
X164625000Y-170400000D03*
%TD*%
D14*
%TO.C,R109*%
X147325000Y-131400000D03*
X145675000Y-131400000D03*
%TD*%
D11*
%TO.C,R141*%
X127100000Y-160925000D03*
X127100000Y-159275000D03*
%TD*%
D14*
%TO.C,R161*%
X110125000Y-153800000D03*
X108475000Y-153800000D03*
%TD*%
%TO.C,R504*%
X138625000Y-86200000D03*
X136975000Y-86200000D03*
%TD*%
D15*
%TO.C,C104*%
X156075000Y-125000000D03*
X154525000Y-125000000D03*
%TD*%
%TO.C,C213*%
X72675000Y-185600000D03*
X71125000Y-185600000D03*
%TD*%
D21*
%TO.C,C142*%
X150625000Y-121400000D03*
X152175000Y-121400000D03*
%TD*%
D14*
%TO.C,R106*%
X169125000Y-163000000D03*
X167475000Y-163000000D03*
%TD*%
D11*
%TO.C,R148*%
X116400000Y-176425000D03*
X116400000Y-174775000D03*
%TD*%
D17*
%TO.C,R524*%
X74700000Y-97175000D03*
X74700000Y-98825000D03*
%TD*%
D21*
%TO.C,C221*%
X153325000Y-204200000D03*
X154875000Y-204200000D03*
%TD*%
D15*
%TO.C,C152*%
X87575000Y-157900000D03*
X86025000Y-157900000D03*
%TD*%
D39*
%TO.C,IC106*%
X142700000Y-97000000D03*
X142700000Y-97800000D03*
X142700000Y-98600000D03*
X142700000Y-99400000D03*
X142700000Y-100200000D03*
X142700000Y-101000000D03*
X142700000Y-101800000D03*
X142700000Y-102600000D03*
X142700000Y-103400000D03*
X142700000Y-104200000D03*
X142700000Y-105000000D03*
X142700000Y-105800000D03*
X142700000Y-106600000D03*
X142700000Y-107400000D03*
X142700000Y-108200000D03*
X142700000Y-109000000D03*
X142700000Y-109800000D03*
X142700000Y-110600000D03*
X142700000Y-111400000D03*
X142700000Y-112200000D03*
X142700000Y-113000000D03*
X142700000Y-113800000D03*
X142700000Y-114600000D03*
X142700000Y-115400000D03*
D40*
X145700000Y-118200000D03*
X146500000Y-118200000D03*
X147300000Y-118200000D03*
X148100000Y-118200000D03*
X148900000Y-118200000D03*
X149700000Y-118200000D03*
X150500000Y-118200000D03*
X151300000Y-118200000D03*
X152100000Y-118200000D03*
X152900000Y-118200000D03*
X153700000Y-118200000D03*
X154500000Y-118200000D03*
X155300000Y-118200000D03*
X156100000Y-118200000D03*
X156900000Y-118200000D03*
X157700000Y-118200000D03*
D39*
X160700000Y-115400000D03*
X160700000Y-114600000D03*
X160700000Y-113800000D03*
X160700000Y-113000000D03*
X160700000Y-112200000D03*
X160700000Y-111400000D03*
X160700000Y-110600000D03*
X160700000Y-109800000D03*
X160700000Y-109000000D03*
X160700000Y-108200000D03*
X160700000Y-107400000D03*
X160700000Y-106600000D03*
X160700000Y-105800000D03*
X160700000Y-105000000D03*
X160700000Y-104200000D03*
X160700000Y-103400000D03*
X160700000Y-102600000D03*
X160700000Y-101800000D03*
X160700000Y-101000000D03*
X160700000Y-100200000D03*
X160700000Y-99400000D03*
X160700000Y-98600000D03*
X160700000Y-97800000D03*
X160700000Y-97000000D03*
D40*
X157700000Y-94200000D03*
X156900000Y-94200000D03*
X156100000Y-94200000D03*
X155300000Y-94200000D03*
X154500000Y-94200000D03*
X153700000Y-94200000D03*
X152900000Y-94200000D03*
X152100000Y-94200000D03*
X151300000Y-94200000D03*
X150500000Y-94200000D03*
X149700000Y-94200000D03*
X148900000Y-94200000D03*
X148100000Y-94200000D03*
X147300000Y-94200000D03*
X146500000Y-94200000D03*
X145700000Y-94200000D03*
%TD*%
D11*
%TO.C,R186*%
X61200000Y-128625000D03*
X61200000Y-126975000D03*
%TD*%
D13*
%TO.C,R104*%
X166175000Y-128700000D03*
X167825000Y-128700000D03*
%TD*%
D11*
%TO.C,R177*%
X94600000Y-102125000D03*
X94600000Y-100475000D03*
%TD*%
D13*
%TO.C,R208*%
X71075000Y-183800000D03*
X72725000Y-183800000D03*
%TD*%
D11*
%TO.C,R118*%
X148300000Y-180825000D03*
X148300000Y-179175000D03*
%TD*%
D14*
%TO.C,R122*%
X147325000Y-129600000D03*
X145675000Y-129600000D03*
%TD*%
D30*
%TO.C,Q102*%
X147250000Y-125662500D03*
X145350000Y-125662500D03*
X146300000Y-127537500D03*
%TD*%
D13*
%TO.C,R154*%
X82375000Y-178800000D03*
X84025000Y-178800000D03*
%TD*%
D21*
%TO.C,C207*%
X67825000Y-182000000D03*
X69375000Y-182000000D03*
%TD*%
D14*
%TO.C,R537*%
X165625000Y-98800000D03*
X163975000Y-98800000D03*
%TD*%
D17*
%TO.C,R196*%
X90200000Y-100475000D03*
X90200000Y-102125000D03*
%TD*%
D13*
%TO.C,R239*%
X168775000Y-203000000D03*
X170425000Y-203000000D03*
%TD*%
%TO.C,R509*%
X98775000Y-150500000D03*
X100425000Y-150500000D03*
%TD*%
D11*
%TO.C,R183*%
X87100000Y-124825000D03*
X87100000Y-123175000D03*
%TD*%
D17*
%TO.C,R516*%
X92400000Y-97175000D03*
X92400000Y-98825000D03*
%TD*%
D13*
%TO.C,R529*%
X136975000Y-91600000D03*
X138625000Y-91600000D03*
%TD*%
D15*
%TO.C,C222*%
X137075000Y-201100000D03*
X135525000Y-201100000D03*
%TD*%
D17*
%TO.C,R523*%
X76500000Y-97175000D03*
X76500000Y-98825000D03*
%TD*%
D13*
%TO.C,R215*%
X80975000Y-192000000D03*
X82625000Y-192000000D03*
%TD*%
D14*
%TO.C,R217*%
X82625000Y-188400000D03*
X80975000Y-188400000D03*
%TD*%
%TO.C,R107*%
X147325000Y-140300000D03*
X145675000Y-140300000D03*
%TD*%
%TO.C,R238*%
X170425000Y-197600000D03*
X168775000Y-197600000D03*
%TD*%
%TO.C,R120*%
X136725000Y-148900000D03*
X135075000Y-148900000D03*
%TD*%
D17*
%TO.C,R147*%
X130700000Y-159275000D03*
X130700000Y-160925000D03*
%TD*%
%TO.C,R187*%
X63000000Y-126975000D03*
X63000000Y-128625000D03*
%TD*%
D33*
%TO.C,Q305*%
X98450000Y-187937500D03*
X100350000Y-187937500D03*
X99400000Y-186062500D03*
%TD*%
D17*
%TO.C,R102*%
X169300000Y-133675000D03*
X169300000Y-135325000D03*
%TD*%
D13*
%TO.C,R510*%
X98775000Y-152300000D03*
X100425000Y-152300000D03*
%TD*%
D17*
%TO.C,R514*%
X90200000Y-97175000D03*
X90200000Y-98825000D03*
%TD*%
D13*
%TO.C,R131*%
X151275000Y-156300000D03*
X152925000Y-156300000D03*
%TD*%
D17*
%TO.C,R119*%
X151900000Y-179175000D03*
X151900000Y-180825000D03*
%TD*%
D18*
%TO.C,D101*%
X166462500Y-143650000D03*
X166462500Y-145550000D03*
X168337500Y-144600000D03*
%TD*%
D14*
%TO.C,R237*%
X158225000Y-191600000D03*
X156575000Y-191600000D03*
%TD*%
D13*
%TO.C,R105*%
X169275000Y-156000000D03*
X170925000Y-156000000D03*
%TD*%
D21*
%TO.C,C106*%
X145725000Y-136700000D03*
X147275000Y-136700000D03*
%TD*%
D11*
%TO.C,R110*%
X132400000Y-168225000D03*
X132400000Y-166575000D03*
%TD*%
D13*
%TO.C,R235*%
X135475000Y-190300000D03*
X137125000Y-190300000D03*
%TD*%
D21*
%TO.C,C227*%
X153325000Y-197000000D03*
X154875000Y-197000000D03*
%TD*%
D16*
%TO.C,Q205*%
X86537500Y-199350000D03*
X86537500Y-197450000D03*
X84662500Y-198400000D03*
%TD*%
D13*
%TO.C,R246*%
X62975000Y-173700000D03*
X64625000Y-173700000D03*
%TD*%
%TO.C,R155*%
X90375000Y-175200000D03*
X92025000Y-175200000D03*
%TD*%
D14*
%TO.C,R240*%
X65425000Y-193400000D03*
X63775000Y-193400000D03*
%TD*%
D21*
%TO.C,C211*%
X63825000Y-191600000D03*
X65375000Y-191600000D03*
%TD*%
D13*
%TO.C,R223*%
X88575000Y-195600000D03*
X90225000Y-195600000D03*
%TD*%
D15*
%TO.C,C150*%
X81075000Y-156700000D03*
X79525000Y-156700000D03*
%TD*%
D41*
%TO.C,C102*%
X167200000Y-133350000D03*
X167200000Y-135250000D03*
%TD*%
D17*
%TO.C,R144*%
X124400000Y-181575000D03*
X124400000Y-183225000D03*
%TD*%
D11*
%TO.C,R178*%
X87300000Y-102125000D03*
X87300000Y-100475000D03*
%TD*%
D14*
%TO.C,R216*%
X82625000Y-204600000D03*
X80975000Y-204600000D03*
%TD*%
D17*
%TO.C,R117*%
X144700000Y-179175000D03*
X144700000Y-180825000D03*
%TD*%
D11*
%TO.C,R114*%
X139400000Y-175125000D03*
X139400000Y-173475000D03*
%TD*%
D14*
%TO.C,R241*%
X65425000Y-184300000D03*
X63775000Y-184300000D03*
%TD*%
D13*
%TO.C,R511*%
X98775000Y-154100000D03*
X100425000Y-154100000D03*
%TD*%
D21*
%TO.C,C153*%
X53025000Y-154200000D03*
X54575000Y-154200000D03*
%TD*%
D14*
%TO.C,R167*%
X81125000Y-158500000D03*
X79475000Y-158500000D03*
%TD*%
D17*
%TO.C,R518*%
X100400000Y-100675000D03*
X100400000Y-102325000D03*
%TD*%
D12*
%TO.C,C126*%
X159100000Y-172075000D03*
X159100000Y-170525000D03*
%TD*%
D14*
%TO.C,R165*%
X79525000Y-166200000D03*
X77875000Y-166200000D03*
%TD*%
D20*
%TO.C,C127*%
X143350000Y-127500000D03*
X141450000Y-127500000D03*
%TD*%
D17*
%TO.C,R526*%
X85500000Y-97175000D03*
X85500000Y-98825000D03*
%TD*%
D13*
%TO.C,R156*%
X90375000Y-173400000D03*
X92025000Y-173400000D03*
%TD*%
D11*
%TO.C,R188*%
X64800000Y-128625000D03*
X64800000Y-126975000D03*
%TD*%
D14*
%TO.C,R203*%
X68025000Y-200600000D03*
X66375000Y-200600000D03*
%TD*%
D11*
%TO.C,R182*%
X88900000Y-124825000D03*
X88900000Y-123175000D03*
%TD*%
D15*
%TO.C,C158*%
X83975000Y-177000000D03*
X82425000Y-177000000D03*
%TD*%
D14*
%TO.C,R500*%
X165625000Y-97100000D03*
X163975000Y-97100000D03*
%TD*%
M02*
