%TF.GenerationSoftware,KiCad,Pcbnew,8.0.9-8.0.9-0~ubuntu24.04.1*%
%TF.CreationDate,2025-02-24T19:11:30+01:00*%
%TF.ProjectId,Main_PCB,4d61696e-5f50-4434-922e-6b696361645f,0.1*%
%TF.SameCoordinates,Original*%
%TF.FileFunction,Paste,Bot*%
%TF.FilePolarity,Positive*%
%FSLAX46Y46*%
G04 Gerber Fmt 4.6, Leading zero omitted, Abs format (unit mm)*
G04 Created by KiCad (PCBNEW 8.0.9-8.0.9-0~ubuntu24.04.1) date 2025-02-24 19:11:30*
%MOMM*%
%LPD*%
G01*
G04 APERTURE LIST*
G04 Aperture macros list*
%AMRoundRect*
0 Rectangle with rounded corners*
0 $1 Rounding radius*
0 $2 $3 $4 $5 $6 $7 $8 $9 X,Y pos of 4 corners*
0 Add a 4 corners polygon primitive as box body*
4,1,4,$2,$3,$4,$5,$6,$7,$8,$9,$2,$3,0*
0 Add four circle primitives for the rounded corners*
1,1,$1+$1,$2,$3*
1,1,$1+$1,$4,$5*
1,1,$1+$1,$6,$7*
1,1,$1+$1,$8,$9*
0 Add four rect primitives between the rounded corners*
20,1,$1+$1,$2,$3,$4,$5,0*
20,1,$1+$1,$4,$5,$6,$7,0*
20,1,$1+$1,$6,$7,$8,$9,0*
20,1,$1+$1,$8,$9,$2,$3,0*%
G04 Aperture macros list end*
%ADD10RoundRect,0.250000X0.550000X-1.250000X0.550000X1.250000X-0.550000X1.250000X-0.550000X-1.250000X0*%
%ADD11RoundRect,0.250000X1.250000X0.550000X-1.250000X0.550000X-1.250000X-0.550000X1.250000X-0.550000X0*%
%ADD12RoundRect,0.250000X-1.950000X-1.000000X1.950000X-1.000000X1.950000X1.000000X-1.950000X1.000000X0*%
%ADD13RoundRect,0.250000X0.550000X-1.500000X0.550000X1.500000X-0.550000X1.500000X-0.550000X-1.500000X0*%
%ADD14RoundRect,0.250000X0.550000X-1.050000X0.550000X1.050000X-0.550000X1.050000X-0.550000X-1.050000X0*%
%ADD15RoundRect,0.250000X-1.500000X-0.550000X1.500000X-0.550000X1.500000X0.550000X-1.500000X0.550000X0*%
%ADD16RoundRect,0.250000X-1.250000X-0.550000X1.250000X-0.550000X1.250000X0.550000X-1.250000X0.550000X0*%
%ADD17RoundRect,0.250000X1.950000X1.000000X-1.950000X1.000000X-1.950000X-1.000000X1.950000X-1.000000X0*%
%ADD18RoundRect,0.250000X-0.250000X-0.475000X0.250000X-0.475000X0.250000X0.475000X-0.250000X0.475000X0*%
%ADD19RoundRect,0.250000X-0.550000X1.250000X-0.550000X-1.250000X0.550000X-1.250000X0.550000X1.250000X0*%
%ADD20RoundRect,0.200000X0.200000X0.275000X-0.200000X0.275000X-0.200000X-0.275000X0.200000X-0.275000X0*%
%ADD21RoundRect,0.250000X1.050000X0.550000X-1.050000X0.550000X-1.050000X-0.550000X1.050000X-0.550000X0*%
%ADD22RoundRect,0.150000X-0.587500X-0.150000X0.587500X-0.150000X0.587500X0.150000X-0.587500X0.150000X0*%
G04 APERTURE END LIST*
D10*
%TO.C,C149*%
X116400000Y-127400000D03*
X116400000Y-123000000D03*
%TD*%
D11*
%TO.C,C201*%
X52300000Y-174800000D03*
X47900000Y-174800000D03*
%TD*%
D12*
%TO.C,C301*%
X71100000Y-103000000D03*
X78500000Y-103000000D03*
%TD*%
D13*
%TO.C,C136*%
X111100000Y-165100000D03*
X111100000Y-159500000D03*
%TD*%
D14*
%TO.C,C200*%
X63600000Y-175100000D03*
X63600000Y-171500000D03*
%TD*%
D15*
%TO.C,C303*%
X96900000Y-190200000D03*
X102500000Y-190200000D03*
%TD*%
D16*
%TO.C,C226*%
X159000000Y-194900000D03*
X163400000Y-194900000D03*
%TD*%
D11*
%TO.C,C122*%
X144300000Y-172600000D03*
X139900000Y-172600000D03*
%TD*%
D17*
%TO.C,C300*%
X65700000Y-103000000D03*
X58300000Y-103000000D03*
%TD*%
D18*
%TO.C,C216*%
X77050000Y-192400000D03*
X78950000Y-192400000D03*
%TD*%
D19*
%TO.C,C113*%
X154700000Y-129200000D03*
X154700000Y-133600000D03*
%TD*%
D18*
%TO.C,C215*%
X77050000Y-196900000D03*
X78950000Y-196900000D03*
%TD*%
D16*
%TO.C,C302*%
X76600000Y-122800000D03*
X81000000Y-122800000D03*
%TD*%
%TO.C,C225*%
X159000000Y-188700000D03*
X163400000Y-188700000D03*
%TD*%
D14*
%TO.C,C129*%
X163000000Y-167500000D03*
X163000000Y-163900000D03*
%TD*%
D11*
%TO.C,C202*%
X52300000Y-168500000D03*
X47900000Y-168500000D03*
%TD*%
D16*
%TO.C,C159*%
X84300000Y-159800000D03*
X88700000Y-159800000D03*
%TD*%
D20*
%TO.C,R513*%
X110025000Y-127500000D03*
X108375000Y-127500000D03*
%TD*%
D19*
%TO.C,C114*%
X154700000Y-137500000D03*
X154700000Y-141900000D03*
%TD*%
D10*
%TO.C,C304*%
X73800000Y-174900000D03*
X73800000Y-170500000D03*
%TD*%
D21*
%TO.C,C117*%
X146000000Y-166100000D03*
X142400000Y-166100000D03*
%TD*%
D22*
%TO.C,D105*%
X108462500Y-131350000D03*
X108462500Y-129450000D03*
X110337500Y-130400000D03*
%TD*%
D14*
%TO.C,C102*%
X168200000Y-139900000D03*
X168200000Y-136300000D03*
%TD*%
D16*
%TO.C,C101*%
X151300000Y-148600000D03*
X155700000Y-148600000D03*
%TD*%
M02*
