%TF.GenerationSoftware,KiCad,Pcbnew,8.0.9-8.0.9-0~ubuntu24.04.1*%
%TF.CreationDate,2025-02-26T15:16:52+01:00*%
%TF.ProjectId,Main_PCB,4d61696e-5f50-4434-922e-6b696361645f,0.1*%
%TF.SameCoordinates,Original*%
%TF.FileFunction,Legend,Bot*%
%TF.FilePolarity,Positive*%
%FSLAX46Y46*%
G04 Gerber Fmt 4.6, Leading zero omitted, Abs format (unit mm)*
G04 Created by KiCad (PCBNEW 8.0.9-8.0.9-0~ubuntu24.04.1) date 2025-02-26 15:16:52*
%MOMM*%
%LPD*%
G01*
G04 APERTURE LIST*
%ADD10C,0.187500*%
%ADD11C,0.150000*%
%ADD12C,0.120000*%
G04 APERTURE END LIST*
D10*
X148119502Y-97347014D02*
X148119502Y-95847014D01*
X148119502Y-95847014D02*
X147548073Y-95847014D01*
X147548073Y-95847014D02*
X147405216Y-95918443D01*
X147405216Y-95918443D02*
X147333787Y-95989871D01*
X147333787Y-95989871D02*
X147262359Y-96132728D01*
X147262359Y-96132728D02*
X147262359Y-96347014D01*
X147262359Y-96347014D02*
X147333787Y-96489871D01*
X147333787Y-96489871D02*
X147405216Y-96561300D01*
X147405216Y-96561300D02*
X147548073Y-96632728D01*
X147548073Y-96632728D02*
X148119502Y-96632728D01*
X145762359Y-97204157D02*
X145833787Y-97275586D01*
X145833787Y-97275586D02*
X146048073Y-97347014D01*
X146048073Y-97347014D02*
X146190930Y-97347014D01*
X146190930Y-97347014D02*
X146405216Y-97275586D01*
X146405216Y-97275586D02*
X146548073Y-97132728D01*
X146548073Y-97132728D02*
X146619502Y-96989871D01*
X146619502Y-96989871D02*
X146690930Y-96704157D01*
X146690930Y-96704157D02*
X146690930Y-96489871D01*
X146690930Y-96489871D02*
X146619502Y-96204157D01*
X146619502Y-96204157D02*
X146548073Y-96061300D01*
X146548073Y-96061300D02*
X146405216Y-95918443D01*
X146405216Y-95918443D02*
X146190930Y-95847014D01*
X146190930Y-95847014D02*
X146048073Y-95847014D01*
X146048073Y-95847014D02*
X145833787Y-95918443D01*
X145833787Y-95918443D02*
X145762359Y-95989871D01*
X145119502Y-96775586D02*
X143976645Y-96775586D01*
X143262359Y-96561300D02*
X142762359Y-96561300D01*
X142548073Y-97347014D02*
X143262359Y-97347014D01*
X143262359Y-97347014D02*
X143262359Y-95847014D01*
X143262359Y-95847014D02*
X142548073Y-95847014D01*
X141905216Y-96347014D02*
X141905216Y-97347014D01*
X141905216Y-96489871D02*
X141833787Y-96418443D01*
X141833787Y-96418443D02*
X141690930Y-96347014D01*
X141690930Y-96347014D02*
X141476644Y-96347014D01*
X141476644Y-96347014D02*
X141333787Y-96418443D01*
X141333787Y-96418443D02*
X141262359Y-96561300D01*
X141262359Y-96561300D02*
X141262359Y-97347014D01*
X139905216Y-96347014D02*
X139905216Y-97561300D01*
X139905216Y-97561300D02*
X139976644Y-97704157D01*
X139976644Y-97704157D02*
X140048073Y-97775586D01*
X140048073Y-97775586D02*
X140190930Y-97847014D01*
X140190930Y-97847014D02*
X140405216Y-97847014D01*
X140405216Y-97847014D02*
X140548073Y-97775586D01*
X139905216Y-97275586D02*
X140048073Y-97347014D01*
X140048073Y-97347014D02*
X140333787Y-97347014D01*
X140333787Y-97347014D02*
X140476644Y-97275586D01*
X140476644Y-97275586D02*
X140548073Y-97204157D01*
X140548073Y-97204157D02*
X140619501Y-97061300D01*
X140619501Y-97061300D02*
X140619501Y-96632728D01*
X140619501Y-96632728D02*
X140548073Y-96489871D01*
X140548073Y-96489871D02*
X140476644Y-96418443D01*
X140476644Y-96418443D02*
X140333787Y-96347014D01*
X140333787Y-96347014D02*
X140048073Y-96347014D01*
X140048073Y-96347014D02*
X139905216Y-96418443D01*
X139190930Y-97347014D02*
X139190930Y-96347014D01*
X139190930Y-95847014D02*
X139262358Y-95918443D01*
X139262358Y-95918443D02*
X139190930Y-95989871D01*
X139190930Y-95989871D02*
X139119501Y-95918443D01*
X139119501Y-95918443D02*
X139190930Y-95847014D01*
X139190930Y-95847014D02*
X139190930Y-95989871D01*
X138476644Y-96347014D02*
X138476644Y-97347014D01*
X138476644Y-96489871D02*
X138405215Y-96418443D01*
X138405215Y-96418443D02*
X138262358Y-96347014D01*
X138262358Y-96347014D02*
X138048072Y-96347014D01*
X138048072Y-96347014D02*
X137905215Y-96418443D01*
X137905215Y-96418443D02*
X137833787Y-96561300D01*
X137833787Y-96561300D02*
X137833787Y-97347014D01*
X136548072Y-97275586D02*
X136690929Y-97347014D01*
X136690929Y-97347014D02*
X136976644Y-97347014D01*
X136976644Y-97347014D02*
X137119501Y-97275586D01*
X137119501Y-97275586D02*
X137190929Y-97132728D01*
X137190929Y-97132728D02*
X137190929Y-96561300D01*
X137190929Y-96561300D02*
X137119501Y-96418443D01*
X137119501Y-96418443D02*
X136976644Y-96347014D01*
X136976644Y-96347014D02*
X136690929Y-96347014D01*
X136690929Y-96347014D02*
X136548072Y-96418443D01*
X136548072Y-96418443D02*
X136476644Y-96561300D01*
X136476644Y-96561300D02*
X136476644Y-96704157D01*
X136476644Y-96704157D02*
X137190929Y-96847014D01*
X133833787Y-97204157D02*
X133905215Y-97275586D01*
X133905215Y-97275586D02*
X134119501Y-97347014D01*
X134119501Y-97347014D02*
X134262358Y-97347014D01*
X134262358Y-97347014D02*
X134476644Y-97275586D01*
X134476644Y-97275586D02*
X134619501Y-97132728D01*
X134619501Y-97132728D02*
X134690930Y-96989871D01*
X134690930Y-96989871D02*
X134762358Y-96704157D01*
X134762358Y-96704157D02*
X134762358Y-96489871D01*
X134762358Y-96489871D02*
X134690930Y-96204157D01*
X134690930Y-96204157D02*
X134619501Y-96061300D01*
X134619501Y-96061300D02*
X134476644Y-95918443D01*
X134476644Y-95918443D02*
X134262358Y-95847014D01*
X134262358Y-95847014D02*
X134119501Y-95847014D01*
X134119501Y-95847014D02*
X133905215Y-95918443D01*
X133905215Y-95918443D02*
X133833787Y-95989871D01*
X133190930Y-97347014D02*
X133190930Y-95847014D01*
X133190930Y-95847014D02*
X132833787Y-95847014D01*
X132833787Y-95847014D02*
X132619501Y-95918443D01*
X132619501Y-95918443D02*
X132476644Y-96061300D01*
X132476644Y-96061300D02*
X132405215Y-96204157D01*
X132405215Y-96204157D02*
X132333787Y-96489871D01*
X132333787Y-96489871D02*
X132333787Y-96704157D01*
X132333787Y-96704157D02*
X132405215Y-96989871D01*
X132405215Y-96989871D02*
X132476644Y-97132728D01*
X132476644Y-97132728D02*
X132619501Y-97275586D01*
X132619501Y-97275586D02*
X132833787Y-97347014D01*
X132833787Y-97347014D02*
X133190930Y-97347014D01*
X130833787Y-97347014D02*
X131333787Y-96632728D01*
X131690930Y-97347014D02*
X131690930Y-95847014D01*
X131690930Y-95847014D02*
X131119501Y-95847014D01*
X131119501Y-95847014D02*
X130976644Y-95918443D01*
X130976644Y-95918443D02*
X130905215Y-95989871D01*
X130905215Y-95989871D02*
X130833787Y-96132728D01*
X130833787Y-96132728D02*
X130833787Y-96347014D01*
X130833787Y-96347014D02*
X130905215Y-96489871D01*
X130905215Y-96489871D02*
X130976644Y-96561300D01*
X130976644Y-96561300D02*
X131119501Y-96632728D01*
X131119501Y-96632728D02*
X131690930Y-96632728D01*
X130190930Y-96775586D02*
X129048073Y-96775586D01*
X128476644Y-95847014D02*
X127548072Y-95847014D01*
X127548072Y-95847014D02*
X128048072Y-96418443D01*
X128048072Y-96418443D02*
X127833787Y-96418443D01*
X127833787Y-96418443D02*
X127690930Y-96489871D01*
X127690930Y-96489871D02*
X127619501Y-96561300D01*
X127619501Y-96561300D02*
X127548072Y-96704157D01*
X127548072Y-96704157D02*
X127548072Y-97061300D01*
X127548072Y-97061300D02*
X127619501Y-97204157D01*
X127619501Y-97204157D02*
X127690930Y-97275586D01*
X127690930Y-97275586D02*
X127833787Y-97347014D01*
X127833787Y-97347014D02*
X128262358Y-97347014D01*
X128262358Y-97347014D02*
X128405215Y-97275586D01*
X128405215Y-97275586D02*
X128476644Y-97204157D01*
X126619501Y-95847014D02*
X126476644Y-95847014D01*
X126476644Y-95847014D02*
X126333787Y-95918443D01*
X126333787Y-95918443D02*
X126262359Y-95989871D01*
X126262359Y-95989871D02*
X126190930Y-96132728D01*
X126190930Y-96132728D02*
X126119501Y-96418443D01*
X126119501Y-96418443D02*
X126119501Y-96775586D01*
X126119501Y-96775586D02*
X126190930Y-97061300D01*
X126190930Y-97061300D02*
X126262359Y-97204157D01*
X126262359Y-97204157D02*
X126333787Y-97275586D01*
X126333787Y-97275586D02*
X126476644Y-97347014D01*
X126476644Y-97347014D02*
X126619501Y-97347014D01*
X126619501Y-97347014D02*
X126762359Y-97275586D01*
X126762359Y-97275586D02*
X126833787Y-97204157D01*
X126833787Y-97204157D02*
X126905216Y-97061300D01*
X126905216Y-97061300D02*
X126976644Y-96775586D01*
X126976644Y-96775586D02*
X126976644Y-96418443D01*
X126976644Y-96418443D02*
X126905216Y-96132728D01*
X126905216Y-96132728D02*
X126833787Y-95989871D01*
X126833787Y-95989871D02*
X126762359Y-95918443D01*
X126762359Y-95918443D02*
X126619501Y-95847014D01*
X125548073Y-96918443D02*
X124833788Y-96918443D01*
X125690930Y-97347014D02*
X125190930Y-95847014D01*
X125190930Y-95847014D02*
X124690930Y-97347014D01*
X122619502Y-97918443D02*
X122690931Y-97847014D01*
X122690931Y-97847014D02*
X122833788Y-97632728D01*
X122833788Y-97632728D02*
X122905217Y-97489871D01*
X122905217Y-97489871D02*
X122976645Y-97275586D01*
X122976645Y-97275586D02*
X123048074Y-96918443D01*
X123048074Y-96918443D02*
X123048074Y-96632728D01*
X123048074Y-96632728D02*
X122976645Y-96275586D01*
X122976645Y-96275586D02*
X122905217Y-96061300D01*
X122905217Y-96061300D02*
X122833788Y-95918443D01*
X122833788Y-95918443D02*
X122690931Y-95704157D01*
X122690931Y-95704157D02*
X122619502Y-95632728D01*
X121190931Y-97204157D02*
X121262359Y-97275586D01*
X121262359Y-97275586D02*
X121476645Y-97347014D01*
X121476645Y-97347014D02*
X121619502Y-97347014D01*
X121619502Y-97347014D02*
X121833788Y-97275586D01*
X121833788Y-97275586D02*
X121976645Y-97132728D01*
X121976645Y-97132728D02*
X122048074Y-96989871D01*
X122048074Y-96989871D02*
X122119502Y-96704157D01*
X122119502Y-96704157D02*
X122119502Y-96489871D01*
X122119502Y-96489871D02*
X122048074Y-96204157D01*
X122048074Y-96204157D02*
X121976645Y-96061300D01*
X121976645Y-96061300D02*
X121833788Y-95918443D01*
X121833788Y-95918443D02*
X121619502Y-95847014D01*
X121619502Y-95847014D02*
X121476645Y-95847014D01*
X121476645Y-95847014D02*
X121262359Y-95918443D01*
X121262359Y-95918443D02*
X121190931Y-95989871D01*
X120548074Y-97347014D02*
X120548074Y-95847014D01*
X120548074Y-95847014D02*
X120190931Y-95847014D01*
X120190931Y-95847014D02*
X119976645Y-95918443D01*
X119976645Y-95918443D02*
X119833788Y-96061300D01*
X119833788Y-96061300D02*
X119762359Y-96204157D01*
X119762359Y-96204157D02*
X119690931Y-96489871D01*
X119690931Y-96489871D02*
X119690931Y-96704157D01*
X119690931Y-96704157D02*
X119762359Y-96989871D01*
X119762359Y-96989871D02*
X119833788Y-97132728D01*
X119833788Y-97132728D02*
X119976645Y-97275586D01*
X119976645Y-97275586D02*
X120190931Y-97347014D01*
X120190931Y-97347014D02*
X120548074Y-97347014D01*
X119048074Y-96775586D02*
X117905217Y-96775586D01*
X116333788Y-97347014D02*
X116833788Y-96632728D01*
X117190931Y-97347014D02*
X117190931Y-95847014D01*
X117190931Y-95847014D02*
X116619502Y-95847014D01*
X116619502Y-95847014D02*
X116476645Y-95918443D01*
X116476645Y-95918443D02*
X116405216Y-95989871D01*
X116405216Y-95989871D02*
X116333788Y-96132728D01*
X116333788Y-96132728D02*
X116333788Y-96347014D01*
X116333788Y-96347014D02*
X116405216Y-96489871D01*
X116405216Y-96489871D02*
X116476645Y-96561300D01*
X116476645Y-96561300D02*
X116619502Y-96632728D01*
X116619502Y-96632728D02*
X117190931Y-96632728D01*
X115405216Y-95847014D02*
X115119502Y-95847014D01*
X115119502Y-95847014D02*
X114976645Y-95918443D01*
X114976645Y-95918443D02*
X114833788Y-96061300D01*
X114833788Y-96061300D02*
X114762359Y-96347014D01*
X114762359Y-96347014D02*
X114762359Y-96847014D01*
X114762359Y-96847014D02*
X114833788Y-97132728D01*
X114833788Y-97132728D02*
X114976645Y-97275586D01*
X114976645Y-97275586D02*
X115119502Y-97347014D01*
X115119502Y-97347014D02*
X115405216Y-97347014D01*
X115405216Y-97347014D02*
X115548074Y-97275586D01*
X115548074Y-97275586D02*
X115690931Y-97132728D01*
X115690931Y-97132728D02*
X115762359Y-96847014D01*
X115762359Y-96847014D02*
X115762359Y-96347014D01*
X115762359Y-96347014D02*
X115690931Y-96061300D01*
X115690931Y-96061300D02*
X115548074Y-95918443D01*
X115548074Y-95918443D02*
X115405216Y-95847014D01*
X114119502Y-97347014D02*
X114119502Y-95847014D01*
X114119502Y-95847014D02*
X113619502Y-96918443D01*
X113619502Y-96918443D02*
X113119502Y-95847014D01*
X113119502Y-95847014D02*
X113119502Y-97347014D01*
X112476644Y-95989871D02*
X112405216Y-95918443D01*
X112405216Y-95918443D02*
X112262359Y-95847014D01*
X112262359Y-95847014D02*
X111905216Y-95847014D01*
X111905216Y-95847014D02*
X111762359Y-95918443D01*
X111762359Y-95918443D02*
X111690930Y-95989871D01*
X111690930Y-95989871D02*
X111619501Y-96132728D01*
X111619501Y-96132728D02*
X111619501Y-96275586D01*
X111619501Y-96275586D02*
X111690930Y-96489871D01*
X111690930Y-96489871D02*
X112548073Y-97347014D01*
X112548073Y-97347014D02*
X111619501Y-97347014D01*
X111119502Y-97918443D02*
X111048073Y-97847014D01*
X111048073Y-97847014D02*
X110905216Y-97632728D01*
X110905216Y-97632728D02*
X110833788Y-97489871D01*
X110833788Y-97489871D02*
X110762359Y-97275586D01*
X110762359Y-97275586D02*
X110690930Y-96918443D01*
X110690930Y-96918443D02*
X110690930Y-96632728D01*
X110690930Y-96632728D02*
X110762359Y-96275586D01*
X110762359Y-96275586D02*
X110833788Y-96061300D01*
X110833788Y-96061300D02*
X110905216Y-95918443D01*
X110905216Y-95918443D02*
X111048073Y-95704157D01*
X111048073Y-95704157D02*
X111119502Y-95632728D01*
X108833788Y-97347014D02*
X108833788Y-95847014D01*
X108833788Y-95847014D02*
X108333788Y-96918443D01*
X108333788Y-96918443D02*
X107833788Y-95847014D01*
X107833788Y-95847014D02*
X107833788Y-97347014D01*
X107190930Y-96918443D02*
X106476645Y-96918443D01*
X107333787Y-97347014D02*
X106833787Y-95847014D01*
X106833787Y-95847014D02*
X106333787Y-97347014D01*
X105833788Y-97347014D02*
X105833788Y-95847014D01*
X105119502Y-97347014D02*
X105119502Y-95847014D01*
X105119502Y-95847014D02*
X104262359Y-97347014D01*
X104262359Y-97347014D02*
X104262359Y-95847014D01*
X102405216Y-97347014D02*
X102405216Y-95847014D01*
X102405216Y-95847014D02*
X101833787Y-95847014D01*
X101833787Y-95847014D02*
X101690930Y-95918443D01*
X101690930Y-95918443D02*
X101619501Y-95989871D01*
X101619501Y-95989871D02*
X101548073Y-96132728D01*
X101548073Y-96132728D02*
X101548073Y-96347014D01*
X101548073Y-96347014D02*
X101619501Y-96489871D01*
X101619501Y-96489871D02*
X101690930Y-96561300D01*
X101690930Y-96561300D02*
X101833787Y-96632728D01*
X101833787Y-96632728D02*
X102405216Y-96632728D01*
X101048073Y-95847014D02*
X100690930Y-97347014D01*
X100690930Y-97347014D02*
X100405216Y-96275586D01*
X100405216Y-96275586D02*
X100119501Y-97347014D01*
X100119501Y-97347014D02*
X99762359Y-95847014D01*
X98333787Y-97347014D02*
X98833787Y-96632728D01*
X99190930Y-97347014D02*
X99190930Y-95847014D01*
X99190930Y-95847014D02*
X98619501Y-95847014D01*
X98619501Y-95847014D02*
X98476644Y-95918443D01*
X98476644Y-95918443D02*
X98405215Y-95989871D01*
X98405215Y-95989871D02*
X98333787Y-96132728D01*
X98333787Y-96132728D02*
X98333787Y-96347014D01*
X98333787Y-96347014D02*
X98405215Y-96489871D01*
X98405215Y-96489871D02*
X98476644Y-96561300D01*
X98476644Y-96561300D02*
X98619501Y-96632728D01*
X98619501Y-96632728D02*
X99190930Y-96632728D01*
X95690930Y-97347014D02*
X96190930Y-96632728D01*
X96548073Y-97347014D02*
X96548073Y-95847014D01*
X96548073Y-95847014D02*
X95976644Y-95847014D01*
X95976644Y-95847014D02*
X95833787Y-95918443D01*
X95833787Y-95918443D02*
X95762358Y-95989871D01*
X95762358Y-95989871D02*
X95690930Y-96132728D01*
X95690930Y-96132728D02*
X95690930Y-96347014D01*
X95690930Y-96347014D02*
X95762358Y-96489871D01*
X95762358Y-96489871D02*
X95833787Y-96561300D01*
X95833787Y-96561300D02*
X95976644Y-96632728D01*
X95976644Y-96632728D02*
X96548073Y-96632728D01*
X94476644Y-97275586D02*
X94619501Y-97347014D01*
X94619501Y-97347014D02*
X94905216Y-97347014D01*
X94905216Y-97347014D02*
X95048073Y-97275586D01*
X95048073Y-97275586D02*
X95119501Y-97132728D01*
X95119501Y-97132728D02*
X95119501Y-96561300D01*
X95119501Y-96561300D02*
X95048073Y-96418443D01*
X95048073Y-96418443D02*
X94905216Y-96347014D01*
X94905216Y-96347014D02*
X94619501Y-96347014D01*
X94619501Y-96347014D02*
X94476644Y-96418443D01*
X94476644Y-96418443D02*
X94405216Y-96561300D01*
X94405216Y-96561300D02*
X94405216Y-96704157D01*
X94405216Y-96704157D02*
X95119501Y-96847014D01*
X93762359Y-96347014D02*
X93762359Y-97847014D01*
X93762359Y-96418443D02*
X93619502Y-96347014D01*
X93619502Y-96347014D02*
X93333787Y-96347014D01*
X93333787Y-96347014D02*
X93190930Y-96418443D01*
X93190930Y-96418443D02*
X93119502Y-96489871D01*
X93119502Y-96489871D02*
X93048073Y-96632728D01*
X93048073Y-96632728D02*
X93048073Y-97061300D01*
X93048073Y-97061300D02*
X93119502Y-97204157D01*
X93119502Y-97204157D02*
X93190930Y-97275586D01*
X93190930Y-97275586D02*
X93333787Y-97347014D01*
X93333787Y-97347014D02*
X93619502Y-97347014D01*
X93619502Y-97347014D02*
X93762359Y-97275586D01*
X92405216Y-97347014D02*
X92405216Y-96347014D01*
X92405216Y-96632728D02*
X92333787Y-96489871D01*
X92333787Y-96489871D02*
X92262359Y-96418443D01*
X92262359Y-96418443D02*
X92119501Y-96347014D01*
X92119501Y-96347014D02*
X91976644Y-96347014D01*
X91262359Y-97347014D02*
X91405216Y-97275586D01*
X91405216Y-97275586D02*
X91476645Y-97204157D01*
X91476645Y-97204157D02*
X91548073Y-97061300D01*
X91548073Y-97061300D02*
X91548073Y-96632728D01*
X91548073Y-96632728D02*
X91476645Y-96489871D01*
X91476645Y-96489871D02*
X91405216Y-96418443D01*
X91405216Y-96418443D02*
X91262359Y-96347014D01*
X91262359Y-96347014D02*
X91048073Y-96347014D01*
X91048073Y-96347014D02*
X90905216Y-96418443D01*
X90905216Y-96418443D02*
X90833788Y-96489871D01*
X90833788Y-96489871D02*
X90762359Y-96632728D01*
X90762359Y-96632728D02*
X90762359Y-97061300D01*
X90762359Y-97061300D02*
X90833788Y-97204157D01*
X90833788Y-97204157D02*
X90905216Y-97275586D01*
X90905216Y-97275586D02*
X91048073Y-97347014D01*
X91048073Y-97347014D02*
X91262359Y-97347014D01*
X89476645Y-97347014D02*
X89476645Y-95847014D01*
X89476645Y-97275586D02*
X89619502Y-97347014D01*
X89619502Y-97347014D02*
X89905216Y-97347014D01*
X89905216Y-97347014D02*
X90048073Y-97275586D01*
X90048073Y-97275586D02*
X90119502Y-97204157D01*
X90119502Y-97204157D02*
X90190930Y-97061300D01*
X90190930Y-97061300D02*
X90190930Y-96632728D01*
X90190930Y-96632728D02*
X90119502Y-96489871D01*
X90119502Y-96489871D02*
X90048073Y-96418443D01*
X90048073Y-96418443D02*
X89905216Y-96347014D01*
X89905216Y-96347014D02*
X89619502Y-96347014D01*
X89619502Y-96347014D02*
X89476645Y-96418443D01*
X88119502Y-96347014D02*
X88119502Y-97347014D01*
X88762359Y-96347014D02*
X88762359Y-97132728D01*
X88762359Y-97132728D02*
X88690930Y-97275586D01*
X88690930Y-97275586D02*
X88548073Y-97347014D01*
X88548073Y-97347014D02*
X88333787Y-97347014D01*
X88333787Y-97347014D02*
X88190930Y-97275586D01*
X88190930Y-97275586D02*
X88119502Y-97204157D01*
X86762359Y-97275586D02*
X86905216Y-97347014D01*
X86905216Y-97347014D02*
X87190930Y-97347014D01*
X87190930Y-97347014D02*
X87333787Y-97275586D01*
X87333787Y-97275586D02*
X87405216Y-97204157D01*
X87405216Y-97204157D02*
X87476644Y-97061300D01*
X87476644Y-97061300D02*
X87476644Y-96632728D01*
X87476644Y-96632728D02*
X87405216Y-96489871D01*
X87405216Y-96489871D02*
X87333787Y-96418443D01*
X87333787Y-96418443D02*
X87190930Y-96347014D01*
X87190930Y-96347014D02*
X86905216Y-96347014D01*
X86905216Y-96347014D02*
X86762359Y-96418443D01*
X86333787Y-96347014D02*
X85762359Y-96347014D01*
X86119502Y-95847014D02*
X86119502Y-97132728D01*
X86119502Y-97132728D02*
X86048073Y-97275586D01*
X86048073Y-97275586D02*
X85905216Y-97347014D01*
X85905216Y-97347014D02*
X85762359Y-97347014D01*
X85262359Y-97347014D02*
X85262359Y-96347014D01*
X85262359Y-95847014D02*
X85333787Y-95918443D01*
X85333787Y-95918443D02*
X85262359Y-95989871D01*
X85262359Y-95989871D02*
X85190930Y-95918443D01*
X85190930Y-95918443D02*
X85262359Y-95847014D01*
X85262359Y-95847014D02*
X85262359Y-95989871D01*
X84333787Y-97347014D02*
X84476644Y-97275586D01*
X84476644Y-97275586D02*
X84548073Y-97204157D01*
X84548073Y-97204157D02*
X84619501Y-97061300D01*
X84619501Y-97061300D02*
X84619501Y-96632728D01*
X84619501Y-96632728D02*
X84548073Y-96489871D01*
X84548073Y-96489871D02*
X84476644Y-96418443D01*
X84476644Y-96418443D02*
X84333787Y-96347014D01*
X84333787Y-96347014D02*
X84119501Y-96347014D01*
X84119501Y-96347014D02*
X83976644Y-96418443D01*
X83976644Y-96418443D02*
X83905216Y-96489871D01*
X83905216Y-96489871D02*
X83833787Y-96632728D01*
X83833787Y-96632728D02*
X83833787Y-97061300D01*
X83833787Y-97061300D02*
X83905216Y-97204157D01*
X83905216Y-97204157D02*
X83976644Y-97275586D01*
X83976644Y-97275586D02*
X84119501Y-97347014D01*
X84119501Y-97347014D02*
X84333787Y-97347014D01*
X83190930Y-96347014D02*
X83190930Y-97347014D01*
X83190930Y-96489871D02*
X83119501Y-96418443D01*
X83119501Y-96418443D02*
X82976644Y-96347014D01*
X82976644Y-96347014D02*
X82762358Y-96347014D01*
X82762358Y-96347014D02*
X82619501Y-96418443D01*
X82619501Y-96418443D02*
X82548073Y-96561300D01*
X82548073Y-96561300D02*
X82548073Y-97347014D01*
X147262359Y-99761930D02*
X147762359Y-99047644D01*
X148119502Y-99761930D02*
X148119502Y-98261930D01*
X148119502Y-98261930D02*
X147548073Y-98261930D01*
X147548073Y-98261930D02*
X147405216Y-98333359D01*
X147405216Y-98333359D02*
X147333787Y-98404787D01*
X147333787Y-98404787D02*
X147262359Y-98547644D01*
X147262359Y-98547644D02*
X147262359Y-98761930D01*
X147262359Y-98761930D02*
X147333787Y-98904787D01*
X147333787Y-98904787D02*
X147405216Y-98976216D01*
X147405216Y-98976216D02*
X147548073Y-99047644D01*
X147548073Y-99047644D02*
X148119502Y-99047644D01*
X146048073Y-99690502D02*
X146190930Y-99761930D01*
X146190930Y-99761930D02*
X146476645Y-99761930D01*
X146476645Y-99761930D02*
X146619502Y-99690502D01*
X146619502Y-99690502D02*
X146690930Y-99547644D01*
X146690930Y-99547644D02*
X146690930Y-98976216D01*
X146690930Y-98976216D02*
X146619502Y-98833359D01*
X146619502Y-98833359D02*
X146476645Y-98761930D01*
X146476645Y-98761930D02*
X146190930Y-98761930D01*
X146190930Y-98761930D02*
X146048073Y-98833359D01*
X146048073Y-98833359D02*
X145976645Y-98976216D01*
X145976645Y-98976216D02*
X145976645Y-99119073D01*
X145976645Y-99119073D02*
X146690930Y-99261930D01*
X145476645Y-98761930D02*
X145119502Y-99761930D01*
X145119502Y-99761930D02*
X144762359Y-98761930D01*
X143905216Y-98261930D02*
X143762359Y-98261930D01*
X143762359Y-98261930D02*
X143619502Y-98333359D01*
X143619502Y-98333359D02*
X143548074Y-98404787D01*
X143548074Y-98404787D02*
X143476645Y-98547644D01*
X143476645Y-98547644D02*
X143405216Y-98833359D01*
X143405216Y-98833359D02*
X143405216Y-99190502D01*
X143405216Y-99190502D02*
X143476645Y-99476216D01*
X143476645Y-99476216D02*
X143548074Y-99619073D01*
X143548074Y-99619073D02*
X143619502Y-99690502D01*
X143619502Y-99690502D02*
X143762359Y-99761930D01*
X143762359Y-99761930D02*
X143905216Y-99761930D01*
X143905216Y-99761930D02*
X144048074Y-99690502D01*
X144048074Y-99690502D02*
X144119502Y-99619073D01*
X144119502Y-99619073D02*
X144190931Y-99476216D01*
X144190931Y-99476216D02*
X144262359Y-99190502D01*
X144262359Y-99190502D02*
X144262359Y-98833359D01*
X144262359Y-98833359D02*
X144190931Y-98547644D01*
X144190931Y-98547644D02*
X144119502Y-98404787D01*
X144119502Y-98404787D02*
X144048074Y-98333359D01*
X144048074Y-98333359D02*
X143905216Y-98261930D01*
X142762360Y-99619073D02*
X142690931Y-99690502D01*
X142690931Y-99690502D02*
X142762360Y-99761930D01*
X142762360Y-99761930D02*
X142833788Y-99690502D01*
X142833788Y-99690502D02*
X142762360Y-99619073D01*
X142762360Y-99619073D02*
X142762360Y-99761930D01*
X141262359Y-99761930D02*
X142119502Y-99761930D01*
X141690931Y-99761930D02*
X141690931Y-98261930D01*
X141690931Y-98261930D02*
X141833788Y-98476216D01*
X141833788Y-98476216D02*
X141976645Y-98619073D01*
X141976645Y-98619073D02*
X142119502Y-98690502D01*
X148119502Y-102176846D02*
X148119502Y-100676846D01*
X148119502Y-100676846D02*
X147548073Y-100676846D01*
X147548073Y-100676846D02*
X147405216Y-100748275D01*
X147405216Y-100748275D02*
X147333787Y-100819703D01*
X147333787Y-100819703D02*
X147262359Y-100962560D01*
X147262359Y-100962560D02*
X147262359Y-101176846D01*
X147262359Y-101176846D02*
X147333787Y-101319703D01*
X147333787Y-101319703D02*
X147405216Y-101391132D01*
X147405216Y-101391132D02*
X147548073Y-101462560D01*
X147548073Y-101462560D02*
X148119502Y-101462560D01*
X146405216Y-102176846D02*
X146548073Y-102105418D01*
X146548073Y-102105418D02*
X146619502Y-102033989D01*
X146619502Y-102033989D02*
X146690930Y-101891132D01*
X146690930Y-101891132D02*
X146690930Y-101462560D01*
X146690930Y-101462560D02*
X146619502Y-101319703D01*
X146619502Y-101319703D02*
X146548073Y-101248275D01*
X146548073Y-101248275D02*
X146405216Y-101176846D01*
X146405216Y-101176846D02*
X146190930Y-101176846D01*
X146190930Y-101176846D02*
X146048073Y-101248275D01*
X146048073Y-101248275D02*
X145976645Y-101319703D01*
X145976645Y-101319703D02*
X145905216Y-101462560D01*
X145905216Y-101462560D02*
X145905216Y-101891132D01*
X145905216Y-101891132D02*
X145976645Y-102033989D01*
X145976645Y-102033989D02*
X146048073Y-102105418D01*
X146048073Y-102105418D02*
X146190930Y-102176846D01*
X146190930Y-102176846D02*
X146405216Y-102176846D01*
X145048073Y-102176846D02*
X145190930Y-102105418D01*
X145190930Y-102105418D02*
X145262359Y-101962560D01*
X145262359Y-101962560D02*
X145262359Y-100676846D01*
X144619502Y-101176846D02*
X144262359Y-102176846D01*
X143905216Y-101176846D02*
X144262359Y-102176846D01*
X144262359Y-102176846D02*
X144405216Y-102533989D01*
X144405216Y-102533989D02*
X144476645Y-102605418D01*
X144476645Y-102605418D02*
X144619502Y-102676846D01*
X143333788Y-102176846D02*
X143333788Y-100676846D01*
X143190931Y-101605418D02*
X142762359Y-102176846D01*
X142762359Y-101176846D02*
X143333788Y-101748275D01*
X141476645Y-101176846D02*
X141476645Y-102176846D01*
X142119502Y-101176846D02*
X142119502Y-101962560D01*
X142119502Y-101962560D02*
X142048073Y-102105418D01*
X142048073Y-102105418D02*
X141905216Y-102176846D01*
X141905216Y-102176846D02*
X141690930Y-102176846D01*
X141690930Y-102176846D02*
X141548073Y-102105418D01*
X141548073Y-102105418D02*
X141476645Y-102033989D01*
X140762359Y-102176846D02*
X140762359Y-100676846D01*
X140762359Y-101248275D02*
X140619502Y-101176846D01*
X140619502Y-101176846D02*
X140333787Y-101176846D01*
X140333787Y-101176846D02*
X140190930Y-101248275D01*
X140190930Y-101248275D02*
X140119502Y-101319703D01*
X140119502Y-101319703D02*
X140048073Y-101462560D01*
X140048073Y-101462560D02*
X140048073Y-101891132D01*
X140048073Y-101891132D02*
X140119502Y-102033989D01*
X140119502Y-102033989D02*
X140190930Y-102105418D01*
X140190930Y-102105418D02*
X140333787Y-102176846D01*
X140333787Y-102176846D02*
X140619502Y-102176846D01*
X140619502Y-102176846D02*
X140762359Y-102105418D01*
X139190930Y-102176846D02*
X139333787Y-102105418D01*
X139333787Y-102105418D02*
X139405216Y-102033989D01*
X139405216Y-102033989D02*
X139476644Y-101891132D01*
X139476644Y-101891132D02*
X139476644Y-101462560D01*
X139476644Y-101462560D02*
X139405216Y-101319703D01*
X139405216Y-101319703D02*
X139333787Y-101248275D01*
X139333787Y-101248275D02*
X139190930Y-101176846D01*
X139190930Y-101176846D02*
X138976644Y-101176846D01*
X138976644Y-101176846D02*
X138833787Y-101248275D01*
X138833787Y-101248275D02*
X138762359Y-101319703D01*
X138762359Y-101319703D02*
X138690930Y-101462560D01*
X138690930Y-101462560D02*
X138690930Y-101891132D01*
X138690930Y-101891132D02*
X138762359Y-102033989D01*
X138762359Y-102033989D02*
X138833787Y-102105418D01*
X138833787Y-102105418D02*
X138976644Y-102176846D01*
X138976644Y-102176846D02*
X139190930Y-102176846D01*
X138119501Y-102105418D02*
X137976644Y-102176846D01*
X137976644Y-102176846D02*
X137690930Y-102176846D01*
X137690930Y-102176846D02*
X137548073Y-102105418D01*
X137548073Y-102105418D02*
X137476644Y-101962560D01*
X137476644Y-101962560D02*
X137476644Y-101891132D01*
X137476644Y-101891132D02*
X137548073Y-101748275D01*
X137548073Y-101748275D02*
X137690930Y-101676846D01*
X137690930Y-101676846D02*
X137905216Y-101676846D01*
X137905216Y-101676846D02*
X138048073Y-101605418D01*
X138048073Y-101605418D02*
X138119501Y-101462560D01*
X138119501Y-101462560D02*
X138119501Y-101391132D01*
X138119501Y-101391132D02*
X138048073Y-101248275D01*
X138048073Y-101248275D02*
X137905216Y-101176846D01*
X137905216Y-101176846D02*
X137690930Y-101176846D01*
X137690930Y-101176846D02*
X137548073Y-101248275D01*
X148190930Y-104163191D02*
X147476645Y-104163191D01*
X148333787Y-104591762D02*
X147833787Y-103091762D01*
X147833787Y-103091762D02*
X147333787Y-104591762D01*
X146190931Y-103591762D02*
X146190931Y-104591762D01*
X146833788Y-103591762D02*
X146833788Y-104377476D01*
X146833788Y-104377476D02*
X146762359Y-104520334D01*
X146762359Y-104520334D02*
X146619502Y-104591762D01*
X146619502Y-104591762D02*
X146405216Y-104591762D01*
X146405216Y-104591762D02*
X146262359Y-104520334D01*
X146262359Y-104520334D02*
X146190931Y-104448905D01*
X145690930Y-103591762D02*
X145119502Y-103591762D01*
X145476645Y-103091762D02*
X145476645Y-104377476D01*
X145476645Y-104377476D02*
X145405216Y-104520334D01*
X145405216Y-104520334D02*
X145262359Y-104591762D01*
X145262359Y-104591762D02*
X145119502Y-104591762D01*
X144619502Y-104591762D02*
X144619502Y-103091762D01*
X143976645Y-104591762D02*
X143976645Y-103806048D01*
X143976645Y-103806048D02*
X144048073Y-103663191D01*
X144048073Y-103663191D02*
X144190930Y-103591762D01*
X144190930Y-103591762D02*
X144405216Y-103591762D01*
X144405216Y-103591762D02*
X144548073Y-103663191D01*
X144548073Y-103663191D02*
X144619502Y-103734619D01*
X143048073Y-104591762D02*
X143190930Y-104520334D01*
X143190930Y-104520334D02*
X143262359Y-104448905D01*
X143262359Y-104448905D02*
X143333787Y-104306048D01*
X143333787Y-104306048D02*
X143333787Y-103877476D01*
X143333787Y-103877476D02*
X143262359Y-103734619D01*
X143262359Y-103734619D02*
X143190930Y-103663191D01*
X143190930Y-103663191D02*
X143048073Y-103591762D01*
X143048073Y-103591762D02*
X142833787Y-103591762D01*
X142833787Y-103591762D02*
X142690930Y-103663191D01*
X142690930Y-103663191D02*
X142619502Y-103734619D01*
X142619502Y-103734619D02*
X142548073Y-103877476D01*
X142548073Y-103877476D02*
X142548073Y-104306048D01*
X142548073Y-104306048D02*
X142619502Y-104448905D01*
X142619502Y-104448905D02*
X142690930Y-104520334D01*
X142690930Y-104520334D02*
X142833787Y-104591762D01*
X142833787Y-104591762D02*
X143048073Y-104591762D01*
X141905216Y-104591762D02*
X141905216Y-103591762D01*
X141905216Y-103877476D02*
X141833787Y-103734619D01*
X141833787Y-103734619D02*
X141762359Y-103663191D01*
X141762359Y-103663191D02*
X141619501Y-103591762D01*
X141619501Y-103591762D02*
X141476644Y-103591762D01*
X140976645Y-104448905D02*
X140905216Y-104520334D01*
X140905216Y-104520334D02*
X140976645Y-104591762D01*
X140976645Y-104591762D02*
X141048073Y-104520334D01*
X141048073Y-104520334D02*
X140976645Y-104448905D01*
X140976645Y-104448905D02*
X140976645Y-104591762D01*
X140976645Y-103663191D02*
X140905216Y-103734619D01*
X140905216Y-103734619D02*
X140976645Y-103806048D01*
X140976645Y-103806048D02*
X141048073Y-103734619D01*
X141048073Y-103734619D02*
X140976645Y-103663191D01*
X140976645Y-103663191D02*
X140976645Y-103806048D01*
X138262359Y-104591762D02*
X138762359Y-103877476D01*
X139119502Y-104591762D02*
X139119502Y-103091762D01*
X139119502Y-103091762D02*
X138548073Y-103091762D01*
X138548073Y-103091762D02*
X138405216Y-103163191D01*
X138405216Y-103163191D02*
X138333787Y-103234619D01*
X138333787Y-103234619D02*
X138262359Y-103377476D01*
X138262359Y-103377476D02*
X138262359Y-103591762D01*
X138262359Y-103591762D02*
X138333787Y-103734619D01*
X138333787Y-103734619D02*
X138405216Y-103806048D01*
X138405216Y-103806048D02*
X138548073Y-103877476D01*
X138548073Y-103877476D02*
X139119502Y-103877476D01*
X137048073Y-104520334D02*
X137190930Y-104591762D01*
X137190930Y-104591762D02*
X137476645Y-104591762D01*
X137476645Y-104591762D02*
X137619502Y-104520334D01*
X137619502Y-104520334D02*
X137690930Y-104377476D01*
X137690930Y-104377476D02*
X137690930Y-103806048D01*
X137690930Y-103806048D02*
X137619502Y-103663191D01*
X137619502Y-103663191D02*
X137476645Y-103591762D01*
X137476645Y-103591762D02*
X137190930Y-103591762D01*
X137190930Y-103591762D02*
X137048073Y-103663191D01*
X137048073Y-103663191D02*
X136976645Y-103806048D01*
X136976645Y-103806048D02*
X136976645Y-103948905D01*
X136976645Y-103948905D02*
X137690930Y-104091762D01*
X135690931Y-103591762D02*
X135690931Y-104806048D01*
X135690931Y-104806048D02*
X135762359Y-104948905D01*
X135762359Y-104948905D02*
X135833788Y-105020334D01*
X135833788Y-105020334D02*
X135976645Y-105091762D01*
X135976645Y-105091762D02*
X136190931Y-105091762D01*
X136190931Y-105091762D02*
X136333788Y-105020334D01*
X135690931Y-104520334D02*
X135833788Y-104591762D01*
X135833788Y-104591762D02*
X136119502Y-104591762D01*
X136119502Y-104591762D02*
X136262359Y-104520334D01*
X136262359Y-104520334D02*
X136333788Y-104448905D01*
X136333788Y-104448905D02*
X136405216Y-104306048D01*
X136405216Y-104306048D02*
X136405216Y-103877476D01*
X136405216Y-103877476D02*
X136333788Y-103734619D01*
X136333788Y-103734619D02*
X136262359Y-103663191D01*
X136262359Y-103663191D02*
X136119502Y-103591762D01*
X136119502Y-103591762D02*
X135833788Y-103591762D01*
X135833788Y-103591762D02*
X135690931Y-103663191D01*
X134976645Y-104591762D02*
X134976645Y-103591762D01*
X134976645Y-103091762D02*
X135048073Y-103163191D01*
X135048073Y-103163191D02*
X134976645Y-103234619D01*
X134976645Y-103234619D02*
X134905216Y-103163191D01*
X134905216Y-103163191D02*
X134976645Y-103091762D01*
X134976645Y-103091762D02*
X134976645Y-103234619D01*
X134333787Y-104520334D02*
X134190930Y-104591762D01*
X134190930Y-104591762D02*
X133905216Y-104591762D01*
X133905216Y-104591762D02*
X133762359Y-104520334D01*
X133762359Y-104520334D02*
X133690930Y-104377476D01*
X133690930Y-104377476D02*
X133690930Y-104306048D01*
X133690930Y-104306048D02*
X133762359Y-104163191D01*
X133762359Y-104163191D02*
X133905216Y-104091762D01*
X133905216Y-104091762D02*
X134119502Y-104091762D01*
X134119502Y-104091762D02*
X134262359Y-104020334D01*
X134262359Y-104020334D02*
X134333787Y-103877476D01*
X134333787Y-103877476D02*
X134333787Y-103806048D01*
X134333787Y-103806048D02*
X134262359Y-103663191D01*
X134262359Y-103663191D02*
X134119502Y-103591762D01*
X134119502Y-103591762D02*
X133905216Y-103591762D01*
X133905216Y-103591762D02*
X133762359Y-103663191D01*
X131119501Y-103163191D02*
X131262359Y-103091762D01*
X131262359Y-103091762D02*
X131476644Y-103091762D01*
X131476644Y-103091762D02*
X131690930Y-103163191D01*
X131690930Y-103163191D02*
X131833787Y-103306048D01*
X131833787Y-103306048D02*
X131905216Y-103448905D01*
X131905216Y-103448905D02*
X131976644Y-103734619D01*
X131976644Y-103734619D02*
X131976644Y-103948905D01*
X131976644Y-103948905D02*
X131905216Y-104234619D01*
X131905216Y-104234619D02*
X131833787Y-104377476D01*
X131833787Y-104377476D02*
X131690930Y-104520334D01*
X131690930Y-104520334D02*
X131476644Y-104591762D01*
X131476644Y-104591762D02*
X131333787Y-104591762D01*
X131333787Y-104591762D02*
X131119501Y-104520334D01*
X131119501Y-104520334D02*
X131048073Y-104448905D01*
X131048073Y-104448905D02*
X131048073Y-103948905D01*
X131048073Y-103948905D02*
X131333787Y-103948905D01*
X129762359Y-104591762D02*
X129762359Y-103806048D01*
X129762359Y-103806048D02*
X129833787Y-103663191D01*
X129833787Y-103663191D02*
X129976644Y-103591762D01*
X129976644Y-103591762D02*
X130262359Y-103591762D01*
X130262359Y-103591762D02*
X130405216Y-103663191D01*
X129762359Y-104520334D02*
X129905216Y-104591762D01*
X129905216Y-104591762D02*
X130262359Y-104591762D01*
X130262359Y-104591762D02*
X130405216Y-104520334D01*
X130405216Y-104520334D02*
X130476644Y-104377476D01*
X130476644Y-104377476D02*
X130476644Y-104234619D01*
X130476644Y-104234619D02*
X130405216Y-104091762D01*
X130405216Y-104091762D02*
X130262359Y-104020334D01*
X130262359Y-104020334D02*
X129905216Y-104020334D01*
X129905216Y-104020334D02*
X129762359Y-103948905D01*
X128833787Y-104591762D02*
X128976644Y-104520334D01*
X128976644Y-104520334D02*
X129048073Y-104377476D01*
X129048073Y-104377476D02*
X129048073Y-103091762D01*
X128048073Y-104591762D02*
X128190930Y-104520334D01*
X128190930Y-104520334D02*
X128262359Y-104377476D01*
X128262359Y-104377476D02*
X128262359Y-103091762D01*
X126833788Y-104591762D02*
X126833788Y-103806048D01*
X126833788Y-103806048D02*
X126905216Y-103663191D01*
X126905216Y-103663191D02*
X127048073Y-103591762D01*
X127048073Y-103591762D02*
X127333788Y-103591762D01*
X127333788Y-103591762D02*
X127476645Y-103663191D01*
X126833788Y-104520334D02*
X126976645Y-104591762D01*
X126976645Y-104591762D02*
X127333788Y-104591762D01*
X127333788Y-104591762D02*
X127476645Y-104520334D01*
X127476645Y-104520334D02*
X127548073Y-104377476D01*
X127548073Y-104377476D02*
X127548073Y-104234619D01*
X127548073Y-104234619D02*
X127476645Y-104091762D01*
X127476645Y-104091762D02*
X127333788Y-104020334D01*
X127333788Y-104020334D02*
X126976645Y-104020334D01*
X126976645Y-104020334D02*
X126833788Y-103948905D01*
X126119502Y-103591762D02*
X126119502Y-104591762D01*
X126119502Y-103734619D02*
X126048073Y-103663191D01*
X126048073Y-103663191D02*
X125905216Y-103591762D01*
X125905216Y-103591762D02*
X125690930Y-103591762D01*
X125690930Y-103591762D02*
X125548073Y-103663191D01*
X125548073Y-103663191D02*
X125476645Y-103806048D01*
X125476645Y-103806048D02*
X125476645Y-104591762D01*
X124119502Y-104591762D02*
X124119502Y-103091762D01*
X124119502Y-104520334D02*
X124262359Y-104591762D01*
X124262359Y-104591762D02*
X124548073Y-104591762D01*
X124548073Y-104591762D02*
X124690930Y-104520334D01*
X124690930Y-104520334D02*
X124762359Y-104448905D01*
X124762359Y-104448905D02*
X124833787Y-104306048D01*
X124833787Y-104306048D02*
X124833787Y-103877476D01*
X124833787Y-103877476D02*
X124762359Y-103734619D01*
X124762359Y-103734619D02*
X124690930Y-103663191D01*
X124690930Y-103663191D02*
X124548073Y-103591762D01*
X124548073Y-103591762D02*
X124262359Y-103591762D01*
X124262359Y-103591762D02*
X124119502Y-103663191D01*
X148190930Y-105649535D02*
X148119502Y-105578107D01*
X148119502Y-105578107D02*
X147976645Y-105506678D01*
X147976645Y-105506678D02*
X147619502Y-105506678D01*
X147619502Y-105506678D02*
X147476645Y-105578107D01*
X147476645Y-105578107D02*
X147405216Y-105649535D01*
X147405216Y-105649535D02*
X147333787Y-105792392D01*
X147333787Y-105792392D02*
X147333787Y-105935250D01*
X147333787Y-105935250D02*
X147405216Y-106149535D01*
X147405216Y-106149535D02*
X148262359Y-107006678D01*
X148262359Y-107006678D02*
X147333787Y-107006678D01*
X146405216Y-105506678D02*
X146262359Y-105506678D01*
X146262359Y-105506678D02*
X146119502Y-105578107D01*
X146119502Y-105578107D02*
X146048074Y-105649535D01*
X146048074Y-105649535D02*
X145976645Y-105792392D01*
X145976645Y-105792392D02*
X145905216Y-106078107D01*
X145905216Y-106078107D02*
X145905216Y-106435250D01*
X145905216Y-106435250D02*
X145976645Y-106720964D01*
X145976645Y-106720964D02*
X146048074Y-106863821D01*
X146048074Y-106863821D02*
X146119502Y-106935250D01*
X146119502Y-106935250D02*
X146262359Y-107006678D01*
X146262359Y-107006678D02*
X146405216Y-107006678D01*
X146405216Y-107006678D02*
X146548074Y-106935250D01*
X146548074Y-106935250D02*
X146619502Y-106863821D01*
X146619502Y-106863821D02*
X146690931Y-106720964D01*
X146690931Y-106720964D02*
X146762359Y-106435250D01*
X146762359Y-106435250D02*
X146762359Y-106078107D01*
X146762359Y-106078107D02*
X146690931Y-105792392D01*
X146690931Y-105792392D02*
X146619502Y-105649535D01*
X146619502Y-105649535D02*
X146548074Y-105578107D01*
X146548074Y-105578107D02*
X146405216Y-105506678D01*
X145333788Y-105649535D02*
X145262360Y-105578107D01*
X145262360Y-105578107D02*
X145119503Y-105506678D01*
X145119503Y-105506678D02*
X144762360Y-105506678D01*
X144762360Y-105506678D02*
X144619503Y-105578107D01*
X144619503Y-105578107D02*
X144548074Y-105649535D01*
X144548074Y-105649535D02*
X144476645Y-105792392D01*
X144476645Y-105792392D02*
X144476645Y-105935250D01*
X144476645Y-105935250D02*
X144548074Y-106149535D01*
X144548074Y-106149535D02*
X145405217Y-107006678D01*
X145405217Y-107006678D02*
X144476645Y-107006678D01*
X143119503Y-105506678D02*
X143833789Y-105506678D01*
X143833789Y-105506678D02*
X143905217Y-106220964D01*
X143905217Y-106220964D02*
X143833789Y-106149535D01*
X143833789Y-106149535D02*
X143690932Y-106078107D01*
X143690932Y-106078107D02*
X143333789Y-106078107D01*
X143333789Y-106078107D02*
X143190932Y-106149535D01*
X143190932Y-106149535D02*
X143119503Y-106220964D01*
X143119503Y-106220964D02*
X143048074Y-106363821D01*
X143048074Y-106363821D02*
X143048074Y-106720964D01*
X143048074Y-106720964D02*
X143119503Y-106863821D01*
X143119503Y-106863821D02*
X143190932Y-106935250D01*
X143190932Y-106935250D02*
X143333789Y-107006678D01*
X143333789Y-107006678D02*
X143690932Y-107006678D01*
X143690932Y-107006678D02*
X143833789Y-106935250D01*
X143833789Y-106935250D02*
X143905217Y-106863821D01*
X142405218Y-106435250D02*
X141262361Y-106435250D01*
X140262360Y-105506678D02*
X140119503Y-105506678D01*
X140119503Y-105506678D02*
X139976646Y-105578107D01*
X139976646Y-105578107D02*
X139905218Y-105649535D01*
X139905218Y-105649535D02*
X139833789Y-105792392D01*
X139833789Y-105792392D02*
X139762360Y-106078107D01*
X139762360Y-106078107D02*
X139762360Y-106435250D01*
X139762360Y-106435250D02*
X139833789Y-106720964D01*
X139833789Y-106720964D02*
X139905218Y-106863821D01*
X139905218Y-106863821D02*
X139976646Y-106935250D01*
X139976646Y-106935250D02*
X140119503Y-107006678D01*
X140119503Y-107006678D02*
X140262360Y-107006678D01*
X140262360Y-107006678D02*
X140405218Y-106935250D01*
X140405218Y-106935250D02*
X140476646Y-106863821D01*
X140476646Y-106863821D02*
X140548075Y-106720964D01*
X140548075Y-106720964D02*
X140619503Y-106435250D01*
X140619503Y-106435250D02*
X140619503Y-106078107D01*
X140619503Y-106078107D02*
X140548075Y-105792392D01*
X140548075Y-105792392D02*
X140476646Y-105649535D01*
X140476646Y-105649535D02*
X140405218Y-105578107D01*
X140405218Y-105578107D02*
X140262360Y-105506678D01*
X139190932Y-105649535D02*
X139119504Y-105578107D01*
X139119504Y-105578107D02*
X138976647Y-105506678D01*
X138976647Y-105506678D02*
X138619504Y-105506678D01*
X138619504Y-105506678D02*
X138476647Y-105578107D01*
X138476647Y-105578107D02*
X138405218Y-105649535D01*
X138405218Y-105649535D02*
X138333789Y-105792392D01*
X138333789Y-105792392D02*
X138333789Y-105935250D01*
X138333789Y-105935250D02*
X138405218Y-106149535D01*
X138405218Y-106149535D02*
X139262361Y-107006678D01*
X139262361Y-107006678D02*
X138333789Y-107006678D01*
X137690933Y-106435250D02*
X136548076Y-106435250D01*
X135905218Y-105649535D02*
X135833790Y-105578107D01*
X135833790Y-105578107D02*
X135690933Y-105506678D01*
X135690933Y-105506678D02*
X135333790Y-105506678D01*
X135333790Y-105506678D02*
X135190933Y-105578107D01*
X135190933Y-105578107D02*
X135119504Y-105649535D01*
X135119504Y-105649535D02*
X135048075Y-105792392D01*
X135048075Y-105792392D02*
X135048075Y-105935250D01*
X135048075Y-105935250D02*
X135119504Y-106149535D01*
X135119504Y-106149535D02*
X135976647Y-107006678D01*
X135976647Y-107006678D02*
X135048075Y-107006678D01*
X133762362Y-105506678D02*
X134048076Y-105506678D01*
X134048076Y-105506678D02*
X134190933Y-105578107D01*
X134190933Y-105578107D02*
X134262362Y-105649535D01*
X134262362Y-105649535D02*
X134405219Y-105863821D01*
X134405219Y-105863821D02*
X134476647Y-106149535D01*
X134476647Y-106149535D02*
X134476647Y-106720964D01*
X134476647Y-106720964D02*
X134405219Y-106863821D01*
X134405219Y-106863821D02*
X134333790Y-106935250D01*
X134333790Y-106935250D02*
X134190933Y-107006678D01*
X134190933Y-107006678D02*
X133905219Y-107006678D01*
X133905219Y-107006678D02*
X133762362Y-106935250D01*
X133762362Y-106935250D02*
X133690933Y-106863821D01*
X133690933Y-106863821D02*
X133619504Y-106720964D01*
X133619504Y-106720964D02*
X133619504Y-106363821D01*
X133619504Y-106363821D02*
X133690933Y-106220964D01*
X133690933Y-106220964D02*
X133762362Y-106149535D01*
X133762362Y-106149535D02*
X133905219Y-106078107D01*
X133905219Y-106078107D02*
X134190933Y-106078107D01*
X134190933Y-106078107D02*
X134333790Y-106149535D01*
X134333790Y-106149535D02*
X134405219Y-106220964D01*
X134405219Y-106220964D02*
X134476647Y-106363821D01*
D11*
X111454819Y-199609524D02*
X110454819Y-199609524D01*
X110454819Y-199609524D02*
X110454819Y-199990476D01*
X110454819Y-199990476D02*
X110502438Y-200085714D01*
X110502438Y-200085714D02*
X110550057Y-200133333D01*
X110550057Y-200133333D02*
X110645295Y-200180952D01*
X110645295Y-200180952D02*
X110788152Y-200180952D01*
X110788152Y-200180952D02*
X110883390Y-200133333D01*
X110883390Y-200133333D02*
X110931009Y-200085714D01*
X110931009Y-200085714D02*
X110978628Y-199990476D01*
X110978628Y-199990476D02*
X110978628Y-199609524D01*
X111454819Y-201133333D02*
X111454819Y-200561905D01*
X111454819Y-200847619D02*
X110454819Y-200847619D01*
X110454819Y-200847619D02*
X110597676Y-200752381D01*
X110597676Y-200752381D02*
X110692914Y-200657143D01*
X110692914Y-200657143D02*
X110740533Y-200561905D01*
X110454819Y-201752381D02*
X110454819Y-201847619D01*
X110454819Y-201847619D02*
X110502438Y-201942857D01*
X110502438Y-201942857D02*
X110550057Y-201990476D01*
X110550057Y-201990476D02*
X110645295Y-202038095D01*
X110645295Y-202038095D02*
X110835771Y-202085714D01*
X110835771Y-202085714D02*
X111073866Y-202085714D01*
X111073866Y-202085714D02*
X111264342Y-202038095D01*
X111264342Y-202038095D02*
X111359580Y-201990476D01*
X111359580Y-201990476D02*
X111407200Y-201942857D01*
X111407200Y-201942857D02*
X111454819Y-201847619D01*
X111454819Y-201847619D02*
X111454819Y-201752381D01*
X111454819Y-201752381D02*
X111407200Y-201657143D01*
X111407200Y-201657143D02*
X111359580Y-201609524D01*
X111359580Y-201609524D02*
X111264342Y-201561905D01*
X111264342Y-201561905D02*
X111073866Y-201514286D01*
X111073866Y-201514286D02*
X110835771Y-201514286D01*
X110835771Y-201514286D02*
X110645295Y-201561905D01*
X110645295Y-201561905D02*
X110550057Y-201609524D01*
X110550057Y-201609524D02*
X110502438Y-201657143D01*
X110502438Y-201657143D02*
X110454819Y-201752381D01*
X110788152Y-202942857D02*
X111454819Y-202942857D01*
X110407200Y-202704762D02*
X111121485Y-202466667D01*
X111121485Y-202466667D02*
X111121485Y-203085714D01*
X120459580Y-124080952D02*
X120507200Y-124033333D01*
X120507200Y-124033333D02*
X120554819Y-123890476D01*
X120554819Y-123890476D02*
X120554819Y-123795238D01*
X120554819Y-123795238D02*
X120507200Y-123652381D01*
X120507200Y-123652381D02*
X120411961Y-123557143D01*
X120411961Y-123557143D02*
X120316723Y-123509524D01*
X120316723Y-123509524D02*
X120126247Y-123461905D01*
X120126247Y-123461905D02*
X119983390Y-123461905D01*
X119983390Y-123461905D02*
X119792914Y-123509524D01*
X119792914Y-123509524D02*
X119697676Y-123557143D01*
X119697676Y-123557143D02*
X119602438Y-123652381D01*
X119602438Y-123652381D02*
X119554819Y-123795238D01*
X119554819Y-123795238D02*
X119554819Y-123890476D01*
X119554819Y-123890476D02*
X119602438Y-124033333D01*
X119602438Y-124033333D02*
X119650057Y-124080952D01*
X120554819Y-125033333D02*
X120554819Y-124461905D01*
X120554819Y-124747619D02*
X119554819Y-124747619D01*
X119554819Y-124747619D02*
X119697676Y-124652381D01*
X119697676Y-124652381D02*
X119792914Y-124557143D01*
X119792914Y-124557143D02*
X119840533Y-124461905D01*
X119888152Y-125890476D02*
X120554819Y-125890476D01*
X119507200Y-125652381D02*
X120221485Y-125414286D01*
X120221485Y-125414286D02*
X120221485Y-126033333D01*
X120554819Y-126461905D02*
X120554819Y-126652381D01*
X120554819Y-126652381D02*
X120507200Y-126747619D01*
X120507200Y-126747619D02*
X120459580Y-126795238D01*
X120459580Y-126795238D02*
X120316723Y-126890476D01*
X120316723Y-126890476D02*
X120126247Y-126938095D01*
X120126247Y-126938095D02*
X119745295Y-126938095D01*
X119745295Y-126938095D02*
X119650057Y-126890476D01*
X119650057Y-126890476D02*
X119602438Y-126842857D01*
X119602438Y-126842857D02*
X119554819Y-126747619D01*
X119554819Y-126747619D02*
X119554819Y-126557143D01*
X119554819Y-126557143D02*
X119602438Y-126461905D01*
X119602438Y-126461905D02*
X119650057Y-126414286D01*
X119650057Y-126414286D02*
X119745295Y-126366667D01*
X119745295Y-126366667D02*
X119983390Y-126366667D01*
X119983390Y-126366667D02*
X120078628Y-126414286D01*
X120078628Y-126414286D02*
X120126247Y-126461905D01*
X120126247Y-126461905D02*
X120173866Y-126557143D01*
X120173866Y-126557143D02*
X120173866Y-126747619D01*
X120173866Y-126747619D02*
X120126247Y-126842857D01*
X120126247Y-126842857D02*
X120078628Y-126890476D01*
X120078628Y-126890476D02*
X119983390Y-126938095D01*
X51219047Y-178759580D02*
X51266666Y-178807200D01*
X51266666Y-178807200D02*
X51409523Y-178854819D01*
X51409523Y-178854819D02*
X51504761Y-178854819D01*
X51504761Y-178854819D02*
X51647618Y-178807200D01*
X51647618Y-178807200D02*
X51742856Y-178711961D01*
X51742856Y-178711961D02*
X51790475Y-178616723D01*
X51790475Y-178616723D02*
X51838094Y-178426247D01*
X51838094Y-178426247D02*
X51838094Y-178283390D01*
X51838094Y-178283390D02*
X51790475Y-178092914D01*
X51790475Y-178092914D02*
X51742856Y-177997676D01*
X51742856Y-177997676D02*
X51647618Y-177902438D01*
X51647618Y-177902438D02*
X51504761Y-177854819D01*
X51504761Y-177854819D02*
X51409523Y-177854819D01*
X51409523Y-177854819D02*
X51266666Y-177902438D01*
X51266666Y-177902438D02*
X51219047Y-177950057D01*
X50838094Y-177950057D02*
X50790475Y-177902438D01*
X50790475Y-177902438D02*
X50695237Y-177854819D01*
X50695237Y-177854819D02*
X50457142Y-177854819D01*
X50457142Y-177854819D02*
X50361904Y-177902438D01*
X50361904Y-177902438D02*
X50314285Y-177950057D01*
X50314285Y-177950057D02*
X50266666Y-178045295D01*
X50266666Y-178045295D02*
X50266666Y-178140533D01*
X50266666Y-178140533D02*
X50314285Y-178283390D01*
X50314285Y-178283390D02*
X50885713Y-178854819D01*
X50885713Y-178854819D02*
X50266666Y-178854819D01*
X49647618Y-177854819D02*
X49552380Y-177854819D01*
X49552380Y-177854819D02*
X49457142Y-177902438D01*
X49457142Y-177902438D02*
X49409523Y-177950057D01*
X49409523Y-177950057D02*
X49361904Y-178045295D01*
X49361904Y-178045295D02*
X49314285Y-178235771D01*
X49314285Y-178235771D02*
X49314285Y-178473866D01*
X49314285Y-178473866D02*
X49361904Y-178664342D01*
X49361904Y-178664342D02*
X49409523Y-178759580D01*
X49409523Y-178759580D02*
X49457142Y-178807200D01*
X49457142Y-178807200D02*
X49552380Y-178854819D01*
X49552380Y-178854819D02*
X49647618Y-178854819D01*
X49647618Y-178854819D02*
X49742856Y-178807200D01*
X49742856Y-178807200D02*
X49790475Y-178759580D01*
X49790475Y-178759580D02*
X49838094Y-178664342D01*
X49838094Y-178664342D02*
X49885713Y-178473866D01*
X49885713Y-178473866D02*
X49885713Y-178235771D01*
X49885713Y-178235771D02*
X49838094Y-178045295D01*
X49838094Y-178045295D02*
X49790475Y-177950057D01*
X49790475Y-177950057D02*
X49742856Y-177902438D01*
X49742856Y-177902438D02*
X49647618Y-177854819D01*
X48361904Y-178854819D02*
X48933332Y-178854819D01*
X48647618Y-178854819D02*
X48647618Y-177854819D01*
X48647618Y-177854819D02*
X48742856Y-177997676D01*
X48742856Y-177997676D02*
X48838094Y-178092914D01*
X48838094Y-178092914D02*
X48933332Y-178140533D01*
X115097619Y-117884580D02*
X115145238Y-117932200D01*
X115145238Y-117932200D02*
X115288095Y-117979819D01*
X115288095Y-117979819D02*
X115383333Y-117979819D01*
X115383333Y-117979819D02*
X115526190Y-117932200D01*
X115526190Y-117932200D02*
X115621428Y-117836961D01*
X115621428Y-117836961D02*
X115669047Y-117741723D01*
X115669047Y-117741723D02*
X115716666Y-117551247D01*
X115716666Y-117551247D02*
X115716666Y-117408390D01*
X115716666Y-117408390D02*
X115669047Y-117217914D01*
X115669047Y-117217914D02*
X115621428Y-117122676D01*
X115621428Y-117122676D02*
X115526190Y-117027438D01*
X115526190Y-117027438D02*
X115383333Y-116979819D01*
X115383333Y-116979819D02*
X115288095Y-116979819D01*
X115288095Y-116979819D02*
X115145238Y-117027438D01*
X115145238Y-117027438D02*
X115097619Y-117075057D01*
X114335714Y-117456009D02*
X114669047Y-117456009D01*
X114669047Y-117979819D02*
X114669047Y-116979819D01*
X114669047Y-116979819D02*
X114192857Y-116979819D01*
X113288095Y-117979819D02*
X113859523Y-117979819D01*
X113573809Y-117979819D02*
X113573809Y-116979819D01*
X113573809Y-116979819D02*
X113669047Y-117122676D01*
X113669047Y-117122676D02*
X113764285Y-117217914D01*
X113764285Y-117217914D02*
X113859523Y-117265533D01*
X112669047Y-116979819D02*
X112573809Y-116979819D01*
X112573809Y-116979819D02*
X112478571Y-117027438D01*
X112478571Y-117027438D02*
X112430952Y-117075057D01*
X112430952Y-117075057D02*
X112383333Y-117170295D01*
X112383333Y-117170295D02*
X112335714Y-117360771D01*
X112335714Y-117360771D02*
X112335714Y-117598866D01*
X112335714Y-117598866D02*
X112383333Y-117789342D01*
X112383333Y-117789342D02*
X112430952Y-117884580D01*
X112430952Y-117884580D02*
X112478571Y-117932200D01*
X112478571Y-117932200D02*
X112573809Y-117979819D01*
X112573809Y-117979819D02*
X112669047Y-117979819D01*
X112669047Y-117979819D02*
X112764285Y-117932200D01*
X112764285Y-117932200D02*
X112811904Y-117884580D01*
X112811904Y-117884580D02*
X112859523Y-117789342D01*
X112859523Y-117789342D02*
X112907142Y-117598866D01*
X112907142Y-117598866D02*
X112907142Y-117360771D01*
X112907142Y-117360771D02*
X112859523Y-117170295D01*
X112859523Y-117170295D02*
X112811904Y-117075057D01*
X112811904Y-117075057D02*
X112764285Y-117027438D01*
X112764285Y-117027438D02*
X112669047Y-116979819D01*
X111383333Y-117979819D02*
X111954761Y-117979819D01*
X111669047Y-117979819D02*
X111669047Y-116979819D01*
X111669047Y-116979819D02*
X111764285Y-117122676D01*
X111764285Y-117122676D02*
X111859523Y-117217914D01*
X111859523Y-117217914D02*
X111954761Y-117265533D01*
X75819047Y-98259580D02*
X75866666Y-98307200D01*
X75866666Y-98307200D02*
X76009523Y-98354819D01*
X76009523Y-98354819D02*
X76104761Y-98354819D01*
X76104761Y-98354819D02*
X76247618Y-98307200D01*
X76247618Y-98307200D02*
X76342856Y-98211961D01*
X76342856Y-98211961D02*
X76390475Y-98116723D01*
X76390475Y-98116723D02*
X76438094Y-97926247D01*
X76438094Y-97926247D02*
X76438094Y-97783390D01*
X76438094Y-97783390D02*
X76390475Y-97592914D01*
X76390475Y-97592914D02*
X76342856Y-97497676D01*
X76342856Y-97497676D02*
X76247618Y-97402438D01*
X76247618Y-97402438D02*
X76104761Y-97354819D01*
X76104761Y-97354819D02*
X76009523Y-97354819D01*
X76009523Y-97354819D02*
X75866666Y-97402438D01*
X75866666Y-97402438D02*
X75819047Y-97450057D01*
X75485713Y-97354819D02*
X74866666Y-97354819D01*
X74866666Y-97354819D02*
X75199999Y-97735771D01*
X75199999Y-97735771D02*
X75057142Y-97735771D01*
X75057142Y-97735771D02*
X74961904Y-97783390D01*
X74961904Y-97783390D02*
X74914285Y-97831009D01*
X74914285Y-97831009D02*
X74866666Y-97926247D01*
X74866666Y-97926247D02*
X74866666Y-98164342D01*
X74866666Y-98164342D02*
X74914285Y-98259580D01*
X74914285Y-98259580D02*
X74961904Y-98307200D01*
X74961904Y-98307200D02*
X75057142Y-98354819D01*
X75057142Y-98354819D02*
X75342856Y-98354819D01*
X75342856Y-98354819D02*
X75438094Y-98307200D01*
X75438094Y-98307200D02*
X75485713Y-98259580D01*
X74247618Y-97354819D02*
X74152380Y-97354819D01*
X74152380Y-97354819D02*
X74057142Y-97402438D01*
X74057142Y-97402438D02*
X74009523Y-97450057D01*
X74009523Y-97450057D02*
X73961904Y-97545295D01*
X73961904Y-97545295D02*
X73914285Y-97735771D01*
X73914285Y-97735771D02*
X73914285Y-97973866D01*
X73914285Y-97973866D02*
X73961904Y-98164342D01*
X73961904Y-98164342D02*
X74009523Y-98259580D01*
X74009523Y-98259580D02*
X74057142Y-98307200D01*
X74057142Y-98307200D02*
X74152380Y-98354819D01*
X74152380Y-98354819D02*
X74247618Y-98354819D01*
X74247618Y-98354819D02*
X74342856Y-98307200D01*
X74342856Y-98307200D02*
X74390475Y-98259580D01*
X74390475Y-98259580D02*
X74438094Y-98164342D01*
X74438094Y-98164342D02*
X74485713Y-97973866D01*
X74485713Y-97973866D02*
X74485713Y-97735771D01*
X74485713Y-97735771D02*
X74438094Y-97545295D01*
X74438094Y-97545295D02*
X74390475Y-97450057D01*
X74390475Y-97450057D02*
X74342856Y-97402438D01*
X74342856Y-97402438D02*
X74247618Y-97354819D01*
X72961904Y-98354819D02*
X73533332Y-98354819D01*
X73247618Y-98354819D02*
X73247618Y-97354819D01*
X73247618Y-97354819D02*
X73342856Y-97497676D01*
X73342856Y-97497676D02*
X73438094Y-97592914D01*
X73438094Y-97592914D02*
X73533332Y-97640533D01*
X148547619Y-190354819D02*
X148880952Y-189878628D01*
X149119047Y-190354819D02*
X149119047Y-189354819D01*
X149119047Y-189354819D02*
X148738095Y-189354819D01*
X148738095Y-189354819D02*
X148642857Y-189402438D01*
X148642857Y-189402438D02*
X148595238Y-189450057D01*
X148595238Y-189450057D02*
X148547619Y-189545295D01*
X148547619Y-189545295D02*
X148547619Y-189688152D01*
X148547619Y-189688152D02*
X148595238Y-189783390D01*
X148595238Y-189783390D02*
X148642857Y-189831009D01*
X148642857Y-189831009D02*
X148738095Y-189878628D01*
X148738095Y-189878628D02*
X149119047Y-189878628D01*
X148261904Y-189354819D02*
X147928571Y-190354819D01*
X147928571Y-190354819D02*
X147595238Y-189354819D01*
X147309523Y-189450057D02*
X147261904Y-189402438D01*
X147261904Y-189402438D02*
X147166666Y-189354819D01*
X147166666Y-189354819D02*
X146928571Y-189354819D01*
X146928571Y-189354819D02*
X146833333Y-189402438D01*
X146833333Y-189402438D02*
X146785714Y-189450057D01*
X146785714Y-189450057D02*
X146738095Y-189545295D01*
X146738095Y-189545295D02*
X146738095Y-189640533D01*
X146738095Y-189640533D02*
X146785714Y-189783390D01*
X146785714Y-189783390D02*
X147357142Y-190354819D01*
X147357142Y-190354819D02*
X146738095Y-190354819D01*
X146119047Y-189354819D02*
X146023809Y-189354819D01*
X146023809Y-189354819D02*
X145928571Y-189402438D01*
X145928571Y-189402438D02*
X145880952Y-189450057D01*
X145880952Y-189450057D02*
X145833333Y-189545295D01*
X145833333Y-189545295D02*
X145785714Y-189735771D01*
X145785714Y-189735771D02*
X145785714Y-189973866D01*
X145785714Y-189973866D02*
X145833333Y-190164342D01*
X145833333Y-190164342D02*
X145880952Y-190259580D01*
X145880952Y-190259580D02*
X145928571Y-190307200D01*
X145928571Y-190307200D02*
X146023809Y-190354819D01*
X146023809Y-190354819D02*
X146119047Y-190354819D01*
X146119047Y-190354819D02*
X146214285Y-190307200D01*
X146214285Y-190307200D02*
X146261904Y-190259580D01*
X146261904Y-190259580D02*
X146309523Y-190164342D01*
X146309523Y-190164342D02*
X146357142Y-189973866D01*
X146357142Y-189973866D02*
X146357142Y-189735771D01*
X146357142Y-189735771D02*
X146309523Y-189545295D01*
X146309523Y-189545295D02*
X146261904Y-189450057D01*
X146261904Y-189450057D02*
X146214285Y-189402438D01*
X146214285Y-189402438D02*
X146119047Y-189354819D01*
X144833333Y-190354819D02*
X145404761Y-190354819D01*
X145119047Y-190354819D02*
X145119047Y-189354819D01*
X145119047Y-189354819D02*
X145214285Y-189497676D01*
X145214285Y-189497676D02*
X145309523Y-189592914D01*
X145309523Y-189592914D02*
X145404761Y-189640533D01*
X107159580Y-161180952D02*
X107207200Y-161133333D01*
X107207200Y-161133333D02*
X107254819Y-160990476D01*
X107254819Y-160990476D02*
X107254819Y-160895238D01*
X107254819Y-160895238D02*
X107207200Y-160752381D01*
X107207200Y-160752381D02*
X107111961Y-160657143D01*
X107111961Y-160657143D02*
X107016723Y-160609524D01*
X107016723Y-160609524D02*
X106826247Y-160561905D01*
X106826247Y-160561905D02*
X106683390Y-160561905D01*
X106683390Y-160561905D02*
X106492914Y-160609524D01*
X106492914Y-160609524D02*
X106397676Y-160657143D01*
X106397676Y-160657143D02*
X106302438Y-160752381D01*
X106302438Y-160752381D02*
X106254819Y-160895238D01*
X106254819Y-160895238D02*
X106254819Y-160990476D01*
X106254819Y-160990476D02*
X106302438Y-161133333D01*
X106302438Y-161133333D02*
X106350057Y-161180952D01*
X107254819Y-162133333D02*
X107254819Y-161561905D01*
X107254819Y-161847619D02*
X106254819Y-161847619D01*
X106254819Y-161847619D02*
X106397676Y-161752381D01*
X106397676Y-161752381D02*
X106492914Y-161657143D01*
X106492914Y-161657143D02*
X106540533Y-161561905D01*
X106254819Y-162466667D02*
X106254819Y-163085714D01*
X106254819Y-163085714D02*
X106635771Y-162752381D01*
X106635771Y-162752381D02*
X106635771Y-162895238D01*
X106635771Y-162895238D02*
X106683390Y-162990476D01*
X106683390Y-162990476D02*
X106731009Y-163038095D01*
X106731009Y-163038095D02*
X106826247Y-163085714D01*
X106826247Y-163085714D02*
X107064342Y-163085714D01*
X107064342Y-163085714D02*
X107159580Y-163038095D01*
X107159580Y-163038095D02*
X107207200Y-162990476D01*
X107207200Y-162990476D02*
X107254819Y-162895238D01*
X107254819Y-162895238D02*
X107254819Y-162609524D01*
X107254819Y-162609524D02*
X107207200Y-162514286D01*
X107207200Y-162514286D02*
X107159580Y-162466667D01*
X106254819Y-163942857D02*
X106254819Y-163752381D01*
X106254819Y-163752381D02*
X106302438Y-163657143D01*
X106302438Y-163657143D02*
X106350057Y-163609524D01*
X106350057Y-163609524D02*
X106492914Y-163514286D01*
X106492914Y-163514286D02*
X106683390Y-163466667D01*
X106683390Y-163466667D02*
X107064342Y-163466667D01*
X107064342Y-163466667D02*
X107159580Y-163514286D01*
X107159580Y-163514286D02*
X107207200Y-163561905D01*
X107207200Y-163561905D02*
X107254819Y-163657143D01*
X107254819Y-163657143D02*
X107254819Y-163847619D01*
X107254819Y-163847619D02*
X107207200Y-163942857D01*
X107207200Y-163942857D02*
X107159580Y-163990476D01*
X107159580Y-163990476D02*
X107064342Y-164038095D01*
X107064342Y-164038095D02*
X106826247Y-164038095D01*
X106826247Y-164038095D02*
X106731009Y-163990476D01*
X106731009Y-163990476D02*
X106683390Y-163942857D01*
X106683390Y-163942857D02*
X106635771Y-163847619D01*
X106635771Y-163847619D02*
X106635771Y-163657143D01*
X106635771Y-163657143D02*
X106683390Y-163561905D01*
X106683390Y-163561905D02*
X106731009Y-163514286D01*
X106731009Y-163514286D02*
X106826247Y-163466667D01*
X106685714Y-89154819D02*
X106685714Y-89869104D01*
X106685714Y-89869104D02*
X106733333Y-90011961D01*
X106733333Y-90011961D02*
X106828571Y-90107200D01*
X106828571Y-90107200D02*
X106971428Y-90154819D01*
X106971428Y-90154819D02*
X107066666Y-90154819D01*
X106209523Y-90154819D02*
X106209523Y-89154819D01*
X105638095Y-90154819D02*
X106066666Y-89583390D01*
X105638095Y-89154819D02*
X106209523Y-89726247D01*
X104685714Y-90154819D02*
X105257142Y-90154819D01*
X104971428Y-90154819D02*
X104971428Y-89154819D01*
X104971428Y-89154819D02*
X105066666Y-89297676D01*
X105066666Y-89297676D02*
X105161904Y-89392914D01*
X105161904Y-89392914D02*
X105257142Y-89440533D01*
X104066666Y-89154819D02*
X103971428Y-89154819D01*
X103971428Y-89154819D02*
X103876190Y-89202438D01*
X103876190Y-89202438D02*
X103828571Y-89250057D01*
X103828571Y-89250057D02*
X103780952Y-89345295D01*
X103780952Y-89345295D02*
X103733333Y-89535771D01*
X103733333Y-89535771D02*
X103733333Y-89773866D01*
X103733333Y-89773866D02*
X103780952Y-89964342D01*
X103780952Y-89964342D02*
X103828571Y-90059580D01*
X103828571Y-90059580D02*
X103876190Y-90107200D01*
X103876190Y-90107200D02*
X103971428Y-90154819D01*
X103971428Y-90154819D02*
X104066666Y-90154819D01*
X104066666Y-90154819D02*
X104161904Y-90107200D01*
X104161904Y-90107200D02*
X104209523Y-90059580D01*
X104209523Y-90059580D02*
X104257142Y-89964342D01*
X104257142Y-89964342D02*
X104304761Y-89773866D01*
X104304761Y-89773866D02*
X104304761Y-89535771D01*
X104304761Y-89535771D02*
X104257142Y-89345295D01*
X104257142Y-89345295D02*
X104209523Y-89250057D01*
X104209523Y-89250057D02*
X104161904Y-89202438D01*
X104161904Y-89202438D02*
X104066666Y-89154819D01*
X102780952Y-90154819D02*
X103352380Y-90154819D01*
X103066666Y-90154819D02*
X103066666Y-89154819D01*
X103066666Y-89154819D02*
X103161904Y-89297676D01*
X103161904Y-89297676D02*
X103257142Y-89392914D01*
X103257142Y-89392914D02*
X103352380Y-89440533D01*
X67159580Y-172180952D02*
X67207200Y-172133333D01*
X67207200Y-172133333D02*
X67254819Y-171990476D01*
X67254819Y-171990476D02*
X67254819Y-171895238D01*
X67254819Y-171895238D02*
X67207200Y-171752381D01*
X67207200Y-171752381D02*
X67111961Y-171657143D01*
X67111961Y-171657143D02*
X67016723Y-171609524D01*
X67016723Y-171609524D02*
X66826247Y-171561905D01*
X66826247Y-171561905D02*
X66683390Y-171561905D01*
X66683390Y-171561905D02*
X66492914Y-171609524D01*
X66492914Y-171609524D02*
X66397676Y-171657143D01*
X66397676Y-171657143D02*
X66302438Y-171752381D01*
X66302438Y-171752381D02*
X66254819Y-171895238D01*
X66254819Y-171895238D02*
X66254819Y-171990476D01*
X66254819Y-171990476D02*
X66302438Y-172133333D01*
X66302438Y-172133333D02*
X66350057Y-172180952D01*
X66350057Y-172561905D02*
X66302438Y-172609524D01*
X66302438Y-172609524D02*
X66254819Y-172704762D01*
X66254819Y-172704762D02*
X66254819Y-172942857D01*
X66254819Y-172942857D02*
X66302438Y-173038095D01*
X66302438Y-173038095D02*
X66350057Y-173085714D01*
X66350057Y-173085714D02*
X66445295Y-173133333D01*
X66445295Y-173133333D02*
X66540533Y-173133333D01*
X66540533Y-173133333D02*
X66683390Y-173085714D01*
X66683390Y-173085714D02*
X67254819Y-172514286D01*
X67254819Y-172514286D02*
X67254819Y-173133333D01*
X66254819Y-173752381D02*
X66254819Y-173847619D01*
X66254819Y-173847619D02*
X66302438Y-173942857D01*
X66302438Y-173942857D02*
X66350057Y-173990476D01*
X66350057Y-173990476D02*
X66445295Y-174038095D01*
X66445295Y-174038095D02*
X66635771Y-174085714D01*
X66635771Y-174085714D02*
X66873866Y-174085714D01*
X66873866Y-174085714D02*
X67064342Y-174038095D01*
X67064342Y-174038095D02*
X67159580Y-173990476D01*
X67159580Y-173990476D02*
X67207200Y-173942857D01*
X67207200Y-173942857D02*
X67254819Y-173847619D01*
X67254819Y-173847619D02*
X67254819Y-173752381D01*
X67254819Y-173752381D02*
X67207200Y-173657143D01*
X67207200Y-173657143D02*
X67159580Y-173609524D01*
X67159580Y-173609524D02*
X67064342Y-173561905D01*
X67064342Y-173561905D02*
X66873866Y-173514286D01*
X66873866Y-173514286D02*
X66635771Y-173514286D01*
X66635771Y-173514286D02*
X66445295Y-173561905D01*
X66445295Y-173561905D02*
X66350057Y-173609524D01*
X66350057Y-173609524D02*
X66302438Y-173657143D01*
X66302438Y-173657143D02*
X66254819Y-173752381D01*
X66254819Y-174704762D02*
X66254819Y-174800000D01*
X66254819Y-174800000D02*
X66302438Y-174895238D01*
X66302438Y-174895238D02*
X66350057Y-174942857D01*
X66350057Y-174942857D02*
X66445295Y-174990476D01*
X66445295Y-174990476D02*
X66635771Y-175038095D01*
X66635771Y-175038095D02*
X66873866Y-175038095D01*
X66873866Y-175038095D02*
X67064342Y-174990476D01*
X67064342Y-174990476D02*
X67159580Y-174942857D01*
X67159580Y-174942857D02*
X67207200Y-174895238D01*
X67207200Y-174895238D02*
X67254819Y-174800000D01*
X67254819Y-174800000D02*
X67254819Y-174704762D01*
X67254819Y-174704762D02*
X67207200Y-174609524D01*
X67207200Y-174609524D02*
X67159580Y-174561905D01*
X67159580Y-174561905D02*
X67064342Y-174514286D01*
X67064342Y-174514286D02*
X66873866Y-174466667D01*
X66873866Y-174466667D02*
X66635771Y-174466667D01*
X66635771Y-174466667D02*
X66445295Y-174514286D01*
X66445295Y-174514286D02*
X66350057Y-174561905D01*
X66350057Y-174561905D02*
X66302438Y-174609524D01*
X66302438Y-174609524D02*
X66254819Y-174704762D01*
X100819047Y-186359580D02*
X100866666Y-186407200D01*
X100866666Y-186407200D02*
X101009523Y-186454819D01*
X101009523Y-186454819D02*
X101104761Y-186454819D01*
X101104761Y-186454819D02*
X101247618Y-186407200D01*
X101247618Y-186407200D02*
X101342856Y-186311961D01*
X101342856Y-186311961D02*
X101390475Y-186216723D01*
X101390475Y-186216723D02*
X101438094Y-186026247D01*
X101438094Y-186026247D02*
X101438094Y-185883390D01*
X101438094Y-185883390D02*
X101390475Y-185692914D01*
X101390475Y-185692914D02*
X101342856Y-185597676D01*
X101342856Y-185597676D02*
X101247618Y-185502438D01*
X101247618Y-185502438D02*
X101104761Y-185454819D01*
X101104761Y-185454819D02*
X101009523Y-185454819D01*
X101009523Y-185454819D02*
X100866666Y-185502438D01*
X100866666Y-185502438D02*
X100819047Y-185550057D01*
X100485713Y-185454819D02*
X99866666Y-185454819D01*
X99866666Y-185454819D02*
X100199999Y-185835771D01*
X100199999Y-185835771D02*
X100057142Y-185835771D01*
X100057142Y-185835771D02*
X99961904Y-185883390D01*
X99961904Y-185883390D02*
X99914285Y-185931009D01*
X99914285Y-185931009D02*
X99866666Y-186026247D01*
X99866666Y-186026247D02*
X99866666Y-186264342D01*
X99866666Y-186264342D02*
X99914285Y-186359580D01*
X99914285Y-186359580D02*
X99961904Y-186407200D01*
X99961904Y-186407200D02*
X100057142Y-186454819D01*
X100057142Y-186454819D02*
X100342856Y-186454819D01*
X100342856Y-186454819D02*
X100438094Y-186407200D01*
X100438094Y-186407200D02*
X100485713Y-186359580D01*
X99247618Y-185454819D02*
X99152380Y-185454819D01*
X99152380Y-185454819D02*
X99057142Y-185502438D01*
X99057142Y-185502438D02*
X99009523Y-185550057D01*
X99009523Y-185550057D02*
X98961904Y-185645295D01*
X98961904Y-185645295D02*
X98914285Y-185835771D01*
X98914285Y-185835771D02*
X98914285Y-186073866D01*
X98914285Y-186073866D02*
X98961904Y-186264342D01*
X98961904Y-186264342D02*
X99009523Y-186359580D01*
X99009523Y-186359580D02*
X99057142Y-186407200D01*
X99057142Y-186407200D02*
X99152380Y-186454819D01*
X99152380Y-186454819D02*
X99247618Y-186454819D01*
X99247618Y-186454819D02*
X99342856Y-186407200D01*
X99342856Y-186407200D02*
X99390475Y-186359580D01*
X99390475Y-186359580D02*
X99438094Y-186264342D01*
X99438094Y-186264342D02*
X99485713Y-186073866D01*
X99485713Y-186073866D02*
X99485713Y-185835771D01*
X99485713Y-185835771D02*
X99438094Y-185645295D01*
X99438094Y-185645295D02*
X99390475Y-185550057D01*
X99390475Y-185550057D02*
X99342856Y-185502438D01*
X99342856Y-185502438D02*
X99247618Y-185454819D01*
X98580951Y-185454819D02*
X97961904Y-185454819D01*
X97961904Y-185454819D02*
X98295237Y-185835771D01*
X98295237Y-185835771D02*
X98152380Y-185835771D01*
X98152380Y-185835771D02*
X98057142Y-185883390D01*
X98057142Y-185883390D02*
X98009523Y-185931009D01*
X98009523Y-185931009D02*
X97961904Y-186026247D01*
X97961904Y-186026247D02*
X97961904Y-186264342D01*
X97961904Y-186264342D02*
X98009523Y-186359580D01*
X98009523Y-186359580D02*
X98057142Y-186407200D01*
X98057142Y-186407200D02*
X98152380Y-186454819D01*
X98152380Y-186454819D02*
X98438094Y-186454819D01*
X98438094Y-186454819D02*
X98533332Y-186407200D01*
X98533332Y-186407200D02*
X98580951Y-186359580D01*
X162319047Y-198959580D02*
X162366666Y-199007200D01*
X162366666Y-199007200D02*
X162509523Y-199054819D01*
X162509523Y-199054819D02*
X162604761Y-199054819D01*
X162604761Y-199054819D02*
X162747618Y-199007200D01*
X162747618Y-199007200D02*
X162842856Y-198911961D01*
X162842856Y-198911961D02*
X162890475Y-198816723D01*
X162890475Y-198816723D02*
X162938094Y-198626247D01*
X162938094Y-198626247D02*
X162938094Y-198483390D01*
X162938094Y-198483390D02*
X162890475Y-198292914D01*
X162890475Y-198292914D02*
X162842856Y-198197676D01*
X162842856Y-198197676D02*
X162747618Y-198102438D01*
X162747618Y-198102438D02*
X162604761Y-198054819D01*
X162604761Y-198054819D02*
X162509523Y-198054819D01*
X162509523Y-198054819D02*
X162366666Y-198102438D01*
X162366666Y-198102438D02*
X162319047Y-198150057D01*
X161938094Y-198150057D02*
X161890475Y-198102438D01*
X161890475Y-198102438D02*
X161795237Y-198054819D01*
X161795237Y-198054819D02*
X161557142Y-198054819D01*
X161557142Y-198054819D02*
X161461904Y-198102438D01*
X161461904Y-198102438D02*
X161414285Y-198150057D01*
X161414285Y-198150057D02*
X161366666Y-198245295D01*
X161366666Y-198245295D02*
X161366666Y-198340533D01*
X161366666Y-198340533D02*
X161414285Y-198483390D01*
X161414285Y-198483390D02*
X161985713Y-199054819D01*
X161985713Y-199054819D02*
X161366666Y-199054819D01*
X160985713Y-198150057D02*
X160938094Y-198102438D01*
X160938094Y-198102438D02*
X160842856Y-198054819D01*
X160842856Y-198054819D02*
X160604761Y-198054819D01*
X160604761Y-198054819D02*
X160509523Y-198102438D01*
X160509523Y-198102438D02*
X160461904Y-198150057D01*
X160461904Y-198150057D02*
X160414285Y-198245295D01*
X160414285Y-198245295D02*
X160414285Y-198340533D01*
X160414285Y-198340533D02*
X160461904Y-198483390D01*
X160461904Y-198483390D02*
X161033332Y-199054819D01*
X161033332Y-199054819D02*
X160414285Y-199054819D01*
X159557142Y-198054819D02*
X159747618Y-198054819D01*
X159747618Y-198054819D02*
X159842856Y-198102438D01*
X159842856Y-198102438D02*
X159890475Y-198150057D01*
X159890475Y-198150057D02*
X159985713Y-198292914D01*
X159985713Y-198292914D02*
X160033332Y-198483390D01*
X160033332Y-198483390D02*
X160033332Y-198864342D01*
X160033332Y-198864342D02*
X159985713Y-198959580D01*
X159985713Y-198959580D02*
X159938094Y-199007200D01*
X159938094Y-199007200D02*
X159842856Y-199054819D01*
X159842856Y-199054819D02*
X159652380Y-199054819D01*
X159652380Y-199054819D02*
X159557142Y-199007200D01*
X159557142Y-199007200D02*
X159509523Y-198959580D01*
X159509523Y-198959580D02*
X159461904Y-198864342D01*
X159461904Y-198864342D02*
X159461904Y-198626247D01*
X159461904Y-198626247D02*
X159509523Y-198531009D01*
X159509523Y-198531009D02*
X159557142Y-198483390D01*
X159557142Y-198483390D02*
X159652380Y-198435771D01*
X159652380Y-198435771D02*
X159842856Y-198435771D01*
X159842856Y-198435771D02*
X159938094Y-198483390D01*
X159938094Y-198483390D02*
X159985713Y-198531009D01*
X159985713Y-198531009D02*
X160033332Y-198626247D01*
X144319047Y-170359580D02*
X144366666Y-170407200D01*
X144366666Y-170407200D02*
X144509523Y-170454819D01*
X144509523Y-170454819D02*
X144604761Y-170454819D01*
X144604761Y-170454819D02*
X144747618Y-170407200D01*
X144747618Y-170407200D02*
X144842856Y-170311961D01*
X144842856Y-170311961D02*
X144890475Y-170216723D01*
X144890475Y-170216723D02*
X144938094Y-170026247D01*
X144938094Y-170026247D02*
X144938094Y-169883390D01*
X144938094Y-169883390D02*
X144890475Y-169692914D01*
X144890475Y-169692914D02*
X144842856Y-169597676D01*
X144842856Y-169597676D02*
X144747618Y-169502438D01*
X144747618Y-169502438D02*
X144604761Y-169454819D01*
X144604761Y-169454819D02*
X144509523Y-169454819D01*
X144509523Y-169454819D02*
X144366666Y-169502438D01*
X144366666Y-169502438D02*
X144319047Y-169550057D01*
X143366666Y-170454819D02*
X143938094Y-170454819D01*
X143652380Y-170454819D02*
X143652380Y-169454819D01*
X143652380Y-169454819D02*
X143747618Y-169597676D01*
X143747618Y-169597676D02*
X143842856Y-169692914D01*
X143842856Y-169692914D02*
X143938094Y-169740533D01*
X142985713Y-169550057D02*
X142938094Y-169502438D01*
X142938094Y-169502438D02*
X142842856Y-169454819D01*
X142842856Y-169454819D02*
X142604761Y-169454819D01*
X142604761Y-169454819D02*
X142509523Y-169502438D01*
X142509523Y-169502438D02*
X142461904Y-169550057D01*
X142461904Y-169550057D02*
X142414285Y-169645295D01*
X142414285Y-169645295D02*
X142414285Y-169740533D01*
X142414285Y-169740533D02*
X142461904Y-169883390D01*
X142461904Y-169883390D02*
X143033332Y-170454819D01*
X143033332Y-170454819D02*
X142414285Y-170454819D01*
X142033332Y-169550057D02*
X141985713Y-169502438D01*
X141985713Y-169502438D02*
X141890475Y-169454819D01*
X141890475Y-169454819D02*
X141652380Y-169454819D01*
X141652380Y-169454819D02*
X141557142Y-169502438D01*
X141557142Y-169502438D02*
X141509523Y-169550057D01*
X141509523Y-169550057D02*
X141461904Y-169645295D01*
X141461904Y-169645295D02*
X141461904Y-169740533D01*
X141461904Y-169740533D02*
X141509523Y-169883390D01*
X141509523Y-169883390D02*
X142080951Y-170454819D01*
X142080951Y-170454819D02*
X141461904Y-170454819D01*
X63119047Y-98259580D02*
X63166666Y-98307200D01*
X63166666Y-98307200D02*
X63309523Y-98354819D01*
X63309523Y-98354819D02*
X63404761Y-98354819D01*
X63404761Y-98354819D02*
X63547618Y-98307200D01*
X63547618Y-98307200D02*
X63642856Y-98211961D01*
X63642856Y-98211961D02*
X63690475Y-98116723D01*
X63690475Y-98116723D02*
X63738094Y-97926247D01*
X63738094Y-97926247D02*
X63738094Y-97783390D01*
X63738094Y-97783390D02*
X63690475Y-97592914D01*
X63690475Y-97592914D02*
X63642856Y-97497676D01*
X63642856Y-97497676D02*
X63547618Y-97402438D01*
X63547618Y-97402438D02*
X63404761Y-97354819D01*
X63404761Y-97354819D02*
X63309523Y-97354819D01*
X63309523Y-97354819D02*
X63166666Y-97402438D01*
X63166666Y-97402438D02*
X63119047Y-97450057D01*
X62785713Y-97354819D02*
X62166666Y-97354819D01*
X62166666Y-97354819D02*
X62499999Y-97735771D01*
X62499999Y-97735771D02*
X62357142Y-97735771D01*
X62357142Y-97735771D02*
X62261904Y-97783390D01*
X62261904Y-97783390D02*
X62214285Y-97831009D01*
X62214285Y-97831009D02*
X62166666Y-97926247D01*
X62166666Y-97926247D02*
X62166666Y-98164342D01*
X62166666Y-98164342D02*
X62214285Y-98259580D01*
X62214285Y-98259580D02*
X62261904Y-98307200D01*
X62261904Y-98307200D02*
X62357142Y-98354819D01*
X62357142Y-98354819D02*
X62642856Y-98354819D01*
X62642856Y-98354819D02*
X62738094Y-98307200D01*
X62738094Y-98307200D02*
X62785713Y-98259580D01*
X61547618Y-97354819D02*
X61452380Y-97354819D01*
X61452380Y-97354819D02*
X61357142Y-97402438D01*
X61357142Y-97402438D02*
X61309523Y-97450057D01*
X61309523Y-97450057D02*
X61261904Y-97545295D01*
X61261904Y-97545295D02*
X61214285Y-97735771D01*
X61214285Y-97735771D02*
X61214285Y-97973866D01*
X61214285Y-97973866D02*
X61261904Y-98164342D01*
X61261904Y-98164342D02*
X61309523Y-98259580D01*
X61309523Y-98259580D02*
X61357142Y-98307200D01*
X61357142Y-98307200D02*
X61452380Y-98354819D01*
X61452380Y-98354819D02*
X61547618Y-98354819D01*
X61547618Y-98354819D02*
X61642856Y-98307200D01*
X61642856Y-98307200D02*
X61690475Y-98259580D01*
X61690475Y-98259580D02*
X61738094Y-98164342D01*
X61738094Y-98164342D02*
X61785713Y-97973866D01*
X61785713Y-97973866D02*
X61785713Y-97735771D01*
X61785713Y-97735771D02*
X61738094Y-97545295D01*
X61738094Y-97545295D02*
X61690475Y-97450057D01*
X61690475Y-97450057D02*
X61642856Y-97402438D01*
X61642856Y-97402438D02*
X61547618Y-97354819D01*
X60595237Y-97354819D02*
X60499999Y-97354819D01*
X60499999Y-97354819D02*
X60404761Y-97402438D01*
X60404761Y-97402438D02*
X60357142Y-97450057D01*
X60357142Y-97450057D02*
X60309523Y-97545295D01*
X60309523Y-97545295D02*
X60261904Y-97735771D01*
X60261904Y-97735771D02*
X60261904Y-97973866D01*
X60261904Y-97973866D02*
X60309523Y-98164342D01*
X60309523Y-98164342D02*
X60357142Y-98259580D01*
X60357142Y-98259580D02*
X60404761Y-98307200D01*
X60404761Y-98307200D02*
X60499999Y-98354819D01*
X60499999Y-98354819D02*
X60595237Y-98354819D01*
X60595237Y-98354819D02*
X60690475Y-98307200D01*
X60690475Y-98307200D02*
X60738094Y-98259580D01*
X60738094Y-98259580D02*
X60785713Y-98164342D01*
X60785713Y-98164342D02*
X60833332Y-97973866D01*
X60833332Y-97973866D02*
X60833332Y-97735771D01*
X60833332Y-97735771D02*
X60785713Y-97545295D01*
X60785713Y-97545295D02*
X60738094Y-97450057D01*
X60738094Y-97450057D02*
X60690475Y-97402438D01*
X60690475Y-97402438D02*
X60595237Y-97354819D01*
X79119047Y-194439580D02*
X79166666Y-194487200D01*
X79166666Y-194487200D02*
X79309523Y-194534819D01*
X79309523Y-194534819D02*
X79404761Y-194534819D01*
X79404761Y-194534819D02*
X79547618Y-194487200D01*
X79547618Y-194487200D02*
X79642856Y-194391961D01*
X79642856Y-194391961D02*
X79690475Y-194296723D01*
X79690475Y-194296723D02*
X79738094Y-194106247D01*
X79738094Y-194106247D02*
X79738094Y-193963390D01*
X79738094Y-193963390D02*
X79690475Y-193772914D01*
X79690475Y-193772914D02*
X79642856Y-193677676D01*
X79642856Y-193677676D02*
X79547618Y-193582438D01*
X79547618Y-193582438D02*
X79404761Y-193534819D01*
X79404761Y-193534819D02*
X79309523Y-193534819D01*
X79309523Y-193534819D02*
X79166666Y-193582438D01*
X79166666Y-193582438D02*
X79119047Y-193630057D01*
X78738094Y-193630057D02*
X78690475Y-193582438D01*
X78690475Y-193582438D02*
X78595237Y-193534819D01*
X78595237Y-193534819D02*
X78357142Y-193534819D01*
X78357142Y-193534819D02*
X78261904Y-193582438D01*
X78261904Y-193582438D02*
X78214285Y-193630057D01*
X78214285Y-193630057D02*
X78166666Y-193725295D01*
X78166666Y-193725295D02*
X78166666Y-193820533D01*
X78166666Y-193820533D02*
X78214285Y-193963390D01*
X78214285Y-193963390D02*
X78785713Y-194534819D01*
X78785713Y-194534819D02*
X78166666Y-194534819D01*
X77214285Y-194534819D02*
X77785713Y-194534819D01*
X77499999Y-194534819D02*
X77499999Y-193534819D01*
X77499999Y-193534819D02*
X77595237Y-193677676D01*
X77595237Y-193677676D02*
X77690475Y-193772914D01*
X77690475Y-193772914D02*
X77785713Y-193820533D01*
X76357142Y-193534819D02*
X76547618Y-193534819D01*
X76547618Y-193534819D02*
X76642856Y-193582438D01*
X76642856Y-193582438D02*
X76690475Y-193630057D01*
X76690475Y-193630057D02*
X76785713Y-193772914D01*
X76785713Y-193772914D02*
X76833332Y-193963390D01*
X76833332Y-193963390D02*
X76833332Y-194344342D01*
X76833332Y-194344342D02*
X76785713Y-194439580D01*
X76785713Y-194439580D02*
X76738094Y-194487200D01*
X76738094Y-194487200D02*
X76642856Y-194534819D01*
X76642856Y-194534819D02*
X76452380Y-194534819D01*
X76452380Y-194534819D02*
X76357142Y-194487200D01*
X76357142Y-194487200D02*
X76309523Y-194439580D01*
X76309523Y-194439580D02*
X76261904Y-194344342D01*
X76261904Y-194344342D02*
X76261904Y-194106247D01*
X76261904Y-194106247D02*
X76309523Y-194011009D01*
X76309523Y-194011009D02*
X76357142Y-193963390D01*
X76357142Y-193963390D02*
X76452380Y-193915771D01*
X76452380Y-193915771D02*
X76642856Y-193915771D01*
X76642856Y-193915771D02*
X76738094Y-193963390D01*
X76738094Y-193963390D02*
X76785713Y-194011009D01*
X76785713Y-194011009D02*
X76833332Y-194106247D01*
X170259580Y-138157142D02*
X170307200Y-138109523D01*
X170307200Y-138109523D02*
X170354819Y-137966666D01*
X170354819Y-137966666D02*
X170354819Y-137871428D01*
X170354819Y-137871428D02*
X170307200Y-137728571D01*
X170307200Y-137728571D02*
X170211961Y-137633333D01*
X170211961Y-137633333D02*
X170116723Y-137585714D01*
X170116723Y-137585714D02*
X169926247Y-137538095D01*
X169926247Y-137538095D02*
X169783390Y-137538095D01*
X169783390Y-137538095D02*
X169592914Y-137585714D01*
X169592914Y-137585714D02*
X169497676Y-137633333D01*
X169497676Y-137633333D02*
X169402438Y-137728571D01*
X169402438Y-137728571D02*
X169354819Y-137871428D01*
X169354819Y-137871428D02*
X169354819Y-137966666D01*
X169354819Y-137966666D02*
X169402438Y-138109523D01*
X169402438Y-138109523D02*
X169450057Y-138157142D01*
X170354819Y-138585714D02*
X169354819Y-138585714D01*
X169354819Y-138585714D02*
X170354819Y-139157142D01*
X170354819Y-139157142D02*
X169354819Y-139157142D01*
X170354819Y-140157142D02*
X170354819Y-139585714D01*
X170354819Y-139871428D02*
X169354819Y-139871428D01*
X169354819Y-139871428D02*
X169497676Y-139776190D01*
X169497676Y-139776190D02*
X169592914Y-139680952D01*
X169592914Y-139680952D02*
X169640533Y-139585714D01*
X169354819Y-140776190D02*
X169354819Y-140871428D01*
X169354819Y-140871428D02*
X169402438Y-140966666D01*
X169402438Y-140966666D02*
X169450057Y-141014285D01*
X169450057Y-141014285D02*
X169545295Y-141061904D01*
X169545295Y-141061904D02*
X169735771Y-141109523D01*
X169735771Y-141109523D02*
X169973866Y-141109523D01*
X169973866Y-141109523D02*
X170164342Y-141061904D01*
X170164342Y-141061904D02*
X170259580Y-141014285D01*
X170259580Y-141014285D02*
X170307200Y-140966666D01*
X170307200Y-140966666D02*
X170354819Y-140871428D01*
X170354819Y-140871428D02*
X170354819Y-140776190D01*
X170354819Y-140776190D02*
X170307200Y-140680952D01*
X170307200Y-140680952D02*
X170259580Y-140633333D01*
X170259580Y-140633333D02*
X170164342Y-140585714D01*
X170164342Y-140585714D02*
X169973866Y-140538095D01*
X169973866Y-140538095D02*
X169735771Y-140538095D01*
X169735771Y-140538095D02*
X169545295Y-140585714D01*
X169545295Y-140585714D02*
X169450057Y-140633333D01*
X169450057Y-140633333D02*
X169402438Y-140680952D01*
X169402438Y-140680952D02*
X169354819Y-140776190D01*
X169450057Y-141490476D02*
X169402438Y-141538095D01*
X169402438Y-141538095D02*
X169354819Y-141633333D01*
X169354819Y-141633333D02*
X169354819Y-141871428D01*
X169354819Y-141871428D02*
X169402438Y-141966666D01*
X169402438Y-141966666D02*
X169450057Y-142014285D01*
X169450057Y-142014285D02*
X169545295Y-142061904D01*
X169545295Y-142061904D02*
X169640533Y-142061904D01*
X169640533Y-142061904D02*
X169783390Y-142014285D01*
X169783390Y-142014285D02*
X170354819Y-141442857D01*
X170354819Y-141442857D02*
X170354819Y-142061904D01*
X169490475Y-125754819D02*
X169490475Y-124754819D01*
X169490475Y-124754819D02*
X169109523Y-124754819D01*
X169109523Y-124754819D02*
X169014285Y-124802438D01*
X169014285Y-124802438D02*
X168966666Y-124850057D01*
X168966666Y-124850057D02*
X168919047Y-124945295D01*
X168919047Y-124945295D02*
X168919047Y-125088152D01*
X168919047Y-125088152D02*
X168966666Y-125183390D01*
X168966666Y-125183390D02*
X169014285Y-125231009D01*
X169014285Y-125231009D02*
X169109523Y-125278628D01*
X169109523Y-125278628D02*
X169490475Y-125278628D01*
X167966666Y-125754819D02*
X168538094Y-125754819D01*
X168252380Y-125754819D02*
X168252380Y-124754819D01*
X168252380Y-124754819D02*
X168347618Y-124897676D01*
X168347618Y-124897676D02*
X168442856Y-124992914D01*
X168442856Y-124992914D02*
X168538094Y-125040533D01*
X167347618Y-124754819D02*
X167252380Y-124754819D01*
X167252380Y-124754819D02*
X167157142Y-124802438D01*
X167157142Y-124802438D02*
X167109523Y-124850057D01*
X167109523Y-124850057D02*
X167061904Y-124945295D01*
X167061904Y-124945295D02*
X167014285Y-125135771D01*
X167014285Y-125135771D02*
X167014285Y-125373866D01*
X167014285Y-125373866D02*
X167061904Y-125564342D01*
X167061904Y-125564342D02*
X167109523Y-125659580D01*
X167109523Y-125659580D02*
X167157142Y-125707200D01*
X167157142Y-125707200D02*
X167252380Y-125754819D01*
X167252380Y-125754819D02*
X167347618Y-125754819D01*
X167347618Y-125754819D02*
X167442856Y-125707200D01*
X167442856Y-125707200D02*
X167490475Y-125659580D01*
X167490475Y-125659580D02*
X167538094Y-125564342D01*
X167538094Y-125564342D02*
X167585713Y-125373866D01*
X167585713Y-125373866D02*
X167585713Y-125135771D01*
X167585713Y-125135771D02*
X167538094Y-124945295D01*
X167538094Y-124945295D02*
X167490475Y-124850057D01*
X167490475Y-124850057D02*
X167442856Y-124802438D01*
X167442856Y-124802438D02*
X167347618Y-124754819D01*
X166680951Y-124754819D02*
X166061904Y-124754819D01*
X166061904Y-124754819D02*
X166395237Y-125135771D01*
X166395237Y-125135771D02*
X166252380Y-125135771D01*
X166252380Y-125135771D02*
X166157142Y-125183390D01*
X166157142Y-125183390D02*
X166109523Y-125231009D01*
X166109523Y-125231009D02*
X166061904Y-125326247D01*
X166061904Y-125326247D02*
X166061904Y-125564342D01*
X166061904Y-125564342D02*
X166109523Y-125659580D01*
X166109523Y-125659580D02*
X166157142Y-125707200D01*
X166157142Y-125707200D02*
X166252380Y-125754819D01*
X166252380Y-125754819D02*
X166538094Y-125754819D01*
X166538094Y-125754819D02*
X166633332Y-125707200D01*
X166633332Y-125707200D02*
X166680951Y-125659580D01*
X153119047Y-151959580D02*
X153166666Y-152007200D01*
X153166666Y-152007200D02*
X153309523Y-152054819D01*
X153309523Y-152054819D02*
X153404761Y-152054819D01*
X153404761Y-152054819D02*
X153547618Y-152007200D01*
X153547618Y-152007200D02*
X153642856Y-151911961D01*
X153642856Y-151911961D02*
X153690475Y-151816723D01*
X153690475Y-151816723D02*
X153738094Y-151626247D01*
X153738094Y-151626247D02*
X153738094Y-151483390D01*
X153738094Y-151483390D02*
X153690475Y-151292914D01*
X153690475Y-151292914D02*
X153642856Y-151197676D01*
X153642856Y-151197676D02*
X153547618Y-151102438D01*
X153547618Y-151102438D02*
X153404761Y-151054819D01*
X153404761Y-151054819D02*
X153309523Y-151054819D01*
X153309523Y-151054819D02*
X153166666Y-151102438D01*
X153166666Y-151102438D02*
X153119047Y-151150057D01*
X152166666Y-152054819D02*
X152738094Y-152054819D01*
X152452380Y-152054819D02*
X152452380Y-151054819D01*
X152452380Y-151054819D02*
X152547618Y-151197676D01*
X152547618Y-151197676D02*
X152642856Y-151292914D01*
X152642856Y-151292914D02*
X152738094Y-151340533D01*
X151214285Y-152054819D02*
X151785713Y-152054819D01*
X151499999Y-152054819D02*
X151499999Y-151054819D01*
X151499999Y-151054819D02*
X151595237Y-151197676D01*
X151595237Y-151197676D02*
X151690475Y-151292914D01*
X151690475Y-151292914D02*
X151785713Y-151340533D01*
X150880951Y-151054819D02*
X150261904Y-151054819D01*
X150261904Y-151054819D02*
X150595237Y-151435771D01*
X150595237Y-151435771D02*
X150452380Y-151435771D01*
X150452380Y-151435771D02*
X150357142Y-151483390D01*
X150357142Y-151483390D02*
X150309523Y-151531009D01*
X150309523Y-151531009D02*
X150261904Y-151626247D01*
X150261904Y-151626247D02*
X150261904Y-151864342D01*
X150261904Y-151864342D02*
X150309523Y-151959580D01*
X150309523Y-151959580D02*
X150357142Y-152007200D01*
X150357142Y-152007200D02*
X150452380Y-152054819D01*
X150452380Y-152054819D02*
X150738094Y-152054819D01*
X150738094Y-152054819D02*
X150833332Y-152007200D01*
X150833332Y-152007200D02*
X150880951Y-151959580D01*
X79119047Y-198939580D02*
X79166666Y-198987200D01*
X79166666Y-198987200D02*
X79309523Y-199034819D01*
X79309523Y-199034819D02*
X79404761Y-199034819D01*
X79404761Y-199034819D02*
X79547618Y-198987200D01*
X79547618Y-198987200D02*
X79642856Y-198891961D01*
X79642856Y-198891961D02*
X79690475Y-198796723D01*
X79690475Y-198796723D02*
X79738094Y-198606247D01*
X79738094Y-198606247D02*
X79738094Y-198463390D01*
X79738094Y-198463390D02*
X79690475Y-198272914D01*
X79690475Y-198272914D02*
X79642856Y-198177676D01*
X79642856Y-198177676D02*
X79547618Y-198082438D01*
X79547618Y-198082438D02*
X79404761Y-198034819D01*
X79404761Y-198034819D02*
X79309523Y-198034819D01*
X79309523Y-198034819D02*
X79166666Y-198082438D01*
X79166666Y-198082438D02*
X79119047Y-198130057D01*
X78738094Y-198130057D02*
X78690475Y-198082438D01*
X78690475Y-198082438D02*
X78595237Y-198034819D01*
X78595237Y-198034819D02*
X78357142Y-198034819D01*
X78357142Y-198034819D02*
X78261904Y-198082438D01*
X78261904Y-198082438D02*
X78214285Y-198130057D01*
X78214285Y-198130057D02*
X78166666Y-198225295D01*
X78166666Y-198225295D02*
X78166666Y-198320533D01*
X78166666Y-198320533D02*
X78214285Y-198463390D01*
X78214285Y-198463390D02*
X78785713Y-199034819D01*
X78785713Y-199034819D02*
X78166666Y-199034819D01*
X77214285Y-199034819D02*
X77785713Y-199034819D01*
X77499999Y-199034819D02*
X77499999Y-198034819D01*
X77499999Y-198034819D02*
X77595237Y-198177676D01*
X77595237Y-198177676D02*
X77690475Y-198272914D01*
X77690475Y-198272914D02*
X77785713Y-198320533D01*
X76309523Y-198034819D02*
X76785713Y-198034819D01*
X76785713Y-198034819D02*
X76833332Y-198511009D01*
X76833332Y-198511009D02*
X76785713Y-198463390D01*
X76785713Y-198463390D02*
X76690475Y-198415771D01*
X76690475Y-198415771D02*
X76452380Y-198415771D01*
X76452380Y-198415771D02*
X76357142Y-198463390D01*
X76357142Y-198463390D02*
X76309523Y-198511009D01*
X76309523Y-198511009D02*
X76261904Y-198606247D01*
X76261904Y-198606247D02*
X76261904Y-198844342D01*
X76261904Y-198844342D02*
X76309523Y-198939580D01*
X76309523Y-198939580D02*
X76357142Y-198987200D01*
X76357142Y-198987200D02*
X76452380Y-199034819D01*
X76452380Y-199034819D02*
X76690475Y-199034819D01*
X76690475Y-199034819D02*
X76785713Y-198987200D01*
X76785713Y-198987200D02*
X76833332Y-198939580D01*
X93304819Y-149559524D02*
X92304819Y-149559524D01*
X92304819Y-149559524D02*
X92304819Y-149940476D01*
X92304819Y-149940476D02*
X92352438Y-150035714D01*
X92352438Y-150035714D02*
X92400057Y-150083333D01*
X92400057Y-150083333D02*
X92495295Y-150130952D01*
X92495295Y-150130952D02*
X92638152Y-150130952D01*
X92638152Y-150130952D02*
X92733390Y-150083333D01*
X92733390Y-150083333D02*
X92781009Y-150035714D01*
X92781009Y-150035714D02*
X92828628Y-149940476D01*
X92828628Y-149940476D02*
X92828628Y-149559524D01*
X93304819Y-151083333D02*
X93304819Y-150511905D01*
X93304819Y-150797619D02*
X92304819Y-150797619D01*
X92304819Y-150797619D02*
X92447676Y-150702381D01*
X92447676Y-150702381D02*
X92542914Y-150607143D01*
X92542914Y-150607143D02*
X92590533Y-150511905D01*
X92304819Y-151702381D02*
X92304819Y-151797619D01*
X92304819Y-151797619D02*
X92352438Y-151892857D01*
X92352438Y-151892857D02*
X92400057Y-151940476D01*
X92400057Y-151940476D02*
X92495295Y-151988095D01*
X92495295Y-151988095D02*
X92685771Y-152035714D01*
X92685771Y-152035714D02*
X92923866Y-152035714D01*
X92923866Y-152035714D02*
X93114342Y-151988095D01*
X93114342Y-151988095D02*
X93209580Y-151940476D01*
X93209580Y-151940476D02*
X93257200Y-151892857D01*
X93257200Y-151892857D02*
X93304819Y-151797619D01*
X93304819Y-151797619D02*
X93304819Y-151702381D01*
X93304819Y-151702381D02*
X93257200Y-151607143D01*
X93257200Y-151607143D02*
X93209580Y-151559524D01*
X93209580Y-151559524D02*
X93114342Y-151511905D01*
X93114342Y-151511905D02*
X92923866Y-151464286D01*
X92923866Y-151464286D02*
X92685771Y-151464286D01*
X92685771Y-151464286D02*
X92495295Y-151511905D01*
X92495295Y-151511905D02*
X92400057Y-151559524D01*
X92400057Y-151559524D02*
X92352438Y-151607143D01*
X92352438Y-151607143D02*
X92304819Y-151702381D01*
X93304819Y-152988095D02*
X93304819Y-152416667D01*
X93304819Y-152702381D02*
X92304819Y-152702381D01*
X92304819Y-152702381D02*
X92447676Y-152607143D01*
X92447676Y-152607143D02*
X92542914Y-152511905D01*
X92542914Y-152511905D02*
X92590533Y-152416667D01*
X81019047Y-119159580D02*
X81066666Y-119207200D01*
X81066666Y-119207200D02*
X81209523Y-119254819D01*
X81209523Y-119254819D02*
X81304761Y-119254819D01*
X81304761Y-119254819D02*
X81447618Y-119207200D01*
X81447618Y-119207200D02*
X81542856Y-119111961D01*
X81542856Y-119111961D02*
X81590475Y-119016723D01*
X81590475Y-119016723D02*
X81638094Y-118826247D01*
X81638094Y-118826247D02*
X81638094Y-118683390D01*
X81638094Y-118683390D02*
X81590475Y-118492914D01*
X81590475Y-118492914D02*
X81542856Y-118397676D01*
X81542856Y-118397676D02*
X81447618Y-118302438D01*
X81447618Y-118302438D02*
X81304761Y-118254819D01*
X81304761Y-118254819D02*
X81209523Y-118254819D01*
X81209523Y-118254819D02*
X81066666Y-118302438D01*
X81066666Y-118302438D02*
X81019047Y-118350057D01*
X80685713Y-118254819D02*
X80066666Y-118254819D01*
X80066666Y-118254819D02*
X80399999Y-118635771D01*
X80399999Y-118635771D02*
X80257142Y-118635771D01*
X80257142Y-118635771D02*
X80161904Y-118683390D01*
X80161904Y-118683390D02*
X80114285Y-118731009D01*
X80114285Y-118731009D02*
X80066666Y-118826247D01*
X80066666Y-118826247D02*
X80066666Y-119064342D01*
X80066666Y-119064342D02*
X80114285Y-119159580D01*
X80114285Y-119159580D02*
X80161904Y-119207200D01*
X80161904Y-119207200D02*
X80257142Y-119254819D01*
X80257142Y-119254819D02*
X80542856Y-119254819D01*
X80542856Y-119254819D02*
X80638094Y-119207200D01*
X80638094Y-119207200D02*
X80685713Y-119159580D01*
X79447618Y-118254819D02*
X79352380Y-118254819D01*
X79352380Y-118254819D02*
X79257142Y-118302438D01*
X79257142Y-118302438D02*
X79209523Y-118350057D01*
X79209523Y-118350057D02*
X79161904Y-118445295D01*
X79161904Y-118445295D02*
X79114285Y-118635771D01*
X79114285Y-118635771D02*
X79114285Y-118873866D01*
X79114285Y-118873866D02*
X79161904Y-119064342D01*
X79161904Y-119064342D02*
X79209523Y-119159580D01*
X79209523Y-119159580D02*
X79257142Y-119207200D01*
X79257142Y-119207200D02*
X79352380Y-119254819D01*
X79352380Y-119254819D02*
X79447618Y-119254819D01*
X79447618Y-119254819D02*
X79542856Y-119207200D01*
X79542856Y-119207200D02*
X79590475Y-119159580D01*
X79590475Y-119159580D02*
X79638094Y-119064342D01*
X79638094Y-119064342D02*
X79685713Y-118873866D01*
X79685713Y-118873866D02*
X79685713Y-118635771D01*
X79685713Y-118635771D02*
X79638094Y-118445295D01*
X79638094Y-118445295D02*
X79590475Y-118350057D01*
X79590475Y-118350057D02*
X79542856Y-118302438D01*
X79542856Y-118302438D02*
X79447618Y-118254819D01*
X78733332Y-118350057D02*
X78685713Y-118302438D01*
X78685713Y-118302438D02*
X78590475Y-118254819D01*
X78590475Y-118254819D02*
X78352380Y-118254819D01*
X78352380Y-118254819D02*
X78257142Y-118302438D01*
X78257142Y-118302438D02*
X78209523Y-118350057D01*
X78209523Y-118350057D02*
X78161904Y-118445295D01*
X78161904Y-118445295D02*
X78161904Y-118540533D01*
X78161904Y-118540533D02*
X78209523Y-118683390D01*
X78209523Y-118683390D02*
X78780951Y-119254819D01*
X78780951Y-119254819D02*
X78161904Y-119254819D01*
X105954819Y-183059524D02*
X104954819Y-183059524D01*
X104954819Y-183059524D02*
X104954819Y-183440476D01*
X104954819Y-183440476D02*
X105002438Y-183535714D01*
X105002438Y-183535714D02*
X105050057Y-183583333D01*
X105050057Y-183583333D02*
X105145295Y-183630952D01*
X105145295Y-183630952D02*
X105288152Y-183630952D01*
X105288152Y-183630952D02*
X105383390Y-183583333D01*
X105383390Y-183583333D02*
X105431009Y-183535714D01*
X105431009Y-183535714D02*
X105478628Y-183440476D01*
X105478628Y-183440476D02*
X105478628Y-183059524D01*
X105954819Y-184583333D02*
X105954819Y-184011905D01*
X105954819Y-184297619D02*
X104954819Y-184297619D01*
X104954819Y-184297619D02*
X105097676Y-184202381D01*
X105097676Y-184202381D02*
X105192914Y-184107143D01*
X105192914Y-184107143D02*
X105240533Y-184011905D01*
X104954819Y-185202381D02*
X104954819Y-185297619D01*
X104954819Y-185297619D02*
X105002438Y-185392857D01*
X105002438Y-185392857D02*
X105050057Y-185440476D01*
X105050057Y-185440476D02*
X105145295Y-185488095D01*
X105145295Y-185488095D02*
X105335771Y-185535714D01*
X105335771Y-185535714D02*
X105573866Y-185535714D01*
X105573866Y-185535714D02*
X105764342Y-185488095D01*
X105764342Y-185488095D02*
X105859580Y-185440476D01*
X105859580Y-185440476D02*
X105907200Y-185392857D01*
X105907200Y-185392857D02*
X105954819Y-185297619D01*
X105954819Y-185297619D02*
X105954819Y-185202381D01*
X105954819Y-185202381D02*
X105907200Y-185107143D01*
X105907200Y-185107143D02*
X105859580Y-185059524D01*
X105859580Y-185059524D02*
X105764342Y-185011905D01*
X105764342Y-185011905D02*
X105573866Y-184964286D01*
X105573866Y-184964286D02*
X105335771Y-184964286D01*
X105335771Y-184964286D02*
X105145295Y-185011905D01*
X105145295Y-185011905D02*
X105050057Y-185059524D01*
X105050057Y-185059524D02*
X105002438Y-185107143D01*
X105002438Y-185107143D02*
X104954819Y-185202381D01*
X104954819Y-186440476D02*
X104954819Y-185964286D01*
X104954819Y-185964286D02*
X105431009Y-185916667D01*
X105431009Y-185916667D02*
X105383390Y-185964286D01*
X105383390Y-185964286D02*
X105335771Y-186059524D01*
X105335771Y-186059524D02*
X105335771Y-186297619D01*
X105335771Y-186297619D02*
X105383390Y-186392857D01*
X105383390Y-186392857D02*
X105431009Y-186440476D01*
X105431009Y-186440476D02*
X105526247Y-186488095D01*
X105526247Y-186488095D02*
X105764342Y-186488095D01*
X105764342Y-186488095D02*
X105859580Y-186440476D01*
X105859580Y-186440476D02*
X105907200Y-186392857D01*
X105907200Y-186392857D02*
X105954819Y-186297619D01*
X105954819Y-186297619D02*
X105954819Y-186059524D01*
X105954819Y-186059524D02*
X105907200Y-185964286D01*
X105907200Y-185964286D02*
X105859580Y-185916667D01*
X164519047Y-146254819D02*
X164995237Y-146254819D01*
X164995237Y-146254819D02*
X164995237Y-145254819D01*
X163661904Y-146254819D02*
X164233332Y-146254819D01*
X163947618Y-146254819D02*
X163947618Y-145254819D01*
X163947618Y-145254819D02*
X164042856Y-145397676D01*
X164042856Y-145397676D02*
X164138094Y-145492914D01*
X164138094Y-145492914D02*
X164233332Y-145540533D01*
X163042856Y-145254819D02*
X162947618Y-145254819D01*
X162947618Y-145254819D02*
X162852380Y-145302438D01*
X162852380Y-145302438D02*
X162804761Y-145350057D01*
X162804761Y-145350057D02*
X162757142Y-145445295D01*
X162757142Y-145445295D02*
X162709523Y-145635771D01*
X162709523Y-145635771D02*
X162709523Y-145873866D01*
X162709523Y-145873866D02*
X162757142Y-146064342D01*
X162757142Y-146064342D02*
X162804761Y-146159580D01*
X162804761Y-146159580D02*
X162852380Y-146207200D01*
X162852380Y-146207200D02*
X162947618Y-146254819D01*
X162947618Y-146254819D02*
X163042856Y-146254819D01*
X163042856Y-146254819D02*
X163138094Y-146207200D01*
X163138094Y-146207200D02*
X163185713Y-146159580D01*
X163185713Y-146159580D02*
X163233332Y-146064342D01*
X163233332Y-146064342D02*
X163280951Y-145873866D01*
X163280951Y-145873866D02*
X163280951Y-145635771D01*
X163280951Y-145635771D02*
X163233332Y-145445295D01*
X163233332Y-145445295D02*
X163185713Y-145350057D01*
X163185713Y-145350057D02*
X163138094Y-145302438D01*
X163138094Y-145302438D02*
X163042856Y-145254819D01*
X161757142Y-146254819D02*
X162328570Y-146254819D01*
X162042856Y-146254819D02*
X162042856Y-145254819D01*
X162042856Y-145254819D02*
X162138094Y-145397676D01*
X162138094Y-145397676D02*
X162233332Y-145492914D01*
X162233332Y-145492914D02*
X162328570Y-145540533D01*
X164799047Y-155424819D02*
X165132380Y-154948628D01*
X165370475Y-155424819D02*
X165370475Y-154424819D01*
X165370475Y-154424819D02*
X164989523Y-154424819D01*
X164989523Y-154424819D02*
X164894285Y-154472438D01*
X164894285Y-154472438D02*
X164846666Y-154520057D01*
X164846666Y-154520057D02*
X164799047Y-154615295D01*
X164799047Y-154615295D02*
X164799047Y-154758152D01*
X164799047Y-154758152D02*
X164846666Y-154853390D01*
X164846666Y-154853390D02*
X164894285Y-154901009D01*
X164894285Y-154901009D02*
X164989523Y-154948628D01*
X164989523Y-154948628D02*
X165370475Y-154948628D01*
X163846666Y-155424819D02*
X164418094Y-155424819D01*
X164132380Y-155424819D02*
X164132380Y-154424819D01*
X164132380Y-154424819D02*
X164227618Y-154567676D01*
X164227618Y-154567676D02*
X164322856Y-154662914D01*
X164322856Y-154662914D02*
X164418094Y-154710533D01*
X163227618Y-154424819D02*
X163132380Y-154424819D01*
X163132380Y-154424819D02*
X163037142Y-154472438D01*
X163037142Y-154472438D02*
X162989523Y-154520057D01*
X162989523Y-154520057D02*
X162941904Y-154615295D01*
X162941904Y-154615295D02*
X162894285Y-154805771D01*
X162894285Y-154805771D02*
X162894285Y-155043866D01*
X162894285Y-155043866D02*
X162941904Y-155234342D01*
X162941904Y-155234342D02*
X162989523Y-155329580D01*
X162989523Y-155329580D02*
X163037142Y-155377200D01*
X163037142Y-155377200D02*
X163132380Y-155424819D01*
X163132380Y-155424819D02*
X163227618Y-155424819D01*
X163227618Y-155424819D02*
X163322856Y-155377200D01*
X163322856Y-155377200D02*
X163370475Y-155329580D01*
X163370475Y-155329580D02*
X163418094Y-155234342D01*
X163418094Y-155234342D02*
X163465713Y-155043866D01*
X163465713Y-155043866D02*
X163465713Y-154805771D01*
X163465713Y-154805771D02*
X163418094Y-154615295D01*
X163418094Y-154615295D02*
X163370475Y-154520057D01*
X163370475Y-154520057D02*
X163322856Y-154472438D01*
X163322856Y-154472438D02*
X163227618Y-154424819D01*
X161941904Y-155424819D02*
X162513332Y-155424819D01*
X162227618Y-155424819D02*
X162227618Y-154424819D01*
X162227618Y-154424819D02*
X162322856Y-154567676D01*
X162322856Y-154567676D02*
X162418094Y-154662914D01*
X162418094Y-154662914D02*
X162513332Y-154710533D01*
X92954819Y-169309524D02*
X91954819Y-169309524D01*
X91954819Y-169309524D02*
X91954819Y-169690476D01*
X91954819Y-169690476D02*
X92002438Y-169785714D01*
X92002438Y-169785714D02*
X92050057Y-169833333D01*
X92050057Y-169833333D02*
X92145295Y-169880952D01*
X92145295Y-169880952D02*
X92288152Y-169880952D01*
X92288152Y-169880952D02*
X92383390Y-169833333D01*
X92383390Y-169833333D02*
X92431009Y-169785714D01*
X92431009Y-169785714D02*
X92478628Y-169690476D01*
X92478628Y-169690476D02*
X92478628Y-169309524D01*
X92954819Y-170833333D02*
X92954819Y-170261905D01*
X92954819Y-170547619D02*
X91954819Y-170547619D01*
X91954819Y-170547619D02*
X92097676Y-170452381D01*
X92097676Y-170452381D02*
X92192914Y-170357143D01*
X92192914Y-170357143D02*
X92240533Y-170261905D01*
X91954819Y-171452381D02*
X91954819Y-171547619D01*
X91954819Y-171547619D02*
X92002438Y-171642857D01*
X92002438Y-171642857D02*
X92050057Y-171690476D01*
X92050057Y-171690476D02*
X92145295Y-171738095D01*
X92145295Y-171738095D02*
X92335771Y-171785714D01*
X92335771Y-171785714D02*
X92573866Y-171785714D01*
X92573866Y-171785714D02*
X92764342Y-171738095D01*
X92764342Y-171738095D02*
X92859580Y-171690476D01*
X92859580Y-171690476D02*
X92907200Y-171642857D01*
X92907200Y-171642857D02*
X92954819Y-171547619D01*
X92954819Y-171547619D02*
X92954819Y-171452381D01*
X92954819Y-171452381D02*
X92907200Y-171357143D01*
X92907200Y-171357143D02*
X92859580Y-171309524D01*
X92859580Y-171309524D02*
X92764342Y-171261905D01*
X92764342Y-171261905D02*
X92573866Y-171214286D01*
X92573866Y-171214286D02*
X92335771Y-171214286D01*
X92335771Y-171214286D02*
X92145295Y-171261905D01*
X92145295Y-171261905D02*
X92050057Y-171309524D01*
X92050057Y-171309524D02*
X92002438Y-171357143D01*
X92002438Y-171357143D02*
X91954819Y-171452381D01*
X92050057Y-172166667D02*
X92002438Y-172214286D01*
X92002438Y-172214286D02*
X91954819Y-172309524D01*
X91954819Y-172309524D02*
X91954819Y-172547619D01*
X91954819Y-172547619D02*
X92002438Y-172642857D01*
X92002438Y-172642857D02*
X92050057Y-172690476D01*
X92050057Y-172690476D02*
X92145295Y-172738095D01*
X92145295Y-172738095D02*
X92240533Y-172738095D01*
X92240533Y-172738095D02*
X92383390Y-172690476D01*
X92383390Y-172690476D02*
X92954819Y-172119048D01*
X92954819Y-172119048D02*
X92954819Y-172738095D01*
X165854819Y-158438095D02*
X166854819Y-158771428D01*
X166854819Y-158771428D02*
X165854819Y-159104761D01*
X166854819Y-160009523D02*
X166378628Y-159676190D01*
X166854819Y-159438095D02*
X165854819Y-159438095D01*
X165854819Y-159438095D02*
X165854819Y-159819047D01*
X165854819Y-159819047D02*
X165902438Y-159914285D01*
X165902438Y-159914285D02*
X165950057Y-159961904D01*
X165950057Y-159961904D02*
X166045295Y-160009523D01*
X166045295Y-160009523D02*
X166188152Y-160009523D01*
X166188152Y-160009523D02*
X166283390Y-159961904D01*
X166283390Y-159961904D02*
X166331009Y-159914285D01*
X166331009Y-159914285D02*
X166378628Y-159819047D01*
X166378628Y-159819047D02*
X166378628Y-159438095D01*
X166854819Y-160961904D02*
X166854819Y-160390476D01*
X166854819Y-160676190D02*
X165854819Y-160676190D01*
X165854819Y-160676190D02*
X165997676Y-160580952D01*
X165997676Y-160580952D02*
X166092914Y-160485714D01*
X166092914Y-160485714D02*
X166140533Y-160390476D01*
X165854819Y-161580952D02*
X165854819Y-161676190D01*
X165854819Y-161676190D02*
X165902438Y-161771428D01*
X165902438Y-161771428D02*
X165950057Y-161819047D01*
X165950057Y-161819047D02*
X166045295Y-161866666D01*
X166045295Y-161866666D02*
X166235771Y-161914285D01*
X166235771Y-161914285D02*
X166473866Y-161914285D01*
X166473866Y-161914285D02*
X166664342Y-161866666D01*
X166664342Y-161866666D02*
X166759580Y-161819047D01*
X166759580Y-161819047D02*
X166807200Y-161771428D01*
X166807200Y-161771428D02*
X166854819Y-161676190D01*
X166854819Y-161676190D02*
X166854819Y-161580952D01*
X166854819Y-161580952D02*
X166807200Y-161485714D01*
X166807200Y-161485714D02*
X166759580Y-161438095D01*
X166759580Y-161438095D02*
X166664342Y-161390476D01*
X166664342Y-161390476D02*
X166473866Y-161342857D01*
X166473866Y-161342857D02*
X166235771Y-161342857D01*
X166235771Y-161342857D02*
X166045295Y-161390476D01*
X166045295Y-161390476D02*
X165950057Y-161438095D01*
X165950057Y-161438095D02*
X165902438Y-161485714D01*
X165902438Y-161485714D02*
X165854819Y-161580952D01*
X165950057Y-162295238D02*
X165902438Y-162342857D01*
X165902438Y-162342857D02*
X165854819Y-162438095D01*
X165854819Y-162438095D02*
X165854819Y-162676190D01*
X165854819Y-162676190D02*
X165902438Y-162771428D01*
X165902438Y-162771428D02*
X165950057Y-162819047D01*
X165950057Y-162819047D02*
X166045295Y-162866666D01*
X166045295Y-162866666D02*
X166140533Y-162866666D01*
X166140533Y-162866666D02*
X166283390Y-162819047D01*
X166283390Y-162819047D02*
X166854819Y-162247619D01*
X166854819Y-162247619D02*
X166854819Y-162866666D01*
X162319047Y-185459580D02*
X162366666Y-185507200D01*
X162366666Y-185507200D02*
X162509523Y-185554819D01*
X162509523Y-185554819D02*
X162604761Y-185554819D01*
X162604761Y-185554819D02*
X162747618Y-185507200D01*
X162747618Y-185507200D02*
X162842856Y-185411961D01*
X162842856Y-185411961D02*
X162890475Y-185316723D01*
X162890475Y-185316723D02*
X162938094Y-185126247D01*
X162938094Y-185126247D02*
X162938094Y-184983390D01*
X162938094Y-184983390D02*
X162890475Y-184792914D01*
X162890475Y-184792914D02*
X162842856Y-184697676D01*
X162842856Y-184697676D02*
X162747618Y-184602438D01*
X162747618Y-184602438D02*
X162604761Y-184554819D01*
X162604761Y-184554819D02*
X162509523Y-184554819D01*
X162509523Y-184554819D02*
X162366666Y-184602438D01*
X162366666Y-184602438D02*
X162319047Y-184650057D01*
X161938094Y-184650057D02*
X161890475Y-184602438D01*
X161890475Y-184602438D02*
X161795237Y-184554819D01*
X161795237Y-184554819D02*
X161557142Y-184554819D01*
X161557142Y-184554819D02*
X161461904Y-184602438D01*
X161461904Y-184602438D02*
X161414285Y-184650057D01*
X161414285Y-184650057D02*
X161366666Y-184745295D01*
X161366666Y-184745295D02*
X161366666Y-184840533D01*
X161366666Y-184840533D02*
X161414285Y-184983390D01*
X161414285Y-184983390D02*
X161985713Y-185554819D01*
X161985713Y-185554819D02*
X161366666Y-185554819D01*
X160985713Y-184650057D02*
X160938094Y-184602438D01*
X160938094Y-184602438D02*
X160842856Y-184554819D01*
X160842856Y-184554819D02*
X160604761Y-184554819D01*
X160604761Y-184554819D02*
X160509523Y-184602438D01*
X160509523Y-184602438D02*
X160461904Y-184650057D01*
X160461904Y-184650057D02*
X160414285Y-184745295D01*
X160414285Y-184745295D02*
X160414285Y-184840533D01*
X160414285Y-184840533D02*
X160461904Y-184983390D01*
X160461904Y-184983390D02*
X161033332Y-185554819D01*
X161033332Y-185554819D02*
X160414285Y-185554819D01*
X159509523Y-184554819D02*
X159985713Y-184554819D01*
X159985713Y-184554819D02*
X160033332Y-185031009D01*
X160033332Y-185031009D02*
X159985713Y-184983390D01*
X159985713Y-184983390D02*
X159890475Y-184935771D01*
X159890475Y-184935771D02*
X159652380Y-184935771D01*
X159652380Y-184935771D02*
X159557142Y-184983390D01*
X159557142Y-184983390D02*
X159509523Y-185031009D01*
X159509523Y-185031009D02*
X159461904Y-185126247D01*
X159461904Y-185126247D02*
X159461904Y-185364342D01*
X159461904Y-185364342D02*
X159509523Y-185459580D01*
X159509523Y-185459580D02*
X159557142Y-185507200D01*
X159557142Y-185507200D02*
X159652380Y-185554819D01*
X159652380Y-185554819D02*
X159890475Y-185554819D01*
X159890475Y-185554819D02*
X159985713Y-185507200D01*
X159985713Y-185507200D02*
X160033332Y-185459580D01*
X160559580Y-165680952D02*
X160607200Y-165633333D01*
X160607200Y-165633333D02*
X160654819Y-165490476D01*
X160654819Y-165490476D02*
X160654819Y-165395238D01*
X160654819Y-165395238D02*
X160607200Y-165252381D01*
X160607200Y-165252381D02*
X160511961Y-165157143D01*
X160511961Y-165157143D02*
X160416723Y-165109524D01*
X160416723Y-165109524D02*
X160226247Y-165061905D01*
X160226247Y-165061905D02*
X160083390Y-165061905D01*
X160083390Y-165061905D02*
X159892914Y-165109524D01*
X159892914Y-165109524D02*
X159797676Y-165157143D01*
X159797676Y-165157143D02*
X159702438Y-165252381D01*
X159702438Y-165252381D02*
X159654819Y-165395238D01*
X159654819Y-165395238D02*
X159654819Y-165490476D01*
X159654819Y-165490476D02*
X159702438Y-165633333D01*
X159702438Y-165633333D02*
X159750057Y-165680952D01*
X160654819Y-166633333D02*
X160654819Y-166061905D01*
X160654819Y-166347619D02*
X159654819Y-166347619D01*
X159654819Y-166347619D02*
X159797676Y-166252381D01*
X159797676Y-166252381D02*
X159892914Y-166157143D01*
X159892914Y-166157143D02*
X159940533Y-166061905D01*
X159750057Y-167014286D02*
X159702438Y-167061905D01*
X159702438Y-167061905D02*
X159654819Y-167157143D01*
X159654819Y-167157143D02*
X159654819Y-167395238D01*
X159654819Y-167395238D02*
X159702438Y-167490476D01*
X159702438Y-167490476D02*
X159750057Y-167538095D01*
X159750057Y-167538095D02*
X159845295Y-167585714D01*
X159845295Y-167585714D02*
X159940533Y-167585714D01*
X159940533Y-167585714D02*
X160083390Y-167538095D01*
X160083390Y-167538095D02*
X160654819Y-166966667D01*
X160654819Y-166966667D02*
X160654819Y-167585714D01*
X160654819Y-168061905D02*
X160654819Y-168252381D01*
X160654819Y-168252381D02*
X160607200Y-168347619D01*
X160607200Y-168347619D02*
X160559580Y-168395238D01*
X160559580Y-168395238D02*
X160416723Y-168490476D01*
X160416723Y-168490476D02*
X160226247Y-168538095D01*
X160226247Y-168538095D02*
X159845295Y-168538095D01*
X159845295Y-168538095D02*
X159750057Y-168490476D01*
X159750057Y-168490476D02*
X159702438Y-168442857D01*
X159702438Y-168442857D02*
X159654819Y-168347619D01*
X159654819Y-168347619D02*
X159654819Y-168157143D01*
X159654819Y-168157143D02*
X159702438Y-168061905D01*
X159702438Y-168061905D02*
X159750057Y-168014286D01*
X159750057Y-168014286D02*
X159845295Y-167966667D01*
X159845295Y-167966667D02*
X160083390Y-167966667D01*
X160083390Y-167966667D02*
X160178628Y-168014286D01*
X160178628Y-168014286D02*
X160226247Y-168061905D01*
X160226247Y-168061905D02*
X160273866Y-168157143D01*
X160273866Y-168157143D02*
X160273866Y-168347619D01*
X160273866Y-168347619D02*
X160226247Y-168442857D01*
X160226247Y-168442857D02*
X160178628Y-168490476D01*
X160178628Y-168490476D02*
X160083390Y-168538095D01*
X105954819Y-190059524D02*
X104954819Y-190059524D01*
X104954819Y-190059524D02*
X104954819Y-190440476D01*
X104954819Y-190440476D02*
X105002438Y-190535714D01*
X105002438Y-190535714D02*
X105050057Y-190583333D01*
X105050057Y-190583333D02*
X105145295Y-190630952D01*
X105145295Y-190630952D02*
X105288152Y-190630952D01*
X105288152Y-190630952D02*
X105383390Y-190583333D01*
X105383390Y-190583333D02*
X105431009Y-190535714D01*
X105431009Y-190535714D02*
X105478628Y-190440476D01*
X105478628Y-190440476D02*
X105478628Y-190059524D01*
X105954819Y-191583333D02*
X105954819Y-191011905D01*
X105954819Y-191297619D02*
X104954819Y-191297619D01*
X104954819Y-191297619D02*
X105097676Y-191202381D01*
X105097676Y-191202381D02*
X105192914Y-191107143D01*
X105192914Y-191107143D02*
X105240533Y-191011905D01*
X104954819Y-192202381D02*
X104954819Y-192297619D01*
X104954819Y-192297619D02*
X105002438Y-192392857D01*
X105002438Y-192392857D02*
X105050057Y-192440476D01*
X105050057Y-192440476D02*
X105145295Y-192488095D01*
X105145295Y-192488095D02*
X105335771Y-192535714D01*
X105335771Y-192535714D02*
X105573866Y-192535714D01*
X105573866Y-192535714D02*
X105764342Y-192488095D01*
X105764342Y-192488095D02*
X105859580Y-192440476D01*
X105859580Y-192440476D02*
X105907200Y-192392857D01*
X105907200Y-192392857D02*
X105954819Y-192297619D01*
X105954819Y-192297619D02*
X105954819Y-192202381D01*
X105954819Y-192202381D02*
X105907200Y-192107143D01*
X105907200Y-192107143D02*
X105859580Y-192059524D01*
X105859580Y-192059524D02*
X105764342Y-192011905D01*
X105764342Y-192011905D02*
X105573866Y-191964286D01*
X105573866Y-191964286D02*
X105335771Y-191964286D01*
X105335771Y-191964286D02*
X105145295Y-192011905D01*
X105145295Y-192011905D02*
X105050057Y-192059524D01*
X105050057Y-192059524D02*
X105002438Y-192107143D01*
X105002438Y-192107143D02*
X104954819Y-192202381D01*
X104954819Y-193392857D02*
X104954819Y-193202381D01*
X104954819Y-193202381D02*
X105002438Y-193107143D01*
X105002438Y-193107143D02*
X105050057Y-193059524D01*
X105050057Y-193059524D02*
X105192914Y-192964286D01*
X105192914Y-192964286D02*
X105383390Y-192916667D01*
X105383390Y-192916667D02*
X105764342Y-192916667D01*
X105764342Y-192916667D02*
X105859580Y-192964286D01*
X105859580Y-192964286D02*
X105907200Y-193011905D01*
X105907200Y-193011905D02*
X105954819Y-193107143D01*
X105954819Y-193107143D02*
X105954819Y-193297619D01*
X105954819Y-193297619D02*
X105907200Y-193392857D01*
X105907200Y-193392857D02*
X105859580Y-193440476D01*
X105859580Y-193440476D02*
X105764342Y-193488095D01*
X105764342Y-193488095D02*
X105526247Y-193488095D01*
X105526247Y-193488095D02*
X105431009Y-193440476D01*
X105431009Y-193440476D02*
X105383390Y-193392857D01*
X105383390Y-193392857D02*
X105335771Y-193297619D01*
X105335771Y-193297619D02*
X105335771Y-193107143D01*
X105335771Y-193107143D02*
X105383390Y-193011905D01*
X105383390Y-193011905D02*
X105431009Y-192964286D01*
X105431009Y-192964286D02*
X105526247Y-192916667D01*
X166054819Y-166638095D02*
X167054819Y-166971428D01*
X167054819Y-166971428D02*
X166054819Y-167304761D01*
X167054819Y-168209523D02*
X166578628Y-167876190D01*
X167054819Y-167638095D02*
X166054819Y-167638095D01*
X166054819Y-167638095D02*
X166054819Y-168019047D01*
X166054819Y-168019047D02*
X166102438Y-168114285D01*
X166102438Y-168114285D02*
X166150057Y-168161904D01*
X166150057Y-168161904D02*
X166245295Y-168209523D01*
X166245295Y-168209523D02*
X166388152Y-168209523D01*
X166388152Y-168209523D02*
X166483390Y-168161904D01*
X166483390Y-168161904D02*
X166531009Y-168114285D01*
X166531009Y-168114285D02*
X166578628Y-168019047D01*
X166578628Y-168019047D02*
X166578628Y-167638095D01*
X167054819Y-169161904D02*
X167054819Y-168590476D01*
X167054819Y-168876190D02*
X166054819Y-168876190D01*
X166054819Y-168876190D02*
X166197676Y-168780952D01*
X166197676Y-168780952D02*
X166292914Y-168685714D01*
X166292914Y-168685714D02*
X166340533Y-168590476D01*
X166054819Y-169780952D02*
X166054819Y-169876190D01*
X166054819Y-169876190D02*
X166102438Y-169971428D01*
X166102438Y-169971428D02*
X166150057Y-170019047D01*
X166150057Y-170019047D02*
X166245295Y-170066666D01*
X166245295Y-170066666D02*
X166435771Y-170114285D01*
X166435771Y-170114285D02*
X166673866Y-170114285D01*
X166673866Y-170114285D02*
X166864342Y-170066666D01*
X166864342Y-170066666D02*
X166959580Y-170019047D01*
X166959580Y-170019047D02*
X167007200Y-169971428D01*
X167007200Y-169971428D02*
X167054819Y-169876190D01*
X167054819Y-169876190D02*
X167054819Y-169780952D01*
X167054819Y-169780952D02*
X167007200Y-169685714D01*
X167007200Y-169685714D02*
X166959580Y-169638095D01*
X166959580Y-169638095D02*
X166864342Y-169590476D01*
X166864342Y-169590476D02*
X166673866Y-169542857D01*
X166673866Y-169542857D02*
X166435771Y-169542857D01*
X166435771Y-169542857D02*
X166245295Y-169590476D01*
X166245295Y-169590476D02*
X166150057Y-169638095D01*
X166150057Y-169638095D02*
X166102438Y-169685714D01*
X166102438Y-169685714D02*
X166054819Y-169780952D01*
X166054819Y-171019047D02*
X166054819Y-170542857D01*
X166054819Y-170542857D02*
X166531009Y-170495238D01*
X166531009Y-170495238D02*
X166483390Y-170542857D01*
X166483390Y-170542857D02*
X166435771Y-170638095D01*
X166435771Y-170638095D02*
X166435771Y-170876190D01*
X166435771Y-170876190D02*
X166483390Y-170971428D01*
X166483390Y-170971428D02*
X166531009Y-171019047D01*
X166531009Y-171019047D02*
X166626247Y-171066666D01*
X166626247Y-171066666D02*
X166864342Y-171066666D01*
X166864342Y-171066666D02*
X166959580Y-171019047D01*
X166959580Y-171019047D02*
X167007200Y-170971428D01*
X167007200Y-170971428D02*
X167054819Y-170876190D01*
X167054819Y-170876190D02*
X167054819Y-170638095D01*
X167054819Y-170638095D02*
X167007200Y-170542857D01*
X167007200Y-170542857D02*
X166959580Y-170495238D01*
X51219047Y-165259580D02*
X51266666Y-165307200D01*
X51266666Y-165307200D02*
X51409523Y-165354819D01*
X51409523Y-165354819D02*
X51504761Y-165354819D01*
X51504761Y-165354819D02*
X51647618Y-165307200D01*
X51647618Y-165307200D02*
X51742856Y-165211961D01*
X51742856Y-165211961D02*
X51790475Y-165116723D01*
X51790475Y-165116723D02*
X51838094Y-164926247D01*
X51838094Y-164926247D02*
X51838094Y-164783390D01*
X51838094Y-164783390D02*
X51790475Y-164592914D01*
X51790475Y-164592914D02*
X51742856Y-164497676D01*
X51742856Y-164497676D02*
X51647618Y-164402438D01*
X51647618Y-164402438D02*
X51504761Y-164354819D01*
X51504761Y-164354819D02*
X51409523Y-164354819D01*
X51409523Y-164354819D02*
X51266666Y-164402438D01*
X51266666Y-164402438D02*
X51219047Y-164450057D01*
X50838094Y-164450057D02*
X50790475Y-164402438D01*
X50790475Y-164402438D02*
X50695237Y-164354819D01*
X50695237Y-164354819D02*
X50457142Y-164354819D01*
X50457142Y-164354819D02*
X50361904Y-164402438D01*
X50361904Y-164402438D02*
X50314285Y-164450057D01*
X50314285Y-164450057D02*
X50266666Y-164545295D01*
X50266666Y-164545295D02*
X50266666Y-164640533D01*
X50266666Y-164640533D02*
X50314285Y-164783390D01*
X50314285Y-164783390D02*
X50885713Y-165354819D01*
X50885713Y-165354819D02*
X50266666Y-165354819D01*
X49647618Y-164354819D02*
X49552380Y-164354819D01*
X49552380Y-164354819D02*
X49457142Y-164402438D01*
X49457142Y-164402438D02*
X49409523Y-164450057D01*
X49409523Y-164450057D02*
X49361904Y-164545295D01*
X49361904Y-164545295D02*
X49314285Y-164735771D01*
X49314285Y-164735771D02*
X49314285Y-164973866D01*
X49314285Y-164973866D02*
X49361904Y-165164342D01*
X49361904Y-165164342D02*
X49409523Y-165259580D01*
X49409523Y-165259580D02*
X49457142Y-165307200D01*
X49457142Y-165307200D02*
X49552380Y-165354819D01*
X49552380Y-165354819D02*
X49647618Y-165354819D01*
X49647618Y-165354819D02*
X49742856Y-165307200D01*
X49742856Y-165307200D02*
X49790475Y-165259580D01*
X49790475Y-165259580D02*
X49838094Y-165164342D01*
X49838094Y-165164342D02*
X49885713Y-164973866D01*
X49885713Y-164973866D02*
X49885713Y-164735771D01*
X49885713Y-164735771D02*
X49838094Y-164545295D01*
X49838094Y-164545295D02*
X49790475Y-164450057D01*
X49790475Y-164450057D02*
X49742856Y-164402438D01*
X49742856Y-164402438D02*
X49647618Y-164354819D01*
X48933332Y-164450057D02*
X48885713Y-164402438D01*
X48885713Y-164402438D02*
X48790475Y-164354819D01*
X48790475Y-164354819D02*
X48552380Y-164354819D01*
X48552380Y-164354819D02*
X48457142Y-164402438D01*
X48457142Y-164402438D02*
X48409523Y-164450057D01*
X48409523Y-164450057D02*
X48361904Y-164545295D01*
X48361904Y-164545295D02*
X48361904Y-164640533D01*
X48361904Y-164640533D02*
X48409523Y-164783390D01*
X48409523Y-164783390D02*
X48980951Y-165354819D01*
X48980951Y-165354819D02*
X48361904Y-165354819D01*
X88219047Y-157359580D02*
X88266666Y-157407200D01*
X88266666Y-157407200D02*
X88409523Y-157454819D01*
X88409523Y-157454819D02*
X88504761Y-157454819D01*
X88504761Y-157454819D02*
X88647618Y-157407200D01*
X88647618Y-157407200D02*
X88742856Y-157311961D01*
X88742856Y-157311961D02*
X88790475Y-157216723D01*
X88790475Y-157216723D02*
X88838094Y-157026247D01*
X88838094Y-157026247D02*
X88838094Y-156883390D01*
X88838094Y-156883390D02*
X88790475Y-156692914D01*
X88790475Y-156692914D02*
X88742856Y-156597676D01*
X88742856Y-156597676D02*
X88647618Y-156502438D01*
X88647618Y-156502438D02*
X88504761Y-156454819D01*
X88504761Y-156454819D02*
X88409523Y-156454819D01*
X88409523Y-156454819D02*
X88266666Y-156502438D01*
X88266666Y-156502438D02*
X88219047Y-156550057D01*
X87266666Y-157454819D02*
X87838094Y-157454819D01*
X87552380Y-157454819D02*
X87552380Y-156454819D01*
X87552380Y-156454819D02*
X87647618Y-156597676D01*
X87647618Y-156597676D02*
X87742856Y-156692914D01*
X87742856Y-156692914D02*
X87838094Y-156740533D01*
X86361904Y-156454819D02*
X86838094Y-156454819D01*
X86838094Y-156454819D02*
X86885713Y-156931009D01*
X86885713Y-156931009D02*
X86838094Y-156883390D01*
X86838094Y-156883390D02*
X86742856Y-156835771D01*
X86742856Y-156835771D02*
X86504761Y-156835771D01*
X86504761Y-156835771D02*
X86409523Y-156883390D01*
X86409523Y-156883390D02*
X86361904Y-156931009D01*
X86361904Y-156931009D02*
X86314285Y-157026247D01*
X86314285Y-157026247D02*
X86314285Y-157264342D01*
X86314285Y-157264342D02*
X86361904Y-157359580D01*
X86361904Y-157359580D02*
X86409523Y-157407200D01*
X86409523Y-157407200D02*
X86504761Y-157454819D01*
X86504761Y-157454819D02*
X86742856Y-157454819D01*
X86742856Y-157454819D02*
X86838094Y-157407200D01*
X86838094Y-157407200D02*
X86885713Y-157359580D01*
X85838094Y-157454819D02*
X85647618Y-157454819D01*
X85647618Y-157454819D02*
X85552380Y-157407200D01*
X85552380Y-157407200D02*
X85504761Y-157359580D01*
X85504761Y-157359580D02*
X85409523Y-157216723D01*
X85409523Y-157216723D02*
X85361904Y-157026247D01*
X85361904Y-157026247D02*
X85361904Y-156645295D01*
X85361904Y-156645295D02*
X85409523Y-156550057D01*
X85409523Y-156550057D02*
X85457142Y-156502438D01*
X85457142Y-156502438D02*
X85552380Y-156454819D01*
X85552380Y-156454819D02*
X85742856Y-156454819D01*
X85742856Y-156454819D02*
X85838094Y-156502438D01*
X85838094Y-156502438D02*
X85885713Y-156550057D01*
X85885713Y-156550057D02*
X85933332Y-156645295D01*
X85933332Y-156645295D02*
X85933332Y-156883390D01*
X85933332Y-156883390D02*
X85885713Y-156978628D01*
X85885713Y-156978628D02*
X85838094Y-157026247D01*
X85838094Y-157026247D02*
X85742856Y-157073866D01*
X85742856Y-157073866D02*
X85552380Y-157073866D01*
X85552380Y-157073866D02*
X85457142Y-157026247D01*
X85457142Y-157026247D02*
X85409523Y-156978628D01*
X85409523Y-156978628D02*
X85361904Y-156883390D01*
X168554819Y-127038095D02*
X169554819Y-127371428D01*
X169554819Y-127371428D02*
X168554819Y-127704761D01*
X169554819Y-128609523D02*
X169078628Y-128276190D01*
X169554819Y-128038095D02*
X168554819Y-128038095D01*
X168554819Y-128038095D02*
X168554819Y-128419047D01*
X168554819Y-128419047D02*
X168602438Y-128514285D01*
X168602438Y-128514285D02*
X168650057Y-128561904D01*
X168650057Y-128561904D02*
X168745295Y-128609523D01*
X168745295Y-128609523D02*
X168888152Y-128609523D01*
X168888152Y-128609523D02*
X168983390Y-128561904D01*
X168983390Y-128561904D02*
X169031009Y-128514285D01*
X169031009Y-128514285D02*
X169078628Y-128419047D01*
X169078628Y-128419047D02*
X169078628Y-128038095D01*
X169554819Y-129561904D02*
X169554819Y-128990476D01*
X169554819Y-129276190D02*
X168554819Y-129276190D01*
X168554819Y-129276190D02*
X168697676Y-129180952D01*
X168697676Y-129180952D02*
X168792914Y-129085714D01*
X168792914Y-129085714D02*
X168840533Y-128990476D01*
X168554819Y-130180952D02*
X168554819Y-130276190D01*
X168554819Y-130276190D02*
X168602438Y-130371428D01*
X168602438Y-130371428D02*
X168650057Y-130419047D01*
X168650057Y-130419047D02*
X168745295Y-130466666D01*
X168745295Y-130466666D02*
X168935771Y-130514285D01*
X168935771Y-130514285D02*
X169173866Y-130514285D01*
X169173866Y-130514285D02*
X169364342Y-130466666D01*
X169364342Y-130466666D02*
X169459580Y-130419047D01*
X169459580Y-130419047D02*
X169507200Y-130371428D01*
X169507200Y-130371428D02*
X169554819Y-130276190D01*
X169554819Y-130276190D02*
X169554819Y-130180952D01*
X169554819Y-130180952D02*
X169507200Y-130085714D01*
X169507200Y-130085714D02*
X169459580Y-130038095D01*
X169459580Y-130038095D02*
X169364342Y-129990476D01*
X169364342Y-129990476D02*
X169173866Y-129942857D01*
X169173866Y-129942857D02*
X168935771Y-129942857D01*
X168935771Y-129942857D02*
X168745295Y-129990476D01*
X168745295Y-129990476D02*
X168650057Y-130038095D01*
X168650057Y-130038095D02*
X168602438Y-130085714D01*
X168602438Y-130085714D02*
X168554819Y-130180952D01*
X169554819Y-131466666D02*
X169554819Y-130895238D01*
X169554819Y-131180952D02*
X168554819Y-131180952D01*
X168554819Y-131180952D02*
X168697676Y-131085714D01*
X168697676Y-131085714D02*
X168792914Y-130990476D01*
X168792914Y-130990476D02*
X168840533Y-130895238D01*
X131154819Y-177971429D02*
X130154819Y-177971429D01*
X131059580Y-179019047D02*
X131107200Y-178971428D01*
X131107200Y-178971428D02*
X131154819Y-178828571D01*
X131154819Y-178828571D02*
X131154819Y-178733333D01*
X131154819Y-178733333D02*
X131107200Y-178590476D01*
X131107200Y-178590476D02*
X131011961Y-178495238D01*
X131011961Y-178495238D02*
X130916723Y-178447619D01*
X130916723Y-178447619D02*
X130726247Y-178400000D01*
X130726247Y-178400000D02*
X130583390Y-178400000D01*
X130583390Y-178400000D02*
X130392914Y-178447619D01*
X130392914Y-178447619D02*
X130297676Y-178495238D01*
X130297676Y-178495238D02*
X130202438Y-178590476D01*
X130202438Y-178590476D02*
X130154819Y-178733333D01*
X130154819Y-178733333D02*
X130154819Y-178828571D01*
X130154819Y-178828571D02*
X130202438Y-178971428D01*
X130202438Y-178971428D02*
X130250057Y-179019047D01*
X131154819Y-179971428D02*
X131154819Y-179400000D01*
X131154819Y-179685714D02*
X130154819Y-179685714D01*
X130154819Y-179685714D02*
X130297676Y-179590476D01*
X130297676Y-179590476D02*
X130392914Y-179495238D01*
X130392914Y-179495238D02*
X130440533Y-179400000D01*
X130154819Y-180590476D02*
X130154819Y-180685714D01*
X130154819Y-180685714D02*
X130202438Y-180780952D01*
X130202438Y-180780952D02*
X130250057Y-180828571D01*
X130250057Y-180828571D02*
X130345295Y-180876190D01*
X130345295Y-180876190D02*
X130535771Y-180923809D01*
X130535771Y-180923809D02*
X130773866Y-180923809D01*
X130773866Y-180923809D02*
X130964342Y-180876190D01*
X130964342Y-180876190D02*
X131059580Y-180828571D01*
X131059580Y-180828571D02*
X131107200Y-180780952D01*
X131107200Y-180780952D02*
X131154819Y-180685714D01*
X131154819Y-180685714D02*
X131154819Y-180590476D01*
X131154819Y-180590476D02*
X131107200Y-180495238D01*
X131107200Y-180495238D02*
X131059580Y-180447619D01*
X131059580Y-180447619D02*
X130964342Y-180400000D01*
X130964342Y-180400000D02*
X130773866Y-180352381D01*
X130773866Y-180352381D02*
X130535771Y-180352381D01*
X130535771Y-180352381D02*
X130345295Y-180400000D01*
X130345295Y-180400000D02*
X130250057Y-180447619D01*
X130250057Y-180447619D02*
X130202438Y-180495238D01*
X130202438Y-180495238D02*
X130154819Y-180590476D01*
X130154819Y-181828571D02*
X130154819Y-181352381D01*
X130154819Y-181352381D02*
X130631009Y-181304762D01*
X130631009Y-181304762D02*
X130583390Y-181352381D01*
X130583390Y-181352381D02*
X130535771Y-181447619D01*
X130535771Y-181447619D02*
X130535771Y-181685714D01*
X130535771Y-181685714D02*
X130583390Y-181780952D01*
X130583390Y-181780952D02*
X130631009Y-181828571D01*
X130631009Y-181828571D02*
X130726247Y-181876190D01*
X130726247Y-181876190D02*
X130964342Y-181876190D01*
X130964342Y-181876190D02*
X131059580Y-181828571D01*
X131059580Y-181828571D02*
X131107200Y-181780952D01*
X131107200Y-181780952D02*
X131154819Y-181685714D01*
X131154819Y-181685714D02*
X131154819Y-181447619D01*
X131154819Y-181447619D02*
X131107200Y-181352381D01*
X131107200Y-181352381D02*
X131059580Y-181304762D01*
X173085714Y-191054819D02*
X173085714Y-191769104D01*
X173085714Y-191769104D02*
X173133333Y-191911961D01*
X173133333Y-191911961D02*
X173228571Y-192007200D01*
X173228571Y-192007200D02*
X173371428Y-192054819D01*
X173371428Y-192054819D02*
X173466666Y-192054819D01*
X172609523Y-192054819D02*
X172609523Y-191054819D01*
X172038095Y-192054819D02*
X172466666Y-191483390D01*
X172038095Y-191054819D02*
X172609523Y-191626247D01*
X171085714Y-192054819D02*
X171657142Y-192054819D01*
X171371428Y-192054819D02*
X171371428Y-191054819D01*
X171371428Y-191054819D02*
X171466666Y-191197676D01*
X171466666Y-191197676D02*
X171561904Y-191292914D01*
X171561904Y-191292914D02*
X171657142Y-191340533D01*
X170466666Y-191054819D02*
X170371428Y-191054819D01*
X170371428Y-191054819D02*
X170276190Y-191102438D01*
X170276190Y-191102438D02*
X170228571Y-191150057D01*
X170228571Y-191150057D02*
X170180952Y-191245295D01*
X170180952Y-191245295D02*
X170133333Y-191435771D01*
X170133333Y-191435771D02*
X170133333Y-191673866D01*
X170133333Y-191673866D02*
X170180952Y-191864342D01*
X170180952Y-191864342D02*
X170228571Y-191959580D01*
X170228571Y-191959580D02*
X170276190Y-192007200D01*
X170276190Y-192007200D02*
X170371428Y-192054819D01*
X170371428Y-192054819D02*
X170466666Y-192054819D01*
X170466666Y-192054819D02*
X170561904Y-192007200D01*
X170561904Y-192007200D02*
X170609523Y-191959580D01*
X170609523Y-191959580D02*
X170657142Y-191864342D01*
X170657142Y-191864342D02*
X170704761Y-191673866D01*
X170704761Y-191673866D02*
X170704761Y-191435771D01*
X170704761Y-191435771D02*
X170657142Y-191245295D01*
X170657142Y-191245295D02*
X170609523Y-191150057D01*
X170609523Y-191150057D02*
X170561904Y-191102438D01*
X170561904Y-191102438D02*
X170466666Y-191054819D01*
X169752380Y-191150057D02*
X169704761Y-191102438D01*
X169704761Y-191102438D02*
X169609523Y-191054819D01*
X169609523Y-191054819D02*
X169371428Y-191054819D01*
X169371428Y-191054819D02*
X169276190Y-191102438D01*
X169276190Y-191102438D02*
X169228571Y-191150057D01*
X169228571Y-191150057D02*
X169180952Y-191245295D01*
X169180952Y-191245295D02*
X169180952Y-191340533D01*
X169180952Y-191340533D02*
X169228571Y-191483390D01*
X169228571Y-191483390D02*
X169799999Y-192054819D01*
X169799999Y-192054819D02*
X169180952Y-192054819D01*
X157159580Y-82607142D02*
X157207200Y-82559523D01*
X157207200Y-82559523D02*
X157254819Y-82416666D01*
X157254819Y-82416666D02*
X157254819Y-82321428D01*
X157254819Y-82321428D02*
X157207200Y-82178571D01*
X157207200Y-82178571D02*
X157111961Y-82083333D01*
X157111961Y-82083333D02*
X157016723Y-82035714D01*
X157016723Y-82035714D02*
X156826247Y-81988095D01*
X156826247Y-81988095D02*
X156683390Y-81988095D01*
X156683390Y-81988095D02*
X156492914Y-82035714D01*
X156492914Y-82035714D02*
X156397676Y-82083333D01*
X156397676Y-82083333D02*
X156302438Y-82178571D01*
X156302438Y-82178571D02*
X156254819Y-82321428D01*
X156254819Y-82321428D02*
X156254819Y-82416666D01*
X156254819Y-82416666D02*
X156302438Y-82559523D01*
X156302438Y-82559523D02*
X156350057Y-82607142D01*
X157254819Y-83035714D02*
X156254819Y-83035714D01*
X156254819Y-83035714D02*
X157254819Y-83607142D01*
X157254819Y-83607142D02*
X156254819Y-83607142D01*
X157254819Y-84607142D02*
X157254819Y-84035714D01*
X157254819Y-84321428D02*
X156254819Y-84321428D01*
X156254819Y-84321428D02*
X156397676Y-84226190D01*
X156397676Y-84226190D02*
X156492914Y-84130952D01*
X156492914Y-84130952D02*
X156540533Y-84035714D01*
X156254819Y-85226190D02*
X156254819Y-85321428D01*
X156254819Y-85321428D02*
X156302438Y-85416666D01*
X156302438Y-85416666D02*
X156350057Y-85464285D01*
X156350057Y-85464285D02*
X156445295Y-85511904D01*
X156445295Y-85511904D02*
X156635771Y-85559523D01*
X156635771Y-85559523D02*
X156873866Y-85559523D01*
X156873866Y-85559523D02*
X157064342Y-85511904D01*
X157064342Y-85511904D02*
X157159580Y-85464285D01*
X157159580Y-85464285D02*
X157207200Y-85416666D01*
X157207200Y-85416666D02*
X157254819Y-85321428D01*
X157254819Y-85321428D02*
X157254819Y-85226190D01*
X157254819Y-85226190D02*
X157207200Y-85130952D01*
X157207200Y-85130952D02*
X157159580Y-85083333D01*
X157159580Y-85083333D02*
X157064342Y-85035714D01*
X157064342Y-85035714D02*
X156873866Y-84988095D01*
X156873866Y-84988095D02*
X156635771Y-84988095D01*
X156635771Y-84988095D02*
X156445295Y-85035714D01*
X156445295Y-85035714D02*
X156350057Y-85083333D01*
X156350057Y-85083333D02*
X156302438Y-85130952D01*
X156302438Y-85130952D02*
X156254819Y-85226190D01*
X157254819Y-86511904D02*
X157254819Y-85940476D01*
X157254819Y-86226190D02*
X156254819Y-86226190D01*
X156254819Y-86226190D02*
X156397676Y-86130952D01*
X156397676Y-86130952D02*
X156492914Y-86035714D01*
X156492914Y-86035714D02*
X156540533Y-85940476D01*
X110319047Y-126524819D02*
X110652380Y-126048628D01*
X110890475Y-126524819D02*
X110890475Y-125524819D01*
X110890475Y-125524819D02*
X110509523Y-125524819D01*
X110509523Y-125524819D02*
X110414285Y-125572438D01*
X110414285Y-125572438D02*
X110366666Y-125620057D01*
X110366666Y-125620057D02*
X110319047Y-125715295D01*
X110319047Y-125715295D02*
X110319047Y-125858152D01*
X110319047Y-125858152D02*
X110366666Y-125953390D01*
X110366666Y-125953390D02*
X110414285Y-126001009D01*
X110414285Y-126001009D02*
X110509523Y-126048628D01*
X110509523Y-126048628D02*
X110890475Y-126048628D01*
X109414285Y-125524819D02*
X109890475Y-125524819D01*
X109890475Y-125524819D02*
X109938094Y-126001009D01*
X109938094Y-126001009D02*
X109890475Y-125953390D01*
X109890475Y-125953390D02*
X109795237Y-125905771D01*
X109795237Y-125905771D02*
X109557142Y-125905771D01*
X109557142Y-125905771D02*
X109461904Y-125953390D01*
X109461904Y-125953390D02*
X109414285Y-126001009D01*
X109414285Y-126001009D02*
X109366666Y-126096247D01*
X109366666Y-126096247D02*
X109366666Y-126334342D01*
X109366666Y-126334342D02*
X109414285Y-126429580D01*
X109414285Y-126429580D02*
X109461904Y-126477200D01*
X109461904Y-126477200D02*
X109557142Y-126524819D01*
X109557142Y-126524819D02*
X109795237Y-126524819D01*
X109795237Y-126524819D02*
X109890475Y-126477200D01*
X109890475Y-126477200D02*
X109938094Y-126429580D01*
X108414285Y-126524819D02*
X108985713Y-126524819D01*
X108699999Y-126524819D02*
X108699999Y-125524819D01*
X108699999Y-125524819D02*
X108795237Y-125667676D01*
X108795237Y-125667676D02*
X108890475Y-125762914D01*
X108890475Y-125762914D02*
X108985713Y-125810533D01*
X108080951Y-125524819D02*
X107461904Y-125524819D01*
X107461904Y-125524819D02*
X107795237Y-125905771D01*
X107795237Y-125905771D02*
X107652380Y-125905771D01*
X107652380Y-125905771D02*
X107557142Y-125953390D01*
X107557142Y-125953390D02*
X107509523Y-126001009D01*
X107509523Y-126001009D02*
X107461904Y-126096247D01*
X107461904Y-126096247D02*
X107461904Y-126334342D01*
X107461904Y-126334342D02*
X107509523Y-126429580D01*
X107509523Y-126429580D02*
X107557142Y-126477200D01*
X107557142Y-126477200D02*
X107652380Y-126524819D01*
X107652380Y-126524819D02*
X107938094Y-126524819D01*
X107938094Y-126524819D02*
X108033332Y-126477200D01*
X108033332Y-126477200D02*
X108080951Y-126429580D01*
X65685714Y-91154819D02*
X65685714Y-91869104D01*
X65685714Y-91869104D02*
X65733333Y-92011961D01*
X65733333Y-92011961D02*
X65828571Y-92107200D01*
X65828571Y-92107200D02*
X65971428Y-92154819D01*
X65971428Y-92154819D02*
X66066666Y-92154819D01*
X65209523Y-92154819D02*
X65209523Y-91154819D01*
X64638095Y-92154819D02*
X65066666Y-91583390D01*
X64638095Y-91154819D02*
X65209523Y-91726247D01*
X63685714Y-92154819D02*
X64257142Y-92154819D01*
X63971428Y-92154819D02*
X63971428Y-91154819D01*
X63971428Y-91154819D02*
X64066666Y-91297676D01*
X64066666Y-91297676D02*
X64161904Y-91392914D01*
X64161904Y-91392914D02*
X64257142Y-91440533D01*
X63066666Y-91154819D02*
X62971428Y-91154819D01*
X62971428Y-91154819D02*
X62876190Y-91202438D01*
X62876190Y-91202438D02*
X62828571Y-91250057D01*
X62828571Y-91250057D02*
X62780952Y-91345295D01*
X62780952Y-91345295D02*
X62733333Y-91535771D01*
X62733333Y-91535771D02*
X62733333Y-91773866D01*
X62733333Y-91773866D02*
X62780952Y-91964342D01*
X62780952Y-91964342D02*
X62828571Y-92059580D01*
X62828571Y-92059580D02*
X62876190Y-92107200D01*
X62876190Y-92107200D02*
X62971428Y-92154819D01*
X62971428Y-92154819D02*
X63066666Y-92154819D01*
X63066666Y-92154819D02*
X63161904Y-92107200D01*
X63161904Y-92107200D02*
X63209523Y-92059580D01*
X63209523Y-92059580D02*
X63257142Y-91964342D01*
X63257142Y-91964342D02*
X63304761Y-91773866D01*
X63304761Y-91773866D02*
X63304761Y-91535771D01*
X63304761Y-91535771D02*
X63257142Y-91345295D01*
X63257142Y-91345295D02*
X63209523Y-91250057D01*
X63209523Y-91250057D02*
X63161904Y-91202438D01*
X63161904Y-91202438D02*
X63066666Y-91154819D01*
X61876190Y-91488152D02*
X61876190Y-92154819D01*
X62114285Y-91107200D02*
X62352380Y-91821485D01*
X62352380Y-91821485D02*
X61733333Y-91821485D01*
X54020180Y-90849411D02*
X54020180Y-91420839D01*
X54020180Y-91135125D02*
X55020180Y-91135125D01*
X55020180Y-91135125D02*
X54877323Y-91230363D01*
X54877323Y-91230363D02*
X54782085Y-91325601D01*
X54782085Y-91325601D02*
X54734466Y-91420839D01*
X71820180Y-91749411D02*
X71820180Y-92320839D01*
X71820180Y-92035125D02*
X72820180Y-92035125D01*
X72820180Y-92035125D02*
X72677323Y-92130363D01*
X72677323Y-92130363D02*
X72582085Y-92225601D01*
X72582085Y-92225601D02*
X72534466Y-92320839D01*
X72820180Y-90844649D02*
X72820180Y-91320839D01*
X72820180Y-91320839D02*
X72343990Y-91368458D01*
X72343990Y-91368458D02*
X72391609Y-91320839D01*
X72391609Y-91320839D02*
X72439228Y-91225601D01*
X72439228Y-91225601D02*
X72439228Y-90987506D01*
X72439228Y-90987506D02*
X72391609Y-90892268D01*
X72391609Y-90892268D02*
X72343990Y-90844649D01*
X72343990Y-90844649D02*
X72248752Y-90797030D01*
X72248752Y-90797030D02*
X72010657Y-90797030D01*
X72010657Y-90797030D02*
X71915419Y-90844649D01*
X71915419Y-90844649D02*
X71867800Y-90892268D01*
X71867800Y-90892268D02*
X71820180Y-90987506D01*
X71820180Y-90987506D02*
X71820180Y-91225601D01*
X71820180Y-91225601D02*
X71867800Y-91320839D01*
X71867800Y-91320839D02*
X71915419Y-91368458D01*
X91493922Y-90154819D02*
X91493922Y-90869104D01*
X91493922Y-90869104D02*
X91541541Y-91011961D01*
X91541541Y-91011961D02*
X91636779Y-91107200D01*
X91636779Y-91107200D02*
X91779636Y-91154819D01*
X91779636Y-91154819D02*
X91874874Y-91154819D01*
X91017731Y-91154819D02*
X91017731Y-90154819D01*
X90446303Y-91154819D02*
X90874874Y-90583390D01*
X90446303Y-90154819D02*
X91017731Y-90726247D01*
X89493922Y-91154819D02*
X90065350Y-91154819D01*
X89779636Y-91154819D02*
X89779636Y-90154819D01*
X89779636Y-90154819D02*
X89874874Y-90297676D01*
X89874874Y-90297676D02*
X89970112Y-90392914D01*
X89970112Y-90392914D02*
X90065350Y-90440533D01*
X88874874Y-90154819D02*
X88779636Y-90154819D01*
X88779636Y-90154819D02*
X88684398Y-90202438D01*
X88684398Y-90202438D02*
X88636779Y-90250057D01*
X88636779Y-90250057D02*
X88589160Y-90345295D01*
X88589160Y-90345295D02*
X88541541Y-90535771D01*
X88541541Y-90535771D02*
X88541541Y-90773866D01*
X88541541Y-90773866D02*
X88589160Y-90964342D01*
X88589160Y-90964342D02*
X88636779Y-91059580D01*
X88636779Y-91059580D02*
X88684398Y-91107200D01*
X88684398Y-91107200D02*
X88779636Y-91154819D01*
X88779636Y-91154819D02*
X88874874Y-91154819D01*
X88874874Y-91154819D02*
X88970112Y-91107200D01*
X88970112Y-91107200D02*
X89017731Y-91059580D01*
X89017731Y-91059580D02*
X89065350Y-90964342D01*
X89065350Y-90964342D02*
X89112969Y-90773866D01*
X89112969Y-90773866D02*
X89112969Y-90535771D01*
X89112969Y-90535771D02*
X89065350Y-90345295D01*
X89065350Y-90345295D02*
X89017731Y-90250057D01*
X89017731Y-90250057D02*
X88970112Y-90202438D01*
X88970112Y-90202438D02*
X88874874Y-90154819D01*
X88208207Y-90154819D02*
X87589160Y-90154819D01*
X87589160Y-90154819D02*
X87922493Y-90535771D01*
X87922493Y-90535771D02*
X87779636Y-90535771D01*
X87779636Y-90535771D02*
X87684398Y-90583390D01*
X87684398Y-90583390D02*
X87636779Y-90631009D01*
X87636779Y-90631009D02*
X87589160Y-90726247D01*
X87589160Y-90726247D02*
X87589160Y-90964342D01*
X87589160Y-90964342D02*
X87636779Y-91059580D01*
X87636779Y-91059580D02*
X87684398Y-91107200D01*
X87684398Y-91107200D02*
X87779636Y-91154819D01*
X87779636Y-91154819D02*
X88065350Y-91154819D01*
X88065350Y-91154819D02*
X88160588Y-91107200D01*
X88160588Y-91107200D02*
X88208207Y-91059580D01*
X114684819Y-178741429D02*
X113684819Y-178741429D01*
X114589580Y-179789047D02*
X114637200Y-179741428D01*
X114637200Y-179741428D02*
X114684819Y-179598571D01*
X114684819Y-179598571D02*
X114684819Y-179503333D01*
X114684819Y-179503333D02*
X114637200Y-179360476D01*
X114637200Y-179360476D02*
X114541961Y-179265238D01*
X114541961Y-179265238D02*
X114446723Y-179217619D01*
X114446723Y-179217619D02*
X114256247Y-179170000D01*
X114256247Y-179170000D02*
X114113390Y-179170000D01*
X114113390Y-179170000D02*
X113922914Y-179217619D01*
X113922914Y-179217619D02*
X113827676Y-179265238D01*
X113827676Y-179265238D02*
X113732438Y-179360476D01*
X113732438Y-179360476D02*
X113684819Y-179503333D01*
X113684819Y-179503333D02*
X113684819Y-179598571D01*
X113684819Y-179598571D02*
X113732438Y-179741428D01*
X113732438Y-179741428D02*
X113780057Y-179789047D01*
X114684819Y-180741428D02*
X114684819Y-180170000D01*
X114684819Y-180455714D02*
X113684819Y-180455714D01*
X113684819Y-180455714D02*
X113827676Y-180360476D01*
X113827676Y-180360476D02*
X113922914Y-180265238D01*
X113922914Y-180265238D02*
X113970533Y-180170000D01*
X113684819Y-181360476D02*
X113684819Y-181455714D01*
X113684819Y-181455714D02*
X113732438Y-181550952D01*
X113732438Y-181550952D02*
X113780057Y-181598571D01*
X113780057Y-181598571D02*
X113875295Y-181646190D01*
X113875295Y-181646190D02*
X114065771Y-181693809D01*
X114065771Y-181693809D02*
X114303866Y-181693809D01*
X114303866Y-181693809D02*
X114494342Y-181646190D01*
X114494342Y-181646190D02*
X114589580Y-181598571D01*
X114589580Y-181598571D02*
X114637200Y-181550952D01*
X114637200Y-181550952D02*
X114684819Y-181455714D01*
X114684819Y-181455714D02*
X114684819Y-181360476D01*
X114684819Y-181360476D02*
X114637200Y-181265238D01*
X114637200Y-181265238D02*
X114589580Y-181217619D01*
X114589580Y-181217619D02*
X114494342Y-181170000D01*
X114494342Y-181170000D02*
X114303866Y-181122381D01*
X114303866Y-181122381D02*
X114065771Y-181122381D01*
X114065771Y-181122381D02*
X113875295Y-181170000D01*
X113875295Y-181170000D02*
X113780057Y-181217619D01*
X113780057Y-181217619D02*
X113732438Y-181265238D01*
X113732438Y-181265238D02*
X113684819Y-181360476D01*
X114018152Y-182550952D02*
X114684819Y-182550952D01*
X113637200Y-182312857D02*
X114351485Y-182074762D01*
X114351485Y-182074762D02*
X114351485Y-182693809D01*
X153119047Y-138559580D02*
X153166666Y-138607200D01*
X153166666Y-138607200D02*
X153309523Y-138654819D01*
X153309523Y-138654819D02*
X153404761Y-138654819D01*
X153404761Y-138654819D02*
X153547618Y-138607200D01*
X153547618Y-138607200D02*
X153642856Y-138511961D01*
X153642856Y-138511961D02*
X153690475Y-138416723D01*
X153690475Y-138416723D02*
X153738094Y-138226247D01*
X153738094Y-138226247D02*
X153738094Y-138083390D01*
X153738094Y-138083390D02*
X153690475Y-137892914D01*
X153690475Y-137892914D02*
X153642856Y-137797676D01*
X153642856Y-137797676D02*
X153547618Y-137702438D01*
X153547618Y-137702438D02*
X153404761Y-137654819D01*
X153404761Y-137654819D02*
X153309523Y-137654819D01*
X153309523Y-137654819D02*
X153166666Y-137702438D01*
X153166666Y-137702438D02*
X153119047Y-137750057D01*
X152166666Y-138654819D02*
X152738094Y-138654819D01*
X152452380Y-138654819D02*
X152452380Y-137654819D01*
X152452380Y-137654819D02*
X152547618Y-137797676D01*
X152547618Y-137797676D02*
X152642856Y-137892914D01*
X152642856Y-137892914D02*
X152738094Y-137940533D01*
X151214285Y-138654819D02*
X151785713Y-138654819D01*
X151499999Y-138654819D02*
X151499999Y-137654819D01*
X151499999Y-137654819D02*
X151595237Y-137797676D01*
X151595237Y-137797676D02*
X151690475Y-137892914D01*
X151690475Y-137892914D02*
X151785713Y-137940533D01*
X150357142Y-137988152D02*
X150357142Y-138654819D01*
X150595237Y-137607200D02*
X150833332Y-138321485D01*
X150833332Y-138321485D02*
X150214285Y-138321485D01*
X96854819Y-88409524D02*
X95854819Y-88409524D01*
X95854819Y-88409524D02*
X95854819Y-88647619D01*
X95854819Y-88647619D02*
X95902438Y-88790476D01*
X95902438Y-88790476D02*
X95997676Y-88885714D01*
X95997676Y-88885714D02*
X96092914Y-88933333D01*
X96092914Y-88933333D02*
X96283390Y-88980952D01*
X96283390Y-88980952D02*
X96426247Y-88980952D01*
X96426247Y-88980952D02*
X96616723Y-88933333D01*
X96616723Y-88933333D02*
X96711961Y-88885714D01*
X96711961Y-88885714D02*
X96807200Y-88790476D01*
X96807200Y-88790476D02*
X96854819Y-88647619D01*
X96854819Y-88647619D02*
X96854819Y-88409524D01*
X95854819Y-89314286D02*
X95854819Y-89933333D01*
X95854819Y-89933333D02*
X96235771Y-89600000D01*
X96235771Y-89600000D02*
X96235771Y-89742857D01*
X96235771Y-89742857D02*
X96283390Y-89838095D01*
X96283390Y-89838095D02*
X96331009Y-89885714D01*
X96331009Y-89885714D02*
X96426247Y-89933333D01*
X96426247Y-89933333D02*
X96664342Y-89933333D01*
X96664342Y-89933333D02*
X96759580Y-89885714D01*
X96759580Y-89885714D02*
X96807200Y-89838095D01*
X96807200Y-89838095D02*
X96854819Y-89742857D01*
X96854819Y-89742857D02*
X96854819Y-89457143D01*
X96854819Y-89457143D02*
X96807200Y-89361905D01*
X96807200Y-89361905D02*
X96759580Y-89314286D01*
X95854819Y-90552381D02*
X95854819Y-90647619D01*
X95854819Y-90647619D02*
X95902438Y-90742857D01*
X95902438Y-90742857D02*
X95950057Y-90790476D01*
X95950057Y-90790476D02*
X96045295Y-90838095D01*
X96045295Y-90838095D02*
X96235771Y-90885714D01*
X96235771Y-90885714D02*
X96473866Y-90885714D01*
X96473866Y-90885714D02*
X96664342Y-90838095D01*
X96664342Y-90838095D02*
X96759580Y-90790476D01*
X96759580Y-90790476D02*
X96807200Y-90742857D01*
X96807200Y-90742857D02*
X96854819Y-90647619D01*
X96854819Y-90647619D02*
X96854819Y-90552381D01*
X96854819Y-90552381D02*
X96807200Y-90457143D01*
X96807200Y-90457143D02*
X96759580Y-90409524D01*
X96759580Y-90409524D02*
X96664342Y-90361905D01*
X96664342Y-90361905D02*
X96473866Y-90314286D01*
X96473866Y-90314286D02*
X96235771Y-90314286D01*
X96235771Y-90314286D02*
X96045295Y-90361905D01*
X96045295Y-90361905D02*
X95950057Y-90409524D01*
X95950057Y-90409524D02*
X95902438Y-90457143D01*
X95902438Y-90457143D02*
X95854819Y-90552381D01*
X96854819Y-91838095D02*
X96854819Y-91266667D01*
X96854819Y-91552381D02*
X95854819Y-91552381D01*
X95854819Y-91552381D02*
X95997676Y-91457143D01*
X95997676Y-91457143D02*
X96092914Y-91361905D01*
X96092914Y-91361905D02*
X96140533Y-91266667D01*
X101054819Y-90838095D02*
X100054819Y-90838095D01*
X101054819Y-91409523D02*
X100483390Y-90980952D01*
X100054819Y-91409523D02*
X100626247Y-90838095D01*
X77859580Y-171580952D02*
X77907200Y-171533333D01*
X77907200Y-171533333D02*
X77954819Y-171390476D01*
X77954819Y-171390476D02*
X77954819Y-171295238D01*
X77954819Y-171295238D02*
X77907200Y-171152381D01*
X77907200Y-171152381D02*
X77811961Y-171057143D01*
X77811961Y-171057143D02*
X77716723Y-171009524D01*
X77716723Y-171009524D02*
X77526247Y-170961905D01*
X77526247Y-170961905D02*
X77383390Y-170961905D01*
X77383390Y-170961905D02*
X77192914Y-171009524D01*
X77192914Y-171009524D02*
X77097676Y-171057143D01*
X77097676Y-171057143D02*
X77002438Y-171152381D01*
X77002438Y-171152381D02*
X76954819Y-171295238D01*
X76954819Y-171295238D02*
X76954819Y-171390476D01*
X76954819Y-171390476D02*
X77002438Y-171533333D01*
X77002438Y-171533333D02*
X77050057Y-171580952D01*
X76954819Y-171914286D02*
X76954819Y-172533333D01*
X76954819Y-172533333D02*
X77335771Y-172200000D01*
X77335771Y-172200000D02*
X77335771Y-172342857D01*
X77335771Y-172342857D02*
X77383390Y-172438095D01*
X77383390Y-172438095D02*
X77431009Y-172485714D01*
X77431009Y-172485714D02*
X77526247Y-172533333D01*
X77526247Y-172533333D02*
X77764342Y-172533333D01*
X77764342Y-172533333D02*
X77859580Y-172485714D01*
X77859580Y-172485714D02*
X77907200Y-172438095D01*
X77907200Y-172438095D02*
X77954819Y-172342857D01*
X77954819Y-172342857D02*
X77954819Y-172057143D01*
X77954819Y-172057143D02*
X77907200Y-171961905D01*
X77907200Y-171961905D02*
X77859580Y-171914286D01*
X76954819Y-173152381D02*
X76954819Y-173247619D01*
X76954819Y-173247619D02*
X77002438Y-173342857D01*
X77002438Y-173342857D02*
X77050057Y-173390476D01*
X77050057Y-173390476D02*
X77145295Y-173438095D01*
X77145295Y-173438095D02*
X77335771Y-173485714D01*
X77335771Y-173485714D02*
X77573866Y-173485714D01*
X77573866Y-173485714D02*
X77764342Y-173438095D01*
X77764342Y-173438095D02*
X77859580Y-173390476D01*
X77859580Y-173390476D02*
X77907200Y-173342857D01*
X77907200Y-173342857D02*
X77954819Y-173247619D01*
X77954819Y-173247619D02*
X77954819Y-173152381D01*
X77954819Y-173152381D02*
X77907200Y-173057143D01*
X77907200Y-173057143D02*
X77859580Y-173009524D01*
X77859580Y-173009524D02*
X77764342Y-172961905D01*
X77764342Y-172961905D02*
X77573866Y-172914286D01*
X77573866Y-172914286D02*
X77335771Y-172914286D01*
X77335771Y-172914286D02*
X77145295Y-172961905D01*
X77145295Y-172961905D02*
X77050057Y-173009524D01*
X77050057Y-173009524D02*
X77002438Y-173057143D01*
X77002438Y-173057143D02*
X76954819Y-173152381D01*
X77288152Y-174342857D02*
X77954819Y-174342857D01*
X76907200Y-174104762D02*
X77621485Y-173866667D01*
X77621485Y-173866667D02*
X77621485Y-174485714D01*
X48454819Y-112611429D02*
X47454819Y-112611429D01*
X48359580Y-113659047D02*
X48407200Y-113611428D01*
X48407200Y-113611428D02*
X48454819Y-113468571D01*
X48454819Y-113468571D02*
X48454819Y-113373333D01*
X48454819Y-113373333D02*
X48407200Y-113230476D01*
X48407200Y-113230476D02*
X48311961Y-113135238D01*
X48311961Y-113135238D02*
X48216723Y-113087619D01*
X48216723Y-113087619D02*
X48026247Y-113040000D01*
X48026247Y-113040000D02*
X47883390Y-113040000D01*
X47883390Y-113040000D02*
X47692914Y-113087619D01*
X47692914Y-113087619D02*
X47597676Y-113135238D01*
X47597676Y-113135238D02*
X47502438Y-113230476D01*
X47502438Y-113230476D02*
X47454819Y-113373333D01*
X47454819Y-113373333D02*
X47454819Y-113468571D01*
X47454819Y-113468571D02*
X47502438Y-113611428D01*
X47502438Y-113611428D02*
X47550057Y-113659047D01*
X47454819Y-113992381D02*
X47454819Y-114611428D01*
X47454819Y-114611428D02*
X47835771Y-114278095D01*
X47835771Y-114278095D02*
X47835771Y-114420952D01*
X47835771Y-114420952D02*
X47883390Y-114516190D01*
X47883390Y-114516190D02*
X47931009Y-114563809D01*
X47931009Y-114563809D02*
X48026247Y-114611428D01*
X48026247Y-114611428D02*
X48264342Y-114611428D01*
X48264342Y-114611428D02*
X48359580Y-114563809D01*
X48359580Y-114563809D02*
X48407200Y-114516190D01*
X48407200Y-114516190D02*
X48454819Y-114420952D01*
X48454819Y-114420952D02*
X48454819Y-114135238D01*
X48454819Y-114135238D02*
X48407200Y-114040000D01*
X48407200Y-114040000D02*
X48359580Y-113992381D01*
X47454819Y-115230476D02*
X47454819Y-115325714D01*
X47454819Y-115325714D02*
X47502438Y-115420952D01*
X47502438Y-115420952D02*
X47550057Y-115468571D01*
X47550057Y-115468571D02*
X47645295Y-115516190D01*
X47645295Y-115516190D02*
X47835771Y-115563809D01*
X47835771Y-115563809D02*
X48073866Y-115563809D01*
X48073866Y-115563809D02*
X48264342Y-115516190D01*
X48264342Y-115516190D02*
X48359580Y-115468571D01*
X48359580Y-115468571D02*
X48407200Y-115420952D01*
X48407200Y-115420952D02*
X48454819Y-115325714D01*
X48454819Y-115325714D02*
X48454819Y-115230476D01*
X48454819Y-115230476D02*
X48407200Y-115135238D01*
X48407200Y-115135238D02*
X48359580Y-115087619D01*
X48359580Y-115087619D02*
X48264342Y-115040000D01*
X48264342Y-115040000D02*
X48073866Y-114992381D01*
X48073866Y-114992381D02*
X47835771Y-114992381D01*
X47835771Y-114992381D02*
X47645295Y-115040000D01*
X47645295Y-115040000D02*
X47550057Y-115087619D01*
X47550057Y-115087619D02*
X47502438Y-115135238D01*
X47502438Y-115135238D02*
X47454819Y-115230476D01*
X48454819Y-116516190D02*
X48454819Y-115944762D01*
X48454819Y-116230476D02*
X47454819Y-116230476D01*
X47454819Y-116230476D02*
X47597676Y-116135238D01*
X47597676Y-116135238D02*
X47692914Y-116040000D01*
X47692914Y-116040000D02*
X47740533Y-115944762D01*
X166054819Y-174938095D02*
X167054819Y-175271428D01*
X167054819Y-175271428D02*
X166054819Y-175604761D01*
X167054819Y-176509523D02*
X166578628Y-176176190D01*
X167054819Y-175938095D02*
X166054819Y-175938095D01*
X166054819Y-175938095D02*
X166054819Y-176319047D01*
X166054819Y-176319047D02*
X166102438Y-176414285D01*
X166102438Y-176414285D02*
X166150057Y-176461904D01*
X166150057Y-176461904D02*
X166245295Y-176509523D01*
X166245295Y-176509523D02*
X166388152Y-176509523D01*
X166388152Y-176509523D02*
X166483390Y-176461904D01*
X166483390Y-176461904D02*
X166531009Y-176414285D01*
X166531009Y-176414285D02*
X166578628Y-176319047D01*
X166578628Y-176319047D02*
X166578628Y-175938095D01*
X167054819Y-177461904D02*
X167054819Y-176890476D01*
X167054819Y-177176190D02*
X166054819Y-177176190D01*
X166054819Y-177176190D02*
X166197676Y-177080952D01*
X166197676Y-177080952D02*
X166292914Y-176985714D01*
X166292914Y-176985714D02*
X166340533Y-176890476D01*
X166054819Y-178080952D02*
X166054819Y-178176190D01*
X166054819Y-178176190D02*
X166102438Y-178271428D01*
X166102438Y-178271428D02*
X166150057Y-178319047D01*
X166150057Y-178319047D02*
X166245295Y-178366666D01*
X166245295Y-178366666D02*
X166435771Y-178414285D01*
X166435771Y-178414285D02*
X166673866Y-178414285D01*
X166673866Y-178414285D02*
X166864342Y-178366666D01*
X166864342Y-178366666D02*
X166959580Y-178319047D01*
X166959580Y-178319047D02*
X167007200Y-178271428D01*
X167007200Y-178271428D02*
X167054819Y-178176190D01*
X167054819Y-178176190D02*
X167054819Y-178080952D01*
X167054819Y-178080952D02*
X167007200Y-177985714D01*
X167007200Y-177985714D02*
X166959580Y-177938095D01*
X166959580Y-177938095D02*
X166864342Y-177890476D01*
X166864342Y-177890476D02*
X166673866Y-177842857D01*
X166673866Y-177842857D02*
X166435771Y-177842857D01*
X166435771Y-177842857D02*
X166245295Y-177890476D01*
X166245295Y-177890476D02*
X166150057Y-177938095D01*
X166150057Y-177938095D02*
X166102438Y-177985714D01*
X166102438Y-177985714D02*
X166054819Y-178080952D01*
X166054819Y-178747619D02*
X166054819Y-179366666D01*
X166054819Y-179366666D02*
X166435771Y-179033333D01*
X166435771Y-179033333D02*
X166435771Y-179176190D01*
X166435771Y-179176190D02*
X166483390Y-179271428D01*
X166483390Y-179271428D02*
X166531009Y-179319047D01*
X166531009Y-179319047D02*
X166626247Y-179366666D01*
X166626247Y-179366666D02*
X166864342Y-179366666D01*
X166864342Y-179366666D02*
X166959580Y-179319047D01*
X166959580Y-179319047D02*
X167007200Y-179271428D01*
X167007200Y-179271428D02*
X167054819Y-179176190D01*
X167054819Y-179176190D02*
X167054819Y-178890476D01*
X167054819Y-178890476D02*
X167007200Y-178795238D01*
X167007200Y-178795238D02*
X166959580Y-178747619D01*
X165249404Y-111229819D02*
X164582738Y-112229819D01*
X164582738Y-111229819D02*
X165249404Y-112229819D01*
X163677976Y-112229819D02*
X164249404Y-112229819D01*
X163963690Y-112229819D02*
X163963690Y-111229819D01*
X163963690Y-111229819D02*
X164058928Y-111372676D01*
X164058928Y-111372676D02*
X164154166Y-111467914D01*
X164154166Y-111467914D02*
X164249404Y-111515533D01*
X163058928Y-111229819D02*
X162963690Y-111229819D01*
X162963690Y-111229819D02*
X162868452Y-111277438D01*
X162868452Y-111277438D02*
X162820833Y-111325057D01*
X162820833Y-111325057D02*
X162773214Y-111420295D01*
X162773214Y-111420295D02*
X162725595Y-111610771D01*
X162725595Y-111610771D02*
X162725595Y-111848866D01*
X162725595Y-111848866D02*
X162773214Y-112039342D01*
X162773214Y-112039342D02*
X162820833Y-112134580D01*
X162820833Y-112134580D02*
X162868452Y-112182200D01*
X162868452Y-112182200D02*
X162963690Y-112229819D01*
X162963690Y-112229819D02*
X163058928Y-112229819D01*
X163058928Y-112229819D02*
X163154166Y-112182200D01*
X163154166Y-112182200D02*
X163201785Y-112134580D01*
X163201785Y-112134580D02*
X163249404Y-112039342D01*
X163249404Y-112039342D02*
X163297023Y-111848866D01*
X163297023Y-111848866D02*
X163297023Y-111610771D01*
X163297023Y-111610771D02*
X163249404Y-111420295D01*
X163249404Y-111420295D02*
X163201785Y-111325057D01*
X163201785Y-111325057D02*
X163154166Y-111277438D01*
X163154166Y-111277438D02*
X163058928Y-111229819D01*
X161773214Y-112229819D02*
X162344642Y-112229819D01*
X162058928Y-112229819D02*
X162058928Y-111229819D01*
X162058928Y-111229819D02*
X162154166Y-111372676D01*
X162154166Y-111372676D02*
X162249404Y-111467914D01*
X162249404Y-111467914D02*
X162344642Y-111515533D01*
X146419047Y-166479580D02*
X146466666Y-166527200D01*
X146466666Y-166527200D02*
X146609523Y-166574819D01*
X146609523Y-166574819D02*
X146704761Y-166574819D01*
X146704761Y-166574819D02*
X146847618Y-166527200D01*
X146847618Y-166527200D02*
X146942856Y-166431961D01*
X146942856Y-166431961D02*
X146990475Y-166336723D01*
X146990475Y-166336723D02*
X147038094Y-166146247D01*
X147038094Y-166146247D02*
X147038094Y-166003390D01*
X147038094Y-166003390D02*
X146990475Y-165812914D01*
X146990475Y-165812914D02*
X146942856Y-165717676D01*
X146942856Y-165717676D02*
X146847618Y-165622438D01*
X146847618Y-165622438D02*
X146704761Y-165574819D01*
X146704761Y-165574819D02*
X146609523Y-165574819D01*
X146609523Y-165574819D02*
X146466666Y-165622438D01*
X146466666Y-165622438D02*
X146419047Y-165670057D01*
X145466666Y-166574819D02*
X146038094Y-166574819D01*
X145752380Y-166574819D02*
X145752380Y-165574819D01*
X145752380Y-165574819D02*
X145847618Y-165717676D01*
X145847618Y-165717676D02*
X145942856Y-165812914D01*
X145942856Y-165812914D02*
X146038094Y-165860533D01*
X144514285Y-166574819D02*
X145085713Y-166574819D01*
X144799999Y-166574819D02*
X144799999Y-165574819D01*
X144799999Y-165574819D02*
X144895237Y-165717676D01*
X144895237Y-165717676D02*
X144990475Y-165812914D01*
X144990475Y-165812914D02*
X145085713Y-165860533D01*
X144180951Y-165574819D02*
X143514285Y-165574819D01*
X143514285Y-165574819D02*
X143942856Y-166574819D01*
X114890475Y-130854819D02*
X114890475Y-129854819D01*
X114890475Y-129854819D02*
X114652380Y-129854819D01*
X114652380Y-129854819D02*
X114509523Y-129902438D01*
X114509523Y-129902438D02*
X114414285Y-129997676D01*
X114414285Y-129997676D02*
X114366666Y-130092914D01*
X114366666Y-130092914D02*
X114319047Y-130283390D01*
X114319047Y-130283390D02*
X114319047Y-130426247D01*
X114319047Y-130426247D02*
X114366666Y-130616723D01*
X114366666Y-130616723D02*
X114414285Y-130711961D01*
X114414285Y-130711961D02*
X114509523Y-130807200D01*
X114509523Y-130807200D02*
X114652380Y-130854819D01*
X114652380Y-130854819D02*
X114890475Y-130854819D01*
X113366666Y-130854819D02*
X113938094Y-130854819D01*
X113652380Y-130854819D02*
X113652380Y-129854819D01*
X113652380Y-129854819D02*
X113747618Y-129997676D01*
X113747618Y-129997676D02*
X113842856Y-130092914D01*
X113842856Y-130092914D02*
X113938094Y-130140533D01*
X112747618Y-129854819D02*
X112652380Y-129854819D01*
X112652380Y-129854819D02*
X112557142Y-129902438D01*
X112557142Y-129902438D02*
X112509523Y-129950057D01*
X112509523Y-129950057D02*
X112461904Y-130045295D01*
X112461904Y-130045295D02*
X112414285Y-130235771D01*
X112414285Y-130235771D02*
X112414285Y-130473866D01*
X112414285Y-130473866D02*
X112461904Y-130664342D01*
X112461904Y-130664342D02*
X112509523Y-130759580D01*
X112509523Y-130759580D02*
X112557142Y-130807200D01*
X112557142Y-130807200D02*
X112652380Y-130854819D01*
X112652380Y-130854819D02*
X112747618Y-130854819D01*
X112747618Y-130854819D02*
X112842856Y-130807200D01*
X112842856Y-130807200D02*
X112890475Y-130759580D01*
X112890475Y-130759580D02*
X112938094Y-130664342D01*
X112938094Y-130664342D02*
X112985713Y-130473866D01*
X112985713Y-130473866D02*
X112985713Y-130235771D01*
X112985713Y-130235771D02*
X112938094Y-130045295D01*
X112938094Y-130045295D02*
X112890475Y-129950057D01*
X112890475Y-129950057D02*
X112842856Y-129902438D01*
X112842856Y-129902438D02*
X112747618Y-129854819D01*
X111509523Y-129854819D02*
X111985713Y-129854819D01*
X111985713Y-129854819D02*
X112033332Y-130331009D01*
X112033332Y-130331009D02*
X111985713Y-130283390D01*
X111985713Y-130283390D02*
X111890475Y-130235771D01*
X111890475Y-130235771D02*
X111652380Y-130235771D01*
X111652380Y-130235771D02*
X111557142Y-130283390D01*
X111557142Y-130283390D02*
X111509523Y-130331009D01*
X111509523Y-130331009D02*
X111461904Y-130426247D01*
X111461904Y-130426247D02*
X111461904Y-130664342D01*
X111461904Y-130664342D02*
X111509523Y-130759580D01*
X111509523Y-130759580D02*
X111557142Y-130807200D01*
X111557142Y-130807200D02*
X111652380Y-130854819D01*
X111652380Y-130854819D02*
X111890475Y-130854819D01*
X111890475Y-130854819D02*
X111985713Y-130807200D01*
X111985713Y-130807200D02*
X112033332Y-130759580D01*
X75047619Y-159759580D02*
X75095238Y-159807200D01*
X75095238Y-159807200D02*
X75238095Y-159854819D01*
X75238095Y-159854819D02*
X75333333Y-159854819D01*
X75333333Y-159854819D02*
X75476190Y-159807200D01*
X75476190Y-159807200D02*
X75571428Y-159711961D01*
X75571428Y-159711961D02*
X75619047Y-159616723D01*
X75619047Y-159616723D02*
X75666666Y-159426247D01*
X75666666Y-159426247D02*
X75666666Y-159283390D01*
X75666666Y-159283390D02*
X75619047Y-159092914D01*
X75619047Y-159092914D02*
X75571428Y-158997676D01*
X75571428Y-158997676D02*
X75476190Y-158902438D01*
X75476190Y-158902438D02*
X75333333Y-158854819D01*
X75333333Y-158854819D02*
X75238095Y-158854819D01*
X75238095Y-158854819D02*
X75095238Y-158902438D01*
X75095238Y-158902438D02*
X75047619Y-158950057D01*
X74285714Y-159331009D02*
X74619047Y-159331009D01*
X74619047Y-159854819D02*
X74619047Y-158854819D01*
X74619047Y-158854819D02*
X74142857Y-158854819D01*
X73238095Y-159854819D02*
X73809523Y-159854819D01*
X73523809Y-159854819D02*
X73523809Y-158854819D01*
X73523809Y-158854819D02*
X73619047Y-158997676D01*
X73619047Y-158997676D02*
X73714285Y-159092914D01*
X73714285Y-159092914D02*
X73809523Y-159140533D01*
X72619047Y-158854819D02*
X72523809Y-158854819D01*
X72523809Y-158854819D02*
X72428571Y-158902438D01*
X72428571Y-158902438D02*
X72380952Y-158950057D01*
X72380952Y-158950057D02*
X72333333Y-159045295D01*
X72333333Y-159045295D02*
X72285714Y-159235771D01*
X72285714Y-159235771D02*
X72285714Y-159473866D01*
X72285714Y-159473866D02*
X72333333Y-159664342D01*
X72333333Y-159664342D02*
X72380952Y-159759580D01*
X72380952Y-159759580D02*
X72428571Y-159807200D01*
X72428571Y-159807200D02*
X72523809Y-159854819D01*
X72523809Y-159854819D02*
X72619047Y-159854819D01*
X72619047Y-159854819D02*
X72714285Y-159807200D01*
X72714285Y-159807200D02*
X72761904Y-159759580D01*
X72761904Y-159759580D02*
X72809523Y-159664342D01*
X72809523Y-159664342D02*
X72857142Y-159473866D01*
X72857142Y-159473866D02*
X72857142Y-159235771D01*
X72857142Y-159235771D02*
X72809523Y-159045295D01*
X72809523Y-159045295D02*
X72761904Y-158950057D01*
X72761904Y-158950057D02*
X72714285Y-158902438D01*
X72714285Y-158902438D02*
X72619047Y-158854819D01*
X71904761Y-158950057D02*
X71857142Y-158902438D01*
X71857142Y-158902438D02*
X71761904Y-158854819D01*
X71761904Y-158854819D02*
X71523809Y-158854819D01*
X71523809Y-158854819D02*
X71428571Y-158902438D01*
X71428571Y-158902438D02*
X71380952Y-158950057D01*
X71380952Y-158950057D02*
X71333333Y-159045295D01*
X71333333Y-159045295D02*
X71333333Y-159140533D01*
X71333333Y-159140533D02*
X71380952Y-159283390D01*
X71380952Y-159283390D02*
X71952380Y-159854819D01*
X71952380Y-159854819D02*
X71333333Y-159854819D01*
X166054819Y-182838095D02*
X167054819Y-183171428D01*
X167054819Y-183171428D02*
X166054819Y-183504761D01*
X167054819Y-184409523D02*
X166578628Y-184076190D01*
X167054819Y-183838095D02*
X166054819Y-183838095D01*
X166054819Y-183838095D02*
X166054819Y-184219047D01*
X166054819Y-184219047D02*
X166102438Y-184314285D01*
X166102438Y-184314285D02*
X166150057Y-184361904D01*
X166150057Y-184361904D02*
X166245295Y-184409523D01*
X166245295Y-184409523D02*
X166388152Y-184409523D01*
X166388152Y-184409523D02*
X166483390Y-184361904D01*
X166483390Y-184361904D02*
X166531009Y-184314285D01*
X166531009Y-184314285D02*
X166578628Y-184219047D01*
X166578628Y-184219047D02*
X166578628Y-183838095D01*
X167054819Y-185361904D02*
X167054819Y-184790476D01*
X167054819Y-185076190D02*
X166054819Y-185076190D01*
X166054819Y-185076190D02*
X166197676Y-184980952D01*
X166197676Y-184980952D02*
X166292914Y-184885714D01*
X166292914Y-184885714D02*
X166340533Y-184790476D01*
X166054819Y-185980952D02*
X166054819Y-186076190D01*
X166054819Y-186076190D02*
X166102438Y-186171428D01*
X166102438Y-186171428D02*
X166150057Y-186219047D01*
X166150057Y-186219047D02*
X166245295Y-186266666D01*
X166245295Y-186266666D02*
X166435771Y-186314285D01*
X166435771Y-186314285D02*
X166673866Y-186314285D01*
X166673866Y-186314285D02*
X166864342Y-186266666D01*
X166864342Y-186266666D02*
X166959580Y-186219047D01*
X166959580Y-186219047D02*
X167007200Y-186171428D01*
X167007200Y-186171428D02*
X167054819Y-186076190D01*
X167054819Y-186076190D02*
X167054819Y-185980952D01*
X167054819Y-185980952D02*
X167007200Y-185885714D01*
X167007200Y-185885714D02*
X166959580Y-185838095D01*
X166959580Y-185838095D02*
X166864342Y-185790476D01*
X166864342Y-185790476D02*
X166673866Y-185742857D01*
X166673866Y-185742857D02*
X166435771Y-185742857D01*
X166435771Y-185742857D02*
X166245295Y-185790476D01*
X166245295Y-185790476D02*
X166150057Y-185838095D01*
X166150057Y-185838095D02*
X166102438Y-185885714D01*
X166102438Y-185885714D02*
X166054819Y-185980952D01*
X166388152Y-187171428D02*
X167054819Y-187171428D01*
X166007200Y-186933333D02*
X166721485Y-186695238D01*
X166721485Y-186695238D02*
X166721485Y-187314285D01*
X105954819Y-176059524D02*
X104954819Y-176059524D01*
X104954819Y-176059524D02*
X104954819Y-176440476D01*
X104954819Y-176440476D02*
X105002438Y-176535714D01*
X105002438Y-176535714D02*
X105050057Y-176583333D01*
X105050057Y-176583333D02*
X105145295Y-176630952D01*
X105145295Y-176630952D02*
X105288152Y-176630952D01*
X105288152Y-176630952D02*
X105383390Y-176583333D01*
X105383390Y-176583333D02*
X105431009Y-176535714D01*
X105431009Y-176535714D02*
X105478628Y-176440476D01*
X105478628Y-176440476D02*
X105478628Y-176059524D01*
X105954819Y-177583333D02*
X105954819Y-177011905D01*
X105954819Y-177297619D02*
X104954819Y-177297619D01*
X104954819Y-177297619D02*
X105097676Y-177202381D01*
X105097676Y-177202381D02*
X105192914Y-177107143D01*
X105192914Y-177107143D02*
X105240533Y-177011905D01*
X104954819Y-178202381D02*
X104954819Y-178297619D01*
X104954819Y-178297619D02*
X105002438Y-178392857D01*
X105002438Y-178392857D02*
X105050057Y-178440476D01*
X105050057Y-178440476D02*
X105145295Y-178488095D01*
X105145295Y-178488095D02*
X105335771Y-178535714D01*
X105335771Y-178535714D02*
X105573866Y-178535714D01*
X105573866Y-178535714D02*
X105764342Y-178488095D01*
X105764342Y-178488095D02*
X105859580Y-178440476D01*
X105859580Y-178440476D02*
X105907200Y-178392857D01*
X105907200Y-178392857D02*
X105954819Y-178297619D01*
X105954819Y-178297619D02*
X105954819Y-178202381D01*
X105954819Y-178202381D02*
X105907200Y-178107143D01*
X105907200Y-178107143D02*
X105859580Y-178059524D01*
X105859580Y-178059524D02*
X105764342Y-178011905D01*
X105764342Y-178011905D02*
X105573866Y-177964286D01*
X105573866Y-177964286D02*
X105335771Y-177964286D01*
X105335771Y-177964286D02*
X105145295Y-178011905D01*
X105145295Y-178011905D02*
X105050057Y-178059524D01*
X105050057Y-178059524D02*
X105002438Y-178107143D01*
X105002438Y-178107143D02*
X104954819Y-178202381D01*
X104954819Y-178869048D02*
X104954819Y-179535714D01*
X104954819Y-179535714D02*
X105954819Y-179107143D01*
X162319047Y-135759580D02*
X162366666Y-135807200D01*
X162366666Y-135807200D02*
X162509523Y-135854819D01*
X162509523Y-135854819D02*
X162604761Y-135854819D01*
X162604761Y-135854819D02*
X162747618Y-135807200D01*
X162747618Y-135807200D02*
X162842856Y-135711961D01*
X162842856Y-135711961D02*
X162890475Y-135616723D01*
X162890475Y-135616723D02*
X162938094Y-135426247D01*
X162938094Y-135426247D02*
X162938094Y-135283390D01*
X162938094Y-135283390D02*
X162890475Y-135092914D01*
X162890475Y-135092914D02*
X162842856Y-134997676D01*
X162842856Y-134997676D02*
X162747618Y-134902438D01*
X162747618Y-134902438D02*
X162604761Y-134854819D01*
X162604761Y-134854819D02*
X162509523Y-134854819D01*
X162509523Y-134854819D02*
X162366666Y-134902438D01*
X162366666Y-134902438D02*
X162319047Y-134950057D01*
X161366666Y-135854819D02*
X161938094Y-135854819D01*
X161652380Y-135854819D02*
X161652380Y-134854819D01*
X161652380Y-134854819D02*
X161747618Y-134997676D01*
X161747618Y-134997676D02*
X161842856Y-135092914D01*
X161842856Y-135092914D02*
X161938094Y-135140533D01*
X160747618Y-134854819D02*
X160652380Y-134854819D01*
X160652380Y-134854819D02*
X160557142Y-134902438D01*
X160557142Y-134902438D02*
X160509523Y-134950057D01*
X160509523Y-134950057D02*
X160461904Y-135045295D01*
X160461904Y-135045295D02*
X160414285Y-135235771D01*
X160414285Y-135235771D02*
X160414285Y-135473866D01*
X160414285Y-135473866D02*
X160461904Y-135664342D01*
X160461904Y-135664342D02*
X160509523Y-135759580D01*
X160509523Y-135759580D02*
X160557142Y-135807200D01*
X160557142Y-135807200D02*
X160652380Y-135854819D01*
X160652380Y-135854819D02*
X160747618Y-135854819D01*
X160747618Y-135854819D02*
X160842856Y-135807200D01*
X160842856Y-135807200D02*
X160890475Y-135759580D01*
X160890475Y-135759580D02*
X160938094Y-135664342D01*
X160938094Y-135664342D02*
X160985713Y-135473866D01*
X160985713Y-135473866D02*
X160985713Y-135235771D01*
X160985713Y-135235771D02*
X160938094Y-135045295D01*
X160938094Y-135045295D02*
X160890475Y-134950057D01*
X160890475Y-134950057D02*
X160842856Y-134902438D01*
X160842856Y-134902438D02*
X160747618Y-134854819D01*
X159461904Y-135854819D02*
X160033332Y-135854819D01*
X159747618Y-135854819D02*
X159747618Y-134854819D01*
X159747618Y-134854819D02*
X159842856Y-134997676D01*
X159842856Y-134997676D02*
X159938094Y-135092914D01*
X159938094Y-135092914D02*
X160033332Y-135140533D01*
D12*
%TO.C,P104*%
X111940000Y-199640000D02*
X111940000Y-201260000D01*
X111940000Y-201260000D02*
X120060000Y-201260000D01*
X112000000Y-197200000D02*
X113000000Y-197200000D01*
X112000000Y-198200000D02*
X112000000Y-197200000D01*
X112690000Y-199640000D02*
X112690000Y-199135000D01*
X112690000Y-205460000D02*
X112690000Y-201260000D01*
X112750000Y-205460000D02*
X112750000Y-201260000D01*
X112870000Y-205460000D02*
X112870000Y-201260000D01*
X112990000Y-205460000D02*
X112990000Y-201260000D01*
X113110000Y-205460000D02*
X113110000Y-201260000D01*
X113230000Y-205460000D02*
X113230000Y-201260000D01*
X113310000Y-199640000D02*
X113310000Y-199135000D01*
X113310000Y-201260000D02*
X113310000Y-205460000D01*
X113310000Y-205460000D02*
X112690000Y-205460000D01*
X114000000Y-201260000D02*
X114000000Y-199640000D01*
X114690000Y-199640000D02*
X114690000Y-199082114D01*
X114690000Y-205460000D02*
X114690000Y-201260000D01*
X115310000Y-199640000D02*
X115310000Y-199082114D01*
X115310000Y-201260000D02*
X115310000Y-205460000D01*
X115310000Y-205460000D02*
X114690000Y-205460000D01*
X116000000Y-201260000D02*
X116000000Y-199640000D01*
X116690000Y-199640000D02*
X116690000Y-199082114D01*
X116690000Y-205460000D02*
X116690000Y-201260000D01*
X117310000Y-199640000D02*
X117310000Y-199082114D01*
X117310000Y-201260000D02*
X117310000Y-205460000D01*
X117310000Y-205460000D02*
X116690000Y-205460000D01*
X118000000Y-201260000D02*
X118000000Y-199640000D01*
X118690000Y-199640000D02*
X118690000Y-199082114D01*
X118690000Y-205460000D02*
X118690000Y-201260000D01*
X119310000Y-199640000D02*
X119310000Y-199082114D01*
X119310000Y-201260000D02*
X119310000Y-205460000D01*
X119310000Y-205460000D02*
X118690000Y-205460000D01*
X120060000Y-199640000D02*
X111940000Y-199640000D01*
X120060000Y-201260000D02*
X120060000Y-199640000D01*
%TO.C,C149*%
X113640000Y-122440000D02*
X113640000Y-126895563D01*
X113640000Y-126895563D02*
X114704437Y-127960000D01*
X115340000Y-122440000D02*
X113640000Y-122440000D01*
X115340000Y-127960000D02*
X114704437Y-127960000D01*
X117460000Y-122440000D02*
X119160000Y-122440000D01*
X117460000Y-127960000D02*
X118095563Y-127960000D01*
X117772500Y-128512500D02*
X118397500Y-128512500D01*
X118085000Y-128200000D02*
X118085000Y-128825000D01*
X119160000Y-122440000D02*
X119160000Y-126895563D01*
X119160000Y-126895563D02*
X118095563Y-127960000D01*
%TO.C,C201*%
X47340000Y-172040000D02*
X51795563Y-172040000D01*
X47340000Y-173740000D02*
X47340000Y-172040000D01*
X47340000Y-175860000D02*
X47340000Y-177560000D01*
X47340000Y-177560000D02*
X51795563Y-177560000D01*
X51795563Y-172040000D02*
X52860000Y-173104437D01*
X51795563Y-177560000D02*
X52860000Y-176495563D01*
X52860000Y-173740000D02*
X52860000Y-173104437D01*
X52860000Y-175860000D02*
X52860000Y-176495563D01*
X53100000Y-173115000D02*
X53725000Y-173115000D01*
X53412500Y-173427500D02*
X53412500Y-172802500D01*
%TO.C,CF101*%
X116675000Y-111475000D02*
X110425000Y-111475000D01*
X116675000Y-116525000D02*
X110425000Y-116525000D01*
X110425000Y-116525000D02*
G75*
G02*
X110425000Y-111475000I0J2525000D01*
G01*
X116675000Y-111475000D02*
G75*
G02*
X116675000Y-116525000I0J-2525000D01*
G01*
%TO.C,C301*%
X69700000Y-105010000D02*
X69700000Y-106010000D01*
X70200000Y-105510000D02*
X69200000Y-105510000D01*
X70440000Y-101490000D02*
X70440000Y-99704437D01*
X70440000Y-104510000D02*
X70440000Y-106295563D01*
X71504437Y-98640000D02*
X70440000Y-99704437D01*
X71504437Y-107360000D02*
X70440000Y-106295563D01*
X79160000Y-98640000D02*
X71504437Y-98640000D01*
X79160000Y-101490000D02*
X79160000Y-98640000D01*
X79160000Y-104510000D02*
X79160000Y-107360000D01*
X79160000Y-107360000D02*
X71504437Y-107360000D01*
D11*
%TO.C,RV201*%
X142600000Y-200700000D02*
G75*
G02*
X142966537Y-198941825I4400010J-1D01*
G01*
X142674228Y-201504795D02*
G75*
G02*
X142599995Y-200700000I4325472J804795D01*
G01*
X149900000Y-204000000D02*
G75*
G02*
X144049897Y-203955286I-2900000J3300000D01*
G01*
X151049456Y-198978981D02*
G75*
G02*
X151400000Y-200700000I-4049456J-1721019D01*
G01*
X151400000Y-200700000D02*
G75*
G02*
X151329028Y-201487096I-4400000J0D01*
G01*
D12*
%TO.C,C136*%
X107690000Y-158890000D02*
X107690000Y-164645563D01*
X107690000Y-164645563D02*
X108754437Y-165710000D01*
X110040000Y-158890000D02*
X107690000Y-158890000D01*
X110040000Y-165710000D02*
X108754437Y-165710000D01*
X112160000Y-158890000D02*
X114510000Y-158890000D01*
X112160000Y-165710000D02*
X113445563Y-165710000D01*
X112553750Y-166343750D02*
X113341250Y-166343750D01*
X112947500Y-165950000D02*
X112947500Y-166737500D01*
X114510000Y-158890000D02*
X114510000Y-164645563D01*
X114510000Y-164645563D02*
X113445563Y-165710000D01*
%TO.C,JK101*%
X101500000Y-78100000D02*
X101800000Y-78100000D01*
X101500000Y-88500000D02*
X101500000Y-78100000D01*
X101800000Y-75300000D02*
X108000000Y-75300000D01*
X101800000Y-78100000D02*
X101800000Y-75300000D01*
X108000000Y-75300000D02*
X108000000Y-78100000D01*
X108000000Y-78100000D02*
X108600000Y-78100000D01*
X108600000Y-78100000D02*
X108600000Y-88500000D01*
X108600000Y-88500000D02*
X101500000Y-88500000D01*
%TO.C,C200*%
X61340000Y-171040000D02*
X61340000Y-174495563D01*
X61340000Y-174495563D02*
X62404437Y-175560000D01*
X62540000Y-171040000D02*
X61340000Y-171040000D01*
X62540000Y-175560000D02*
X62404437Y-175560000D01*
X64660000Y-171040000D02*
X65860000Y-171040000D01*
X64660000Y-175560000D02*
X64795563Y-175560000D01*
X64910000Y-176050000D02*
X65410000Y-176050000D01*
X65160000Y-175800000D02*
X65160000Y-176300000D01*
X65860000Y-171040000D02*
X65860000Y-174495563D01*
X65860000Y-174495563D02*
X64795563Y-175560000D01*
%TO.C,C303*%
X95656250Y-191653750D02*
X95656250Y-192441250D01*
X96050000Y-192047500D02*
X95262500Y-192047500D01*
X96290000Y-189140000D02*
X96290000Y-187854437D01*
X96290000Y-191260000D02*
X96290000Y-192545563D01*
X97354437Y-186790000D02*
X96290000Y-187854437D01*
X97354437Y-193610000D02*
X96290000Y-192545563D01*
X103110000Y-186790000D02*
X97354437Y-186790000D01*
X103110000Y-189140000D02*
X103110000Y-186790000D01*
X103110000Y-191260000D02*
X103110000Y-193610000D01*
X103110000Y-193610000D02*
X97354437Y-193610000D01*
%TO.C,C226*%
X157887500Y-196272500D02*
X157887500Y-196897500D01*
X158200000Y-196585000D02*
X157575000Y-196585000D01*
X158440000Y-193840000D02*
X158440000Y-193204437D01*
X158440000Y-195960000D02*
X158440000Y-196595563D01*
X159504437Y-192140000D02*
X158440000Y-193204437D01*
X159504437Y-197660000D02*
X158440000Y-196595563D01*
X163960000Y-192140000D02*
X159504437Y-192140000D01*
X163960000Y-193840000D02*
X163960000Y-192140000D01*
X163960000Y-195960000D02*
X163960000Y-197660000D01*
X163960000Y-197660000D02*
X159504437Y-197660000D01*
%TO.C,C122*%
X140440000Y-176260000D02*
X144895563Y-176260000D01*
X144895563Y-176260000D02*
X145960000Y-175195563D01*
X140440000Y-174560000D02*
X140440000Y-176260000D01*
X145960000Y-174560000D02*
X145960000Y-175195563D01*
X140440000Y-172440000D02*
X140440000Y-170740000D01*
X145960000Y-172440000D02*
X145960000Y-171804437D01*
X146512500Y-172127500D02*
X146512500Y-171502500D01*
X146200000Y-171815000D02*
X146825000Y-171815000D01*
X140440000Y-170740000D02*
X144895563Y-170740000D01*
X144895563Y-170740000D02*
X145960000Y-171804437D01*
%TO.C,C300*%
X57640000Y-98640000D02*
X65295563Y-98640000D01*
X57640000Y-101490000D02*
X57640000Y-98640000D01*
X57640000Y-104510000D02*
X57640000Y-107360000D01*
X57640000Y-107360000D02*
X65295563Y-107360000D01*
X65295563Y-98640000D02*
X66360000Y-99704437D01*
X65295563Y-107360000D02*
X66360000Y-106295563D01*
X66360000Y-101490000D02*
X66360000Y-99704437D01*
X66360000Y-104510000D02*
X66360000Y-106295563D01*
X66600000Y-100490000D02*
X67600000Y-100490000D01*
X67100000Y-100990000D02*
X67100000Y-99990000D01*
%TO.C,C216*%
X78261252Y-191665000D02*
X77738748Y-191665000D01*
X78261252Y-193135000D02*
X77738748Y-193135000D01*
%TO.C,CN102*%
X171200000Y-133600000D02*
X171200000Y-154600000D01*
X171200000Y-154600000D02*
X175300000Y-154600000D01*
X175300000Y-133600000D02*
X171200000Y-133600000D01*
X175300000Y-154600000D02*
X175300000Y-133600000D01*
X175600000Y-154600000D02*
X176600000Y-154600000D01*
X176600000Y-153600000D02*
X176600000Y-154600000D01*
%TO.C,P103*%
X163700000Y-124300000D02*
X163700000Y-123300000D01*
X164700000Y-124300000D02*
X163700000Y-124300000D01*
X166140000Y-112240000D02*
X166140000Y-124360000D01*
X166140000Y-112990000D02*
X165582114Y-112990000D01*
X166140000Y-113610000D02*
X165582114Y-113610000D01*
X166140000Y-114990000D02*
X165582114Y-114990000D01*
X166140000Y-115610000D02*
X165582114Y-115610000D01*
X166140000Y-116990000D02*
X165582114Y-116990000D01*
X166140000Y-117610000D02*
X165582114Y-117610000D01*
X166140000Y-118990000D02*
X165582114Y-118990000D01*
X166140000Y-119610000D02*
X165582114Y-119610000D01*
X166140000Y-120990000D02*
X165582114Y-120990000D01*
X166140000Y-121610000D02*
X165582114Y-121610000D01*
X166140000Y-122990000D02*
X165635000Y-122990000D01*
X166140000Y-123610000D02*
X165635000Y-123610000D01*
X166140000Y-124360000D02*
X167760000Y-124360000D01*
X167760000Y-112240000D02*
X166140000Y-112240000D01*
X167760000Y-112990000D02*
X171960000Y-112990000D01*
X167760000Y-114300000D02*
X166140000Y-114300000D01*
X167760000Y-114990000D02*
X171960000Y-114990000D01*
X167760000Y-116300000D02*
X166140000Y-116300000D01*
X167760000Y-116990000D02*
X171960000Y-116990000D01*
X167760000Y-118300000D02*
X166140000Y-118300000D01*
X167760000Y-118990000D02*
X171960000Y-118990000D01*
X167760000Y-120300000D02*
X166140000Y-120300000D01*
X167760000Y-120990000D02*
X171960000Y-120990000D01*
X167760000Y-122300000D02*
X166140000Y-122300000D01*
X167760000Y-122990000D02*
X171960000Y-122990000D01*
X167760000Y-124360000D02*
X167760000Y-112240000D01*
X171960000Y-112990000D02*
X171960000Y-113610000D01*
X171960000Y-113610000D02*
X167760000Y-113610000D01*
X171960000Y-114990000D02*
X171960000Y-115610000D01*
X171960000Y-115610000D02*
X167760000Y-115610000D01*
X171960000Y-116990000D02*
X171960000Y-117610000D01*
X171960000Y-117610000D02*
X167760000Y-117610000D01*
X171960000Y-118990000D02*
X171960000Y-119610000D01*
X171960000Y-119610000D02*
X167760000Y-119610000D01*
X171960000Y-120990000D02*
X171960000Y-121610000D01*
X171960000Y-121610000D02*
X167760000Y-121610000D01*
X171960000Y-122990000D02*
X171960000Y-123610000D01*
X171960000Y-123070000D02*
X167760000Y-123070000D01*
X171960000Y-123190000D02*
X167760000Y-123190000D01*
X171960000Y-123310000D02*
X167760000Y-123310000D01*
X171960000Y-123430000D02*
X167760000Y-123430000D01*
X171960000Y-123550000D02*
X167760000Y-123550000D01*
X171960000Y-123610000D02*
X167760000Y-123610000D01*
%TO.C,C113*%
X148687500Y-149372500D02*
X148687500Y-149997500D01*
X149000000Y-149685000D02*
X148375000Y-149685000D01*
X149240000Y-146940000D02*
X149240000Y-146304437D01*
X149240000Y-149060000D02*
X149240000Y-149695563D01*
X150304437Y-145240000D02*
X149240000Y-146304437D01*
X150304437Y-150760000D02*
X149240000Y-149695563D01*
X154760000Y-145240000D02*
X150304437Y-145240000D01*
X154760000Y-146940000D02*
X154760000Y-145240000D01*
X154760000Y-149060000D02*
X154760000Y-150760000D01*
X154760000Y-150760000D02*
X150304437Y-150760000D01*
%TO.C,C215*%
X78261252Y-196165000D02*
X77738748Y-196165000D01*
X78261252Y-197635000D02*
X77738748Y-197635000D01*
%TO.C,P101*%
X93790000Y-142890000D02*
X93790000Y-159610000D01*
X93790000Y-159610000D02*
X97510000Y-159610000D01*
X94190000Y-143290000D02*
X94190000Y-159210000D01*
X94190000Y-145150000D02*
X94590000Y-145150000D01*
X94190000Y-146650000D02*
X94590000Y-146650000D01*
X94190000Y-148150000D02*
X94590000Y-148150000D01*
X94190000Y-149650000D02*
X94590000Y-149650000D01*
X94190000Y-151150000D02*
X94590000Y-151150000D01*
X94190000Y-152650000D02*
X94590000Y-152650000D01*
X94190000Y-154150000D02*
X94590000Y-154150000D01*
X94190000Y-155650000D02*
X94590000Y-155650000D01*
X94190000Y-157150000D02*
X94590000Y-157150000D01*
X94190000Y-159210000D02*
X97110000Y-159210000D01*
X94590000Y-145150000D02*
X94590000Y-145350000D01*
X94590000Y-145250000D02*
X94190000Y-145250000D01*
X94590000Y-145350000D02*
X94190000Y-145350000D01*
X94590000Y-146650000D02*
X94590000Y-146850000D01*
X94590000Y-146750000D02*
X94190000Y-146750000D01*
X94590000Y-146850000D02*
X94190000Y-146850000D01*
X94590000Y-148150000D02*
X94590000Y-148350000D01*
X94590000Y-148250000D02*
X94190000Y-148250000D01*
X94590000Y-148350000D02*
X94190000Y-148350000D01*
X94590000Y-149650000D02*
X94590000Y-149850000D01*
X94590000Y-149750000D02*
X94190000Y-149750000D01*
X94590000Y-149850000D02*
X94190000Y-149850000D01*
X94590000Y-151150000D02*
X94590000Y-151350000D01*
X94590000Y-151250000D02*
X94190000Y-151250000D01*
X94590000Y-151350000D02*
X94190000Y-151350000D01*
X94590000Y-152650000D02*
X94590000Y-152850000D01*
X94590000Y-152750000D02*
X94190000Y-152750000D01*
X94590000Y-152850000D02*
X94190000Y-152850000D01*
X94590000Y-154150000D02*
X94590000Y-154350000D01*
X94590000Y-154250000D02*
X94190000Y-154250000D01*
X94590000Y-154350000D02*
X94190000Y-154350000D01*
X94590000Y-155650000D02*
X94590000Y-155850000D01*
X94590000Y-155750000D02*
X94190000Y-155750000D01*
X94590000Y-155850000D02*
X94190000Y-155850000D01*
X94590000Y-157150000D02*
X94590000Y-157350000D01*
X94590000Y-157250000D02*
X94190000Y-157250000D01*
X94590000Y-157350000D02*
X94190000Y-157350000D01*
X95600000Y-143290000D02*
X95600000Y-142890000D01*
X95600000Y-159210000D02*
X95600000Y-159610000D01*
X96600000Y-143290000D02*
X96600000Y-142890000D01*
X96600000Y-159210000D02*
X96600000Y-159610000D01*
X96910000Y-159810000D02*
X97710000Y-159810000D01*
X97110000Y-143290000D02*
X94190000Y-143290000D01*
X97110000Y-159210000D02*
X97110000Y-143290000D01*
X97510000Y-142890000D02*
X93790000Y-142890000D01*
X97510000Y-158600000D02*
X97710000Y-158600000D01*
X97510000Y-159610000D02*
X97510000Y-142890000D01*
X97610000Y-158600000D02*
X97610000Y-158300000D01*
X97710000Y-158300000D02*
X97510000Y-158300000D01*
X97710000Y-158600000D02*
X97710000Y-158300000D01*
X97710000Y-159810000D02*
X97710000Y-159010000D01*
%TO.C,C302*%
X76587500Y-123672500D02*
X76587500Y-124297500D01*
X76900000Y-123985000D02*
X76275000Y-123985000D01*
X77140000Y-121240000D02*
X77140000Y-120604437D01*
X77140000Y-123360000D02*
X77140000Y-123995563D01*
X78204437Y-119540000D02*
X77140000Y-120604437D01*
X78204437Y-125060000D02*
X77140000Y-123995563D01*
X82660000Y-119540000D02*
X78204437Y-119540000D01*
X82660000Y-121240000D02*
X82660000Y-119540000D01*
X82660000Y-123360000D02*
X82660000Y-125060000D01*
X82660000Y-125060000D02*
X78204437Y-125060000D01*
%TO.C,P105*%
X106390000Y-182190000D02*
X106390000Y-182990000D01*
X106390000Y-183400000D02*
X106390000Y-183700000D01*
X106390000Y-183700000D02*
X106590000Y-183700000D01*
X106490000Y-183400000D02*
X106490000Y-183700000D01*
X106590000Y-182390000D02*
X106590000Y-187110000D01*
X106590000Y-183400000D02*
X106390000Y-183400000D01*
X106590000Y-187110000D02*
X110310000Y-187110000D01*
X106990000Y-182790000D02*
X106990000Y-186710000D01*
X106990000Y-186710000D02*
X109910000Y-186710000D01*
X107190000Y-182190000D02*
X106390000Y-182190000D01*
X107500000Y-182790000D02*
X107500000Y-182390000D01*
X107500000Y-186710000D02*
X107500000Y-187110000D01*
X108500000Y-182790000D02*
X108500000Y-182390000D01*
X108500000Y-186710000D02*
X108500000Y-187110000D01*
X109510000Y-184650000D02*
X109910000Y-184650000D01*
X109510000Y-184750000D02*
X109910000Y-184750000D01*
X109510000Y-184850000D02*
X109510000Y-184650000D01*
X109910000Y-182790000D02*
X106990000Y-182790000D01*
X109910000Y-184850000D02*
X109510000Y-184850000D01*
X109910000Y-186710000D02*
X109910000Y-182790000D01*
X110310000Y-182390000D02*
X106590000Y-182390000D01*
X110310000Y-187110000D02*
X110310000Y-182390000D01*
%TO.C,L101*%
X160980000Y-146580000D02*
X160980000Y-150420000D01*
X160980000Y-148500000D02*
X159600000Y-148500000D01*
X160980000Y-150420000D02*
X166220000Y-150420000D01*
X166220000Y-146580000D02*
X160980000Y-146580000D01*
X166220000Y-148500000D02*
X167600000Y-148500000D01*
X166220000Y-150420000D02*
X166220000Y-146580000D01*
%TO.C,R101*%
X160410000Y-151230000D02*
X160410000Y-153970000D01*
X160410000Y-152600000D02*
X159640000Y-152600000D01*
X160410000Y-153970000D02*
X166950000Y-153970000D01*
X166950000Y-151230000D02*
X160410000Y-151230000D01*
X166950000Y-152600000D02*
X167720000Y-152600000D01*
X166950000Y-153970000D02*
X166950000Y-151230000D01*
%TO.C,P102*%
X93390000Y-161690000D02*
X93390000Y-162490000D01*
X93390000Y-162900000D02*
X93390000Y-163200000D01*
X93390000Y-163200000D02*
X93590000Y-163200000D01*
X93490000Y-162900000D02*
X93490000Y-163200000D01*
X93590000Y-161890000D02*
X93590000Y-180110000D01*
X93590000Y-162900000D02*
X93390000Y-162900000D01*
X93590000Y-180110000D02*
X97310000Y-180110000D01*
X93990000Y-162290000D02*
X93990000Y-179710000D01*
X93990000Y-179710000D02*
X96910000Y-179710000D01*
X94190000Y-161690000D02*
X93390000Y-161690000D01*
X94500000Y-162290000D02*
X94500000Y-161890000D01*
X94500000Y-179710000D02*
X94500000Y-180110000D01*
X95500000Y-162290000D02*
X95500000Y-161890000D01*
X95500000Y-179710000D02*
X95500000Y-180110000D01*
X96510000Y-164150000D02*
X96910000Y-164150000D01*
X96510000Y-164250000D02*
X96910000Y-164250000D01*
X96510000Y-164350000D02*
X96510000Y-164150000D01*
X96510000Y-165650000D02*
X96910000Y-165650000D01*
X96510000Y-165750000D02*
X96910000Y-165750000D01*
X96510000Y-165850000D02*
X96510000Y-165650000D01*
X96510000Y-167150000D02*
X96910000Y-167150000D01*
X96510000Y-167250000D02*
X96910000Y-167250000D01*
X96510000Y-167350000D02*
X96510000Y-167150000D01*
X96510000Y-168650000D02*
X96910000Y-168650000D01*
X96510000Y-168750000D02*
X96910000Y-168750000D01*
X96510000Y-168850000D02*
X96510000Y-168650000D01*
X96510000Y-170150000D02*
X96910000Y-170150000D01*
X96510000Y-170250000D02*
X96910000Y-170250000D01*
X96510000Y-170350000D02*
X96510000Y-170150000D01*
X96510000Y-171650000D02*
X96910000Y-171650000D01*
X96510000Y-171750000D02*
X96910000Y-171750000D01*
X96510000Y-171850000D02*
X96510000Y-171650000D01*
X96510000Y-173150000D02*
X96910000Y-173150000D01*
X96510000Y-173250000D02*
X96910000Y-173250000D01*
X96510000Y-173350000D02*
X96510000Y-173150000D01*
X96510000Y-174650000D02*
X96910000Y-174650000D01*
X96510000Y-174750000D02*
X96910000Y-174750000D01*
X96510000Y-174850000D02*
X96510000Y-174650000D01*
X96510000Y-176150000D02*
X96910000Y-176150000D01*
X96510000Y-176250000D02*
X96910000Y-176250000D01*
X96510000Y-176350000D02*
X96510000Y-176150000D01*
X96510000Y-177650000D02*
X96910000Y-177650000D01*
X96510000Y-177750000D02*
X96910000Y-177750000D01*
X96510000Y-177850000D02*
X96510000Y-177650000D01*
X96910000Y-162290000D02*
X93990000Y-162290000D01*
X96910000Y-164350000D02*
X96510000Y-164350000D01*
X96910000Y-165850000D02*
X96510000Y-165850000D01*
X96910000Y-167350000D02*
X96510000Y-167350000D01*
X96910000Y-168850000D02*
X96510000Y-168850000D01*
X96910000Y-170350000D02*
X96510000Y-170350000D01*
X96910000Y-171850000D02*
X96510000Y-171850000D01*
X96910000Y-173350000D02*
X96510000Y-173350000D01*
X96910000Y-174850000D02*
X96510000Y-174850000D01*
X96910000Y-176350000D02*
X96510000Y-176350000D01*
X96910000Y-177850000D02*
X96510000Y-177850000D01*
X96910000Y-179710000D02*
X96910000Y-162290000D01*
X97310000Y-161890000D02*
X93590000Y-161890000D01*
X97310000Y-180110000D02*
X97310000Y-161890000D01*
%TO.C,VR102*%
X167380000Y-157230000D02*
X170075000Y-157230000D01*
X167380000Y-159380000D02*
X171121000Y-159380000D01*
X167380000Y-161620000D02*
X167380000Y-159380000D01*
X167380000Y-161620000D02*
X171121000Y-161620000D01*
X167380000Y-163770000D02*
X167380000Y-157230000D01*
X167380000Y-163770000D02*
X170075000Y-163770000D01*
X171121000Y-161620000D02*
X171121000Y-159380000D01*
X171121000Y-161935000D02*
X171121000Y-159066000D01*
%TO.C,C225*%
X157887500Y-190072500D02*
X157887500Y-190697500D01*
X158200000Y-190385000D02*
X157575000Y-190385000D01*
X158440000Y-187640000D02*
X158440000Y-187004437D01*
X158440000Y-189760000D02*
X158440000Y-190395563D01*
X159504437Y-185940000D02*
X158440000Y-187004437D01*
X159504437Y-191460000D02*
X158440000Y-190395563D01*
X163960000Y-185940000D02*
X159504437Y-185940000D01*
X163960000Y-187640000D02*
X163960000Y-185940000D01*
X163960000Y-189760000D02*
X163960000Y-191460000D01*
X163960000Y-191460000D02*
X159504437Y-191460000D01*
%TO.C,C129*%
X161040000Y-164540000D02*
X161040000Y-167995563D01*
X161040000Y-167995563D02*
X162104437Y-169060000D01*
X162240000Y-164540000D02*
X161040000Y-164540000D01*
X162240000Y-169060000D02*
X162104437Y-169060000D01*
X164360000Y-164540000D02*
X165560000Y-164540000D01*
X164360000Y-169060000D02*
X164495563Y-169060000D01*
X164610000Y-169550000D02*
X165110000Y-169550000D01*
X164860000Y-169300000D02*
X164860000Y-169800000D01*
X165560000Y-164540000D02*
X165560000Y-167995563D01*
X165560000Y-167995563D02*
X164495563Y-169060000D01*
%TO.C,P106*%
X106390000Y-189190000D02*
X106390000Y-189990000D01*
X106390000Y-190400000D02*
X106390000Y-190700000D01*
X106390000Y-190700000D02*
X106590000Y-190700000D01*
X106490000Y-190400000D02*
X106490000Y-190700000D01*
X106590000Y-189390000D02*
X106590000Y-194110000D01*
X106590000Y-190400000D02*
X106390000Y-190400000D01*
X106590000Y-194110000D02*
X110310000Y-194110000D01*
X106990000Y-189790000D02*
X106990000Y-193710000D01*
X106990000Y-193710000D02*
X109910000Y-193710000D01*
X107190000Y-189190000D02*
X106390000Y-189190000D01*
X107500000Y-189790000D02*
X107500000Y-189390000D01*
X107500000Y-193710000D02*
X107500000Y-194110000D01*
X108500000Y-189790000D02*
X108500000Y-189390000D01*
X108500000Y-193710000D02*
X108500000Y-194110000D01*
X109510000Y-191650000D02*
X109910000Y-191650000D01*
X109510000Y-191750000D02*
X109910000Y-191750000D01*
X109510000Y-191850000D02*
X109510000Y-191650000D01*
X109910000Y-189790000D02*
X106990000Y-189790000D01*
X109910000Y-191850000D02*
X109510000Y-191850000D01*
X109910000Y-193710000D02*
X109910000Y-189790000D01*
X110310000Y-189390000D02*
X106590000Y-189390000D01*
X110310000Y-194110000D02*
X110310000Y-189390000D01*
%TO.C,VR105*%
X167380000Y-165430000D02*
X170075000Y-165430000D01*
X167380000Y-167580000D02*
X171121000Y-167580000D01*
X167380000Y-169820000D02*
X167380000Y-167580000D01*
X167380000Y-169820000D02*
X171121000Y-169820000D01*
X167380000Y-171970000D02*
X167380000Y-165430000D01*
X167380000Y-171970000D02*
X170075000Y-171970000D01*
X171121000Y-169820000D02*
X171121000Y-167580000D01*
X171121000Y-170135000D02*
X171121000Y-167266000D01*
%TO.C,C202*%
X47340000Y-165740000D02*
X51795563Y-165740000D01*
X47340000Y-167440000D02*
X47340000Y-165740000D01*
X47340000Y-169560000D02*
X47340000Y-171260000D01*
X47340000Y-171260000D02*
X51795563Y-171260000D01*
X51795563Y-165740000D02*
X52860000Y-166804437D01*
X51795563Y-171260000D02*
X52860000Y-170195563D01*
X52860000Y-167440000D02*
X52860000Y-166804437D01*
X52860000Y-169560000D02*
X52860000Y-170195563D01*
X53100000Y-166815000D02*
X53725000Y-166815000D01*
X53412500Y-167127500D02*
X53412500Y-166502500D01*
%TO.C,C159*%
X83787500Y-161872500D02*
X83787500Y-162497500D01*
X84100000Y-162185000D02*
X83475000Y-162185000D01*
X84340000Y-159440000D02*
X84340000Y-158804437D01*
X84340000Y-161560000D02*
X84340000Y-162195563D01*
X85404437Y-157740000D02*
X84340000Y-158804437D01*
X85404437Y-163260000D02*
X84340000Y-162195563D01*
X89860000Y-157740000D02*
X85404437Y-157740000D01*
X89860000Y-159440000D02*
X89860000Y-157740000D01*
X89860000Y-161560000D02*
X89860000Y-163260000D01*
X89860000Y-163260000D02*
X85404437Y-163260000D01*
%TO.C,VR101*%
X169880000Y-126030000D02*
X172575000Y-126030000D01*
X169880000Y-128180000D02*
X173621000Y-128180000D01*
X169880000Y-130420000D02*
X169880000Y-128180000D01*
X169880000Y-130420000D02*
X173621000Y-130420000D01*
X169880000Y-132570000D02*
X169880000Y-126030000D01*
X169880000Y-132570000D02*
X172575000Y-132570000D01*
X173621000Y-130420000D02*
X173621000Y-128180000D01*
X173621000Y-130735000D02*
X173621000Y-127866000D01*
%TO.C,IC105*%
X123230000Y-196260000D02*
X123230000Y-165080000D01*
X124350000Y-196260000D02*
X124350000Y-165080000D01*
X129450000Y-196260000D02*
X129450000Y-165080000D01*
X129970000Y-165080000D02*
X123230000Y-165080000D01*
X129970000Y-196260000D02*
X123230000Y-196260000D01*
X129970000Y-196260000D02*
X129970000Y-165080000D01*
X130210000Y-164840000D02*
X129570000Y-164840000D01*
X130210000Y-165240000D02*
X130210000Y-164840000D01*
%TO.C,JK102*%
X166000000Y-192800000D02*
X176400000Y-192800000D01*
X166000000Y-199900000D02*
X166000000Y-192800000D01*
X176400000Y-192800000D02*
X176400000Y-193100000D01*
X176400000Y-193100000D02*
X179200000Y-193100000D01*
X176400000Y-199300000D02*
X176400000Y-199900000D01*
X176400000Y-199900000D02*
X166000000Y-199900000D01*
X179200000Y-193100000D02*
X179200000Y-199300000D01*
X179200000Y-199300000D02*
X176400000Y-199300000D01*
%TO.C,CN101*%
X157600000Y-79650000D02*
X157600000Y-78650000D01*
X158600000Y-78650000D02*
X157600000Y-78650000D01*
X158900000Y-78650000D02*
X158900000Y-89650000D01*
X158900000Y-89650000D02*
X163000000Y-89650000D01*
X163000000Y-78650000D02*
X158900000Y-78650000D01*
X163000000Y-89650000D02*
X163000000Y-78650000D01*
%TO.C,R513*%
X108962742Y-126977500D02*
X109437258Y-126977500D01*
X108962742Y-128022500D02*
X109437258Y-128022500D01*
%TO.C,JK103*%
X84300000Y-89700000D02*
X84300000Y-80200000D01*
X84300000Y-89700000D02*
X91900000Y-89700000D01*
X91900000Y-86800000D02*
X94200000Y-86800000D01*
X91900000Y-89700000D02*
X91900000Y-86800000D01*
X96100000Y-84200000D02*
X96100000Y-80200000D01*
%TO.C,IC104*%
X115230000Y-196260000D02*
X115230000Y-165080000D01*
X116350000Y-196260000D02*
X116350000Y-165080000D01*
X121450000Y-196260000D02*
X121450000Y-165080000D01*
X121970000Y-165080000D02*
X115230000Y-165080000D01*
X121970000Y-196260000D02*
X115230000Y-196260000D01*
X121970000Y-196260000D02*
X121970000Y-165080000D01*
X122210000Y-164840000D02*
X121570000Y-164840000D01*
X122210000Y-165240000D02*
X122210000Y-164840000D01*
%TO.C,C114*%
X149240000Y-139140000D02*
X153695563Y-139140000D01*
X149240000Y-140840000D02*
X149240000Y-139140000D01*
X149240000Y-142960000D02*
X149240000Y-144660000D01*
X149240000Y-144660000D02*
X153695563Y-144660000D01*
X153695563Y-139140000D02*
X154760000Y-140204437D01*
X153695563Y-144660000D02*
X154760000Y-143595563D01*
X154760000Y-140840000D02*
X154760000Y-140204437D01*
X154760000Y-142960000D02*
X154760000Y-143595563D01*
X155000000Y-140215000D02*
X155625000Y-140215000D01*
X155312500Y-140527500D02*
X155312500Y-139902500D01*
%TO.C,D301*%
X97230000Y-83300000D02*
X97230000Y-88740000D01*
X97230000Y-87720000D02*
X100170000Y-87720000D01*
X97230000Y-87840000D02*
X100170000Y-87840000D01*
X97230000Y-87960000D02*
X100170000Y-87960000D01*
X97230000Y-88740000D02*
X100170000Y-88740000D01*
X98700000Y-83300000D02*
X98700000Y-82080000D01*
X98700000Y-88740000D02*
X98700000Y-89960000D01*
X100170000Y-83300000D02*
X97230000Y-83300000D01*
X100170000Y-88740000D02*
X100170000Y-83300000D01*
%TO.C,C304*%
X71040000Y-169940000D02*
X71040000Y-174395563D01*
X71040000Y-174395563D02*
X72104437Y-175460000D01*
X72740000Y-169940000D02*
X71040000Y-169940000D01*
X72740000Y-175460000D02*
X72104437Y-175460000D01*
X74860000Y-169940000D02*
X76560000Y-169940000D01*
X74860000Y-175460000D02*
X75495563Y-175460000D01*
X75172500Y-176012500D02*
X75797500Y-176012500D01*
X75485000Y-175700000D02*
X75485000Y-176325000D01*
X76560000Y-169940000D02*
X76560000Y-174395563D01*
X76560000Y-174395563D02*
X75495563Y-175460000D01*
%TO.C,IC301*%
X48800000Y-120840000D02*
X48800000Y-108240000D01*
X71800000Y-108240000D02*
X48800000Y-108240000D01*
X71800000Y-120840000D02*
X48800000Y-120840000D01*
X71800000Y-120840000D02*
X71800000Y-108240000D01*
X74850000Y-112000000D02*
X71800000Y-112000000D01*
X74850000Y-114540000D02*
X71800000Y-114540000D01*
X74850000Y-117080000D02*
X71800000Y-117080000D01*
%TO.C,VR103*%
X167380000Y-173630000D02*
X170075000Y-173630000D01*
X167380000Y-175780000D02*
X171121000Y-175780000D01*
X167380000Y-178020000D02*
X167380000Y-175780000D01*
X167380000Y-178020000D02*
X171121000Y-178020000D01*
X167380000Y-180170000D02*
X167380000Y-173630000D01*
X167380000Y-180170000D02*
X170075000Y-180170000D01*
X171121000Y-178020000D02*
X171121000Y-175780000D01*
X171121000Y-178335000D02*
X171121000Y-175466000D01*
%TO.C,X101*%
X151600000Y-99300000D02*
X151600000Y-110600000D01*
X151600000Y-110600000D02*
X165000000Y-110600000D01*
X165000000Y-98950000D02*
X165120000Y-98950000D01*
X165000000Y-99300000D02*
X151600000Y-99300000D01*
X165000000Y-110600000D02*
X165000000Y-99300000D01*
X165000000Y-110950000D02*
X165000000Y-98950000D01*
X165120000Y-98950000D02*
X165120000Y-110950000D01*
X165120000Y-110950000D02*
X165000000Y-110950000D01*
X165850000Y-102500000D02*
X165000000Y-102500000D01*
X165850000Y-102500000D02*
X165850000Y-102500000D01*
X165850000Y-107400000D02*
X165000000Y-107400000D01*
X165850000Y-107400000D02*
X165850000Y-107400000D01*
%TO.C,C117*%
X145038748Y-167065000D02*
X145561252Y-167065000D01*
X145038748Y-168535000D02*
X145561252Y-168535000D01*
%TO.C,D105*%
X108750000Y-128840000D02*
X109400000Y-128840000D01*
X108750000Y-131960000D02*
X109400000Y-131960000D01*
X110050000Y-128840000D02*
X109400000Y-128840000D01*
X110050000Y-131960000D02*
X109400000Y-131960000D01*
X108477500Y-132240000D02*
X107997500Y-132240000D01*
X108237500Y-131910000D01*
X108477500Y-132240000D01*
G36*
X108477500Y-132240000D02*
G01*
X107997500Y-132240000D01*
X108237500Y-131910000D01*
X108477500Y-132240000D01*
G37*
%TO.C,CF102*%
X76475000Y-160375000D02*
X70225000Y-160375000D01*
X76475000Y-165425000D02*
X70225000Y-165425000D01*
X70225000Y-165425000D02*
G75*
G02*
X70225000Y-160375000I0J2525000D01*
G01*
X76475000Y-160375000D02*
G75*
G02*
X76475000Y-165425000I0J-2525000D01*
G01*
%TO.C,VR104*%
X167380000Y-181830000D02*
X170075000Y-181830000D01*
X167380000Y-183980000D02*
X171121000Y-183980000D01*
X167380000Y-186220000D02*
X167380000Y-183980000D01*
X167380000Y-186220000D02*
X171121000Y-186220000D01*
X167380000Y-188370000D02*
X167380000Y-181830000D01*
X167380000Y-188370000D02*
X170075000Y-188370000D01*
X171121000Y-186220000D02*
X171121000Y-183980000D01*
X171121000Y-186535000D02*
X171121000Y-183666000D01*
%TO.C,P107*%
X106390000Y-175190000D02*
X106390000Y-175990000D01*
X106390000Y-176400000D02*
X106390000Y-176700000D01*
X106390000Y-176700000D02*
X106590000Y-176700000D01*
X106490000Y-176400000D02*
X106490000Y-176700000D01*
X106590000Y-175390000D02*
X106590000Y-180110000D01*
X106590000Y-176400000D02*
X106390000Y-176400000D01*
X106590000Y-180110000D02*
X110310000Y-180110000D01*
X106990000Y-175790000D02*
X106990000Y-179710000D01*
X106990000Y-179710000D02*
X109910000Y-179710000D01*
X107190000Y-175190000D02*
X106390000Y-175190000D01*
X107500000Y-175790000D02*
X107500000Y-175390000D01*
X107500000Y-179710000D02*
X107500000Y-180110000D01*
X108500000Y-175790000D02*
X108500000Y-175390000D01*
X108500000Y-179710000D02*
X108500000Y-180110000D01*
X109510000Y-177650000D02*
X109910000Y-177650000D01*
X109510000Y-177750000D02*
X109910000Y-177750000D01*
X109510000Y-177850000D02*
X109510000Y-177650000D01*
X109910000Y-175790000D02*
X106990000Y-175790000D01*
X109910000Y-177850000D02*
X109510000Y-177850000D01*
X109910000Y-179710000D02*
X109910000Y-175790000D01*
X110310000Y-175390000D02*
X106590000Y-175390000D01*
X110310000Y-180110000D02*
X110310000Y-175390000D01*
%TO.C,C101*%
X158440000Y-136340000D02*
X162895563Y-136340000D01*
X158440000Y-138040000D02*
X158440000Y-136340000D01*
X158440000Y-140160000D02*
X158440000Y-141860000D01*
X158440000Y-141860000D02*
X162895563Y-141860000D01*
X162895563Y-136340000D02*
X163960000Y-137404437D01*
X162895563Y-141860000D02*
X163960000Y-140795563D01*
X163960000Y-138040000D02*
X163960000Y-137404437D01*
X163960000Y-140160000D02*
X163960000Y-140795563D01*
X164200000Y-137415000D02*
X164825000Y-137415000D01*
X164512500Y-137727500D02*
X164512500Y-137102500D01*
%TD*%
M02*
