%TF.GenerationSoftware,KiCad,Pcbnew,8.0.9-8.0.9-0~ubuntu24.04.1*%
%TF.CreationDate,2025-02-24T01:21:32+01:00*%
%TF.ProjectId,Main_PCB,4d61696e-5f50-4434-922e-6b696361645f,0.1*%
%TF.SameCoordinates,Original*%
%TF.FileFunction,Soldermask,Bot*%
%TF.FilePolarity,Negative*%
%FSLAX46Y46*%
G04 Gerber Fmt 4.6, Leading zero omitted, Abs format (unit mm)*
G04 Created by KiCad (PCBNEW 8.0.9-8.0.9-0~ubuntu24.04.1) date 2025-02-24 01:21:32*
%MOMM*%
%LPD*%
G01*
G04 APERTURE LIST*
G04 Aperture macros list*
%AMRoundRect*
0 Rectangle with rounded corners*
0 $1 Rounding radius*
0 $2 $3 $4 $5 $6 $7 $8 $9 X,Y pos of 4 corners*
0 Add a 4 corners polygon primitive as box body*
4,1,4,$2,$3,$4,$5,$6,$7,$8,$9,$2,$3,0*
0 Add four circle primitives for the rounded corners*
1,1,$1+$1,$2,$3*
1,1,$1+$1,$4,$5*
1,1,$1+$1,$6,$7*
1,1,$1+$1,$8,$9*
0 Add four rect primitives between the rounded corners*
20,1,$1+$1,$2,$3,$4,$5,0*
20,1,$1+$1,$4,$5,$6,$7,0*
20,1,$1+$1,$6,$7,$8,$9,0*
20,1,$1+$1,$8,$9,$2,$3,0*%
G04 Aperture macros list end*
%ADD10C,1.500000*%
%ADD11C,2.340000*%
%ADD12C,4.000000*%
%ADD13C,2.700000*%
%ADD14R,1.350000X1.350000*%
%ADD15O,1.350000X1.350000*%
%ADD16RoundRect,0.250000X0.550000X-1.250000X0.550000X1.250000X-0.550000X1.250000X-0.550000X-1.250000X0*%
%ADD17RoundRect,0.250000X1.250000X0.550000X-1.250000X0.550000X-1.250000X-0.550000X1.250000X-0.550000X0*%
%ADD18RoundRect,0.250000X-1.950000X-1.000000X1.950000X-1.000000X1.950000X1.000000X-1.950000X1.000000X0*%
%ADD19RoundRect,0.250000X0.550000X-1.500000X0.550000X1.500000X-0.550000X1.500000X-0.550000X-1.500000X0*%
%ADD20C,1.200000*%
%ADD21O,2.800000X1.800000*%
%ADD22RoundRect,0.250000X0.550000X-1.050000X0.550000X1.050000X-0.550000X1.050000X-0.550000X-1.050000X0*%
%ADD23RoundRect,0.250000X-1.500000X-0.550000X1.500000X-0.550000X1.500000X0.550000X-1.500000X0.550000X0*%
%ADD24RoundRect,0.250000X-1.250000X-0.550000X1.250000X-0.550000X1.250000X0.550000X-1.250000X0.550000X0*%
%ADD25RoundRect,0.250000X1.950000X1.000000X-1.950000X1.000000X-1.950000X-1.000000X1.950000X-1.000000X0*%
%ADD26RoundRect,0.250000X-0.250000X-0.475000X0.250000X-0.475000X0.250000X0.475000X-0.250000X0.475000X0*%
%ADD27RoundRect,0.200000X0.450000X-0.200000X0.450000X0.200000X-0.450000X0.200000X-0.450000X-0.200000X0*%
%ADD28O,1.300000X0.800000*%
%ADD29RoundRect,0.250000X-0.550000X1.250000X-0.550000X-1.250000X0.550000X-1.250000X0.550000X1.250000X0*%
%ADD30RoundRect,0.250000X0.615000X-0.265000X0.615000X0.265000X-0.615000X0.265000X-0.615000X-0.265000X0*%
%ADD31O,1.730000X1.030000*%
%ADD32RoundRect,0.250000X-0.475000X0.250000X-0.475000X-0.250000X0.475000X-0.250000X0.475000X0.250000X0*%
%ADD33RoundRect,0.250000X-0.615000X0.265000X-0.615000X-0.265000X0.615000X-0.265000X0.615000X0.265000X0*%
%ADD34C,1.600000*%
%ADD35O,1.600000X1.600000*%
%ADD36C,1.620000*%
%ADD37R,2.100000X2.100000*%
%ADD38C,2.100000*%
%ADD39O,1.800000X2.800000*%
%ADD40RoundRect,0.200000X-0.450000X0.200000X-0.450000X-0.200000X0.450000X-0.200000X0.450000X0.200000X0*%
%ADD41RoundRect,0.200000X0.200000X0.275000X-0.200000X0.275000X-0.200000X-0.275000X0.200000X-0.275000X0*%
%ADD42R,1.400000X1.400000*%
%ADD43C,1.400000*%
%ADD44C,3.000000*%
%ADD45C,1.800000*%
%ADD46R,3.000000X1.800000*%
%ADD47O,1.800000X3.000000*%
%ADD48R,1.800000X1.800000*%
%ADD49O,1.800000X1.800000*%
%ADD50R,2.000000X1.905000*%
%ADD51O,2.000000X1.905000*%
%ADD52RoundRect,0.250000X1.050000X0.550000X-1.050000X0.550000X-1.050000X-0.550000X1.050000X-0.550000X0*%
%ADD53RoundRect,0.150000X-0.587500X-0.150000X0.587500X-0.150000X0.587500X0.150000X-0.587500X0.150000X0*%
G04 APERTURE END LIST*
D10*
%TO.C,X101*%
X166800000Y-107400000D03*
X166800000Y-102500000D03*
%TD*%
D11*
%TO.C,RV201*%
X150800000Y-202700000D03*
X150200000Y-197900000D03*
X147000000Y-196500000D03*
X143800000Y-197900000D03*
X143200000Y-202700000D03*
%TD*%
D12*
%TO.C,H4*%
X152000000Y-188000000D03*
%TD*%
%TO.C,H2*%
X166000000Y-86000000D03*
%TD*%
%TO.C,H1*%
X50000000Y-96000000D03*
%TD*%
D13*
%TO.C,H5*%
X110100000Y-170700000D03*
%TD*%
D12*
%TO.C,H3*%
X50000000Y-202100000D03*
%TD*%
D14*
%TO.C,P104*%
X113000000Y-198200000D03*
D15*
X115000000Y-198200000D03*
X117000000Y-198200000D03*
X119000000Y-198200000D03*
%TD*%
D16*
%TO.C,C149*%
X116400000Y-127400000D03*
X116400000Y-123000000D03*
%TD*%
D17*
%TO.C,C201*%
X52300000Y-174800000D03*
X47900000Y-174800000D03*
%TD*%
D10*
%TO.C,CF101*%
X111100000Y-114000000D03*
X116000000Y-114000000D03*
%TD*%
D18*
%TO.C,C301*%
X71100000Y-103000000D03*
X78500000Y-103000000D03*
%TD*%
D19*
%TO.C,C136*%
X111100000Y-165100000D03*
X111100000Y-159500000D03*
%TD*%
D20*
%TO.C,JK101*%
X104900000Y-87400000D03*
X104900000Y-80600000D03*
D21*
X102600000Y-81800000D03*
X102600000Y-79400000D03*
X102600000Y-86400000D03*
%TD*%
D22*
%TO.C,C200*%
X63600000Y-175100000D03*
X63600000Y-171500000D03*
%TD*%
D23*
%TO.C,C303*%
X96900000Y-190200000D03*
X102500000Y-190200000D03*
%TD*%
D24*
%TO.C,C226*%
X159000000Y-194900000D03*
X163400000Y-194900000D03*
%TD*%
D17*
%TO.C,C122*%
X143300000Y-172600000D03*
X138900000Y-172600000D03*
%TD*%
D25*
%TO.C,C300*%
X65700000Y-103000000D03*
X58300000Y-103000000D03*
%TD*%
D26*
%TO.C,C216*%
X78650000Y-183800000D03*
X80550000Y-183800000D03*
%TD*%
D27*
%TO.C,CN102*%
X174500000Y-151000000D03*
D28*
X172000000Y-149750000D03*
X174500000Y-148500000D03*
X172000000Y-147250000D03*
X174500000Y-146000000D03*
X172000000Y-144750000D03*
X174500000Y-143500000D03*
X172000000Y-142250000D03*
X174500000Y-141000000D03*
X172000000Y-139750000D03*
X174500000Y-138500000D03*
X172000000Y-137250000D03*
%TD*%
D14*
%TO.C,P103*%
X164700000Y-123300000D03*
D15*
X164700000Y-121300000D03*
X164700000Y-119300000D03*
X164700000Y-117300000D03*
X164700000Y-115300000D03*
X164700000Y-113300000D03*
%TD*%
D29*
%TO.C,C113*%
X154700000Y-129200000D03*
X154700000Y-133600000D03*
%TD*%
D26*
%TO.C,C215*%
X77050000Y-196900000D03*
X78950000Y-196900000D03*
%TD*%
D30*
%TO.C,P101*%
X96100000Y-158000000D03*
D31*
X96100000Y-156500000D03*
X96100000Y-155000000D03*
X96100000Y-153500000D03*
X96100000Y-152000000D03*
X96100000Y-150500000D03*
X96100000Y-149000000D03*
X96100000Y-147500000D03*
X96100000Y-146000000D03*
X96100000Y-144500000D03*
%TD*%
D24*
%TO.C,C302*%
X76600000Y-122800000D03*
X81000000Y-122800000D03*
%TD*%
D32*
%TO.C,C220*%
X135700000Y-195650000D03*
X135700000Y-197550000D03*
%TD*%
D33*
%TO.C,P105*%
X108000000Y-184000000D03*
D31*
X108000000Y-185500000D03*
%TD*%
D34*
%TO.C,L101*%
X169000000Y-148500000D03*
D35*
X159000000Y-148500000D03*
%TD*%
D34*
%TO.C,R101*%
X159000000Y-152900000D03*
D35*
X169160000Y-152900000D03*
%TD*%
D33*
%TO.C,P102*%
X95000000Y-163500000D03*
D31*
X95000000Y-165000000D03*
X95000000Y-166500000D03*
X95000000Y-168000000D03*
X95000000Y-169500000D03*
X95000000Y-171000000D03*
X95000000Y-172500000D03*
X95000000Y-174000000D03*
X95000000Y-175500000D03*
X95000000Y-177000000D03*
X95000000Y-178500000D03*
%TD*%
D36*
%TO.C,VR102*%
X171000000Y-158000000D03*
X168500000Y-160500000D03*
X171000000Y-163000000D03*
%TD*%
D24*
%TO.C,C225*%
X159000000Y-188700000D03*
X163400000Y-188700000D03*
%TD*%
D22*
%TO.C,C129*%
X163000000Y-167500000D03*
X163000000Y-163900000D03*
%TD*%
D33*
%TO.C,P106*%
X108000000Y-191000000D03*
D31*
X108000000Y-192500000D03*
%TD*%
D36*
%TO.C,VR105*%
X171000000Y-166200000D03*
X168500000Y-168700000D03*
X171000000Y-171200000D03*
%TD*%
D17*
%TO.C,C202*%
X52300000Y-168500000D03*
X47900000Y-168500000D03*
%TD*%
D24*
%TO.C,C159*%
X84300000Y-159800000D03*
X88700000Y-159800000D03*
%TD*%
D36*
%TO.C,VR101*%
X173500000Y-126800000D03*
X171000000Y-129300000D03*
X173500000Y-131800000D03*
%TD*%
D37*
%TO.C,IC105*%
X126600000Y-166700000D03*
D38*
X126600000Y-169240000D03*
X126600000Y-171780000D03*
X126600000Y-174320000D03*
X126600000Y-176860000D03*
X126600000Y-179400000D03*
X126600000Y-181940000D03*
X126600000Y-184480000D03*
X126600000Y-187020000D03*
X126600000Y-189560000D03*
X126600000Y-192100000D03*
X126600000Y-194640000D03*
%TD*%
D20*
%TO.C,JK102*%
X167100000Y-196200000D03*
X173900000Y-196200000D03*
D39*
X172700000Y-193900000D03*
X175100000Y-193900000D03*
X168100000Y-193900000D03*
%TD*%
D40*
%TO.C,CN101*%
X159700000Y-82250000D03*
D28*
X162200000Y-83500000D03*
X159700000Y-84750000D03*
X162200000Y-86000000D03*
%TD*%
D41*
%TO.C,R513*%
X110025000Y-127500000D03*
X108375000Y-127500000D03*
%TD*%
D42*
%TO.C,JK104*%
X54500000Y-89810000D03*
D43*
X55770000Y-87905000D03*
X57040000Y-89810000D03*
X58310000Y-87905000D03*
X59580000Y-89810000D03*
X60850000Y-87905000D03*
X62120000Y-89810000D03*
X63390000Y-87905000D03*
X64660000Y-89810000D03*
X65930000Y-87905000D03*
X67200000Y-89810000D03*
X68470000Y-87905000D03*
X69740000Y-89810000D03*
X71010000Y-87905000D03*
X72280000Y-89810000D03*
X54500000Y-86000000D03*
X55770000Y-84095000D03*
X57040000Y-86000000D03*
X58310000Y-84095000D03*
X59580000Y-86000000D03*
X60850000Y-84095000D03*
X62120000Y-86000000D03*
X63390000Y-84095000D03*
X64660000Y-86000000D03*
X65930000Y-84095000D03*
X67200000Y-86000000D03*
X68470000Y-84095000D03*
X69740000Y-86000000D03*
X71010000Y-84095000D03*
X72280000Y-86000000D03*
D44*
X49440000Y-84095000D03*
X77340000Y-84095000D03*
%TD*%
D45*
%TO.C,JK103*%
X94000000Y-80200000D03*
X86400000Y-80200000D03*
D46*
X86200000Y-88400000D03*
D47*
X92000000Y-83400000D03*
X95000000Y-85600000D03*
%TD*%
D37*
%TO.C,IC104*%
X118600000Y-166700000D03*
D38*
X118600000Y-169240000D03*
X118600000Y-171780000D03*
X118600000Y-174320000D03*
X118600000Y-176860000D03*
X118600000Y-179400000D03*
X118600000Y-181940000D03*
X118600000Y-184480000D03*
X118600000Y-187020000D03*
X118600000Y-189560000D03*
X118600000Y-192100000D03*
X118600000Y-194640000D03*
%TD*%
D29*
%TO.C,C114*%
X154700000Y-137500000D03*
X154700000Y-141900000D03*
%TD*%
D48*
%TO.C,D301*%
X98700000Y-91100000D03*
D49*
X98700000Y-80940000D03*
%TD*%
D16*
%TO.C,C304*%
X73800000Y-174900000D03*
X73800000Y-170500000D03*
%TD*%
D50*
%TO.C,IC301*%
X76000000Y-112000000D03*
D51*
X76000000Y-114540000D03*
X76000000Y-117080000D03*
%TD*%
D36*
%TO.C,VR103*%
X171000000Y-174400000D03*
X168500000Y-176900000D03*
X171000000Y-179400000D03*
%TD*%
D52*
%TO.C,C117*%
X146000000Y-166100000D03*
X142400000Y-166100000D03*
%TD*%
D53*
%TO.C,D105*%
X108462500Y-131350000D03*
X108462500Y-129450000D03*
X110337500Y-130400000D03*
%TD*%
D10*
%TO.C,CF102*%
X71100000Y-164500000D03*
X76000000Y-164500000D03*
%TD*%
D22*
%TO.C,C102*%
X168200000Y-139900000D03*
X168200000Y-136300000D03*
%TD*%
D36*
%TO.C,VR104*%
X171000000Y-182600000D03*
X168500000Y-185100000D03*
X171000000Y-187600000D03*
%TD*%
D33*
%TO.C,P107*%
X108000000Y-177000000D03*
D31*
X108000000Y-178500000D03*
%TD*%
D24*
%TO.C,C101*%
X151300000Y-148600000D03*
X155700000Y-148600000D03*
%TD*%
M02*
