<?xml version="1.0" encoding="UTF-8" standalone="no"?>
<!-- Created with Inkscape (http://www.inkscape.org/) -->

<svg
   version="1.1"
   id="svg264"
   width="559.35999"
   height="793.76001"
   viewBox="0 0 559.35999 793.76001"
   sodipodi:docname="Scanned_Lens_Flex.svg"
   inkscape:version="1.2.2 (b0a8486541, 2022-12-01)"
   xml:space="preserve"
   xmlns:inkscape="http://www.inkscape.org/namespaces/inkscape"
   xmlns:sodipodi="http://sodipodi.sourceforge.net/DTD/sodipodi-0.dtd"
   xmlns:xlink="http://www.w3.org/1999/xlink"
   xmlns="http://www.w3.org/2000/svg"
   xmlns:svg="http://www.w3.org/2000/svg"><g
     id="g469"
     inkscape:label="LensFlex"><image
       width="419.40002"
       height="595.32001"
       preserveAspectRatio="none"
       xlink:href="Scanned_Lens_Flex.png"
       id="image268"
       x="0.014768003"
       y="-595.22864"
       transform="matrix(1.3333333,0,0,1.3333333,0,793.76)"
       style="display:inline;stroke-width:0.075;stroke-dasharray:none"
       sodipodi:insensitive="true" /><g
       id="g4448"
       inkscape:label="Stiffener"
       style="display:inline"><path
         style="fill:#00ff00;stroke:none;stroke-width:1px;stroke-linecap:butt;stroke-linejoin:miter;stroke-opacity:1"
         d="m 225.57005,44.609797 -0.39908,61.843983 -20.62426,-0.24246 0.45798,-61.71947 z"
         id="path4445" /></g><g
       id="g3720"
       inkscape:label="Tracks"
       transform="translate(-0.16037112,-0.09790881)"
       style="opacity:1"><path
         style="display:inline;opacity:1;fill:#ff0000;stroke:none;stroke-width:1px;stroke-linecap:butt;stroke-linejoin:miter;stroke-opacity:1"
         d="m 219.98291,100.64112 c 0.0455,-0.019 8.00027,0.085 8.00027,0.085 l 0.28053,0.34976 14.42299,0.0958 c 0.89011,-0.37299 3.14815,-1.191626 4.30778,-2.927828 l 5.68427,-9.894445 c 0.22462,-0.365102 0.13492,-0.541254 1.30608,-0.983946 0.63888,-0.305591 1.32174,-0.334609 2.004,-0.36738 l 136.46946,1.059721 0.65897,0.142342 0.41258,0.59612 c 11.07182,11.188057 22.97108,7.426933 30.26123,-0.086 l 1.03955,-0.645254 1.38265,-0.538858 0.66397,-0.110954 37.82513,0.217751 c 2.48608,0.236042 3.56682,1.713528 4.30724,3.571654 l -0.73749,113.091317 c -0.0239,0.48447 -0.0638,0.61228 -0.80126,0.58219 l -0.15016,25.68461 -0.34261,1.41497 c -1.73678,2.96504 -3.12894,2.91777 -3.39747,2.99215 l -6.08814,0.14611 c -2.42633,-0.58999 -3.10118,-2.04891 -3.35402,-2.24862 l -0.41507,-1.0009 -0.11494,-3.74174 c -0.42022,-1.60438 -0.6517,-3.25519 -4.18155,-4.09455 l -10.65102,-0.0545 -3.64967,3.50759 -0.6221,0.47704 -0.24116,0.0211 0.1211,-4.85274 14.90739,0.0763 c 2.23035,0.31044 4.23225,1.15381 5.18621,4.44189 l 0.092,3.46138 c -0.11172,0.90436 2.02502,2.88396 3.10108,3.03801 l 5.10707,0.0626 1.56889,-0.69636 c 0.91548,-0.6449 1.65093,-1.46494 1.94117,-2.71805 l 0.62686,-138.943478 c -0.62391,-1.738626 -1.59819,-2.05082 -2.58276,-2.321135 l -37.94261,-0.610061 c -1.11848,0.112377 -1.67986,0.600656 -2.2618,1.075065 -9.29586,10.370619 -22.77559,8.979238 -31.19764,0.141629 l -0.98684,-0.795918 -135.79549,-1.037506 c -0.96133,-0.05329 -2.20629,0.426809 -2.41141,0.735711 l -6.31013,11.438153 c -0.55109,0.69043 -2.7853,2.28296 -4.19994,2.4892 l -15.07484,-0.035 -0.19458,0.51432 -3.58089,0.0537 -0.18388,1.30335 -4.26063,-0.008 z"
         id="path3412"
         sodipodi:nodetypes="ccccccccccccccccccccccccccccccccccccccccccccccccccccccc" /><path
         style="opacity:1;fill:#ff0000;stroke:none;stroke-width:1px;stroke-linecap:butt;stroke-linejoin:miter;stroke-opacity:1"
         d="m 220.20272,95.922339 7.84211,0.02082 3.19099,1.489044 11.29696,0.248522 c 0.89011,-0.37299 2.17309,-1.044487 3.33272,-2.780689 l 5.68849,-8.882508 c 0.22462,-0.365102 0.13492,-0.541254 1.30608,-0.983946 0.63888,-0.305591 1.32174,-0.334609 2.004,-0.36738 l 138.34769,1.090118 0.65897,0.142342 0.41258,0.59612 c 11.07182,11.188057 21.2492,7.279914 28.55498,0.04982 l 1.03955,-0.645254 1.35293,-0.605805 0.66397,-0.110954 39.51238,0.344023 c 2.53843,0.270816 5.17776,2.839426 5.53297,5.201864 L 470.2448,202.45891 c -0.16888,4.16234 0.0605,4.62544 -0.96192,4.62409 l -0.28335,23.97895 -0.34261,1.41497 c -1.73678,2.96504 -4.50529,4.20815 -5.50348,4.29374 l -6.20595,-0.0157 c -2.42633,-0.58999 -3.86927,-2.39036 -4.12211,-2.59007 l -0.41507,-1.0009 -0.11494,-3.74174 c -0.54103,-1.84211 -0.48313,-2.97976 -3.39069,-3.88932 l -9.26599,-0.13728 -10.97515,10.56234 -0.13955,1.43875 -3.9827,-0.14983 c -0.007,-2.62448 -0.58771,-5.17853 -3.56078,-5.33082 l -8.78737,-0.14434 -8.11031,-1.36069 c -0.71805,-0.27772 -0.86693,-0.68636 -1.0384,-1.08981 l -0.12078,-1.86648 c -0.13234,-0.89017 -0.63082,-1.52683 -1.92254,-1.61427 l -8.11801,-0.0699 c -1.31446,0.12892 -1.28693,0.87562 -1.53355,1.49611 l -0.599,-0.48176 c 0.62984,-1.97224 1.46127,-1.37823 2.21636,-1.75605 l 8.63459,0.11458 c 1.17774,0.35758 1.98065,1.05015 2.25453,2.21551 l 0.0626,1.74989 c 0.0287,0.3583 0.26719,0.64652 0.99564,0.77109 l 7.22422,1.01303 7.9352,0.001 0.11739,-3.81615 4.88764,0.18891 0.0686,2.56289 2.45794,0.005 c 0.74846,0.0253 1.06714,0.3496 1.05815,1.16712 l 3.98937,-0.0804 6.53392,-6.29001 9.58256,0.0763 c 2.23035,0.31044 3.80633,1.22273 4.39535,4.23666 l 0.092,3.46138 c -0.11172,0.90436 2.65088,3.23588 3.72694,3.38993 l 5.5279,-0.0256 c 1.63694,-0.22629 1.84733,-0.38456 2.58331,-0.80115 0.91548,-0.6449 2.56873,-2.03502 2.87197,-3.67517 l 0.3811,-24.26222 c 0.021,-0.68254 0.0498,-1.00576 0.6939,-1.01899 L 469.6056,90.981069 c -0.11762,-2.032317 -2.41357,-3.693568 -3.63017,-3.929151 l -39.76977,-0.689903 c -1.11848,0.112377 -2.44895,0.992707 -3.03089,1.467116 -9.34669,10.134631 -21.06934,8.843418 -29.49139,0.0058 L 392.69654,87.039013 255.02282,85.97111 c -0.96133,-0.05329 -2.20629,0.426809 -2.41141,0.735711 l -6.31435,10.426216 c -0.55109,0.69043 -1.81024,2.135819 -3.22488,2.342059 l -12.53934,-0.114185 -2.73312,-1.289976 -1.01735,-0.0098 -0.88841,0.611756 -5.7181,-0.05652 z"
         id="path3412-8"
         sodipodi:nodetypes="ccccccccccccccccccccccccccccccccccccccccccccccccccccccccccccccccccccccccccccccc" /><path
         style="opacity:1;fill:#ff0000;stroke:none;stroke-width:1px;stroke-linecap:butt;stroke-linejoin:miter;stroke-opacity:1"
         d="m 220.36663,91.293972 4.77892,0.01764 4.08732,-4.033137 c 0.0897,-1.524501 0.88953,-1.951436 1.85698,-2.119413 l 16.64746,0.104445 c 0.9361,-0.143709 0.60869,1.213902 1.63591,-0.551963 l 2.53199,-2.253603 141.60178,1.109987 0.65897,0.142342 c 2.40949,0.87282 2.52548,1.521803 3.1179,1.873188 6.73337,8.040902 17.57187,6.94244 23.53433,-0.204583 l 1.6544,-1.05545 1.42813,-0.671006 0.66397,-0.110954 40.88412,0.149226 c 2.9761,-0.281034 7.72789,4.289226 7.61414,7.242976 l -0.66171,108.850053 -0.0784,3.95771 -0.20135,1.25219 0.0531,2.19866 c -0.51715,0.46387 -1.10449,0.5925 -1.28942,1.85262 l -0.0537,22.10404 c -0.37817,3.35246 -4.12556,7.50569 -8.08834,7.41889 l -6.20595,-0.0157 c -2.46842,-0.37672 -4.53872,-3.22577 -4.79156,-3.42548 l -0.59622,-1.16243 -0.30262,-4.10725 c -0.0526,-1.5833 -0.76611,-2.65259 -2.35908,-2.76749 l -7.81077,-0.0926 -7.31042,6.93434 -0.0202,0.57238 0.82743,1.99371 -0.32792,6.9387 1.50066,0.14228 -2.87005,2.27993 -0.85506,16.97949 c -1.63957,0.8031 -4.14657,0.46842 -6.30423,0.70811 -2.347,-0.3281 -4.16122,-0.74647 -5.51031,-1.24365 l 2.07616,-26.34798 c -0.17147,-1.67512 -1.27176,-1.82643 -2.07449,-2.0576 l -9.04914,-0.26897 -5.34726,-0.57305 -4.2455,-0.42079 0.14019,-0.94665 9.37147,1.04987 9.52679,0.14113 c 2.11786,0.29688 2.95372,1.75956 2.98307,4.05076 l -2.06053,24.22951 0.19326,0.3129 4.22096,0.80361 3.475,-0.29229 0.71882,-1.64839 2.19321,-26.19847 8.29612,-7.90314 8.12734,0.0316 c 2.10036,0.22473 3.00756,0.73489 3.36374,3.11483 l 0.23658,3.72131 c -0.11172,0.90436 2.38223,4.23853 5.10774,4.53823 l 6.18694,-0.0124 c 3.7213,-0.23148 5.91846,-4.10359 6.55298,-6.15716 l 0.28781,-23.15325 c 0.22073,-0.8528 0.73819,-1.18283 1.13898,-1.71841 l 0.14179,-2.43874 -0.21385,-0.32017 0.57345,-112.65215 c 0.0135,-2.717533 -3.92803,-6.203277 -5.71134,-5.970263 l -41.14151,-0.495106 c -1.11848,0.112377 -2.52415,1.057908 -3.10609,1.532317 -8.28707,8.576209 -17.95107,8.437095 -26.37312,-0.400523 -1.08721,-0.638156 -1.7336,-0.888474 -2.40463,-1.002064 L 252.84536,83.760875 c -0.77506,-0.0081 -3.48795,2.481987 -3.58724,3.216652 l 0.008,0.841136 c -0.34751,1.83986 -1.35062,1.622651 -2.28015,1.63632 l -16.20813,0.192798 -4.83679,4.257513 -5.60097,0.08271 z"
         id="path3412-8-9"
         sodipodi:nodetypes="cccccccccccccccccccccccccccccccccccccccccccccccccccccccccccccccccccccccccccccc" /><path
         style="opacity:1;fill:#ff0000;stroke:none;stroke-width:1px;stroke-linecap:butt;stroke-linejoin:miter;stroke-opacity:1"
         d="m 220.3512,86.539695 1.71517,-0.05919 4.69837,-4.597943 c 1.16823,-1.255492 1.53229,-1.120184 2.26222,-1.147425 l 19.44565,0.145313 c 0.0332,-0.393432 0.3536,-0.659053 0.897,-0.674408 l 0.43071,-0.02318 143.86702,1.128886 0.84606,0.148907 c 2.08048,0.385957 3.73198,2.061991 4.37244,2.484461 5.10853,5.981518 13.39762,7.196122 20.39456,-0.504053 0.87565,-0.629296 2.2383,-1.587459 3.44417,-1.741738 l 0.57376,-0.06876 2.04554,-0.04197 39.22048,0.243177 1.61221,0.129891 c 4.17275,0.187523 8.67664,4.921829 8.74714,8.871603 l -0.65065,108.984284 -0.0784,3.95771 -0.11354,1.91998 -0.0237,1.92124 c -0.51715,0.46387 -1.38562,0.66771 -1.57055,1.92783 l -0.0946,21.9426 c -0.29614,3.39029 -4.5152,8.70724 -9.05923,8.96179 l -7.52674,0.10714 c -0.50665,0.0945 -0.81952,0.26399 -0.82176,0.62267 l -0.1208,3.76605 c -0.30875,1.24134 -0.73645,1.28608 -1.1538,1.43498 l -9.96976,0.0194 c -1.25542,0.14637 -1.54365,0.94354 -1.48348,1.97513 l -0.24202,11.5569 c -0.008,1.36063 -1.01806,1.56661 -1.56725,1.56152 l -2.56156,0.0356 c -1.02239,0.0661 -1.6187,0.92091 -1.67231,1.95194 l -0.18879,9.00134 c -0.0431,0.61445 0.0952,1.32856 -1.20988,1.24941 l -16.97348,-0.25081 c -0.56507,-0.0624 -0.87748,-0.41811 -0.86172,-1.15494 l 1.27436,-20.02964 1.27614,-14.65573 c -0.17147,-1.67512 -1.1494,-1.54631 -1.95213,-1.77748 l -6.96495,-0.31112 -6.97293,-0.93866 c -0.37829,0.003 -0.54874,0.18512 -0.61137,0.46059 l -0.0435,1.7964 c -0.14,0.88772 -0.70316,1.07707 -1.27978,1.24421 l -6.3538,0.11024 c 1.10237,-0.17654 2.01352,-0.66313 2.74257,-1.445 l 0.3328,0.50107 2.97285,-0.0247 c 0.40582,-0.0604 0.66191,-0.29805 0.74939,-0.70333 l 0.0794,-1.75155 c 0.11901,-1.11518 0.84815,-1.14097 1.54886,-1.037 l 6.75433,0.8971 7.4426,0.18328 c 2.11786,0.29688 2.65227,1.37247 2.68162,3.66367 l -1.75116,24.53729 1.05649,0.95575 c 3.78424,0.46746 7.6037,0.58226 11.43951,0.53337 0.59025,-0.0245 0.80353,-0.38728 0.77293,-0.96894 l 0.47961,-0.84477 0.60327,-9.55232 5.82847,0.13463 0.59721,-8.59798 9.35593,-0.004 0.15208,-0.32414 0.48268,-0.0901 -0.001,0.46619 3.71285,0.16137 0.28125,-6.85394 -11.73359,-0.44924 -4.41222,-3.42852 0.16331,-3.34714 3.55284,-3.10827 6.42849,0.20892 c 2.51821,0.0436 2.59905,0.58697 2.53862,2.82723 l 0.1305,2.50213 c -0.55152,1.01364 3.33853,6.07372 6.56192,6.2497 2.65393,0.0573 5.88466,0.39641 8.37102,-0.63466 4.14333,-1.89956 5.74234,-5.81475 6.09384,-7.07315 l 0.3287,-22.99181 c 0.22073,-0.8528 1.01932,-1.25804 1.42011,-1.79362 l 0.13074,-2.82911 -0.21385,-0.32017 0.62613,-112.305045 c -0.16055,-4.961199 -5.23049,-8.586095 -8.12804,-8.431846 l -1.01985,-0.07487 -39.88842,-0.457227 c -1.52307,-0.0207 -3.03715,0.592162 -3.61909,1.066571 -7.97899,7.885762 -16.43296,8.634206 -24.25723,0.332545 -1.04494,-0.817603 -2.77794,-1.241441 -3.45881,-1.31325 L 250.28929,81.418933 c -0.25707,0.0086 -0.4353,0.09704 -0.56931,0.208094 l -0.0326,0.724219 c -0.34751,1.83986 -1.35062,1.622651 -2.28015,1.63632 l -17.62966,0.0088 -5.89272,5.048328 -3.5602,0.189011 z"
         id="path3412-8-9-7"
         sodipodi:nodetypes="ccccccccccccccccccccccccccccccccccccccccccccccccccccccccccccccccccccccccccccccccccccccccccccccccccc" /><path
         style="display:inline;opacity:1;fill:#ff0000;stroke:none;stroke-width:1px;stroke-linecap:butt;stroke-linejoin:miter;stroke-opacity:1"
         d="m 220.29688,83.998929 2.70475,-0.05003 5.01933,-4.735379 165.88461,0.978654 c 1.31454,0.02988 2.61806,0.46201 3.90202,1.608014 6.50375,7.28755 13.50952,8.548381 21.29049,0.503166 0.96526,-0.756463 1.93052,-1.263048 2.89578,-1.33831 l 43.95113,0.30958 c 7.01132,1.196395 9.12447,6.541609 9.45884,8.998327 l 0.18624,5.827452 -0.77511,107.620107 0.28188,0.48068 -0.0967,3.6021 c 0.0139,0.24635 0.0623,0.50075 0.33256,0.80678 l 5.34385,5.51094 -0.10222,9.68733 c 0.0809,1.40242 0.41856,2.79665 1.34918,4.17199 l 8.88172,9.17366 c 0.17215,1.17663 0.0868,1.45892 -0.0581,2.16028 l -16.69021,14.91027 -0.43562,2.17408 c 0.0628,0.513 0.0659,1.04895 0.55982,1.39604 l 7.98212,9.1196 c 1.10167,0.66301 2.23006,0.48559 3.35289,0.48304 l 1.90534,-1.81175 3.7156,-3.36925 3.33669,-0.35709 2.68737,-1.19808 1.37292,-0.10641 0.54182,-0.73162 -2.0921,-0.0378 -2.31596,1.03137 -3.91991,0.5279 -4.75352,4.07324 -0.66439,0.91987 c 0,0 -2.58608,-0.12955 -2.60666,-0.24395 -0.0206,-0.11442 -7.91754,-9.25377 -7.91754,-9.25377 l 0.15566,-2.06878 16.3788,-14.50775 0.59221,-0.74614 c 0.0148,-0.77054 0.0329,-1.53086 0.008,-2.42393 l -0.80509,-1.04768 -7.96254,-8.28345 c -1.15594,-1.18035 -1.69014,-3.22241 -1.66475,-4.64773 l 0.0745,-9.1223 -0.11472,-0.47887 -5.61183,-5.89545 0.0521,-3.32831 0.12504,-0.31793 0.88534,-113.535663 C 475.21537,82.23912 468.5128,80.336364 466.05691,80.04058 l -44.19234,-0.355038 c -1.05475,0.04014 -2.97083,1.066044 -3.76796,1.771695 -6.44507,7.684105 -14.27639,5.737405 -19.14757,-0.520646 -1.19287,-1.015973 -2.6304,-1.71018 -4.47312,-1.871495 l -167.32034,-1.287134 -4.58715,4.667515 -2.23017,-3.11e-4 z"
         id="path3956"
         sodipodi:nodetypes="cccccccccccccccccccccccccccccccccccsccccccccccccccccccccccc" /><path
         style="display:inline;opacity:1;fill:#ff0000;stroke:none;stroke-width:1px;stroke-linecap:butt;stroke-linejoin:miter;stroke-opacity:1"
         d="m 220.31845,79.760175 3.54498,-0.09489 1.45802,-1.583396 1.54708,-1.173227 167.47047,1.013588 c 1.31454,0.02988 3.32303,0.615764 4.60699,1.761768 6.50375,7.28755 11.42829,8.531191 18.93439,0.682619 0.96526,-0.756463 1.93052,-1.263048 2.89578,-1.33831 l 45.21779,0.26241 c 8.45366,0.842946 11.89548,9.636244 11.55938,12.260373 l 0.0421,5.212348 -0.76688,106.901722 0.28188,0.48068 -0.0511,3.57348 c 0.0139,0.24635 0.0623,0.50075 0.33256,0.80678 l 4.86927,4.93247 -0.10222,9.68733 c 0.0809,1.40242 0.34832,2.77691 1.27894,4.15225 l 9.1979,9.72901 c 0.17215,1.17663 0.1271,1.83314 -0.0178,2.5345 l -15.37341,13.86465 -0.43562,2.17408 c 0.0628,0.513 0.0883,0.89765 0.58227,1.24474 l 0.54837,0.72123 1.07092,-0.87969 -0.99462,-0.79624 0.13321,-1.91748 15.062,-13.46213 0.59221,-0.74614 c 0.0148,-0.77054 -0.007,-1.90508 -0.0323,-2.79815 l -0.80509,-1.04768 -8.27872,-8.8388 c -1.15594,-1.18035 -1.6199,-3.20267 -1.59451,-4.62799 l 0.0745,-9.1223 -0.11472,-0.47887 -5.13725,-5.31698 0.007,-3.29969 0.12504,-0.31793 0.77538,-112.200452 C 478.22144,81.712217 469.09905,77.851986 465.95669,78.051816 L 420.9068,77.751412 c -1.31078,-0.0635 -3.73101,1.429483 -4.46229,2.16179 -5.68451,7.507419 -11.81576,4.987613 -16.68694,-1.270438 -1.19287,-1.015973 -3.0055,-1.686277 -4.84822,-1.847592 l -168.9062,-1.322068 -2.05112,1.859782 -0.92398,-0.2715 -2.68414,0.01531 z"
         id="path3956-3"
         sodipodi:nodetypes="ccccccccccccccccccccccccccccccccccccccccccccccccc" /><path
         style="display:inline;opacity:1;fill:#ff0000;stroke:none;stroke-width:1px;stroke-linecap:butt;stroke-linejoin:miter;stroke-opacity:1"
         d="m 220.41488,75.054887 3.54498,-0.09489 0.65618,-0.47136 0.83107,0.07961 169.83246,1.037614 c 1.31454,0.02988 3.32303,0.615764 4.60699,1.761768 6.42179,7.055026 9.17554,8.507686 16.82202,1.057374 0.96526,-0.756463 2.16269,-1.23468 3.12795,-1.309942 l 44.97771,0.234711 c 9.88312,0.133273 14.8111,9.16655 14.46909,13.729142 l 0.0823,5.162339 -0.76737,107.422887 0.28188,0.48068 0.0115,3.31698 c 0.0139,0.24635 0.0623,0.50075 0.33256,0.80678 l 4.53957,4.54984 -0.0874,10.10199 c 0.0647,0.68648 0.29817,1.9595 0.95067,3.09258 l 10.04644,10.73143 c 0.17215,1.17663 0.3068,2.03819 0.1619,2.73955 l -12.32355,11.41597 -0.93962,1.58869 c -0.10818,0.26937 -0.22088,0.40667 0.0261,1.06669 l 0.15908,0.42976 1.07092,-0.87969 -0.23477,-0.44651 0.82282,-1.2123 12.01214,-11.01345 0.59221,-0.74614 c 0.0148,-0.77054 -0.1867,-2.11013 -0.212,-3.0032 l -0.80509,-1.04768 -9.63197,-10.16666 c -0.61757,-1.21774 -0.62124,-1.83772 -0.75354,-2.92365 l 0.0517,-9.85619 -0.11472,-0.47887 -4.80755,-4.93435 -0.0556,-3.04319 0.12504,-0.31793 0.73566,-112.671608 C 480.38252,79.229121 469.20639,76.080184 464.77698,76.110853 l -44.80981,-0.272708 c -1.31078,-0.0635 -3.96318,1.401115 -4.69446,2.133422 -5.20933,6.45274 -9.21516,4.665854 -14.15231,-1.386564 -1.19287,-1.015973 -3.42776,-1.944906 -5.27048,-2.106221 l -171.32286,-1.305772 -0.43259,-0.658099 -0.96999,-0.158816 -2.68414,0.01531 z"
         id="path3956-3-6"
         sodipodi:nodetypes="ccccccccccccccccccccccccccccccccccccccccccccccccc" /><path
         style="display:inline;opacity:1;fill:#ff0000;stroke:none;stroke-width:1px;stroke-linecap:butt;stroke-linejoin:miter;stroke-opacity:1"
         d="m 220.31707,69.485087 2.31109,0.03243 2.66516,2.543625 1.23725,-0.0098 173.82958,1.245621 c 2.28314,0.0069 3.0305,-0.56907 4.63027,-1.822953 2.47092,-1.554324 3.8806,-3.368796 9.20925,0.981014 1.30808,0.716792 4.6226,2.618116 6.8881,2.579788 l 41.03037,0.329862 -0.0373,-1.238919 -41.10376,-0.315131 c -2.85254,-0.88835 -3.53733,-1.251792 -4.89627,-1.969699 -1.08717,-0.530831 -3.47867,-1.948031 -4.35775,-2.523928 -1.87492,-1.228288 -5.05598,-1.762123 -8.65463,1.952023 -1.10249,0.492766 -1.25874,0.573927 -2.74013,0.855327 l -174.5877,-1.317708 -0.55867,-0.635354 -1.86477,-1.917789 -3.0114,-0.01292 z"
         id="path3956-3-6-1"
         sodipodi:nodetypes="ccccccccccccsccccccc"
         transform="translate(0.16037112,0.09790881)" /><path
         style="display:inline;opacity:1;fill:#ff0000;stroke:none;stroke-width:1px;stroke-linecap:butt;stroke-linejoin:miter;stroke-opacity:1"
         d="m 220.20509,64.760026 0.97147,-0.02602 5.05169,5.096049 0.98488,0.09631 172.57522,1.178181 c 1.54958,-0.04455 3.63985,-1.144678 4.53736,-1.940208 3.51534,-2.762202 6.44882,-1.860439 10.66983,0.858544 0.98517,0.884172 5.01805,3.00011 5.97323,3.129408 l 42.72224,0.263213 c 12.09404,0.466271 16.95534,9.90687 17.34378,16.228732 l 0.031,2.777817 -0.81153,110.944398 0.28188,0.48068 -0.0527,3.19976 c 0.0139,0.24635 0.0623,0.50075 0.33256,0.80678 l 4.31604,4.53871 -0.0114,10.16198 c 0.0258,0.71838 0.20216,2.03812 0.95067,3.09258 l 12.36777,12.84447 c 0.037,0.25294 0.46549,0.63935 0.51757,1.48996 0.1902,3.10632 0.0621,9.40827 -0.0517,9.95886 l -1.27949,2.43574 -1.23878,-0.0282 -1.20716,0.95966 1.53984,0.10164 1.07258,-0.0291 1.83446,-2.24602 0.29607,-1.1056 c 0.0148,-0.77054 0.16112,-9.18617 0.13582,-10.07924 -0.016,-1.00261 -0.34661,-1.6774 -0.90762,-2.11218 L 486.81596,225.1034 c -0.73141,-1.18752 -0.70859,-1.81454 -0.75354,-2.92365 l 0.0517,-9.85619 -0.11472,-0.47887 -4.66006,-4.98321 0.009,-2.92597 0.12504,-0.31793 0.8219,-111.593277 C 482.91907,78.450716 471.3992,71.791088 462.81415,72.233785 l -41.71474,-0.358402 c -2.04777,-0.775092 -4.02695,-2.252569 -6.11114,-3.207707 -3.93479,-2.966593 -8.41384,-3.190679 -11.77517,-0.453215 -1.19045,1.097982 -2.6998,1.565061 -3.94943,1.692065 l -172.60382,-1.329175 -0.0551,-0.447306 -4.76174,-4.62499 -1.65378,-0.07066 z"
         id="path3956-3-6-2"
         sodipodi:nodetypes="cccccccccccccccccccscccccccccccccccccccccccccccc"
         transform="translate(0.16037112,0.09790881)" /><path
         style="display:inline;opacity:1;fill:#ff0000;stroke:none;stroke-width:1px;stroke-linecap:butt;stroke-linejoin:miter;stroke-opacity:1"
         d="m 220.30845,60.103594 0.97147,-0.02602 1.48745,1.410358 -0.0343,1.484811 4.51473,4.791744 0.92933,0.107226 171.64369,0.927943 c 1.54958,-0.04455 3.79482,-1.820362 4.69233,-2.615892 1.2515,-0.845076 6.36306,-1.206248 8.0605,-0.182272 0.98517,0.884172 7.62284,4.329199 8.57802,4.458497 l 2.42835,0.05353 0.79979,0.669677 41.2183,0.391389 c 12.06505,1.884543 15.7274,9.812662 17.01929,15.552379 l 0.33598,3.12264 -0.61654,115.617266 c 0.0414,0.19069 0.0269,0.40038 0.55418,0.42566 l 0.0531,1.11624 c 0.0139,0.24635 0.0623,0.50075 0.33256,0.80678 l 3.42441,3.28581 -0.0258,10.49595 c -0.0394,0.74204 0.003,2.11044 0.95067,3.09258 l 12.40179,12.83903 c 0.037,0.25294 0.46549,0.63935 0.51757,1.48996 0.1902,3.10632 0.14958,11.3141 0.0358,11.86469 -0.0404,0.37246 0.0445,0.67771 -0.5415,1.34285 l -3.82963,4.01537 c -0.93901,0.5792 -1.98918,0.72835 -3.15473,0.4311 l -1.20648,-0.66814 -0.85982,0.73625 c 1.02896,0.66185 2.36284,1.36654 4.16808,1.21074 0.9592,-0.12167 1.23213,-0.51622 1.61523,-0.86697 l 4.5303,-5.00748 0.29607,-1.1056 c 0.0148,-0.77054 0.0736,-11.092 0.0483,-11.98507 -0.016,-1.00261 -0.34661,-1.6774 -0.90762,-2.11218 l -12.36877,-12.72809 c -0.73546,-1.29975 -0.77384,-1.48039 -0.81192,-2.39895 l 0.0494,-11.03325 -0.27731,-0.41427 -3.56567,-3.29285 0.0589,-1.22084 c 0.65096,0.086 0.65354,-0.33562 0.73827,-0.61712 L 485.1215,89.791613 C 484.85257,77.321636 473.67435,69.912161 465.774,69.401313 l -41.25923,-0.388968 -0.75318,0.334871 -2.31526,-0.108167 c -2.04777,-0.775092 -6.72662,-3.314334 -8.87998,-4.592763 -1.53711,-0.88983 -6.88695,-0.994807 -8.35869,0.02732 -1.07393,0.91745 -3.66192,2.801023 -4.91155,2.928027 l -171.48707,-1.296288 -3.62291,-3.754738 -0.0949,-1.621609 -1.95718,-2.119193 -1.84153,-0.03184 z"
         id="path3956-3-6-2-9"
         sodipodi:nodetypes="cccccccccccccccccccccccsccccccccccccccccccccccccccccccccc"
         transform="translate(0.16037112,0.09790881)" /><path
         style="display:inline;opacity:1;fill:#ff0000;stroke:none;stroke-width:1px;stroke-linecap:butt;stroke-linejoin:miter;stroke-opacity:1"
         d="m 220.1531,55.56583 2.44961,-0.01564 c 0.75243,0.715485 1.54251,1.378772 2.56411,1.721128 l -0.0376,4.707979 3.27555,3.603519 0.92933,0.107226 169.88478,0.876093 c 1.86864,-0.43604 2.14765,-1.043158 2.96592,-1.741461 0.24402,-0.24257 2.34426,-1.887468 3.65383,-1.916689 4.42247,-0.09868 6.75064,-0.528674 10.14773,2.363737 1.24099,0.844911 2.99256,1.955092 4.21749,2.035883 l 2.40803,0.08688 0.79979,0.669677 41.14782,-0.182827 c 12.27097,1.33901 19.17041,10.368591 21.02831,18.2808 l 0.40827,3.558265 -0.67624,116.68677 c 0.0414,0.19069 0.0269,0.40038 0.55418,0.42566 l 0.0531,1.11624 c 0.0139,0.24635 0.0623,0.50075 0.33256,0.80678 l 1.90157,2.20024 -0.10428,11.19839 c 0.0661,0.83159 0.27033,1.42387 1.02045,2.2729 l 19.324,19.84141 c 0.037,0.25294 0.46549,0.63935 0.51757,1.48996 0.1902,3.10632 0.0631,15.29341 -0.0506,15.844 -0.0404,0.37246 0.0445,0.67771 -0.5415,1.34285 l -7.27394,7.21378 c -0.22688,0.23212 -0.28664,0.23217 -0.56234,0.44223 l -0.75736,0.7113 -0.83124,0.77927 c 0.62567,-0.002 1.51508,-0.3599 1.68036,-0.4153 0.37791,-0.1804 0.37065,-0.18891 0.70971,-0.37742 l 8.29781,-8.503 0.29607,-1.1056 c 0.0148,-0.77054 0.16005,-15.07131 0.13475,-15.96438 -0.016,-1.00261 -0.34661,-1.6774 -0.90762,-2.11218 l -19.30109,-19.8172 c -0.78557,-0.88679 -0.71823,-0.78491 -0.77253,-2.0123 l 0.004,-11.14808 -0.25212,-0.48212 -2.04283,-2.20728 0.0589,-1.22084 c 0.65096,0.086 0.65354,-0.33562 0.73827,-0.61712 L 488.16424,89.26241 C 487.197,74.668893 474.8506,66.440104 464.80772,66.143689 l -41.33388,-0.316548 -0.75318,0.334871 -2.2221,-0.07535 c -2.04777,-0.775092 -3.18337,-1.451887 -4.82853,-2.734516 -1.69837,-0.846584 -1.38732,-1.873725 -9.47267,-1.573707 -1.87939,0.06974 -3.2037,0.780616 -4.318,1.536074 -1.08546,0.876021 -2.01396,1.644747 -3.18514,2.053596 l -169.5899,-1.320025 -2.52199,-2.490923 -0.14677,-5.405731 c -0.67287,-1.484573 -1.24478,-2.607754 -2.54855,-2.790423 l -3.64119,-0.01017 z"
         id="path3956-3-6-2-9-3"
         sodipodi:nodetypes="ccccccccscccccccccccccccscccccccccccccccccccccccccscccccccc"
         transform="translate(0.16037112,0.09790881)" /><path
         style="display:inline;opacity:1;fill:#ff0000;stroke:none;stroke-width:1px;stroke-linecap:butt;stroke-linejoin:miter;stroke-opacity:1"
         d="m 220.38633,51.408574 5.83304,0.100361 c 0.0522,0.906735 0.45457,1.625702 1.18622,1.907391 l -0.12019,6.358129 2.86474,3.154565 0.92933,0.107226 167.054,1.183432 c 2.47075,-0.921304 2.97715,-1.582146 3.79542,-2.280449 0.24402,-0.24257 0.95016,-0.905238 2.19721,-1.149467 0.47992,-0.09399 0.77086,-0.185997 1.92251,-0.151939 l 6.83794,0.202222 c 0.98152,0.02903 2.70842,1.137537 3.37138,1.702004 1.58106,0.798794 3.55584,1.5931 4.78077,1.673891 l 1.20092,0.228514 0.58406,0.62838 43.4436,0.403576 c 12.71034,0.746055 21.17758,11.422908 22.39676,20.197122 l 0.40827,3.558265 -0.78509,118.323813 c 0.0471,0.4012 0.26054,0.63714 1.3488,0.66237 l 0.0531,1.11624 0.0327,13.35602 c -0.027,0.44753 0.2645,0.67315 0.76059,1.17783 l 19.96814,20.20289 c 0.0623,0.15572 0.55405,0.29851 0.51757,1.48996 -0.0952,3.11068 -0.0603,15.13192 -0.0506,15.844 -0.006,0.42728 0.11375,0.87195 -0.3914,1.37231 l -12.46752,12.35298 c -0.35415,0.33191 -0.90941,0.43137 -1.376,0.46561 l 0.003,-0.29743 -1.15419,1.18593 c 1.06476,0.16508 1.95375,0.33072 3.22581,-0.61245 l 12.69097,-12.72598 c 0.2769,-0.27915 0.44649,-0.47382 0.35307,-1.91608 -0.0615,-1.01728 0.21102,-15.0003 0.18572,-15.89337 -0.016,-1.00261 -0.26337,-1.48519 -0.82438,-1.91997 l -17.57978,-17.77325 c -0.78557,-0.88679 -2.70914,-2.55873 -2.7907,-3.02967 l -0.20583,-13.43942 0.0308,-1.15761 -0.0627,-1.26676 0.6865,-117.975953 C 490.63956,72.976684 476.4019,63.446547 465.99104,63.194715 L 422.50352,62.954436 422.29,63.14016 c -1.50608,-0.08889 -3.03837,-0.479407 -4.64586,-1.304077 -1.27848,-0.442482 -3.11117,-2.283572 -4.52014,-2.254502 l -8.58382,-0.01999 c -1.88068,-0.0044 -2.19174,0.56399 -3.24086,1.476711 -0.70565,0.687912 -1.30282,1.213736 -3.24913,1.930639 l -167.08528,-1.188276 -2.26787,-2.243517 0.12264,-6.73484 c 0.82553,-3.003827 -1.21022,-3.980049 -2.51399,-4.162718 l -3.02871,-0.0084 0.0438,-2.007096 -3.01504,0.05876 z"
         id="path3956-3-6-2-9-3-1"
         sodipodi:nodetypes="ccccccccssscccccccccccccsccccccccccccccccccccccscccccccccc"
         transform="translate(0.16037112,0.09790881)" /><path
         id="rect4546"
         style="display:inline;opacity:1;fill:#ff0000;stroke:none;stroke-width:0;stroke-linecap:butt;stroke-linejoin:miter;stroke-dasharray:none;paint-order:stroke fill markers"
         d="m 231.46284,54.585253 c -0.78967,0 -1.42578,0.63611 -1.42578,1.425781 v 2.929688 c 0,0.789671 0.63611,1.425781 1.42578,1.425781 h 8.98438 c 0.78967,0 1.42578,-0.63611 1.42578,-1.425781 v -2.929688 c 0,-0.789671 -0.63611,-1.425781 -1.42578,-1.425781 z m 1.9043,1.783203 5.66601,0.0625 c 1.02954,0.194773 1.28886,1.738072 -0.0391,2.017578 l -5.71094,-0.07227 c -1.33812,-0.258386 -1.05245,-1.965943 0.084,-2.007813 z"
         transform="translate(-0.11527132,0.07527578)" /><path
         id="rect4546-7"
         style="display:inline;fill:#ff0000;stroke:none;stroke-width:0;stroke-linecap:butt;stroke-linejoin:miter;stroke-dasharray:none;paint-order:stroke fill markers"
         d="m 231.55079,90.515002 c -0.78967,0 -1.42578,0.63611 -1.42578,1.425781 v 2.929688 c 0,0.789671 0.63611,1.425781 1.42578,1.425781 h 8.98438 c 0.78967,0 1.42578,-0.63611 1.42578,-1.425781 v -2.929688 c 0,-0.789671 -0.63611,-1.425781 -1.42578,-1.425781 z m 1.9043,1.783203 5.66601,0.0625 c 1.02954,0.194773 1.28886,1.738072 -0.0391,2.017578 l -5.71094,-0.07227 c -1.33812,-0.258386 -1.05245,-1.965943 0.084,-2.007813 z"
         transform="translate(-0.11527132,0.07527578)" /></g><g
       id="g2237"
       inkscape:label="Contacts"
       style="display:inline;fill:#00ffff"><rect
         style="fill:#00ffff;stroke:#00ffff;stroke-width:0.0987334;stroke-linejoin:miter;stroke-dasharray:none"
         id="rect2071-3-5"
         width="15.513864"
         height="2.6221521"
         x="205.44281"
         y="70.189758"
         transform="matrix(0.99995439,0.00955032,-0.01012919,0.9999487,0,0)" /><rect
         style="display:inline;fill:#00ffff;stroke:#00ffff;stroke-width:0.0987365;stroke-linejoin:miter;stroke-dasharray:none"
         id="rect2071-3-6"
         width="15.514853"
         height="2.6221492"
         x="205.39641"
         y="65.45575"
         transform="matrix(0.9999544,0.0095497,-0.01012984,0.99994869,0,0)" /><rect
         style="fill:#00ffff;stroke:#00ffff;stroke-width:0.0985673;stroke-linejoin:miter;stroke-dasharray:none"
         id="rect2071-6"
         width="15.46077"
         height="2.6223099"
         x="205.53386"
         y="89.112679"
         transform="matrix(0.99995408,0.0095837,-0.01009391,0.99994906,0,0)" /><rect
         style="fill:#00ffff;stroke:#00ffff;stroke-width:0.0985465;stroke-linejoin:miter;stroke-dasharray:none"
         id="rect2071-7"
         width="15.454142"
         height="2.6223297"
         x="205.53459"
         y="84.39328"
         transform="matrix(0.99995404,0.00958788,-0.01008951,0.9999491,0,0)" /><rect
         style="fill:#00ffff;stroke:#00ffff;stroke-width:0.0986193;stroke-linejoin:miter;stroke-dasharray:none"
         id="rect2071-5"
         width="15.477367"
         height="2.6222606"
         x="205.46222"
         y="79.710503"
         transform="matrix(0.99995418,0.00957324,-0.01010494,0.99994894,0,0)" /><rect
         style="fill:#00ffff;stroke:#00ffff;stroke-width:0.0984265;stroke-linejoin:miter;stroke-dasharray:none"
         id="rect2071-3"
         width="15.41585"
         height="2.6224437"
         x="205.44577"
         y="74.893745"
         transform="matrix(0.9999538,0.00961212,-0.01006407,0.99994936,0,0)" /><path
         style="fill:#00ffff;stroke:#00ffff;stroke-width:0.1;stroke-linecap:butt;stroke-linejoin:miter;stroke-dasharray:none;stroke-opacity:1"
         d="m 204.61178,100.49151 15.30271,0.18051 -0.0774,4.02246 -1.95988,-0.0139 0.001,-1.3942 -13.27323,-0.17204 z"
         id="path534-3"
         sodipodi:nodetypes="ccccccc" /><path
         style="fill:#00ffff;stroke:#00ffff;stroke-width:0.1;stroke-linecap:butt;stroke-linejoin:miter;stroke-dasharray:none;stroke-opacity:1"
         d="m 204.77135,48.496999 12.33414,0.07982 -0.004,-1.831039 3.07523,-0.012 0.116,4.61254 -15.5268,-0.162823 z"
         id="path534"
         sodipodi:nodetypes="ccccccc" /><rect
         style="fill:#00ffff;stroke:#00ffff;stroke-width:0.100765;stroke-linejoin:miter;stroke-dasharray:none"
         id="rect2065"
         width="15.354102"
         height="2.7443812"
         x="205.37048"
         y="50.927372"
         transform="matrix(0.99994367,0.01061409,-0.01166387,0.99993197,0,0)" /><rect
         style="fill:#00ffff;stroke:#00ffff;stroke-width:0.101597;stroke-linejoin:miter;stroke-dasharray:none"
         id="rect2067"
         width="15.456409"
         height="2.8420703"
         x="204.86086"
         y="57.404877"
         transform="matrix(0.99999785,0.00207431,-0.00194613,0.99999811,0,0)" /><rect
         style="fill:#00ffff;stroke:#00ffff;stroke-width:0.099693;stroke-linejoin:miter;stroke-dasharray:none"
         id="rect2069"
         width="15.391117"
         height="2.9446845"
         x="204.94543"
         y="61.841557"
         transform="matrix(0.99999569,0.00293707,-0.00328347,0.99999461,0,0)" /><rect
         style="fill:#00ffff;stroke:#00ffff;stroke-width:0.0986213;stroke-linejoin:miter;stroke-dasharray:none"
         id="rect2071"
         width="15.478014"
         height="2.6222587"
         x="205.59885"
         y="93.83979"
         transform="matrix(0.99995418,0.00957284,-0.01010537,0.99994894,0,0)" /><path
         id="path2179"
         style="opacity:1;fill:#00ffff;stroke:none;stroke-width:0;stroke-linecap:butt;stroke-linejoin:miter;stroke-dasharray:none;stroke-opacity:1"
         d="m 390.94922,226.72266 c -3.10269,1.26088 -3.43763,5.91829 -1.32031,8.1875 l 4.09179,-3.50391 z m -0.0664,3.04296 a 1.2070497,1.1904538 0 0 1 0.65039,0.19532 1.2070497,1.1904538 0 0 1 0.34961,1.64648 1.2070497,1.1904538 0 0 1 -1.66992,0.3457 1.2070497,1.1904538 0 0 1 -0.35156,-1.64648 l 0.002,-0.002 a 1.2070497,1.1904538 0 0 1 1.01953,-0.53907 z" /><path
         id="path2179-9"
         style="fill:#00ffff;stroke:none;stroke-width:0.1;stroke-linecap:butt;stroke-linejoin:miter;stroke-dasharray:none;stroke-opacity:1"
         d="m 394.30078,232.17773 -4.09766,3.61524 c 1.75523,2.8523 5.95864,3.15782 7.84766,0.69531 l -3.11133,-4.2793 z m 0.20313,1.54493 a 1.204443,1.204443 0 0 1 0.64843,0.19531 1.204443,1.204443 0 0 1 0.34961,1.66797 1.204443,1.204443 0 0 1 -1.66797,0.34961 1.204443,1.204443 0 0 1 -0.3496,-1.66797 h 0.002 a 1.204443,1.204443 0 0 1 1.01758,-0.54492 z" /><path
         id="path2179-2"
         style="fill:#00ffff;stroke:none;stroke-width:0.1;stroke-linecap:butt;stroke-linejoin:miter;stroke-dasharray:none;stroke-opacity:1"
         d="m 397.92773,228.76758 -2.32421,1.9375 -0.0859,0.86523 3.91992,4.23828 c 2.37045,-2.23589 1.42929,-6.43568 1.32812,-7 z m 0.70899,1.58984 a 1.2144804,1.1977823 0 0 1 0.65625,0.19531 1.2144804,1.1977823 0 0 1 0.35156,1.65821 1.2144804,1.1977823 0 0 1 -1.68164,0.3457 1.2144804,1.1977823 0 0 1 -0.35156,-1.65625 v -0.002 a 1.2144804,1.1977823 0 0 1 1.02539,-0.54102 z" /><path
         id="path3868"
         style="opacity:1;fill:#00ffff;stroke:none;stroke-width:0;stroke-linecap:butt;stroke-linejoin:miter;stroke-dasharray:none;paint-order:stroke fill markers"
         d="m 235.51758,81.044922 a 3.2442443,3.2442443 0 0 0 -3.21485,2.833984 h 6.43165 a 3.2442443,3.2442443 0 0 0 -3.2168,-2.833984 z m -3.13672,4.039062 a 3.2442443,3.2442443 0 0 0 3.13672,2.449219 3.2442443,3.2442443 0 0 0 3.13867,-2.449219 z"
         inkscape:label="Test_Link" /><rect
         style="opacity:1;fill:#00ffff;stroke:none;stroke-width:0;stroke-linecap:butt;stroke-linejoin:miter;stroke-dasharray:none;paint-order:stroke fill markers"
         id="rect2888"
         width="3.9579487"
         height="7.3122234"
         x="435.15039"
         y="217.26831"
         transform="rotate(2.6724379)" /><rect
         style="opacity:1;fill:#00ffff;stroke:none;stroke-width:0;stroke-linecap:butt;stroke-linejoin:miter;stroke-dasharray:none;paint-order:stroke fill markers"
         id="rect2942"
         width="4.1714392"
         height="6.2677422"
         x="436.25098"
         y="208.40112"
         transform="matrix(0.99953579,0.03046648,-0.02795574,0.99960916,0,0)" /><rect
         style="fill:#00ffff;stroke:none;stroke-width:0;stroke-linecap:butt;stroke-linejoin:miter;stroke-dasharray:none;paint-order:stroke fill markers"
         id="rect2942-7"
         width="4.1714392"
         height="6.2677422"
         x="426.93359"
         y="207.88165"
         transform="matrix(0.99953579,0.03046648,-0.02795574,0.99960916,0,0)" /><rect
         style="fill:#00ffff;stroke:none;stroke-width:0;stroke-linecap:butt;stroke-linejoin:miter;stroke-dasharray:none;paint-order:stroke fill markers"
         id="rect2888-9"
         width="3.7096121"
         height="6.9308448"
         x="460.30902"
         y="216.2227"
         transform="matrix(0.99888764,0.04715376,-0.04610398,0.99893665,0,0)" /><rect
         style="fill:#00ffff;stroke:none;stroke-width:0;stroke-linecap:butt;stroke-linejoin:miter;stroke-dasharray:none;paint-order:stroke fill markers"
         id="rect2888-9-3"
         width="3.7096121"
         height="6.9308448"
         x="444.44617"
         y="215.67116"
         transform="matrix(0.99888764,0.04715376,-0.04610398,0.99893665,0,0)" /><path
         id="rect2888-9-3-6"
         style="fill:#00ffff;stroke:none;stroke-width:0;stroke-linecap:butt;stroke-linejoin:miter;stroke-dasharray:none;paint-order:stroke fill markers"
         inkscape:transform-center-x="0.24830145"
         inkscape:transform-center-y="0.052469569"
         d="m 176.82735,503.41851 -3.86991,-4.8e-4 2e-5,8.40314 3.87125,-10e-4 z m -0.99081,1.86455 c 0.40591,0.3683 0.26044,1.23252 -0.33043,1.41518 l -0.98382,0.0799 c -0.82705,-0.0237 -0.98884,-1.26995 -0.13733,-1.54133 l 1.08112,-0.11554 c 0.1538,0.0176 0.27679,0.0768 0.37046,0.16181 z"
         transform="matrix(0.77210019,-0.63550082,0.68263921,0.73075557,0,0)" /><path
         id="rect2888-9-3-6-6"
         style="fill:#00ffff;stroke:none;stroke-width:0;stroke-linecap:butt;stroke-linejoin:miter;stroke-dasharray:none;paint-order:stroke fill markers"
         inkscape:transform-center-x="0.24830145"
         inkscape:transform-center-y="0.052469569"
         d="m 181.67776,503.07963 -3.86991,-4.8e-4 2e-5,8.40314 3.87125,-10e-4 z m -1.10718,1.91034 c 0.40591,0.3683 0.26043,1.23253 -0.33043,1.41519 l -0.98239,0.0811 c -0.82705,-0.0237 -0.99162,-1.26967 -0.1401,-1.54106 l 1.08389,-0.11581 c 0.15379,0.0176 0.27535,0.0756 0.36903,0.16056 z"
         transform="matrix(0.77210019,-0.63550082,0.68263921,0.73075557,0,0)" /><path
         id="rect2888-9-3-6-2"
         style="fill:#00ffff;stroke:none;stroke-width:0;stroke-linecap:butt;stroke-linejoin:miter;stroke-dasharray:none;paint-order:stroke fill markers"
         inkscape:transform-center-x="0.24830145"
         inkscape:transform-center-y="0.052469569"
         d="m 186.45762,503.11238 -3.87124,0.001 -8e-5,8.40038 3.86991,4.7e-4 z m -0.9846,1.64009 c 0.40591,0.3683 0.2591,1.23403 -0.33176,1.41669 l -0.98106,0.0796 c -0.82705,-0.0237 -0.99162,-1.26968 -0.1401,-1.54106 l 1.08389,-0.11581 c 0.1538,0.0176 0.27536,0.0756 0.36903,0.16056 z"
         transform="matrix(0.77210019,-0.63550082,0.68263921,0.73075557,0,0)" /><path
         id="rect2888-9-3-6-6-6"
         style="display:inline;fill:#00ffff;stroke:none;stroke-width:0;stroke-linecap:butt;stroke-linejoin:miter;stroke-dasharray:none;paint-order:stroke fill markers"
         inkscape:transform-center-x="0.24830145"
         inkscape:transform-center-y="0.052469569"
         d="m 191.17933,502.86471 -3.86991,-4.8e-4 -7e-5,8.40039 3.86991,4.7e-4 z m -1.01534,1.71491 c 0.40591,0.3683 0.26043,1.23253 -0.33043,1.41519 l -0.98382,0.0799 c -0.82705,-0.0237 -0.99027,-1.2712 -0.13876,-1.54257 l 1.08255,-0.1143 c 0.15379,0.0175 0.27678,0.0768 0.37046,0.1618 z"
         transform="matrix(0.77210019,-0.63550082,0.68263921,0.73075557,0,0)" /><path
         id="rect2888-9-3-6-1"
         style="fill:#00ffff;stroke:none;stroke-width:0;stroke-linecap:butt;stroke-linejoin:miter;stroke-dasharray:none;paint-order:stroke fill markers"
         inkscape:transform-center-x="0.25154854"
         inkscape:transform-center-y="0.071739584"
         d="m 491.12382,267.81229 -2.96289,3.00977 6.07031,6.97071 2.96289,-3.00977 z m 2.61133,3.77735 c 0.56482,0.0112 1.04246,0.73712 0.71094,1.24609 l -0.70508,0.68164 c -0.65473,0.50829 -1.63236,-0.29766 -1.16016,-1.03711 l 0.75782,-0.77343 c 0.13073,-0.0849 0.26614,-0.11977 0.39648,-0.11719 z" /><path
         id="rect2888-9-3-6-6-8"
         style="fill:#00ffff;stroke:none;stroke-width:0;stroke-linecap:butt;stroke-linejoin:miter;stroke-dasharray:none;paint-order:stroke fill markers"
         inkscape:transform-center-x="0.24749686"
         inkscape:transform-center-y="0.067590664"
         d="m 494.45917,264.21175 -2.90235,2.7832 6.02148,6.36132 2.90235,-2.7832 z m 2.35742,4.58788 c 0.56481,0.0112 1.04246,0.73713 0.71093,1.2461 l -0.70508,0.68164 c -0.65472,0.50829 -1.63235,-0.29765 -1.16015,-1.03711 l 0.75781,-0.77149 c 0.13073,-0.0849 0.26614,-0.12172 0.39649,-0.11914 z" /><path
         id="rect2888-9-3-6-2-7"
         style="fill:#00ffff;stroke:none;stroke-width:0;stroke-linecap:butt;stroke-linejoin:miter;stroke-dasharray:none;paint-order:stroke fill markers"
         inkscape:transform-center-x="0.22893612"
         inkscape:transform-center-y="0.063636082"
         d="m 497.80901,260.94757 -2.68555,2.6211 5.57032,5.99023 2.68554,-2.62109 z m 2.61328,4.46289 c 0.56482,0.0112 1.04246,0.73713 0.71094,1.2461 l -0.70508,0.68359 c -0.65473,0.50829 -1.63236,-0.2996 -1.16016,-1.03907 l 0.75781,-0.77148 c 0.13073,-0.0849 0.26615,-0.12172 0.39649,-0.11914 z" /><path
         id="rect2888-9-3-6-6-6-9"
         style="fill:#00ffff;stroke:none;stroke-width:0;stroke-linecap:butt;stroke-linejoin:miter;stroke-dasharray:none;paint-order:stroke fill markers"
         inkscape:transform-center-x="0.21436897"
         inkscape:transform-center-y="0.067983471"
         d="m 501.54511,256.9717 -3.03711,3.29687 5.26367,5.90235 3.03516,-3.29493 z m 2.25,5.32031 c 0.56482,0.0112 1.04442,0.73712 0.71289,1.2461 l -0.70508,0.68164 c -0.65473,0.50829 -1.63235,-0.29767 -1.16015,-1.03712 l 0.75781,-0.77343 c 0.13073,-0.0849 0.26419,-0.11977 0.39453,-0.11719 z" /><path
         id="path4515-9"
         style="fill:#00ffff;stroke:none;stroke-width:0;stroke-linecap:butt;stroke-linejoin:miter;stroke-dasharray:none;paint-order:stroke fill markers"
         d="m 443.61646,227.67266 a 4.7205577,4.7205577 0 0 0 -4.7207,4.7207 4.7205577,4.7205577 0 0 0 4.7207,4.7207 4.7205577,4.7205577 0 0 0 4.7207,-4.7207 4.7205577,4.7205577 0 0 0 -4.7207,-4.7207 z m -0.008,1.68554 a 2.9829426,2.9829426 0 0 1 2.98242,2.98438 2.9829426,2.9829426 0 0 1 -2.98242,2.98242 2.9829426,2.9829426 0 0 1 -2.98438,-2.98242 2.9829426,2.9829426 0 0 1 2.98438,-2.98438 z"
         transform="translate(5.0547556e-5,0.01044989)" /></g><g
       id="layer1"
       inkscape:label="CutEdges"
       style="display:inline"
       transform="matrix(1.3333333,0,0,-1.3333333,0.04519558,793.91314)"><path
         style="display:inline;fill:none;stroke:#000000;stroke-width:0.075;stroke-linecap:butt;stroke-linejoin:miter;stroke-dasharray:none;stroke-opacity:1"
         d="m 153.74649,561.97023 -0.33479,-46.31983 29.79865,-0.26816 c 0.86713,0.0235 1.61186,0.70777 2.08536,1.46332 l 5.54762,9.95801 c 0.32497,0.56173 0.76089,0.74933 1.00644,0.75917 l 67.6995,-0.29031 5.64109,-5.74309 48.2232,-0.39234 5.55086,5.38458 29.09543,-0.0979 c 0.46662,-0.006 1.03223,-0.56333 1.04518,-0.97634 L 348.49496,423.6666 c 0.0199,-0.69008 -0.47544,-0.99335 -0.99914,-0.98664 l -3.86446,-0.0196 c -0.30783,0.004 -0.80261,0.24047 -0.80524,0.71627 l -0.10604,4.5792 -1.10053,0.60217 -25.22623,1.99521 c -0.89992,0.0125 -2.17161,-1.13027 -2.16807,-2.07595 3.1e-4,-0.0839 -0.0385,-4.42814 -0.0385,-4.42814 10e-4,-0.19335 -0.6174,-0.65716 -0.9088,-0.68062 l -4.87197,0.0764 -4.21518,0.50414 -0.54333,0.49475 -0.005,1.55736 c 0.015,0.59506 -0.86184,1.67963 -1.45377,1.68553 l -6.25796,0.0499 c -6.97816,0.0308 -8.53829,-11.57787 0.0925,-12.07513 l 5.49381,-0.034 c 0.80929,0.0884 1.52403,0.54089 1.60499,1.50649 l 0.0346,0.63966 c 0.004,0.1696 0.39407,0.53988 0.74042,0.5063 l 3.78451,-0.53631 5.01935,-0.088 c 0.3373,0.006 0.91571,-0.46483 0.89268,-0.99642 l -1.70144,-22.49905 0.096,-3.00316 c 0.0331,-0.7241 0.55863,-1.237 1.22074,-1.39347 l 12.99526,-0.0858 c 0.88026,0.003 1.25667,0.94485 1.2359,1.39325 l 0.0449,6.30279 c -0.0719,0.81202 0.82239,1.65377 1.37305,1.61639 l 1.32182,-4.8e-4 c 0.72928,0.01 1.57201,0.57718 1.56561,1.47756 l 0.0264,8.50348 c -5.9e-4,0.49469 0.61553,1.14434 1.09861,1.16157 l 7.52497,-0.0416 c 0.75454,-0.009 1.22976,0.64632 1.22916,1.17018 l 0.0712,1.72369 c 0.0106,0.47052 0.37007,0.7611 0.79661,0.78584 l 4.71691,0.11369 c 4.13984,0.43308 7.94976,4.48197 8.12312,9.35428 l 0.004,10.66987 c 0.31771,1.92388 3.53915,2.69651 4.11728,-0.009 l -0.12246,-3.67677 c 0.0491,-6.90061 4.15649,-8.71517 7.13619,-12.23368 l 0.0103,-1.13289 -12.77251,-12.55987 c -0.44733,-0.63143 -0.44195,-1.42686 0.0762,-1.92863 l 8.70456,-8.97373 c 2.35471,1.9158 4.37577,-0.98209 2.5447,-2.82541 l 5.35348,-5.45754 c 0,0 2.14049,0.006 2.02817,-0.0228 -0.11232,-0.0287 13.0124,12.90944 13.0124,12.90944 l 0.0647,14.54793 -16.29867,16.44164 0.6131,99.35937 c -0.3561,8.95818 -8.14756,21.14711 -22.25527,21.21533 l -28.1042,0.16182 -2.75037,2.86467 -19.87931,0.29319 -2.98595,-2.99463 -106.13392,0.75116 -16.38187,11.24131 z"
         id="path1123"
         sodipodi:nodetypes="cccccccccccccccccccscccccccccccccccccccccccccccccccccccccccccccccccccccccccc"
         inkscape:label="Out" /><path
         style="display:inline;fill:none;stroke:#000000;stroke-width:0.075;stroke-linecap:butt;stroke-linejoin:miter;stroke-dasharray:none;stroke-opacity:1"
         d="m 174.99887,553.15526 c -0.85233,-0.0314 -1.06622,-1.31189 -0.0626,-1.50568 l 4.28213,-0.0553 c 0.99594,0.20963 0.80133,1.36733 0.0292,1.51341 z"
         id="path8524"
         sodipodi:nodetypes="ccccc"
         inkscape:label="Inner" /><path
         style="display:inline;fill:none;stroke:#000000;stroke-width:0.075;stroke-linecap:butt;stroke-linejoin:miter;stroke-dasharray:none;stroke-opacity:1"
         d="m 174.82547,526.1863 c -0.85233,-0.0314 -1.06622,-1.31189 -0.0626,-1.50568 l 4.28213,-0.0553 c 0.99594,0.20963 0.80133,1.36733 0.0292,1.51341 z"
         id="path8524-3"
         sodipodi:nodetypes="ccccc"
         inkscape:label="Inner" /><ellipse
         style="opacity:1;fill:none;stroke:#000000;stroke-width:0.0914858;stroke-linejoin:round;stroke-dasharray:none"
         id="path8686"
         cx="306.44849"
         cy="-538.53583"
         transform="scale(1,-1)"
         rx="3.1615577"
         ry="3.1680515" /><ellipse
         style="display:inline;fill:none;stroke:#000000;stroke-width:0.0628328;stroke-linejoin:round;stroke-dasharray:none"
         id="path8686-6"
         cx="332.7189"
         cy="-421.06592"
         transform="scale(1,-1)"
         rx="2.1713719"
         ry="2.175832" /><ellipse
         style="display:inline;fill:none;stroke:#000000;stroke-width:0.060032;stroke-linejoin:round;stroke-dasharray:none"
         id="path8686-6-7"
         cx="319.42453"
         cy="-409.04514"
         transform="scale(1,-1)"
         rx="2.0745835"
         ry="2.078845" /><ellipse
         style="display:inline;fill:none;stroke:#000000;stroke-width:0.0599138;stroke-linejoin:round;stroke-dasharray:none"
         id="path8686-6-5"
         cx="326.84918"
         cy="-408.4035"
         transform="scale(1,-1)"
         rx="2.0704956"
         ry="2.0747485" /><ellipse
         style="display:inline;fill:none;stroke:#000000;stroke-width:0.0610104;stroke-linejoin:round;stroke-dasharray:none"
         id="path8686-6-3"
         cx="318.20172"
         cy="-393.71353"
         transform="scale(1,-1)"
         rx="2.1083941"
         ry="2.112725" /><ellipse
         style="display:inline;fill:none;stroke:#000000;stroke-width:0.0592348;stroke-linejoin:round;stroke-dasharray:none"
         id="path8686-6-56"
         cx="371.29871"
         cy="-411.14151"
         transform="scale(1,-1)"
         rx="2.0470314"
         ry="2.0512359" /><path
         style="fill:none;stroke:#000000;stroke-width:0.075;stroke-linecap:butt;stroke-linejoin:miter;stroke-dasharray:none;stroke-opacity:1"
         d="m 317.17939,403.01016 c -0.83862,2.71903 4.14321,3.34762 3.7546,0.269 l -0.0972,-0.77877 -0.17078,-0.21519 c -0.12048,-2.61277 -2.13499,-2.09689 -2.61561,-2.03439 -1.50155,0.4899 -1.27197,1.82233 -1.06159,2.42542 z"
         id="path8795"
         sodipodi:nodetypes="ccccccc" /><path
         style="fill:none;stroke:#000000;stroke-width:0.075;stroke-linecap:butt;stroke-linejoin:miter;stroke-dasharray:none;stroke-opacity:1"
         d="m 328.47116,417.18733 -0.32669,-4.31223 9.03774,-0.26447 0.1535,4.3085 z"
         id="path8797"
         sodipodi:nodetypes="ccccc" /><path
         style="fill:none;stroke:#000000;stroke-width:0.075;stroke-linecap:butt;stroke-linejoin:miter;stroke-dasharray:none;stroke-opacity:1"
         d="m 378.04284,413.37258 2.36736,-2.21834 c 0,0 0.0377,-10.47385 -0.0136,-10.4516 -0.0512,0.0223 -2.46197,2.48591 -2.46197,2.48591 z"
         id="path8799"
         sodipodi:nodetypes="ccccc" /><ellipse
         style="display:inline;fill:none;stroke:#000000;stroke-width:0.0258437;stroke-linejoin:round;stroke-dasharray:none"
         id="path8686-6-2"
         cx="293.15457"
         cy="-422.09335"
         transform="scale(1,-1)"
         rx="0.893103"
         ry="0.89493746" /><ellipse
         style="display:inline;fill:none;stroke:#000000;stroke-width:0.0258437;stroke-linejoin:round;stroke-dasharray:none"
         id="path8686-6-2-9"
         cx="298.95981"
         cy="-421.65106"
         transform="scale(1,-1)"
         rx="0.893103"
         ry="0.89493746" /><ellipse
         style="display:inline;fill:none;stroke:#000000;stroke-width:0.0258437;stroke-linejoin:round;stroke-dasharray:none"
         id="path8686-6-2-1"
         cx="295.86426"
         cy="-419.12561"
         transform="scale(1,-1)"
         rx="0.893103"
         ry="0.89493746" /><g
         id="g3277"
         inkscape:label="SOIC8?"><path
           style="fill:none;stroke:#000000;stroke-width:0.075;stroke-linecap:butt;stroke-linejoin:miter;stroke-dasharray:none;stroke-opacity:1"
           d="m 364.9764,406.41948 0.56801,0.57916 c 0.52292,0.33963 1.13641,-0.3759 0.83039,-0.84572 l -0.52843,-0.51201 c -0.49105,-0.38122 -1.22412,0.22398 -0.86997,0.77857 z"
           id="path8961"
           sodipodi:nodetypes="ccccc" /><path
           style="display:inline;fill:none;stroke:#000000;stroke-width:0.075;stroke-linecap:butt;stroke-linejoin:miter;stroke-dasharray:none;stroke-opacity:1"
           d="m 367.6038,408.75056 0.56801,0.57916 c 0.52292,0.33963 1.13641,-0.3759 0.83039,-0.84572 l -0.52843,-0.51201 c -0.49105,-0.38122 -1.22412,0.22398 -0.86997,0.77857 z"
           id="path8961-7"
           sodipodi:nodetypes="ccccc" /><path
           style="display:inline;fill:none;stroke:#000000;stroke-width:0.075;stroke-linecap:butt;stroke-linejoin:miter;stroke-dasharray:none;stroke-opacity:1"
           d="m 362.25906,403.95273 0.56801,0.57916 c 0.52292,0.33963 1.13641,-0.3759 0.83039,-0.84572 l -0.52843,-0.51201 c -0.49105,-0.38122 -1.22412,0.22398 -0.86997,0.77857 z"
           id="path8961-0"
           sodipodi:nodetypes="ccccc" /><path
           style="display:inline;fill:none;stroke:#000000;stroke-width:0.075;stroke-linecap:butt;stroke-linejoin:miter;stroke-dasharray:none;stroke-opacity:1"
           d="m 359.65713,401.5331 0.56801,0.57916 c 0.52292,0.33963 1.13641,-0.3759 0.83039,-0.84572 l -0.52843,-0.51201 c -0.49105,-0.38122 -1.22412,0.22398 -0.86997,0.77857 z"
           id="path8961-9"
           sodipodi:nodetypes="ccccc" /><path
           style="display:inline;fill:none;stroke:#000000;stroke-width:0.075;stroke-linecap:butt;stroke-linejoin:miter;stroke-dasharray:none;stroke-opacity:1"
           d="m 374.49269,395.7855 0.56801,0.57916 c 0.52292,0.33963 1.13641,-0.3759 0.83039,-0.84572 l -0.52843,-0.51201 c -0.49105,-0.38122 -1.22412,0.22398 -0.86997,0.77857 z"
           id="path8961-3"
           sodipodi:nodetypes="ccccc" /><path
           style="display:inline;fill:none;stroke:#000000;stroke-width:0.075;stroke-linecap:butt;stroke-linejoin:miter;stroke-dasharray:none;stroke-opacity:1"
           d="m 377.12009,398.11658 0.56801,0.57916 c 0.52292,0.33963 1.13641,-0.3759 0.83039,-0.84572 l -0.52843,-0.51201 c -0.49105,-0.38122 -1.22412,0.22398 -0.86997,0.77857 z"
           id="path8961-7-6"
           sodipodi:nodetypes="ccccc" /><path
           style="display:inline;fill:none;stroke:#000000;stroke-width:0.075;stroke-linecap:butt;stroke-linejoin:miter;stroke-dasharray:none;stroke-opacity:1"
           d="m 371.77535,393.31875 0.56801,0.57916 c 0.52292,0.33963 1.13641,-0.3759 0.83039,-0.84572 l -0.52843,-0.51201 c -0.49105,-0.38122 -1.22412,0.22398 -0.86997,0.77857 z"
           id="path8961-0-0"
           sodipodi:nodetypes="ccccc" /><path
           style="display:inline;fill:none;stroke:#000000;stroke-width:0.075;stroke-linecap:butt;stroke-linejoin:miter;stroke-dasharray:none;stroke-opacity:1"
           d="m 369.17342,390.89912 0.56801,0.57916 c 0.52292,0.33963 1.13641,-0.3759 0.83039,-0.84572 l -0.52843,-0.51201 c -0.49105,-0.38122 -1.22412,0.22398 -0.86997,0.77857 z"
           id="path8961-9-6"
           sodipodi:nodetypes="ccccc" /></g></g></g><defs
     id="defs268" /><sodipodi:namedview
     id="namedview266"
     pagecolor="#ffffff"
     bordercolor="#666666"
     borderopacity="1.0"
     inkscape:showpageshadow="2"
     inkscape:pageopacity="0.0"
     inkscape:pagecheckerboard="0"
     inkscape:deskcolor="#d1d1d1"
     showgrid="false"
     inkscape:zoom="11.313709"
     inkscape:cx="196.17794"
     inkscape:cy="76.721086"
     inkscape:window-width="2560"
     inkscape:window-height="1371"
     inkscape:window-x="0"
     inkscape:window-y="32"
     inkscape:window-maximized="1"
     inkscape:current-layer="g469"
     showguides="true"><inkscape:page
       x="0"
       y="0"
       id="page270"
       width="559.35999"
       height="793.76001" /></sodipodi:namedview></svg>
