<?xml version="1.0" encoding="UTF-8" standalone="no"?>
<!-- Created with Inkscape (http://www.inkscape.org/) -->

<svg
   version="1.1"
   id="svg264"
   width="559.35999"
   height="793.76001"
   viewBox="0 0 559.35999 793.76001"
   sodipodi:docname="Scanned_Lens_Flex.svg"
   inkscape:version="1.2.2 (b0a8486541, 2022-12-01)"
   inkscape:export-filename="Scanned_Lens_Flex.pdf"
   inkscape:export-xdpi="8818.37"
   inkscape:export-ydpi="8818.37"
   xml:space="preserve"
   xmlns:inkscape="http://www.inkscape.org/namespaces/inkscape"
   xmlns:sodipodi="http://sodipodi.sourceforge.net/DTD/sodipodi-0.dtd"
   xmlns:xlink="http://www.w3.org/1999/xlink"
   xmlns="http://www.w3.org/2000/svg"
   xmlns:svg="http://www.w3.org/2000/svg"><defs
     id="defs268" /><sodipodi:namedview
     id="namedview266"
     pagecolor="#ffffff"
     bordercolor="#666666"
     borderopacity="1.0"
     inkscape:showpageshadow="2"
     inkscape:pageopacity="0.0"
     inkscape:pagecheckerboard="0"
     inkscape:deskcolor="#d1d1d1"
     showgrid="false"
     inkscape:zoom="11.313709"
     inkscape:cx="227.02547"
     inkscape:cy="89.095452"
     inkscape:window-width="2560"
     inkscape:window-height="1371"
     inkscape:window-x="0"
     inkscape:window-y="32"
     inkscape:window-maximized="1"
     inkscape:current-layer="svg264"><inkscape:page
       x="0"
       y="0"
       id="page270"
       width="559.35999"
       height="793.76001" /></sodipodi:namedview><g
     id="g272"
     inkscape:groupmode="layer"
     inkscape:label="Page 1"
     transform="matrix(1.3333333,0,0,-1.3333333,0,793.76)"
     style="display:inline"><image
       width="419.40002"
       height="595.32001"
       preserveAspectRatio="none"
       xlink:href="Lens_Flex/Scanned_Lens_Flex.png"
       id="image2150"
       x="-0.018340912"
       y="-595.34296"
       transform="scale(1,-1)"
       style="display:inline"
       sodipodi:insensitive="true" /><g
       inkscape:groupmode="layer"
       id="layer1"
       inkscape:label="CutEdges"
       style="display:inline"><path
         style="display:inline;fill:none;stroke:#000000;stroke-width:0.075;stroke-linecap:butt;stroke-linejoin:miter;stroke-dasharray:none;stroke-opacity:1"
         d="m 153.54811,562.21103 -0.13641,-46.56063 29.79865,-0.26816 c 0.86713,0.0235 1.61186,0.70777 2.08536,1.46332 l 5.54762,9.95801 c 0.32497,0.56173 0.76089,0.74933 1.00644,0.75917 l 67.6995,-0.29031 5.64109,-5.74309 48.2232,-0.39234 5.55086,5.38458 29.09543,-0.0979 c 0.46662,-0.006 1.03223,-0.56333 1.04518,-0.97634 l -0.58247,-101.61243 c 0.0199,-0.69008 -0.47544,-0.99335 -0.99914,-0.98664 l -3.86446,-0.0196 c -0.30783,0.004 -0.80261,0.24047 -0.80524,0.71627 l -0.0475,4.55765 -1.10053,0.60217 -25.31473,2.02108 c -0.86587,0.0997 -2.08081,-1.03162 -2.07727,-1.9773 3.1e-4,-0.0839 -0.12465,-4.5749 -0.12465,-4.5749 0.001,-0.19335 -0.42195,-0.59677 -0.71335,-0.62023 l -5.06972,-0.1085 -4.19351,0.58623 -0.54333,0.49475 -0.0252,1.5964 c -0.004,0.85033 -0.63147,1.59261 -1.36257,1.64266 l -6.50746,0.0825 c -6.703,0.10346 -8.51843,-11.25657 0.047,-12.10389 l 5.71746,-0.034 c 0.80929,0.0884 1.52403,0.54089 1.60499,1.50649 l 0.0346,0.63966 c 0.004,0.1696 0.39407,0.53988 0.74042,0.5063 l 3.76284,-0.6184 5.01935,-0.088 c 0.3373,0.006 0.91571,-0.46483 0.89268,-0.99642 l -1.70144,-22.49905 0.096,-3.00316 c 0.0331,-0.7241 0.55863,-1.237 1.22074,-1.39347 l 12.99526,-0.0858 c 0.88026,0.003 1.25667,0.94485 1.2359,1.39325 l 0.0449,6.30279 c -0.0719,0.81202 0.82239,1.65377 1.37305,1.61639 l 1.32182,-4.8e-4 c 0.72928,0.01 1.57201,0.57718 1.56561,1.47756 l 0.0264,8.50348 c -5.9e-4,0.49469 0.61553,1.14434 1.09861,1.16157 l 7.52497,-0.0416 c 0.75454,-0.009 1.22976,0.64632 1.22916,1.17018 l 0.0712,1.72369 c 0.0106,0.47052 0.37007,0.7611 0.79661,0.78584 l 4.71691,0.11369 c 4.13984,0.43308 7.94976,4.48197 8.12312,9.35428 l 0.004,10.66987 c 0.31771,1.92388 3.53915,2.69651 4.11728,-0.009 l -0.12246,-3.67677 c 0.0491,-6.90061 4.15649,-8.71517 7.13619,-12.23368 l 0.0103,-1.13289 -12.77251,-12.55987 c -0.44733,-0.63143 -0.44195,-1.42686 0.0762,-1.92863 l 8.70456,-8.97373 c 2.35471,1.9158 4.37577,-0.98209 2.5447,-2.82541 l 5.35348,-5.45754 c 0,0 2.14049,0.006 2.02817,-0.0228 -0.11232,-0.0287 13.0124,12.90944 13.0124,12.90944 l 0.0647,14.54793 -16.29867,16.44164 0.6131,99.35937 c -1.43304,14.97253 -12.56305,21.24137 -22.24481,21.27775 l -28.11466,0.0994 -2.75037,2.86467 -19.87931,0.29319 -2.98595,-2.99463 -106.16651,0.93334 -16.12619,11.13675 z"
         id="path1123"
         sodipodi:nodetypes="cccccccccccccccccccscccccccccccccccccccccccccccccccccccccccccccccccccccccccc"
         inkscape:label="Out" /><path
         style="display:inline;fill:none;stroke:#000000;stroke-width:0.075;stroke-linecap:butt;stroke-linejoin:miter;stroke-dasharray:none;stroke-opacity:1"
         d="m 174.99887,553.15526 c -0.85233,-0.0314 -1.06622,-1.31189 -0.0626,-1.50568 l 4.28213,-0.0553 c 0.99594,0.20963 0.80133,1.36733 0.0292,1.51341 z"
         id="path8524"
         sodipodi:nodetypes="ccccc"
         inkscape:label="Inner" /><path
         style="display:inline;fill:none;stroke:#000000;stroke-width:0.075;stroke-linecap:butt;stroke-linejoin:miter;stroke-dasharray:none;stroke-opacity:1"
         d="m 174.84286,526.21726 c -0.85233,-0.0314 -1.06622,-1.31189 -0.0626,-1.50568 l 4.28213,-0.0553 c 0.99594,0.20963 0.80133,1.36733 0.0292,1.51341 z"
         id="path8524-3"
         sodipodi:nodetypes="ccccc"
         inkscape:label="Inner" /><ellipse
         style="opacity:1;fill:none;stroke:#000000;stroke-width:0.0914858;stroke-linejoin:round;stroke-dasharray:none"
         id="path8686"
         cx="306.44849"
         cy="-538.53583"
         transform="scale(1,-1)"
         rx="3.1615577"
         ry="3.1680515" /><ellipse
         style="display:inline;fill:none;stroke:#000000;stroke-width:0.0628328;stroke-linejoin:round;stroke-dasharray:none"
         id="path8686-6"
         cx="332.7189"
         cy="-421.06592"
         transform="scale(1,-1)"
         rx="2.1713719"
         ry="2.175832" /><ellipse
         style="display:inline;fill:none;stroke:#000000;stroke-width:0.060032;stroke-linejoin:round;stroke-dasharray:none"
         id="path8686-6-7"
         cx="319.42453"
         cy="-409.04514"
         transform="scale(1,-1)"
         rx="2.0745835"
         ry="2.078845" /><ellipse
         style="display:inline;fill:none;stroke:#000000;stroke-width:0.0599138;stroke-linejoin:round;stroke-dasharray:none"
         id="path8686-6-5"
         cx="326.84918"
         cy="-408.4035"
         transform="scale(1,-1)"
         rx="2.0704956"
         ry="2.0747485" /><ellipse
         style="display:inline;fill:none;stroke:#000000;stroke-width:0.0610104;stroke-linejoin:round;stroke-dasharray:none"
         id="path8686-6-3"
         cx="318.20172"
         cy="-393.71353"
         transform="scale(1,-1)"
         rx="2.1083941"
         ry="2.112725" /><ellipse
         style="display:inline;fill:none;stroke:#000000;stroke-width:0.0592348;stroke-linejoin:round;stroke-dasharray:none"
         id="path8686-6-56"
         cx="371.29871"
         cy="-411.14151"
         transform="scale(1,-1)"
         rx="2.0470314"
         ry="2.0512359" /><path
         style="fill:none;stroke:#000000;stroke-width:0.075;stroke-linecap:butt;stroke-linejoin:miter;stroke-dasharray:none;stroke-opacity:1"
         d="m 317.17939,403.01016 c -0.83862,2.71903 4.14321,3.34762 3.7546,0.269 l -0.0972,-0.77877 -0.17078,-0.21519 c -0.12048,-2.61277 -2.13499,-2.09689 -2.61561,-2.03439 -1.50155,0.4899 -1.27197,1.82233 -1.06159,2.42542 z"
         id="path8795"
         sodipodi:nodetypes="ccccccc" /><path
         style="fill:none;stroke:#000000;stroke-width:0.075;stroke-linecap:butt;stroke-linejoin:miter;stroke-dasharray:none;stroke-opacity:1"
         d="m 328.47116,417.18733 -0.32669,-4.31223 9.03774,-0.26447 0.1535,4.3085 z"
         id="path8797"
         sodipodi:nodetypes="ccccc" /><path
         style="fill:none;stroke:#000000;stroke-width:0.075;stroke-linecap:butt;stroke-linejoin:miter;stroke-dasharray:none;stroke-opacity:1"
         d="m 378.04284,413.37258 2.36736,-2.21834 c 0,0 0.0377,-10.47385 -0.0136,-10.4516 -0.0512,0.0223 -2.46197,2.48591 -2.46197,2.48591 z"
         id="path8799"
         sodipodi:nodetypes="ccccc" /><ellipse
         style="display:inline;fill:none;stroke:#000000;stroke-width:0.0258437;stroke-linejoin:round;stroke-dasharray:none"
         id="path8686-6-2"
         cx="293.15457"
         cy="-422.09335"
         transform="scale(1,-1)"
         rx="0.893103"
         ry="0.89493746" /><ellipse
         style="display:inline;fill:none;stroke:#000000;stroke-width:0.0258437;stroke-linejoin:round;stroke-dasharray:none"
         id="path8686-6-2-9"
         cx="298.95981"
         cy="-421.65106"
         transform="scale(1,-1)"
         rx="0.893103"
         ry="0.89493746" /><ellipse
         style="display:inline;fill:none;stroke:#000000;stroke-width:0.0258437;stroke-linejoin:round;stroke-dasharray:none"
         id="path8686-6-2-1"
         cx="295.86426"
         cy="-419.12561"
         transform="scale(1,-1)"
         rx="0.893103"
         ry="0.89493746" /><path
         style="fill:none;stroke:#000000;stroke-width:0.075;stroke-linecap:butt;stroke-linejoin:miter;stroke-dasharray:none;stroke-opacity:1"
         d="m 364.9764,406.41948 0.56801,0.57916 c 0.52292,0.33963 1.13641,-0.3759 0.83039,-0.84572 l -0.52843,-0.51201 c -0.49105,-0.38122 -1.22412,0.22398 -0.86997,0.77857 z"
         id="path8961"
         sodipodi:nodetypes="ccccc" /><path
         style="display:inline;fill:none;stroke:#000000;stroke-width:0.075;stroke-linecap:butt;stroke-linejoin:miter;stroke-dasharray:none;stroke-opacity:1"
         d="m 367.6038,408.75056 0.56801,0.57916 c 0.52292,0.33963 1.13641,-0.3759 0.83039,-0.84572 l -0.52843,-0.51201 c -0.49105,-0.38122 -1.22412,0.22398 -0.86997,0.77857 z"
         id="path8961-7"
         sodipodi:nodetypes="ccccc" /><path
         style="display:inline;fill:none;stroke:#000000;stroke-width:0.075;stroke-linecap:butt;stroke-linejoin:miter;stroke-dasharray:none;stroke-opacity:1"
         d="m 362.25906,403.95273 0.56801,0.57916 c 0.52292,0.33963 1.13641,-0.3759 0.83039,-0.84572 l -0.52843,-0.51201 c -0.49105,-0.38122 -1.22412,0.22398 -0.86997,0.77857 z"
         id="path8961-0"
         sodipodi:nodetypes="ccccc" /><path
         style="display:inline;fill:none;stroke:#000000;stroke-width:0.075;stroke-linecap:butt;stroke-linejoin:miter;stroke-dasharray:none;stroke-opacity:1"
         d="m 359.65713,401.5331 0.56801,0.57916 c 0.52292,0.33963 1.13641,-0.3759 0.83039,-0.84572 l -0.52843,-0.51201 c -0.49105,-0.38122 -1.22412,0.22398 -0.86997,0.77857 z"
         id="path8961-9"
         sodipodi:nodetypes="ccccc" /><path
         style="display:inline;fill:none;stroke:#000000;stroke-width:0.075;stroke-linecap:butt;stroke-linejoin:miter;stroke-dasharray:none;stroke-opacity:1"
         d="m 374.49269,395.7855 0.56801,0.57916 c 0.52292,0.33963 1.13641,-0.3759 0.83039,-0.84572 l -0.52843,-0.51201 c -0.49105,-0.38122 -1.22412,0.22398 -0.86997,0.77857 z"
         id="path8961-3"
         sodipodi:nodetypes="ccccc" /><path
         style="display:inline;fill:none;stroke:#000000;stroke-width:0.075;stroke-linecap:butt;stroke-linejoin:miter;stroke-dasharray:none;stroke-opacity:1"
         d="m 377.12009,398.11658 0.56801,0.57916 c 0.52292,0.33963 1.13641,-0.3759 0.83039,-0.84572 l -0.52843,-0.51201 c -0.49105,-0.38122 -1.22412,0.22398 -0.86997,0.77857 z"
         id="path8961-7-6"
         sodipodi:nodetypes="ccccc" /><path
         style="display:inline;fill:none;stroke:#000000;stroke-width:0.075;stroke-linecap:butt;stroke-linejoin:miter;stroke-dasharray:none;stroke-opacity:1"
         d="m 371.77535,393.31875 0.56801,0.57916 c 0.52292,0.33963 1.13641,-0.3759 0.83039,-0.84572 l -0.52843,-0.51201 c -0.49105,-0.38122 -1.22412,0.22398 -0.86997,0.77857 z"
         id="path8961-0-0"
         sodipodi:nodetypes="ccccc" /><path
         style="display:inline;fill:none;stroke:#000000;stroke-width:0.075;stroke-linecap:butt;stroke-linejoin:miter;stroke-dasharray:none;stroke-opacity:1"
         d="m 369.17342,390.89912 0.56801,0.57916 c 0.52292,0.33963 1.13641,-0.3759 0.83039,-0.84572 l -0.52843,-0.51201 c -0.49105,-0.38122 -1.22412,0.22398 -0.86997,0.77857 z"
         id="path8961-9-6"
         sodipodi:nodetypes="ccccc" /></g></g></svg>
